<svg aria-hidden="true" style="position: absolute; width: 0; height: 0; overflow: hidden;" version="1.1" xmlns="http://www.w3.org/2000/svg" xmlns:xlink="http://www.w3.org/1999/xlink">
<defs>
<symbol id="icon-info-with-circle" viewBox="0 0 20 20">
<path d="M10 0.4c-5.303 0-9.601 4.298-9.601 9.6 0 5.303 4.298 9.601 9.601 9.601 5.301 0 9.6-4.298 9.6-9.601s-4.299-9.6-9.6-9.6zM10.896 3.866c0.936 0 1.211 0.543 1.211 1.164 0 0.775-0.62 1.492-1.679 1.492-0.886 0-1.308-0.445-1.282-1.182 0-0.621 0.519-1.474 1.75-1.474zM8.498 15.75c-0.64 0-1.107-0.389-0.66-2.094l0.733-3.025c0.127-0.484 0.148-0.678 0-0.678-0.191 0-1.022 0.334-1.512 0.664l-0.319-0.523c1.555-1.299 3.343-2.061 4.108-2.061 0.64 0 0.746 0.756 0.427 1.92l-0.84 3.18c-0.149 0.562-0.085 0.756 0.064 0.756 0.192 0 0.82-0.232 1.438-0.719l0.362 0.486c-1.513 1.512-3.162 2.094-3.801 2.094z"></path>
</symbol>
<symbol id="icon-info" viewBox="0 0 20 20">
<path d="M12.432 0c1.34 0 2.010 0.912 2.010 1.957 0 1.305-1.164 2.512-2.679 2.512-1.269 0-2.009-0.75-1.974-1.99 0-1.043 0.881-2.479 2.643-2.479zM8.309 20c-1.058 0-1.833-0.652-1.093-3.524l1.214-5.092c0.211-0.814 0.246-1.141 0-1.141-0.317 0-1.689 0.562-2.502 1.117l-0.528-0.88c2.572-2.186 5.531-3.467 6.801-3.467 1.057 0 1.233 1.273 0.705 3.23l-1.391 5.352c-0.246 0.945-0.141 1.271 0.106 1.271 0.317 0 1.357-0.392 2.379-1.207l0.6 0.814c-2.502 2.547-5.235 3.527-6.291 3.527z"></path>
</symbol>
<symbol id="icon-bug" viewBox="0 0 26 28">
<path d="M25.5 15c0 0.547-0.453 1-1 1h-3.5c0 1.953-0.422 3.422-1.047 4.531l3.25 3.266c0.391 0.391 0.391 1.016 0 1.406-0.187 0.203-0.453 0.297-0.703 0.297s-0.516-0.094-0.703-0.297l-3.094-3.078s-2.047 1.875-4.703 1.875v-14h-2v14c-2.828 0-4.891-2.063-4.891-2.063l-2.859 3.234c-0.203 0.219-0.469 0.328-0.75 0.328-0.234 0-0.469-0.078-0.672-0.25-0.406-0.375-0.438-1-0.078-1.422l3.156-3.547c-0.547-1.078-0.906-2.469-0.906-4.281h-3.5c-0.547 0-1-0.453-1-1s0.453-1 1-1h3.5v-4.594l-2.703-2.703c-0.391-0.391-0.391-1.016 0-1.406s1.016-0.391 1.406 0l2.703 2.703h13.188l2.703-2.703c0.391-0.391 1.016-0.391 1.406 0s0.391 1.016 0 1.406l-2.703 2.703v4.594h3.5c0.547 0 1 0.453 1 1zM18 6h-10c0-2.766 2.234-5 5-5s5 2.234 5 5z"></path>
</symbol>
<symbol id="icon-error" viewBox="0 0 24 24">
<path d="M12.984 12.984v-6h-1.969v6h1.969zM12.984 17.016v-2.016h-1.969v2.016h1.969zM12 2.016q4.125 0 7.055 2.93t2.93 7.055-2.93 7.055-7.055 2.93-7.055-2.93-2.93-7.055 2.93-7.055 7.055-2.93z"></path>
</symbol>
<symbol id="icon-error_outline" viewBox="0 0 24 24">
<path d="M12 20.016q3.281 0 5.648-2.367t2.367-5.648-2.367-5.648-5.648-2.367-5.648 2.367-2.367 5.648 2.367 5.648 5.648 2.367zM12 2.016q4.125 0 7.055 2.93t2.93 7.055-2.93 7.055-7.055 2.93-7.055-2.93-2.93-7.055 2.93-7.055 7.055-2.93zM11.016 6.984h1.969v6h-1.969v-6zM11.016 15h1.969v2.016h-1.969v-2.016z"></path>
</symbol>
<symbol id="icon-warning" viewBox="0 0 24 24">
<path d="M12.984 14.016v-4.031h-1.969v4.031h1.969zM12.984 18v-2.016h-1.969v2.016h1.969zM0.984 21l11.016-18.984 11.016 18.984h-22.031z"></path>
</symbol>
<symbol id="icon-equalizer" viewBox="0 0 24 24">
<path d="M15.984 9h4.031v11.016h-4.031v-11.016zM3.984 20.016v-8.016h4.031v8.016h-4.031zM9.984 20.016v-16.031h4.031v16.031h-4.031z"></path>
</symbol>
<symbol id="icon-fast_forward" viewBox="0 0 24 24">
<path d="M12.984 6l8.531 6-8.531 6v-12zM3.984 18v-12l8.531 6z"></path>
</symbol>
<symbol id="icon-fast_rewind" viewBox="0 0 24 24">
<path d="M11.484 12l8.531-6v12zM11.016 18l-8.531-6 8.531-6v12z"></path>
</symbol>
<symbol id="icon-loop" viewBox="0 0 24 24">
<path d="M12 18v-3l3.984 3.984-3.984 4.031v-3q-3.281 0-5.648-2.367t-2.367-5.648q0-2.344 1.266-4.266l1.453 1.453q-0.703 1.266-0.703 2.813 0 2.484 1.758 4.242t4.242 1.758zM12 3.984q3.281 0 5.648 2.367t2.367 5.648q0 2.344-1.266 4.266l-1.453-1.453q0.703-1.266 0.703-2.813 0-2.484-1.758-4.242t-4.242-1.758v3l-3.984-3.984 3.984-4.031v3z"></path>
</symbol>
<symbol id="icon-mic" viewBox="0 0 24 24">
<path d="M17.297 11.016h1.688q0 2.531-1.758 4.43t-4.242 2.273v3.281h-1.969v-3.281q-2.484-0.375-4.242-2.273t-1.758-4.43h1.688q0 2.203 1.57 3.633t3.727 1.43 3.727-1.43 1.57-3.633zM12 14.016q-1.219 0-2.109-0.891t-0.891-2.109v-6q0-1.219 0.891-2.109t2.109-0.891 2.109 0.891 0.891 2.109v6q0 1.219-0.891 2.109t-2.109 0.891z"></path>
</symbol>
<symbol id="icon-mic_none" viewBox="0 0 24 24">
<path d="M17.297 11.016h1.688q0 2.531-1.758 4.43t-4.242 2.273v3.281h-1.969v-3.281q-2.484-0.375-4.242-2.273t-1.758-4.43h1.688q0 2.203 1.57 3.633t3.727 1.43 3.727-1.43 1.57-3.633zM10.781 4.922v6.188q0 0.469 0.352 0.82t0.867 0.352q0.469 0 0.82-0.328t0.352-0.844l0.047-6.188q0-0.516-0.375-0.867t-0.844-0.352-0.844 0.352-0.375 0.867zM12 14.016q-1.219 0-2.109-0.891t-0.891-2.109v-6q0-1.219 0.891-2.109t2.109-0.891 2.109 0.891 0.891 2.109v6q0 1.219-0.891 2.109t-2.109 0.891z"></path>
</symbol>
<symbol id="icon-mic_off" viewBox="0 0 24 24">
<path d="M4.266 3l16.734 16.734-1.266 1.266-4.172-4.172q-1.031 0.656-2.578 0.891v3.281h-1.969v-3.281q-2.484-0.375-4.242-2.273t-1.758-4.43h1.688q0 2.203 1.57 3.633t3.727 1.43q1.172 0 2.297-0.516l-1.641-1.641q-0.375 0.094-0.656 0.094-1.219 0-2.109-0.891t-0.891-2.109v-0.75l-6-6zM15 11.156l-6-5.953v-0.188q0-1.219 0.891-2.109t2.109-0.891 2.109 0.891 0.891 2.109v6.141zM18.984 11.016q0 1.734-0.891 3.281l-1.219-1.266q0.422-0.938 0.422-2.016h1.688z"></path>
</symbol>
<symbol id="icon-movie" viewBox="0 0 24 24">
<path d="M18 3.984h3.984v14.016q0 0.797-0.586 1.406t-1.383 0.609h-16.031q-0.797 0-1.383-0.609t-0.586-1.406v-12q0-0.797 0.586-1.406t1.383-0.609h1.031l1.969 4.031h3l-1.969-4.031h1.969l2.016 4.031h3l-2.016-4.031h2.016l2.016 4.031h3z"></path>
</symbol>
<symbol id="icon-library_add" viewBox="0 0 24 24">
<path d="M18.984 11.016v-2.016h-3.984v-3.984h-2.016v3.984h-3.984v2.016h3.984v3.984h2.016v-3.984h3.984zM20.016 2.016q0.797 0 1.383 0.586t0.586 1.383v12q0 0.797-0.586 1.406t-1.383 0.609h-12q-0.797 0-1.406-0.609t-0.609-1.406v-12q0-0.797 0.609-1.383t1.406-0.586h12zM3.984 6v14.016h14.016v1.969h-14.016q-0.797 0-1.383-0.586t-0.586-1.383v-14.016h1.969z"></path>
</symbol>
<symbol id="icon-library_books" viewBox="0 0 24 24">
<path d="M18.984 6.984v-1.969h-9.984v1.969h9.984zM15 15v-2.016h-6v2.016h6zM18.984 11.016v-2.016h-9.984v2.016h9.984zM20.016 2.016q0.797 0 1.383 0.586t0.586 1.383v12q0 0.797-0.586 1.406t-1.383 0.609h-12q-0.797 0-1.406-0.609t-0.609-1.406v-12q0-0.797 0.609-1.383t1.406-0.586h12zM3.984 6v14.016h14.016v1.969h-14.016q-0.797 0-1.383-0.586t-0.586-1.383v-14.016h1.969z"></path>
</symbol>
<symbol id="icon-library_music" viewBox="0 0 24 24">
<path d="M3.984 6v14.016h14.016v1.969h-14.016q-0.797 0-1.383-0.586t-0.586-1.383v-14.016h1.969zM18 6.984v-1.969h-3.984v5.484q-0.656-0.516-1.5-0.516-1.031 0-1.781 0.75t-0.75 1.781 0.75 1.758 1.781 0.727 1.758-0.727 0.727-1.758v-5.531h3zM20.016 2.016q0.797 0 1.383 0.586t0.586 1.383v12q0 0.797-0.586 1.406t-1.383 0.609h-12q-0.797 0-1.406-0.609t-0.609-1.406v-12q0-0.797 0.609-1.383t1.406-0.586h12z"></path>
</symbol>
<symbol id="icon-new_releases" viewBox="0 0 24 24">
<path d="M12.984 12.984v-6h-1.969v6h1.969zM12.984 17.016v-2.016h-1.969v2.016h1.969zM23.016 12l-2.438 2.766 0.328 3.703-3.609 0.797-1.875 3.188-3.422-1.453-3.422 1.453-1.875-3.141-3.609-0.844 0.328-3.703-2.438-2.766 2.438-2.813-0.328-3.656 3.609-0.797 1.875-3.188 3.422 1.453 3.422-1.453 1.875 3.188 3.609 0.797-0.328 3.703z"></path>
</symbol>
<symbol id="icon-not_interested" viewBox="0 0 24 24">
<path d="M18.328 16.922q1.688-2.109 1.688-4.922 0-3.281-2.367-5.648t-5.648-2.367q-1.125 0-2.578 0.492t-2.344 1.195zM12 20.016q1.125 0 2.578-0.492t2.344-1.195l-11.25-11.25q-1.688 2.109-1.688 4.922 0 3.281 2.367 5.648t5.648 2.367zM12 2.016q4.125 0 7.055 2.93t2.93 7.055-2.93 7.055-7.055 2.93-7.055-2.93-2.93-7.055 2.93-7.055 7.055-2.93z"></path>
</symbol>
<symbol id="icon-pause" viewBox="0 0 24 24">
<path d="M14.016 5.016h3.984v13.969h-3.984v-13.969zM6 18.984v-13.969h3.984v13.969h-3.984z"></path>
</symbol>
<symbol id="icon-pause_circle_filled" viewBox="0 0 24 24">
<path d="M15 15.984v-7.969h-2.016v7.969h2.016zM11.016 15.984v-7.969h-2.016v7.969h2.016zM12 2.016q4.125 0 7.055 2.93t2.93 7.055-2.93 7.055-7.055 2.93-7.055-2.93-2.93-7.055 2.93-7.055 7.055-2.93z"></path>
</symbol>
<symbol id="icon-pause_circle_outline" viewBox="0 0 24 24">
<path d="M12.984 15.984v-7.969h2.016v7.969h-2.016zM12 20.016q3.281 0 5.648-2.367t2.367-5.648-2.367-5.648-5.648-2.367-5.648 2.367-2.367 5.648 2.367 5.648 5.648 2.367zM12 2.016q4.125 0 7.055 2.93t2.93 7.055-2.93 7.055-7.055 2.93-7.055-2.93-2.93-7.055 2.93-7.055 7.055-2.93zM9 15.984v-7.969h2.016v7.969h-2.016z"></path>
</symbol>
<symbol id="icon-play_arrow" viewBox="0 0 24 24">
<path d="M8.016 5.016l10.969 6.984-10.969 6.984v-13.969z"></path>
</symbol>
<symbol id="icon-play_circle_filled" viewBox="0 0 24 24">
<path d="M9.984 16.5l6-4.5-6-4.5v9zM12 2.016q4.125 0 7.055 2.93t2.93 7.055-2.93 7.055-7.055 2.93-7.055-2.93-2.93-7.055 2.93-7.055 7.055-2.93z"></path>
</symbol>
<symbol id="icon-play_circle_outline" viewBox="0 0 24 24">
<path d="M12 20.016q3.281 0 5.648-2.367t2.367-5.648-2.367-5.648-5.648-2.367-5.648 2.367-2.367 5.648 2.367 5.648 5.648 2.367zM12 2.016q4.125 0 7.055 2.93t2.93 7.055-2.93 7.055-7.055 2.93-7.055-2.93-2.93-7.055 2.93-7.055 7.055-2.93zM9.984 16.5v-9l6 4.5z"></path>
</symbol>
<symbol id="icon-playlist_add" viewBox="0 0 24 24">
<path d="M2.016 15.984v-1.969h7.969v1.969h-7.969zM18 14.016h3.984v1.969h-3.984v4.031h-2.016v-4.031h-3.984v-1.969h3.984v-4.031h2.016v4.031zM14.016 6v2.016h-12v-2.016h12zM14.016 9.984v2.016h-12v-2.016h12z"></path>
</symbol>
<symbol id="icon-queue_music" viewBox="0 0 24 24">
<path d="M17.016 6h4.969v2.016h-3v9q0 1.219-0.891 2.109t-2.109 0.891-2.109-0.891-0.891-2.109 0.891-2.109 2.109-0.891q0.375 0 1.031 0.188v-8.203zM3 15.984v-1.969h8.016v1.969h-8.016zM15 9.984v2.016h-12v-2.016h12zM15 6v2.016h-12v-2.016h12z"></path>
</symbol>
<symbol id="icon-radio" viewBox="0 0 24 24">
<path d="M20.016 12v-3.984h-16.031v3.984h12v-2.016h2.016v2.016h2.016zM6.984 20.016q1.219 0 2.109-0.891t0.891-2.109-0.891-2.109-2.109-0.891-2.109 0.891-0.891 2.109 0.891 2.109 2.109 0.891zM3.234 6.141l12.656-5.156 0.656 1.688-8.25 3.328h11.719q0.844 0 1.406 0.586t0.563 1.43v12q0 0.844-0.563 1.406t-1.406 0.563h-16.031q-0.844 0-1.406-0.563t-0.563-1.406v-12q0-1.406 1.219-1.875z"></path>
</symbol>
<symbol id="icon-recent_actors" viewBox="0 0 24 24">
<path d="M12.516 17.016v-0.75q0-1.031-1.547-1.641t-2.953-0.609-2.953 0.609-1.547 1.641v0.75h9zM8.016 7.734q-0.891 0-1.57 0.68t-0.68 1.57 0.68 1.57 1.57 0.68 1.57-0.68 0.68-1.57-0.68-1.57-1.57-0.68zM14.016 5.016q0.422 0 0.703 0.281t0.281 0.703v12q0 0.422-0.281 0.703t-0.703 0.281h-12q-0.422 0-0.727-0.281t-0.305-0.703v-12q0-0.422 0.305-0.703t0.727-0.281h12zM17.016 18.984v-13.969h1.969v13.969h-1.969zM21 5.016h2.016v13.969h-2.016v-13.969z"></path>
</symbol>
<symbol id="icon-replay" viewBox="0 0 24 24">
<path d="M12 5.016q3.328 0 5.672 2.344t2.344 5.625q0 3.328-2.367 5.672t-5.648 2.344-5.648-2.344-2.367-5.672h2.016q0 2.484 1.758 4.242t4.242 1.758 4.242-1.758 1.758-4.242-1.758-4.242-4.242-1.758v4.031l-5.016-5.016 5.016-5.016v4.031z"></path>
</symbol>
<symbol id="icon-shuffle" viewBox="0 0 24 24">
<path d="M14.813 13.406l3.141 3.141 2.063-2.063v5.531h-5.531l2.063-2.063-3.141-3.141zM14.484 3.984h5.531v5.531l-2.063-2.063-12.563 12.563-1.406-1.406 12.563-12.563zM10.594 9.188l-1.406 1.406-5.203-5.203 1.406-1.406z"></path>
</symbol>
<symbol id="icon-skip_next" viewBox="0 0 24 24">
<path d="M15.984 6h2.016v12h-2.016v-12zM6 18v-12l8.484 6z"></path>
</symbol>
<symbol id="icon-skip_previous" viewBox="0 0 24 24">
<path d="M9.516 12l8.484-6v12zM6 6h2.016v12h-2.016v-12z"></path>
</symbol>
<symbol id="icon-video_library" viewBox="0 0 24 24">
<path d="M12 14.484l6-4.5-6-4.5v9zM20.016 2.016q0.797 0 1.383 0.586t0.586 1.383v12q0 0.797-0.586 1.406t-1.383 0.609h-12q-0.797 0-1.406-0.609t-0.609-1.406v-12q0-0.797 0.609-1.383t1.406-0.586h12zM3.984 6v14.016h14.016v1.969h-14.016q-0.797 0-1.383-0.586t-0.586-1.383v-14.016h1.969z"></path>
</symbol>
<symbol id="icon-videocam_off" viewBox="0 0 24 24">
<path d="M3.281 2.016l17.719 17.719-1.266 1.266-3.188-3.188q-0.281 0.188-0.563 0.188h-12q-0.422 0-0.703-0.281t-0.281-0.703v-10.031q0-0.422 0.281-0.703t0.703-0.281h0.75l-2.719-2.719zM21 6.516v10.688l-11.203-11.203h6.188q0.422 0 0.727 0.281t0.305 0.703v3.516z"></path>
</symbol>
<symbol id="icon-volume_down" viewBox="0 0 24 24">
<path d="M5.016 9h3.984l5.016-5.016v16.031l-5.016-5.016h-3.984v-6zM18.516 12q0 2.766-2.531 4.031v-8.063q1.031 0.516 1.781 1.711t0.75 2.32z"></path>
</symbol>
<symbol id="icon-volume_mute" viewBox="0 0 24 24">
<path d="M6.984 9h4.031l4.969-5.016v16.031l-4.969-5.016h-4.031v-6z"></path>
</symbol>
<symbol id="icon-volume_off" viewBox="0 0 24 24">
<path d="M12 3.984v4.219l-2.109-2.109zM4.266 3l16.734 16.734-1.266 1.266-2.063-2.063q-1.547 1.313-3.656 1.828v-2.063q1.172-0.328 2.25-1.172l-4.266-4.266v6.75l-5.016-5.016h-3.984v-6h4.734l-4.734-4.734zM18.984 12q0-2.391-1.383-4.219t-3.586-2.484v-2.063q3.047 0.656 5.016 3.117t1.969 5.648q0 2.203-1.031 4.172l-1.5-1.547q0.516-1.266 0.516-2.625zM16.5 12q0 0.422-0.047 0.609l-2.438-2.438v-2.203q1.031 0.516 1.758 1.688t0.727 2.344z"></path>
</symbol>
<symbol id="icon-volume_up" viewBox="0 0 24 24">
<path d="M14.016 3.234q3.047 0.656 5.016 3.117t1.969 5.648-1.969 5.648-5.016 3.117v-2.063q2.203-0.656 3.586-2.484t1.383-4.219-1.383-4.219-3.586-2.484v-2.063zM16.5 12q0 2.813-2.484 4.031v-8.063q1.031 0.516 1.758 1.688t0.727 2.344zM3 9h3.984l5.016-5.016v16.031l-5.016-5.016h-3.984v-6z"></path>
</symbol>
<symbol id="icon-contacts" viewBox="0 0 24 24">
<path d="M17.016 17.016v-1.5q0-1.125-1.711-1.828t-3.305-0.703-3.305 0.703-1.711 1.828v1.5h10.031zM12 6.75q-0.938 0-1.594 0.656t-0.656 1.594 0.656 1.594 1.594 0.656 1.594-0.656 0.656-1.594-0.656-1.594-1.594-0.656zM20.016 3.984q0.797 0 1.383 0.609t0.586 1.406v12q0 0.797-0.586 1.406t-1.383 0.609h-16.031q-0.797 0-1.383-0.609t-0.586-1.406v-12q0-0.797 0.586-1.406t1.383-0.609h16.031zM3.984 24v-2.016h16.031v2.016h-16.031zM20.016 0v2.016h-16.031v-2.016h16.031z"></path>
</symbol>
<symbol id="icon-email1" viewBox="0 0 24 24">
<path d="M20.016 8.016v-2.016l-8.016 5.016-8.016-5.016v2.016l8.016 4.969zM20.016 3.984q0.797 0 1.383 0.609t0.586 1.406v12q0 0.797-0.586 1.406t-1.383 0.609h-16.031q-0.797 0-1.383-0.609t-0.586-1.406v-12q0-0.797 0.586-1.406t1.383-0.609h16.031z"></path>
</symbol>
<symbol id="icon-forum" viewBox="0 0 24 24">
<path d="M17.016 12q0 0.422-0.305 0.703t-0.727 0.281h-9.984l-3.984 4.031v-14.016q0-0.422 0.281-0.703t0.703-0.281h12.984q0.422 0 0.727 0.281t0.305 0.703v9zM21 6q0.422 0 0.703 0.281t0.281 0.703v15l-3.984-3.984h-11.016q-0.422 0-0.703-0.281t-0.281-0.703v-2.016h12.984v-9h2.016z"></path>
</symbol>
<symbol id="icon-live_help" viewBox="0 0 24 24">
<path d="M15.047 10.266q0.938-0.938 0.938-2.25 0-1.641-1.172-2.836t-2.813-1.195-2.813 1.195-1.172 2.836h1.969q0-0.797 0.609-1.406t1.406-0.609 1.406 0.609 0.609 1.406-0.609 1.406l-1.219 1.266q-1.172 1.266-1.172 2.813v0.516h1.969q0-1.594 1.172-2.859zM12.984 18v-2.016h-1.969v2.016h1.969zM18.984 2.016q0.797 0 1.406 0.586t0.609 1.383v14.016q0 0.797-0.609 1.406t-1.406 0.609h-3.984l-3 3-3-3h-3.984q-0.844 0-1.43-0.586t-0.586-1.43v-14.016q0-0.844 0.586-1.406t1.43-0.563h13.969z"></path>
</symbol>
<symbol id="icon-contact_mail" viewBox="0 0 24 24">
<path d="M21.984 12v-6h-7.969v6h7.969zM14.016 18v-0.984q0-1.359-2.063-2.227t-3.938-0.867-3.938 0.867-2.063 2.227v0.984h12zM8.016 6q-1.219 0-2.109 0.891t-0.891 2.109 0.891 2.109 2.109 0.891 2.109-0.891 0.891-2.109-0.891-2.109-2.109-0.891zM21.984 3q0.797 0 1.406 0.609t0.609 1.406v13.969q0 0.797-0.609 1.406t-1.406 0.609h-19.969q-0.797 0-1.406-0.609t-0.609-1.406v-13.969q0-0.797 0.609-1.406t1.406-0.609h19.969zM21 8.016l-3 1.969-3-1.969v-1.031l3 2.016 3-2.016v1.031z"></path>
</symbol>
<symbol id="icon-textsms" viewBox="0 0 24 24">
<path d="M17.016 11.016v-2.016h-2.016v2.016h2.016zM12.984 11.016v-2.016h-1.969v2.016h1.969zM9 11.016v-2.016h-2.016v2.016h2.016zM20.016 2.016q0.797 0 1.383 0.586t0.586 1.383v12q0 0.797-0.586 1.406t-1.383 0.609h-14.016l-3.984 3.984v-18q0-0.797 0.586-1.383t1.383-0.586h16.031z"></path>
</symbol>
<symbol id="icon-mail_outline" viewBox="0 0 24 24">
<path d="M12 11.016l8.016-5.016h-16.031zM20.016 18v-9.984l-8.016 4.969-8.016-4.969v9.984h16.031zM20.016 3.984q0.797 0 1.383 0.609t0.586 1.406v12q0 0.797-0.586 1.406t-1.383 0.609h-16.031q-0.797 0-1.383-0.609t-0.586-1.406v-12q0-0.797 0.586-1.406t1.383-0.609h16.031z"></path>
</symbol>
<symbol id="icon-alternate_email" viewBox="0 0 24 24">
<path d="M12 15q1.219 0 2.109-0.891t0.891-2.109-0.891-2.109-2.109-0.891-2.109 0.891-0.891 2.109 0.891 2.109 2.109 0.891zM12 2.016q4.125 0 7.055 2.93t2.93 7.055v1.453q0 1.5-1.008 2.531t-2.461 1.031q-1.828 0-2.953-1.5-1.5 1.5-3.563 1.5t-3.539-1.477-1.477-3.539 1.477-3.539 3.539-1.477 3.539 1.477 1.477 3.539v1.453q0 0.609 0.445 1.078t1.055 0.469 1.055-0.469 0.445-1.078v-1.453q0-3.281-2.367-5.648t-5.648-2.367-5.648 2.367-2.367 5.648 2.367 5.648 5.648 2.367h5.016v1.969h-5.016q-4.125 0-7.055-2.93t-2.93-7.055 2.93-7.055 7.055-2.93z"></path>
</symbol>
<symbol id="icon-add" viewBox="0 0 24 24">
<path d="M18.984 12.984h-6v6h-1.969v-6h-6v-1.969h6v-6h1.969v6h6v1.969z"></path>
</symbol>
<symbol id="icon-clear" viewBox="0 0 24 24">
<path d="M18.984 6.422l-5.578 5.578 5.578 5.578-1.406 1.406-5.578-5.578-5.578 5.578-1.406-1.406 5.578-5.578-5.578-5.578 1.406-1.406 5.578 5.578 5.578-5.578z"></path>
</symbol>
<symbol id="icon-create" viewBox="0 0 24 24">
<path d="M20.719 7.031l-1.828 1.828-3.75-3.75 1.828-1.828q0.281-0.281 0.703-0.281t0.703 0.281l2.344 2.344q0.281 0.281 0.281 0.703t-0.281 0.703zM3 17.25l11.063-11.063 3.75 3.75-11.063 11.063h-3.75v-3.75z"></path>
</symbol>
<symbol id="icon-drafts" viewBox="0 0 24 24">
<path d="M12 12.984l8.25-5.156-8.25-4.828-8.25 4.828zM21.984 8.016v9.984q0 0.797-0.586 1.406t-1.383 0.609h-16.031q-0.797 0-1.383-0.609t-0.586-1.406v-9.984q0-1.172 0.938-1.734l9.047-5.297 9.047 5.297q0.938 0.563 0.938 1.734z"></path>
</symbol>
<symbol id="icon-flag" viewBox="0 0 24 24">
<path d="M14.391 6h5.625v9.984h-7.031l-0.375-1.969h-5.625v6.984h-1.969v-17.016h9z"></path>
</symbol>
<symbol id="icon-gesture" viewBox="0 0 24 24">
<path d="M13.875 18.563q0.656 0 1.313-0.867t0.844-2.648q-1.406 0.375-2.156 1.266t-0.75 1.5q0 0.328 0.234 0.539t0.516 0.211zM4.594 6.891l-1.734-1.688q0.469-0.563 0.844-0.938 1.266-1.266 2.719-1.266 0.891 0 1.711 0.703t0.82 2.156q0 1.406-1.313 3.281-1.313 1.828-1.828 3.516-0.281 0.797-0.164 1.359t0.492 0.563q0.422 0 1.125-0.844 1.031-1.031 2.297-2.719 2.25-2.813 4.922-2.813 1.969 0 2.93 1.289t1.102 2.883h2.484v2.484h-2.438q-0.281 3.234-1.734 4.688t-3 1.453q-1.313 0-2.25-0.914t-0.938-2.18q0-1.547 1.406-3.234t3.984-2.156q-0.047-0.375-0.070-0.516t-0.141-0.445-0.281-0.445-0.492-0.258-0.797-0.117q-1.313 0-4.078 3.422-0.797 0.984-1.102 1.336t-0.867 0.82-1.078 0.609q-1.641 0.516-2.813-0.609t-1.172-2.813q0-0.703 0.258-1.547t0.68-1.641 0.797-1.43 0.727-1.148 0.398-0.563q0.797-1.313 0.281-1.5-0.328-0.141-1.688 1.219z"></path>
</symbol>
<symbol id="icon-remove" viewBox="0 0 24 24">
<path d="M18.984 12.984h-13.969v-1.969h13.969v1.969z"></path>
</symbol>
<symbol id="icon-report" viewBox="0 0 24 24">
<path d="M12.984 12.984v-6h-1.969v6h1.969zM12 17.297q0.516 0 0.914-0.398t0.398-0.914-0.398-0.891-0.914-0.375-0.914 0.375-0.398 0.891 0.398 0.914 0.914 0.398zM15.75 3l5.25 5.25v7.5l-5.25 5.25h-7.5l-5.25-5.25v-7.5l5.25-5.25h7.5z"></path>
</symbol>
<symbol id="icon-ballot" viewBox="0 0 24 24">
<path d="M6.984 14.016h3v3h-3v-3zM6 18h5.016v-5.016h-5.016v5.016zM6.984 6.984h3v3h-3v-3zM6 11.016h5.016v-5.016h-5.016v5.016zM18.984 21h-13.969q-0.797 0-1.406-0.609t-0.609-1.406v-13.969q0-0.797 0.609-1.406t1.406-0.609h13.969q0.797 0 1.406 0.609t0.609 1.406v13.969q0 0.797-0.609 1.406t-1.406 0.609zM12.984 16.5h5.016v-2.016h-5.016v2.016zM12.984 9.516h5.016v-2.016h-5.016v2.016z"></path>
</symbol>
<symbol id="icon-file_copy" viewBox="0 0 24 24">
<path d="M14.016 12h5.484l-5.484-5.484v5.484zM15 5.016l6 6v9.984q0 0.797-0.609 1.406t-1.406 0.609h-11.016q-0.797 0-1.383-0.609t-0.586-1.406v-14.016q0-0.797 0.609-1.383t1.406-0.586h6.984zM15.984 0.984v2.016h-12v14.016h-1.969v-14.016q0-0.797 0.586-1.406t1.383-0.609h12z"></path>
</symbol>
<symbol id="icon-inventory" viewBox="0 0 24 24">
<path d="M20.016 6.984v-3h-16.031v3h16.031zM15 14.016v-2.016h-6v2.016h6zM20.016 2.016q0.75 0 1.359 0.586t0.609 1.383v3.047q0 1.125-0.984 1.688v11.297q0 0.797-0.656 1.383t-1.359 0.586h-13.969q-0.703 0-1.359-0.586t-0.656-1.383v-11.297q-0.984-0.563-0.984-1.688v-3.047q0-0.797 0.609-1.383t1.359-0.586h16.031z"></path>
</symbol>
<symbol id="icon-developer_mode" viewBox="0 0 24 24">
<path d="M17.016 18.984v-1.969h1.969v3.984q0 0.797-0.586 1.406t-1.383 0.609h-10.031q-0.797 0-1.383-0.609t-0.586-1.406v-3.984h1.969v1.969h10.031zM9.984 15.188l-1.406 1.406-4.594-4.594 4.594-4.594 1.406 1.406-3.141 3.188zM15.422 16.594l-1.406-1.406 3.141-3.188-3.141-3.188 1.406-1.406 4.594 4.594zM6.984 5.016v1.969h-1.969v-3.984q0-0.797 0.586-1.406t1.383-0.609l10.031 0.047q0.797 0 1.383 0.586t0.586 1.383v3.984h-1.969v-1.969h-10.031z"></path>
</symbol>
<symbol id="icon-devices" viewBox="0 0 24 24">
<path d="M21.984 17.016v-7.031h-3.984v7.031h3.984zM23.016 8.016q0.422 0 0.703 0.281t0.281 0.703v9.984q0 0.422-0.281 0.727t-0.703 0.305h-6q-0.422 0-0.727-0.305t-0.305-0.727v-9.984q0-0.422 0.305-0.703t0.727-0.281h6zM3.984 6v11.016h10.031v3h-14.016v-3h2.016v-11.016q0-0.797 0.586-1.406t1.383-0.609h18v2.016h-18z"></path>
</symbol>
<symbol id="icon-dvr" viewBox="0 0 24 24">
<path d="M6.984 12v2.016h-1.969v-2.016h1.969zM6.984 8.016v1.969h-1.969v-1.969h1.969zM18.984 12v2.016h-10.969v-2.016h10.969zM18.984 8.016v1.969h-10.969v-1.969h10.969zM21 17.016v-12h-18v12h18zM21 3q0.797 0 1.406 0.609t0.609 1.406l-0.047 12q0 0.797-0.586 1.383t-1.383 0.586h-5.016v2.016h-7.969v-2.016h-5.016q-0.797 0-1.406-0.586t-0.609-1.383v-12q0-0.797 0.609-1.406t1.406-0.609h18z"></path>
</symbol>
<symbol id="icon-now_widgets" viewBox="0 0 24 24">
<path d="M16.641 1.688l5.672 5.672-5.672 5.625h4.359v8.016h-8.016v-8.016h3.656l-5.625-5.625v3.656h-8.016v-8.016h8.016v4.359zM3 21v-8.016h8.016v8.016h-8.016z"></path>
</symbol>
<symbol id="icon-storage" viewBox="0 0 24 24">
<path d="M3.984 11.016v1.969h2.016v-1.969h-2.016zM2.016 14.016v-4.031h19.969v4.031h-19.969zM6 6.984v-1.969h-2.016v1.969h2.016zM2.016 3.984h19.969v4.031h-19.969v-4.031zM3.984 17.016v1.969h2.016v-1.969h-2.016zM2.016 20.016v-4.031h19.969v4.031h-19.969z"></path>
</symbol>
<symbol id="icon-insert_chart" viewBox="0 0 24 24">
<path d="M17.016 17.016v-4.031h-2.016v4.031h2.016zM12.984 17.016v-10.031h-1.969v10.031h1.969zM9 17.016v-7.031h-2.016v7.031h2.016zM18.984 3q0.797 0 1.406 0.609t0.609 1.406v13.969q0 0.797-0.609 1.406t-1.406 0.609h-13.969q-0.797 0-1.406-0.609t-0.609-1.406v-13.969q0-0.797 0.609-1.406t1.406-0.609h13.969z"></path>
</symbol>
<symbol id="icon-insert_photo" viewBox="0 0 24 24">
<path d="M8.484 13.5l-3.469 4.5h13.969l-4.5-6-3.469 4.5zM21 18.984q0 0.797-0.609 1.406t-1.406 0.609h-13.969q-0.797 0-1.406-0.609t-0.609-1.406v-13.969q0-0.797 0.609-1.406t1.406-0.609h13.969q0.797 0 1.406 0.609t0.609 1.406v13.969z"></path>
</symbol>
<symbol id="icon-insert_chart_outlined" viewBox="0 0 24 24">
<path d="M19.5 3q0.797 0 1.406 0.609t0.609 1.406v13.969q0 0.797-0.609 1.406t-1.406 0.609h-15q-0.797 0-1.406-0.609t-0.609-1.406v-13.969q0-0.797 0.609-1.406t1.406-0.609h15zM19.5 19.078v-14.063h-15v14.063h15zM17.016 17.016h-2.016v-4.031h2.016v4.031zM12.984 17.016h-1.969v-10.031h1.969v10.031zM9 17.016h-2.016v-7.031h2.016v7.031z"></path>
</symbol>
<symbol id="icon-cloud" viewBox="0 0 24 24">
<path d="M19.359 10.031q1.922 0.141 3.281 1.57t1.359 3.398q0 2.063-1.477 3.539t-3.539 1.477h-12.984q-2.484 0-4.242-1.758t-1.758-4.242q0-2.203 1.57-3.961t3.773-1.992q0.984-1.828 2.766-2.953t3.891-1.125q2.531 0 4.711 1.781t2.648 4.266z"></path>
</symbol>
<symbol id="icon-cloud_circle" viewBox="0 0 24 24">
<path d="M16.5 15.984q1.031 0 1.758-0.727t0.727-1.758-0.727-1.758-1.758-0.727h-0.516q0-1.641-1.172-2.836t-2.813-1.195q-1.266 0-2.391 0.891t-1.453 2.156l-0.141-0.047q-1.219 0-2.109 0.891t-0.891 2.109 0.891 2.109 2.109 0.891h8.484zM12 2.016q4.125 0 7.055 2.93t2.93 7.055-2.93 7.055-7.055 2.93-7.055-2.93-2.93-7.055 2.93-7.055 7.055-2.93z"></path>
</symbol>
<symbol id="icon-cloud_done" viewBox="0 0 24 24">
<path d="M9.984 17.016l6.609-6.609-1.406-1.406-5.203 5.156-2.063-2.063-1.406 1.406zM19.359 10.031q1.922 0.141 3.281 1.57t1.359 3.398q0 2.063-1.477 3.539t-3.539 1.477h-12.984q-2.484 0-4.242-1.758t-1.758-4.242q0-2.203 1.57-3.961t3.773-1.992q0.984-1.828 2.766-2.953t3.891-1.125q2.531 0 4.711 1.781t2.648 4.266z"></path>
</symbol>
<symbol id="icon-cloud_download" viewBox="0 0 24 24">
<path d="M17.016 12.984h-3v-3.984h-4.031v3.984h-3l5.016 5.016zM19.359 10.031q1.922 0.141 3.281 1.57t1.359 3.398q0 2.063-1.477 3.539t-3.539 1.477h-12.984q-2.484 0-4.242-1.758t-1.758-4.242q0-2.203 1.57-3.961t3.773-1.992q0.984-1.828 2.766-2.953t3.891-1.125q2.531 0 4.711 1.781t2.648 4.266z"></path>
</symbol>
<symbol id="icon-cloud_off" viewBox="0 0 24 24">
<path d="M7.734 9.984h-1.734q-1.641 0-2.813 1.195t-1.172 2.836 1.172 2.813 2.813 1.172h9.75zM3 5.25l1.266-1.266 16.734 16.734-1.266 1.266-2.016-1.969h-11.719q-2.484 0-4.242-1.758t-1.758-4.242q0-2.438 1.688-4.172t4.078-1.828zM19.359 10.031q1.922 0.141 3.281 1.57t1.359 3.398q0 2.578-2.109 4.078l-1.453-1.453q1.547-0.844 1.547-2.625 0-1.219-0.891-2.109t-2.109-0.891h-1.5v-0.516q0-2.297-1.594-3.891t-3.891-1.594q-1.313 0-2.531 0.609l-1.5-1.453q1.828-1.172 4.031-1.172 2.531 0 4.711 1.781t2.648 4.266z"></path>
</symbol>
<symbol id="icon-cloud_queue" viewBox="0 0 24 24">
<path d="M18.984 18q1.219 0 2.109-0.891t0.891-2.109-0.891-2.109-2.109-0.891h-1.5v-0.516q0-2.297-1.594-3.891t-3.891-1.594q-1.875 0-3.328 1.125t-1.969 2.859h-0.703q-1.641 0-2.813 1.195t-1.172 2.836 1.172 2.813 2.813 1.172h12.984zM19.359 10.031q1.922 0.141 3.281 1.57t1.359 3.398q0 2.063-1.477 3.539t-3.539 1.477h-12.984q-2.484 0-4.242-1.758t-1.758-4.242q0-2.203 1.57-3.961t3.773-1.992q0.984-1.828 2.766-2.953t3.891-1.125q2.531 0 4.711 1.781t2.648 4.266z"></path>
</symbol>
<symbol id="icon-cloud_upload" viewBox="0 0 24 24">
<path d="M14.016 12.984h3l-5.016-4.969-5.016 4.969h3v4.031h4.031v-4.031zM19.359 10.031q1.922 0.141 3.281 1.57t1.359 3.398q0 2.063-1.477 3.539t-3.539 1.477h-12.984q-2.484 0-4.242-1.758t-1.758-4.242q0-2.203 1.57-3.961t3.773-1.992q0.984-1.828 2.766-2.953t3.891-1.125q2.531 0 4.711 1.781t2.648 4.266z"></path>
</symbol>
<symbol id="icon-folder" viewBox="0 0 24 24">
<path d="M9.984 3.984l2.016 2.016h8.016q0.797 0 1.383 0.609t0.586 1.406v9.984q0 0.797-0.586 1.406t-1.383 0.609h-16.031q-0.797 0-1.383-0.609t-0.586-1.406v-12q0-0.797 0.586-1.406t1.383-0.609h6z"></path>
</symbol>
<symbol id="icon-folder_open" viewBox="0 0 24 24">
<path d="M20.016 18v-9.984h-16.031v9.984h16.031zM20.016 6q0.797 0 1.383 0.609t0.586 1.406v9.984q0 0.797-0.586 1.406t-1.383 0.609h-16.031q-0.797 0-1.383-0.609t-0.586-1.406v-12q0-0.797 0.586-1.406t1.383-0.609h6l2.016 2.016h8.016z"></path>
</symbol>
<symbol id="icon-folder_shared" viewBox="0 0 24 24">
<path d="M18.984 17.016v-1.031q0-0.891-1.383-1.43t-2.602-0.539-2.602 0.539-1.383 1.43v1.031h7.969zM15 9q-0.797 0-1.406 0.609t-0.609 1.406 0.609 1.383 1.406 0.586 1.406-0.586 0.609-1.383-0.609-1.406-1.406-0.609zM20.016 6q0.797 0 1.383 0.609t0.586 1.406v9.984q0 0.797-0.586 1.406t-1.383 0.609h-16.031q-0.797 0-1.383-0.609t-0.586-1.406v-12q0-0.797 0.586-1.406t1.383-0.609h6l2.016 2.016h8.016z"></path>
</symbol>
<symbol id="icon-create_new_folder" viewBox="0 0 24 24">
<path d="M18.984 14.016v-2.016h-3v-3h-1.969v3h-3v2.016h3v3h1.969v-3h3zM20.016 6q0.844 0 1.406 0.586t0.563 1.43v9.984q0 0.844-0.563 1.43t-1.406 0.586h-16.031q-0.844 0-1.406-0.586t-0.563-1.43v-12q0-0.844 0.563-1.43t1.406-0.586h6l2.016 2.016h8.016z"></path>
</symbol>
<symbol id="icon-developer_board" viewBox="0 0 24 24">
<path d="M12 11.016h3.984v6h-3.984v-6zM6 6.984h5.016v5.016h-5.016v-5.016zM12 6.984h3.984v3h-3.984v-3zM6 12.984h5.016v4.031h-5.016v-4.031zM18 18.984v-13.969h-14.016v13.969h14.016zM21.984 9h-1.969v2.016h1.969v1.969h-1.969v2.016h1.969v2.016h-1.969v1.969q0 0.797-0.609 1.406t-1.406 0.609h-14.016q-0.797 0-1.383-0.609t-0.586-1.406v-13.969q0-0.797 0.586-1.406t1.383-0.609h14.016q0.797 0 1.406 0.609t0.609 1.406v1.969h1.969v2.016z"></path>
</symbol>
<symbol id="icon-keyboard_arrow_down" viewBox="0 0 24 24">
<path d="M7.406 8.578l4.594 4.594 4.594-4.594 1.406 1.406-6 6-6-6z"></path>
</symbol>
<symbol id="icon-keyboard_arrow_left" viewBox="0 0 24 24">
<path d="M15.422 16.594l-1.406 1.406-6-6 6-6 1.406 1.406-4.594 4.594z"></path>
</symbol>
<symbol id="icon-keyboard_arrow_right" viewBox="0 0 24 24">
<path d="M8.578 16.594l4.594-4.594-4.594-4.594 1.406-1.406 6 6-6 6z"></path>
</symbol>
<symbol id="icon-keyboard_arrow_up" viewBox="0 0 24 24">
<path d="M7.406 15.422l-1.406-1.406 6-6 6 6-1.406 1.406-4.594-4.594z"></path>
</symbol>
<symbol id="icon-camera_alt" viewBox="0 0 24 24">
<path d="M12 17.016q2.063 0 3.539-1.477t1.477-3.539-1.477-3.539-3.539-1.477-3.539 1.477-1.477 3.539 1.477 3.539 3.539 1.477zM9 2.016h6l1.828 1.969h3.188q0.797 0 1.383 0.609t0.586 1.406v12q0 0.797-0.586 1.406t-1.383 0.609h-16.031q-0.797 0-1.383-0.609t-0.586-1.406v-12q0-0.797 0.586-1.406t1.383-0.609h3.188zM8.813 12q0-1.313 0.938-2.25t2.25-0.938 2.25 0.938 0.938 2.25-0.938 2.25-2.25 0.938-2.25-0.938-0.938-2.25z"></path>
</symbol>
<symbol id="icon-collections" viewBox="0 0 24 24">
<path d="M2.016 6h1.969v14.016h14.016v1.969h-14.016q-0.797 0-1.383-0.586t-0.586-1.383v-14.016zM11.016 12l-3 3.984h12l-4.031-4.969-2.953 3.703zM21.984 15.984q0 0.797-0.586 1.406t-1.383 0.609h-12q-0.797 0-1.406-0.609t-0.609-1.406v-12q0-0.797 0.609-1.383t1.406-0.586h12q0.797 0 1.383 0.586t0.586 1.383v12z"></path>
</symbol>
<symbol id="icon-color_lens" viewBox="0 0 24 24">
<path d="M17.484 12q0.609 0 1.055-0.422t0.445-1.078-0.445-1.078-1.055-0.422-1.055 0.422-0.445 1.078 0.445 1.078 1.055 0.422zM14.484 8.016q0.609 0 1.055-0.445t0.445-1.055-0.445-1.055-1.055-0.445-1.055 0.445-0.445 1.055 0.445 1.055 1.055 0.445zM9.516 8.016q0.609 0 1.055-0.445t0.445-1.055-0.445-1.055-1.055-0.445-1.055 0.445-0.445 1.055 0.445 1.055 1.055 0.445zM6.516 12q0.609 0 1.055-0.422t0.445-1.078-0.445-1.078-1.055-0.422-1.055 0.422-0.445 1.078 0.445 1.078 1.055 0.422zM12 3q3.703 0 6.352 2.344t2.648 5.672q0 2.063-1.477 3.516t-3.539 1.453h-1.734q-0.656 0-1.078 0.445t-0.422 1.055q0 0.516 0.375 0.984t0.375 1.031q0 0.656-0.422 1.078t-1.078 0.422q-3.75 0-6.375-2.625t-2.625-6.375 2.625-6.375 6.375-2.625z"></path>
</symbol>
<symbol id="icon-dehaze" viewBox="0 0 24 24">
<path d="M2.016 5.484h19.969v2.016h-19.969v-2.016zM2.016 10.5h19.969v2.016h-19.969v-2.016zM2.016 15.516h19.969v1.969h-19.969v-1.969z"></path>
</symbol>
<symbol id="icon-panorama" viewBox="0 0 24 24">
<path d="M8.484 12.516l-3.469 4.5h13.969l-4.5-6-3.469 4.5zM23.016 18q0 0.797-0.609 1.406t-1.406 0.609h-18q-0.797 0-1.406-0.609t-0.609-1.406v-12q0-0.797 0.609-1.406t1.406-0.609h18q0.797 0 1.406 0.609t0.609 1.406v12z"></path>
</symbol>
<symbol id="icon-check1" viewBox="0 0 24 24">
<path d="M9 16.172l10.594-10.594 1.406 1.406-12 12-5.578-5.578 1.406-1.406z"></path>
</symbol>
<symbol id="icon-do_not_disturb_alt" viewBox="0 0 24 24">
<path d="M12 20.016q3.281 0 5.648-2.367t2.367-5.648q0-2.672-1.734-4.922l-11.203 11.203q2.25 1.734 4.922 1.734zM3.984 12q0 2.672 1.734 4.922l11.203-11.203q-2.25-1.734-4.922-1.734-3.281 0-5.648 2.367t-2.367 5.648zM12 2.016q4.125 0 7.055 2.93t2.93 7.055-2.93 7.055-7.055 2.93-7.055-2.93-2.93-7.055 2.93-7.055 7.055-2.93z"></path>
</symbol>
<symbol id="icon-event_available" viewBox="0 0 24 24">
<path d="M18.984 18.984v-10.969h-13.969v10.969h13.969zM18.984 3q0.797 0 1.406 0.609t0.609 1.406v13.969q0 0.797-0.609 1.406t-1.406 0.609h-13.969q-0.844 0-1.43-0.586t-0.586-1.43v-13.969q0-0.797 0.586-1.406t1.43-0.609h0.984v-2.016h2.016v2.016h7.969v-2.016h2.016v2.016h0.984zM16.547 11.063l-5.953 5.953-3.188-3.188 1.078-1.078 2.109 2.109 4.875-4.875z"></path>
</symbol>
<symbol id="icon-event_busy" viewBox="0 0 24 24">
<path d="M18.984 18.984v-10.969h-13.969v10.969h13.969zM18.984 3q0.797 0 1.406 0.609t0.609 1.406v13.969q0 0.797-0.609 1.406t-1.406 0.609h-13.969q-0.844 0-1.43-0.586t-0.586-1.43v-13.969q0-0.797 0.586-1.406t1.43-0.609h0.984v-2.016h2.016v2.016h7.969v-2.016h2.016v2.016h0.984zM9.328 17.016l-1.078-1.078 2.438-2.438-2.438-2.438 1.078-1.078 2.438 2.438 2.438-2.438 1.031 1.078-2.438 2.438 2.438 2.438-1.031 1.078-2.438-2.438z"></path>
</symbol>
<symbol id="icon-event_note" viewBox="0 0 24 24">
<path d="M14.016 14.016v1.969h-7.031v-1.969h7.031zM18.984 18.984v-10.969h-13.969v10.969h13.969zM18.984 3q0.797 0 1.406 0.609t0.609 1.406v13.969q0 0.797-0.609 1.406t-1.406 0.609h-13.969q-0.844 0-1.43-0.586t-0.586-1.43v-13.969q0-0.797 0.586-1.406t1.43-0.609h0.984v-2.016h2.016v2.016h7.969v-2.016h2.016v2.016h0.984zM17.016 9.984v2.016h-10.031v-2.016h10.031z"></path>
</symbol>
<symbol id="icon-priority_high" viewBox="0 0 24 24">
<path d="M9.984 3h4.031v12h-4.031v-12zM9.984 18.984q0-0.844 0.586-1.406t1.43-0.563 1.43 0.563 0.586 1.406-0.586 1.43-1.43 0.586-1.43-0.586-0.586-1.43z"></path>
</symbol>
<symbol id="icon-notifications" viewBox="0 0 24 24">
<path d="M18 15.984l2.016 2.016v0.984h-16.031v-0.984l2.016-2.016v-4.969q0-2.344 1.195-4.078t3.305-2.25v-0.703q0-0.609 0.422-1.055t1.078-0.445 1.078 0.445 0.422 1.055v0.703q2.109 0.516 3.305 2.25t1.195 4.078v4.969zM12 21.984q-0.844 0-1.43-0.563t-0.586-1.406h4.031q0 0.797-0.609 1.383t-1.406 0.586z"></path>
</symbol>
<symbol id="icon-notifications_none" viewBox="0 0 24 24">
<path d="M15.984 17.016v-6q0-1.922-1.078-3.211t-2.906-1.289-2.906 1.289-1.078 3.211v6h7.969zM18 15.984l2.016 2.016v0.984h-16.031v-0.984l2.016-2.016v-4.969q0-2.344 1.195-4.078t3.305-2.25v-0.703q0-0.609 0.422-1.055t1.078-0.445 1.078 0.445 0.422 1.055v0.703q2.109 0.516 3.305 2.25t1.195 4.078v4.969zM12 21.984q-0.797 0-1.406-0.586t-0.609-1.383h4.031q0 0.797-0.609 1.383t-1.406 0.586z"></path>
</symbol>
<symbol id="icon-notifications_off" viewBox="0 0 24 24">
<path d="M18 14.672l-8.953-9.422q0.141-0.047 0.375-0.164l0.328-0.164h0.047l0.281-0.141q0.047 0 0.188-0.047t0.234-0.047v-0.703q0-0.609 0.422-1.055t1.078-0.445 1.078 0.445 0.422 1.055v0.703q2.109 0.516 3.305 2.25t1.195 4.078v3.656zM12 21.984q-0.844 0-1.43-0.563t-0.586-1.406h4.031q0 0.844-0.586 1.406t-1.43 0.563zM7.828 6.141q1.125 1.172 5.883 6.047t7.289 7.547l-1.266 1.266-2.016-2.016h-13.734v-0.984l2.016-2.016v-5.016q0-1.922 0.797-3.422l-2.813-2.766 1.266-1.313z"></path>
</symbol>
<symbol id="icon-notifications_on" viewBox="0 0 24 24">
<path d="M12 21.984q-0.844 0-1.43-0.586t-0.586-1.383h3.984q0 0.844-0.563 1.406t-1.406 0.563zM18 11.016v4.969l2.016 2.016v0.984h-16.031v-0.984l2.016-2.016v-4.969q0-2.344 1.195-4.078t3.305-2.25v-0.703q0-0.609 0.422-1.055t1.078-0.445 1.078 0.445 0.422 1.055v0.703q2.109 0.516 3.305 2.25t1.195 4.078zM19.969 10.5q-0.094-1.688-1.125-3.563t-2.391-2.859l1.406-1.406q3.891 3 4.125 7.828h-2.016zM7.594 4.078q-1.359 0.984-2.414 2.859t-1.148 3.563h-2.016q0.234-4.828 4.125-7.828z"></path>
</symbol>
<symbol id="icon-notifications_paused" viewBox="0 0 24 24">
<path d="M14.484 9.797v-1.781h-4.969v1.781h2.766l-2.766 3.422v1.781h4.969v-1.781h-2.766zM18 15.984l2.016 2.016v0.984h-16.031v-0.984l2.016-2.016v-4.969q0-2.344 1.195-4.078t3.305-2.25v-0.703q0-0.609 0.422-1.055t1.078-0.445 1.078 0.445 0.422 1.055v0.703q2.109 0.516 3.305 2.25t1.195 4.078v4.969zM12 21.984q-0.844 0-1.43-0.563t-0.586-1.406h4.031q0 0.797-0.609 1.383t-1.406 0.586z"></path>
</symbol>
<symbol id="icon-public" viewBox="0 0 24 24">
<path d="M17.906 17.391q2.109-2.25 2.109-5.391 0-2.484-1.383-4.5t-3.633-2.906v0.422q0 0.797-0.609 1.383t-1.406 0.586h-1.969v2.016q0 0.422-0.305 0.703t-0.727 0.281h-1.969v2.016h6q0.422 0 0.703 0.281t0.281 0.703v3h0.984q1.406 0 1.922 1.406zM11.016 19.922v-1.922q-0.797 0-1.406-0.609t-0.609-1.406v-0.984l-4.781-4.781q-0.234 0.938-0.234 1.781 0 3.047 2.039 5.297t4.992 2.625zM12 2.016q4.125 0 7.055 2.93t2.93 7.055-2.93 7.055-7.055 2.93-7.055-2.93-2.93-7.055 2.93-7.055 7.055-2.93z"></path>
</symbol>
<symbol id="icon-share" viewBox="0 0 24 24">
<path d="M18 16.078q1.219 0 2.063 0.867t0.844 2.039q0 1.219-0.867 2.086t-2.039 0.867-2.039-0.867-0.867-2.086q0-0.469 0.047-0.656l-7.078-4.125q-0.891 0.797-2.063 0.797-1.219 0-2.109-0.891t-0.891-2.109 0.891-2.109 2.109-0.891q1.172 0 2.063 0.797l7.031-4.078q-0.094-0.469-0.094-0.703 0-1.219 0.891-2.109t2.109-0.891 2.109 0.891 0.891 2.109-0.891 2.109-2.109 0.891q-1.125 0-2.063-0.844l-7.031 4.125q0.094 0.469 0.094 0.703t-0.094 0.703l7.125 4.125q0.844-0.75 1.969-0.75z"></path>
</symbol>
<symbol id="icon-thumb_down_alt" viewBox="0 0 24 24">
<path d="M2.156 11.109l2.672-6.141q0.609-0.984 1.734-0.984h8.109q0.984 0 1.664 0.68t0.68 1.664v7.828q0 0.844-0.609 1.453l-6.422 6.375-0.422-0.469q-0.563-0.563-0.891-1.219-0.141-0.328-0.094-0.656l0.938-4.641h-5.531q-0.797 0-1.383-0.609t-0.586-1.406v-1.078q0-0.469 0.141-0.797zM21.984 3.984v11.016h-1.969q-0.422 0-0.727-0.281t-0.305-0.703v-9q0-0.422 0.305-0.727t0.727-0.305h1.969z"></path>
</symbol>
<symbol id="icon-thumb_up_alt" viewBox="0 0 24 24">
<path d="M21.844 12.891l-2.672 6.141q-0.609 0.984-1.734 0.984h-8.109q-0.938 0-1.641-0.703t-0.703-1.641v-7.828q0-0.844 0.609-1.453l6.422-6.375 0.422 0.469q0.563 0.563 0.891 1.219 0.141 0.328 0.094 0.656l-0.938 4.641h5.531q0.797 0 1.383 0.609t0.586 1.406v1.078q0 0.422-0.141 0.797zM2.016 20.016v-11.016h1.969q0.422 0 0.727 0.281t0.305 0.703v9q0 0.422-0.305 0.727t-0.727 0.305h-1.969z"></path>
</symbol>
<symbol id="icon-check_box" viewBox="0 0 24 24">
<path d="M9.984 17.016l9-9-1.406-1.453-7.594 7.594-3.563-3.563-1.406 1.406zM18.984 3q0.844 0 1.43 0.586t0.586 1.43v13.969q0 0.844-0.586 1.43t-1.43 0.586h-13.969q-0.844 0-1.43-0.586t-0.586-1.43v-13.969q0-0.844 0.586-1.43t1.43-0.586h13.969z"></path>
</symbol>
<symbol id="icon-check_box_outline_blank" viewBox="0 0 24 24">
<path d="M18.984 3q0.797 0 1.406 0.609t0.609 1.406v13.969q0 0.797-0.609 1.406t-1.406 0.609h-13.969q-0.797 0-1.406-0.609t-0.609-1.406v-13.969q0-0.797 0.609-1.406t1.406-0.609h13.969zM18.984 5.016h-13.969v13.969h13.969v-13.969z"></path>
</symbol>
<symbol id="icon-account_circle" viewBox="0 0 24 24">
<path d="M12 19.219q1.594 0 3.352-0.938t2.648-2.297q-0.047-1.313-2.109-2.203t-3.891-0.891-3.891 0.867-2.109 2.227q0.891 1.359 2.648 2.297t3.352 0.938zM12 5.016q-1.219 0-2.109 0.891t-0.891 2.109 0.891 2.109 2.109 0.891 2.109-0.891 0.891-2.109-0.891-2.109-2.109-0.891zM12 2.016q4.125 0 7.055 2.93t2.93 7.055-2.93 7.055-7.055 2.93-7.055-2.93-2.93-7.055 2.93-7.055 7.055-2.93z"></path>
</symbol>
<symbol id="icon-assignment" viewBox="0 0 24 24">
<path d="M17.016 9v-2.016h-10.031v2.016h10.031zM17.016 12.984v-1.969h-10.031v1.969h10.031zM14.016 17.016v-2.016h-7.031v2.016h7.031zM12 3q-0.422 0-0.703 0.281t-0.281 0.703 0.281 0.727 0.703 0.305 0.703-0.305 0.281-0.727-0.281-0.703-0.703-0.281zM18.984 3q0.797 0 1.406 0.609t0.609 1.406v13.969q0 0.797-0.609 1.406t-1.406 0.609h-13.969q-0.797 0-1.406-0.609t-0.609-1.406v-13.969q0-0.797 0.609-1.406t1.406-0.609h4.172q0.328-0.891 1.078-1.453t1.734-0.563 1.734 0.563 1.078 1.453h4.172z"></path>
</symbol>
<symbol id="icon-assignment_ind" viewBox="0 0 24 24">
<path d="M18 18.984v-1.406q0-1.359-2.063-2.227t-3.938-0.867-3.938 0.867-2.063 2.227v1.406h12zM12 6.984q-1.219 0-2.109 0.891t-0.891 2.109 0.891 2.109 2.109 0.891 2.109-0.891 0.891-2.109-0.891-2.109-2.109-0.891zM12 3q-0.422 0-0.703 0.281t-0.281 0.703 0.281 0.727 0.703 0.305 0.703-0.305 0.281-0.727-0.281-0.703-0.703-0.281zM18.984 3q0.797 0 1.406 0.609t0.609 1.406v13.969q0 0.797-0.609 1.406t-1.406 0.609h-13.969q-0.797 0-1.406-0.609t-0.609-1.406v-13.969q0-0.797 0.609-1.406t1.406-0.609h4.172q0.328-0.891 1.078-1.453t1.734-0.563 1.734 0.563 1.078 1.453h4.172z"></path>
</symbol>
<symbol id="icon-assignment_late" viewBox="0 0 24 24">
<path d="M12 5.016q0.422 0 0.703-0.305t0.281-0.727-0.281-0.703-0.703-0.281-0.703 0.281-0.281 0.703 0.281 0.727 0.703 0.305zM12.984 14.016v-6h-1.969v6h1.969zM12.984 18v-2.016h-1.969v2.016h1.969zM18.984 3q0.797 0 1.406 0.609t0.609 1.406v13.969q0 0.797-0.609 1.406t-1.406 0.609h-13.969q-0.797 0-1.406-0.609t-0.609-1.406v-13.969q0-0.797 0.609-1.406t1.406-0.609h4.172q0.328-0.891 1.078-1.453t1.734-0.563 1.734 0.563 1.078 1.453h4.172z"></path>
</symbol>
<symbol id="icon-assignment_return" viewBox="0 0 24 24">
<path d="M15.984 15v-3.984h-3.984v-3l-5.016 4.969 5.016 5.016v-3h3.984zM12 3q-0.422 0-0.703 0.281t-0.281 0.703 0.281 0.727 0.703 0.305 0.703-0.305 0.281-0.727-0.281-0.703-0.703-0.281zM18.984 3q0.797 0 1.406 0.609t0.609 1.406v13.969q0 0.797-0.609 1.406t-1.406 0.609h-13.969q-0.797 0-1.406-0.609t-0.609-1.406v-13.969q0-0.797 0.609-1.406t1.406-0.609h4.172q0.328-0.891 1.078-1.453t1.734-0.563 1.734 0.563 1.078 1.453h4.172z"></path>
</symbol>
<symbol id="icon-assignment_returned" viewBox="0 0 24 24">
<path d="M12 18l5.016-5.016h-3v-3.984h-4.031v3.984h-3zM12 3q-0.422 0-0.703 0.281t-0.281 0.703 0.281 0.727 0.703 0.305 0.703-0.305 0.281-0.727-0.281-0.703-0.703-0.281zM18.984 3q0.797 0 1.406 0.609t0.609 1.406v13.969q0 0.797-0.609 1.406t-1.406 0.609h-13.969q-0.797 0-1.406-0.609t-0.609-1.406v-13.969q0-0.797 0.609-1.406t1.406-0.609h4.172q0.328-0.891 1.078-1.453t1.734-0.563 1.734 0.563 1.078 1.453h4.172z"></path>
</symbol>
<symbol id="icon-assignment_turned_in" viewBox="0 0 24 24">
<path d="M9.984 17.016l8.016-8.016-1.406-1.406-6.609 6.563-2.578-2.578-1.406 1.406zM12 3q-0.422 0-0.703 0.281t-0.281 0.703 0.281 0.727 0.703 0.305 0.703-0.305 0.281-0.727-0.281-0.703-0.703-0.281zM18.984 3q0.797 0 1.406 0.609t0.609 1.406v13.969q0 0.797-0.609 1.406t-1.406 0.609h-13.969q-0.797 0-1.406-0.609t-0.609-1.406v-13.969q0-0.797 0.609-1.406t1.406-0.609h4.172q0.328-0.891 1.078-1.453t1.734-0.563 1.734 0.563 1.078 1.453h4.172z"></path>
</symbol>
<symbol id="icon-autorenew" viewBox="0 0 24 24">
<path d="M18.75 7.734q1.266 1.922 1.266 4.266 0 3.281-2.367 5.648t-5.648 2.367v3l-3.984-4.031 3.984-3.984v3q2.484 0 4.242-1.758t1.758-4.242q0-1.406-0.703-2.813zM12 6q-2.484 0-4.242 1.758t-1.758 4.242q0 1.5 0.703 2.813l-1.453 1.453q-1.266-1.922-1.266-4.266 0-3.281 2.367-5.648t5.648-2.367v-3l3.984 4.031-3.984 3.984v-3z"></path>
</symbol>
<symbol id="icon-book" viewBox="0 0 24 24">
<path d="M6 3.984v8.016l2.484-1.5 2.531 1.5v-8.016h-5.016zM18 2.016q0.797 0 1.406 0.586t0.609 1.383v16.031q0 0.797-0.609 1.383t-1.406 0.586h-12q-0.797 0-1.406-0.586t-0.609-1.383v-16.031q0-0.797 0.609-1.383t1.406-0.586h12z"></path>
</symbol>
<symbol id="icon-bookmark" viewBox="0 0 24 24">
<path d="M17.016 3q0.797 0 1.383 0.609t0.586 1.406v15.984l-6.984-3-6.984 3v-15.984q0-0.797 0.586-1.406t1.383-0.609h10.031z"></path>
</symbol>
<symbol id="icon-bookmark_outline" viewBox="0 0 24 24">
<path d="M17.016 18v-12.984h-10.031v12.984l5.016-2.203zM17.016 3q0.797 0 1.383 0.609t0.586 1.406v15.984l-6.984-3-6.984 3v-15.984q0-0.797 0.586-1.406t1.383-0.609h10.031z"></path>
</symbol>
<symbol id="icon-bug_report" viewBox="0 0 24 24">
<path d="M14.016 12v-2.016h-4.031v2.016h4.031zM14.016 15.984v-1.969h-4.031v1.969h4.031zM20.016 8.016v1.969h-2.109q0.094 0.656 0.094 1.031v0.984h2.016v2.016h-2.016v0.984q0 0.328-0.094 0.984h2.109v2.016h-2.813q-0.797 1.359-2.18 2.18t-3.023 0.82-3.023-0.82-2.18-2.18h-2.813v-2.016h2.109q-0.094-0.656-0.094-0.984v-0.984h-2.016v-2.016h2.016v-0.984q0-0.375 0.094-1.031h-2.109v-1.969h2.813q0.703-1.172 1.828-1.969l-1.641-1.641 1.406-1.406 2.203 2.156q0.703-0.141 1.406-0.141t1.406 0.141l2.203-2.156 1.406 1.406-1.641 1.641q1.172 0.797 1.828 1.969h2.813z"></path>
</symbol>
<symbol id="icon-build" viewBox="0 0 24 24">
<path d="M22.688 18.984q0.328 0.188 0.305 0.633t-0.398 0.773l-2.297 2.297q-0.703 0.703-1.406 0l-9.094-9.094q-1.688 0.703-3.586 0.305t-3.305-1.805q-1.5-1.5-1.875-3.563t0.563-3.844l4.406 4.313 3-3-4.313-4.313q1.781-0.844 3.844-0.516t3.563 1.828q1.406 1.406 1.805 3.305t-0.305 3.586z"></path>
</symbol>
<symbol id="icon-cached" viewBox="0 0 24 24">
<path d="M6 12h3l-3.984 3.984-4.031-3.984h3q0-3.281 2.367-5.648t5.648-2.367q2.344 0 4.266 1.266l-1.453 1.453q-1.266-0.703-2.813-0.703-2.484 0-4.242 1.758t-1.758 4.242zM18.984 8.016l4.031 3.984h-3q0 3.281-2.367 5.648t-5.648 2.367q-2.344 0-4.266-1.266l1.453-1.453q1.313 0.703 2.813 0.703 2.484 0 4.242-1.758t1.758-4.242h-3z"></path>
</symbol>
<symbol id="icon-check_circle" viewBox="0 0 24 24">
<path d="M9.984 17.016l9-9-1.406-1.453-7.594 7.594-3.563-3.563-1.406 1.406zM12 2.016q4.125 0 7.055 2.93t2.93 7.055-2.93 7.055-7.055 2.93-7.055-2.93-2.93-7.055 2.93-7.055 7.055-2.93z"></path>
</symbol>
<symbol id="icon-delete" viewBox="0 0 24 24">
<path d="M18.984 3.984v2.016h-13.969v-2.016h3.469l1.031-0.984h4.969l1.031 0.984h3.469zM6 18.984v-12h12v12q0 0.797-0.609 1.406t-1.406 0.609h-7.969q-0.797 0-1.406-0.609t-0.609-1.406z"></path>
</symbol>
<symbol id="icon-description" viewBox="0 0 24 24">
<path d="M12.984 9h5.531l-5.531-5.484v5.484zM15.984 14.016v-2.016h-7.969v2.016h7.969zM15.984 18v-2.016h-7.969v2.016h7.969zM14.016 2.016l6 6v12q0 0.797-0.609 1.383t-1.406 0.586h-12q-0.797 0-1.406-0.586t-0.609-1.383l0.047-16.031q0-0.797 0.586-1.383t1.383-0.586h8.016z"></path>
</symbol>
<symbol id="icon-dns" viewBox="0 0 24 24">
<path d="M6.984 9q0.797 0 1.406-0.609t0.609-1.406-0.609-1.383-1.406-0.586-1.383 0.586-0.586 1.383 0.586 1.406 1.383 0.609zM20.016 3q0.422 0 0.703 0.281t0.281 0.703v6q0 0.422-0.281 0.727t-0.703 0.305h-16.031q-0.422 0-0.703-0.305t-0.281-0.727v-6q0-0.422 0.281-0.703t0.703-0.281h16.031zM6.984 18.984q0.797 0 1.406-0.586t0.609-1.383-0.609-1.406-1.406-0.609-1.383 0.609-0.586 1.406 0.586 1.383 1.383 0.586zM20.016 12.984q0.422 0 0.703 0.305t0.281 0.727v6q0 0.422-0.281 0.703t-0.703 0.281h-16.031q-0.422 0-0.703-0.281t-0.281-0.703v-6q0-0.422 0.281-0.727t0.703-0.305h16.031z"></path>
</symbol>
<symbol id="icon-done" viewBox="0 0 24 24">
<path d="M9 16.219l10.594-10.641 1.406 1.406-12 12-5.578-5.578 1.359-1.406z"></path>
</symbol>
<symbol id="icon-done_all" viewBox="0 0 24 24">
<path d="M0.422 13.406l1.406-1.406 5.578 5.578-1.406 1.406zM22.219 5.578l1.453 1.406-12 12-5.625-5.578 1.453-1.406 4.172 4.172zM18 6.984l-6.328 6.375-1.406-1.406 6.328-6.375z"></path>
</symbol>
<symbol id="icon-extension" viewBox="0 0 24 24">
<path d="M20.484 11.016q1.031 0 1.781 0.727t0.75 1.758-0.75 1.758-1.781 0.727h-1.5v4.031q0 0.797-0.586 1.383t-1.383 0.586h-3.797v-1.5q0-1.125-0.797-1.898t-1.922-0.773-1.922 0.773-0.797 1.898v1.5h-3.797q-0.797 0-1.383-0.586t-0.586-1.383v-3.797h1.5q1.125 0 1.898-0.797t0.773-1.922-0.773-1.922-1.898-0.797h-1.5v-3.797q0-0.797 0.586-1.383t1.383-0.586h4.031v-1.5q0-1.031 0.727-1.781t1.758-0.75 1.758 0.75 0.727 1.781v1.5h4.031q0.797 0 1.383 0.586t0.586 1.383v4.031h1.5z"></path>
</symbol>
<symbol id="icon-favorite" viewBox="0 0 24 24">
<path d="M12 21.328l-1.453-1.313q-2.484-2.25-3.609-3.328t-2.508-2.672-1.898-2.883-0.516-2.648q0-2.297 1.57-3.891t3.914-1.594q2.719 0 4.5 2.109 1.781-2.109 4.5-2.109 2.344 0 3.914 1.594t1.57 3.891q0 1.828-1.219 3.797t-2.648 3.422-4.664 4.359z"></path>
</symbol>
<symbol id="icon-favorite_outline" viewBox="0 0 24 24">
<path d="M12.094 18.563q2.25-2.016 3.328-3.047t2.344-2.438 1.758-2.484 0.492-2.109q0-1.5-1.008-2.484t-2.508-0.984q-1.172 0-2.18 0.656t-1.383 1.688h-1.875q-0.375-1.031-1.383-1.688t-2.18-0.656q-1.5 0-2.508 0.984t-1.008 2.484q0 1.031 0.492 2.109t1.758 2.484 2.344 2.438 3.328 3.047l0.094 0.094zM16.5 3q2.344 0 3.914 1.594t1.57 3.891q0 1.359-0.516 2.648t-1.898 2.883-2.508 2.672-3.609 3.328l-1.453 1.313-1.453-1.266q-3.234-2.906-4.664-4.359t-2.648-3.422-1.219-3.797q0-2.297 1.57-3.891t3.914-1.594q2.719 0 4.5 2.109 1.781-2.109 4.5-2.109z"></path>
</symbol>
<symbol id="icon-help" viewBox="0 0 24 24">
<path d="M15.047 11.25q0.938-0.938 0.938-2.25 0-1.641-1.172-2.813t-2.813-1.172-2.813 1.172-1.172 2.813h1.969q0-0.797 0.609-1.406t1.406-0.609 1.406 0.609 0.609 1.406-0.609 1.406l-1.219 1.266q-1.172 1.266-1.172 2.813v0.516h1.969q0-1.547 1.172-2.813zM12.984 18.984v-1.969h-1.969v1.969h1.969zM12 2.016q4.125 0 7.055 2.93t2.93 7.055-2.93 7.055-7.055 2.93-7.055-2.93-2.93-7.055 2.93-7.055 7.055-2.93z"></path>
</symbol>
<symbol id="icon-hourglass_empty" viewBox="0 0 24 24">
<path d="M12 11.484l3.984-3.984v-3.516h-7.969v3.516zM15.984 16.5l-3.984-3.984-3.984 3.984v3.516h7.969v-3.516zM6 2.016h12v6l-3.984 3.984 3.984 3.984v6h-12v-6l3.984-3.984-3.984-3.984v-6z"></path>
</symbol>
<symbol id="icon-hourglass_full" viewBox="0 0 24 24">
<path d="M6 2.016h12v6l-3.984 3.984 3.984 3.984v6h-12v-6l3.984-3.984-3.984-3.984v-6z"></path>
</symbol>
<symbol id="icon-https" viewBox="0 0 24 24">
<path d="M15.094 8.016v-2.016q0-1.266-0.914-2.18t-2.18-0.914-2.18 0.914-0.914 2.18v2.016h6.188zM12 17.016q0.797 0 1.406-0.609t0.609-1.406-0.609-1.406-1.406-0.609-1.406 0.609-0.609 1.406 0.609 1.406 1.406 0.609zM18 8.016q0.797 0 1.406 0.586t0.609 1.383v10.031q0 0.797-0.609 1.383t-1.406 0.586h-12q-0.797 0-1.406-0.586t-0.609-1.383v-10.031q0-0.797 0.609-1.383t1.406-0.586h0.984v-2.016q0-2.063 1.477-3.539t3.539-1.477 3.539 1.477 1.477 3.539v2.016h0.984z"></path>
</symbol>
<symbol id="icon-info1" viewBox="0 0 24 24">
<path d="M12.984 9v-2.016h-1.969v2.016h1.969zM12.984 17.016v-6h-1.969v6h1.969zM12 2.016q4.125 0 7.055 2.93t2.93 7.055-2.93 7.055-7.055 2.93-7.055-2.93-2.93-7.055 2.93-7.055 7.055-2.93z"></path>
</symbol>
<symbol id="icon-info_outline" viewBox="0 0 24 24">
<path d="M11.016 9v-2.016h1.969v2.016h-1.969zM12 20.016q3.281 0 5.648-2.367t2.367-5.648-2.367-5.648-5.648-2.367-5.648 2.367-2.367 5.648 2.367 5.648 5.648 2.367zM12 2.016q4.125 0 7.055 2.93t2.93 7.055-2.93 7.055-7.055 2.93-7.055-2.93-2.93-7.055 2.93-7.055 7.055-2.93zM11.016 17.016v-6h1.969v6h-1.969z"></path>
</symbol>
<symbol id="icon-input" viewBox="0 0 24 24">
<path d="M11.016 15.984v-3h-10.031v-1.969h10.031v-3l3.984 3.984zM21 3q0.844 0 1.43 0.586t0.586 1.43v14.016q0 0.797-0.609 1.383t-1.406 0.586h-18q-0.797 0-1.406-0.586t-0.609-1.383v-4.031h2.016v4.031h18v-14.063h-18v4.031h-2.016v-3.984q0-0.797 0.609-1.406t1.406-0.609h18z"></path>
</symbol>
<symbol id="icon-lock_open" viewBox="0 0 24 24">
<path d="M18 20.016v-10.031h-12v10.031h12zM18 8.016q0.797 0 1.406 0.586t0.609 1.383v10.031q0 0.797-0.609 1.383t-1.406 0.586h-12q-0.797 0-1.406-0.586t-0.609-1.383v-10.031q0-0.797 0.609-1.383t1.406-0.586h9.094v-2.016q0-1.266-0.914-2.18t-2.18-0.914-2.18 0.914-0.914 2.18h-1.922q0-2.063 1.477-3.539t3.539-1.477 3.539 1.477 1.477 3.539v2.016h0.984zM12 17.016q-0.797 0-1.406-0.609t-0.609-1.406 0.609-1.406 1.406-0.609 1.406 0.609 0.609 1.406-0.609 1.406-1.406 0.609z"></path>
</symbol>
<symbol id="icon-lock_outline" viewBox="0 0 24 24">
<path d="M18 20.016v-10.031h-12v10.031h12zM8.906 6v2.016h6.188v-2.016q0-1.266-0.914-2.18t-2.18-0.914-2.18 0.914-0.914 2.18zM18 8.016q0.797 0 1.406 0.586t0.609 1.383v10.031q0 0.797-0.609 1.383t-1.406 0.586h-12q-0.797 0-1.406-0.586t-0.609-1.383v-10.031q0-0.797 0.609-1.383t1.406-0.586h0.984v-2.016q0-2.063 1.477-3.539t3.539-1.477 3.539 1.477 1.477 3.539v2.016h0.984zM12 17.016q-0.797 0-1.406-0.609t-0.609-1.406 0.609-1.406 1.406-0.609 1.406 0.609 0.609 1.406-0.609 1.406-1.406 0.609z"></path>
</symbol>
<symbol id="icon-loyalty" viewBox="0 0 24 24">
<path d="M17.25 15.281q0.75-0.75 0.75-1.781t-0.727-1.758-1.758-0.727q-1.078 0-1.781 0.703l-0.75 0.75-0.703-0.75q-0.703-0.703-1.781-0.703-1.031 0-1.758 0.727t-0.727 1.758q0 1.078 0.703 1.781l4.266 4.266zM5.484 6.984q0.609 0 1.055-0.445t0.445-1.055-0.445-1.055-1.055-0.445-1.055 0.445-0.445 1.055 0.445 1.055 1.055 0.445zM21.422 11.578q0.563 0.563 0.563 1.406t-0.563 1.406l-7.031 7.031q-0.563 0.563-1.406 0.563t-1.406-0.563l-9-9q-0.563-0.563-0.563-1.406v-7.031q0-0.797 0.586-1.383t1.383-0.586h7.031q0.844 0 1.406 0.563z"></path>
</symbol>
<symbol id="icon-perm_contact_calendar" viewBox="0 0 24 24">
<path d="M18 18v-0.984q0-1.359-2.063-2.227t-3.938-0.867-3.938 0.867-2.063 2.227v0.984h12zM12 6q-1.219 0-2.109 0.891t-0.891 2.109 0.891 2.109 2.109 0.891 2.109-0.891 0.891-2.109-0.891-2.109-2.109-0.891zM18.984 3q0.797 0 1.406 0.609t0.609 1.406v13.969q0 0.797-0.609 1.406t-1.406 0.609h-13.969q-0.844 0-1.43-0.586t-0.586-1.43v-13.969q0-0.844 0.586-1.43t1.43-0.586h0.984v-2.016h2.016v2.016h7.969v-2.016h2.016v2.016h0.984z"></path>
</symbol>
<symbol id="icon-search" viewBox="0 0 24 24">
<path d="M9.516 14.016q1.875 0 3.188-1.313t1.313-3.188-1.313-3.188-3.188-1.313-3.188 1.313-1.313 3.188 1.313 3.188 3.188 1.313zM15.516 14.016l4.969 4.969-1.5 1.5-4.969-4.969v-0.797l-0.281-0.281q-1.781 1.547-4.219 1.547-2.719 0-4.617-1.875t-1.898-4.594 1.898-4.617 4.617-1.898 4.594 1.898 1.875 4.617q0 0.984-0.469 2.227t-1.078 1.992l0.281 0.281h0.797z"></path>
</symbol>
<symbol id="icon-settings" viewBox="0 0 24 24">
<path d="M12 15.516q1.453 0 2.484-1.031t1.031-2.484-1.031-2.484-2.484-1.031-2.484 1.031-1.031 2.484 1.031 2.484 2.484 1.031zM19.453 12.984l2.109 1.641q0.328 0.234 0.094 0.656l-2.016 3.469q-0.188 0.328-0.609 0.188l-2.484-0.984q-0.984 0.703-1.688 0.984l-0.375 2.625q-0.094 0.422-0.469 0.422h-4.031q-0.375 0-0.469-0.422l-0.375-2.625q-0.891-0.375-1.688-0.984l-2.484 0.984q-0.422 0.141-0.609-0.188l-2.016-3.469q-0.234-0.422 0.094-0.656l2.109-1.641q-0.047-0.328-0.047-0.984t0.047-0.984l-2.109-1.641q-0.328-0.234-0.094-0.656l2.016-3.469q0.188-0.328 0.609-0.188l2.484 0.984q0.984-0.703 1.688-0.984l0.375-2.625q0.094-0.422 0.469-0.422h4.031q0.375 0 0.469 0.422l0.375 2.625q0.891 0.375 1.688 0.984l2.484-0.984q0.422-0.141 0.609 0.188l2.016 3.469q0.234 0.422-0.094 0.656l-2.109 1.641q0.047 0.328 0.047 0.984t-0.047 0.984z"></path>
</symbol>
<symbol id="icon-pan_tool" viewBox="0 0 24 24">
<path d="M23.016 5.484v14.531q0 1.641-1.195 2.813t-2.836 1.172h-7.266q-1.688 0-2.859-1.172l-7.875-8.016q1.266-1.219 1.313-1.219 0.328-0.281 0.797-0.281 0.328 0 0.609 0.141l4.313 2.438v-11.906q0-0.609 0.445-1.055t1.055-0.445 1.055 0.445 0.445 1.055v7.031h0.984v-9.516q0-0.656 0.422-1.078t1.078-0.422 1.078 0.422 0.422 1.078v9.516h0.984v-8.531q0-0.609 0.445-1.055t1.055-0.445 1.055 0.445 0.445 1.055v8.531h1.031v-5.531q0-0.609 0.445-1.055t1.055-0.445 1.055 0.445 0.445 1.055z"></path>
</symbol>
<symbol id="icon-g_translate" viewBox="0 0 24 24">
<path d="M21.516 20.484v-13.969q0-0.422-0.305-0.727t-0.727-0.305h-9.047l1.313 3.797h1.453v-1.266h1.266v1.266h4.547v1.313h-1.922q-0.703 2.344-2.391 4.219l3.281 3.281-0.938 0.891-3.094-3.094 1.031 3.094-1.969 2.531h6.469q0.422 0 0.727-0.305t0.305-0.727zM13.172 10.594l0.797 2.344 0.844 1.125q1.453-1.594 2.063-3.469h-3.703zM6.984 15.984q2.156 0 3.492-1.359t1.336-3.516q0-0.047-0.141-1.031h-4.688v1.734h2.953q-0.094 0.891-0.844 1.641t-2.109 0.75q-1.313 0-2.227-0.938t-0.914-2.25q0-1.359 0.914-2.297t2.227-0.938q1.266 0 2.063 0.797l1.313-1.266q-1.453-1.313-3.375-1.313-2.063 0-3.516 1.477t-1.453 3.539 1.453 3.516 3.516 1.453zM21 3.984q0.797 0 1.406 0.609t0.609 1.406v15q0 0.797-0.609 1.406t-1.406 0.609h-9l-0.984-3h-8.016q-0.797 0-1.406-0.609t-0.609-1.406v-15q0-0.797 0.609-1.406t1.406-0.609h6.984l1.031 3h9.984z"></path>
</symbol>
<symbol id="icon-check_circle_outline" viewBox="0 0 24 24">
<path d="M12 20.016q3.281 0 5.648-2.367t2.367-5.648-2.367-5.648-5.648-2.367-5.648 2.367-2.367 5.648 2.367 5.648 5.648 2.367zM12 2.016q4.125 0 7.055 2.93t2.93 7.055-2.93 7.055-7.055 2.93-7.055-2.93-2.93-7.055 2.93-7.055 7.055-2.93zM16.594 7.594l1.406 1.406-8.016 8.016-4.969-5.016 1.406-1.406 3.563 3.563z"></path>
</symbol>
<symbol id="icon-delete_outline" viewBox="0 0 24 24">
<path d="M15.516 3.984h3.469v2.016h-13.969v-2.016h3.469l1.031-0.984h4.969zM8.016 9v9.984h7.969v-9.984h-7.969zM6 18.984v-12h12v12q0 0.797-0.609 1.406t-1.406 0.609h-7.969q-0.797 0-1.406-0.609t-0.609-1.406z"></path>
</symbol>
<symbol id="icon-done_outline" viewBox="0 0 24 24">
<path d="M19.781 2.203l4.219 4.219-15.563 15.563-8.438-8.438 4.219-4.219 4.219 4.219zM19.781 5.016l-11.344 11.344-4.219-4.172-1.406 1.359 5.625 5.625 12.75-12.75z"></path>
</symbol>
<symbol id="icon-circle_notifications" viewBox="0 0 24 24">
<path d="M17.016 15.984v-0.984l-1.031-0.984v-2.625q0-1.641-0.773-2.859t-2.227-1.547v-0.469q0-0.422-0.281-0.727t-0.703-0.305-0.703 0.305-0.281 0.727v0.469q-1.453 0.328-2.227 1.547t-0.773 2.859v2.625l-1.031 0.984v0.984h10.031zM12 18.516q0.656 0 1.078-0.445t0.422-1.055h-3q0 0.609 0.422 1.055t1.078 0.445zM12 2.016q4.125 0 7.055 2.93t2.93 7.055-2.93 7.055-7.055 2.93-7.055-2.93-2.93-7.055 2.93-7.055 7.055-2.93z"></path>
</symbol>
<symbol id="icon-library_add_check" viewBox="0 0 24 24">
<path d="M3.984 6v14.016h14.016v1.969h-14.016q-0.797 0-1.383-0.586t-0.586-1.383v-14.016h1.969zM12.469 14.016l6.516-6.609-1.406-1.406-5.109 5.156-2.063-2.063-1.406 1.406zM20.016 2.016q0.797 0 1.383 0.586t0.586 1.383v12q0 0.797-0.586 1.406t-1.383 0.609h-12q-0.797 0-1.406-0.609t-0.609-1.406v-12q0-0.797 0.609-1.383t1.406-0.586h12z"></path>
</symbol>
<symbol id="icon-emoji_food_beverage" viewBox="0 0 24 24">
<path d="M3.984 18.984h16.031v2.016h-16.031v-2.016zM20.016 8.016v-3h-2.016v3h2.016zM20.016 3q0.844 0 1.406 0.586t0.563 1.43v3q0 0.844-0.563 1.406t-1.406 0.563h-2.016v3q0 1.641-1.172 2.836t-2.813 1.195h-6q-1.641 0-2.836-1.195t-1.195-2.836v-9.984h4.031v2.391l-1.828 1.453q-0.188 0.141-0.188 0.375v4.266q0 0.516 0.516 0.516h3.984q0.516 0 0.516-0.516v-4.266q0-0.234-0.188-0.375l-1.828-1.453v-2.391h11.016z"></path>
</symbol>
<symbol id="icon-casino" viewBox="0 0 24 24">
<path d="M16.5 9q0.656 0 1.078-0.422t0.422-1.078-0.422-1.078-1.078-0.422-1.078 0.422-0.422 1.078 0.422 1.078 1.078 0.422zM16.5 18q0.656 0 1.078-0.422t0.422-1.078-0.422-1.078-1.078-0.422-1.078 0.422-0.422 1.078 0.422 1.078 1.078 0.422zM12 13.5q0.656 0 1.078-0.422t0.422-1.078-0.422-1.078-1.078-0.422-1.078 0.422-0.422 1.078 0.422 1.078 1.078 0.422zM7.5 9q0.656 0 1.078-0.422t0.422-1.078-0.422-1.078-1.078-0.422-1.078 0.422-0.422 1.078 0.422 1.078 1.078 0.422zM7.5 18q0.656 0 1.078-0.422t0.422-1.078-0.422-1.078-1.078-0.422-1.078 0.422-0.422 1.078 0.422 1.078 1.078 0.422zM18.984 3q0.797 0 1.406 0.609t0.609 1.406v13.969q0 0.797-0.609 1.406t-1.406 0.609h-13.969q-0.797 0-1.406-0.609t-0.609-1.406v-13.969q0-0.797 0.609-1.406t1.406-0.609h13.969z"></path>
</symbol>
<symbol id="icon-addchart" viewBox="0 0 24 24">
<path d="M21.984 5.016v1.969h-3v3h-1.969v-3h-3v-1.969h3v-3h1.969v3h3zM18.984 18.984h-13.969v-13.969h6v-2.016h-6q-0.844 0-1.43 0.586t-0.586 1.43v13.969q0 0.844 0.586 1.43t1.43 0.586h13.969q0.844 0 1.43-0.586t0.586-1.43v-6h-2.016v6zM15 12.984v4.031h2.016v-4.031h-2.016zM11.016 17.016h1.969v-8.016h-1.969v8.016zM9 17.016v-6h-2.016v6h2.016z"></path>
</symbol>
<symbol id="icon-auto_fix_high" viewBox="0 0 24 24">
<path d="M7.5 5.578l2.484 1.406-1.406-2.484 1.406-2.484-2.484 1.406-2.484-1.406 1.406 2.484-1.406 2.484zM19.5 15.422l-2.484-1.406 1.406 2.484-1.406 2.484 2.484-1.406 2.484 1.406-1.406-2.484 1.406-2.484zM21.984 2.016l-2.484 1.406-2.484-1.406 1.406 2.484-1.406 2.484 2.484-1.406 2.484 1.406-1.406-2.484zM14.391 7.313q-0.328-0.328-0.727-0.328t-0.727 0.328l-11.625 11.625q-0.328 0.328-0.328 0.727t0.328 0.727l2.297 2.297q0.328 0.328 0.727 0.328t0.727-0.328l11.625-11.625q0.328-0.328 0.328-0.727t-0.328-0.68l-2.297-2.344zM13.359 12.797l-2.156-2.156 2.438-2.438 2.156 2.156-2.438 2.438z"></path>
</symbol>
<symbol id="icon-auto_fix_normal" viewBox="0 0 24 24">
<path d="M21.984 2.016l-2.484 1.406-2.484-1.406 1.406 2.484-1.406 2.484 2.484-1.406 2.484 1.406-1.406-2.484zM14.391 7.313q-0.328-0.328-0.727-0.328t-0.727 0.328l-11.625 11.625q-0.328 0.328-0.328 0.727t0.328 0.727l2.297 2.297q0.328 0.328 0.727 0.328t0.727-0.328l11.625-11.625q0.328-0.328 0.328-0.727t-0.328-0.68l-2.297-2.344zM13.359 12.797l-2.156-2.156 2.438-2.438 2.156 2.156-2.438 2.438z"></path>
</symbol>
<symbol id="icon-auto_fix_off" viewBox="0 0 24 24">
<path d="M23.016 0.984l-2.531 1.406-2.484-1.406 1.406 2.531-1.406 2.484 2.484-1.406 2.531 1.406-1.406-2.484zM14.672 7.219l2.109 2.109-2.438 2.438 0.797 0.844 2.578-2.578q0.281-0.281 0.281-0.703t-0.281-0.703l-2.344-2.344q-0.328-0.281-0.727-0.281t-0.68 0.281l-2.578 2.578 0.797 0.797 2.484-2.438zM13.875 13.875l-10.594-10.594-1.266 1.266 6.844 6.844-6.563 6.563q-0.281 0.281-0.281 0.703t0.281 0.703l2.344 2.344q0.281 0.281 0.703 0.281t0.703-0.281l6.563-6.563 6.844 6.844 1.266-1.266-6.844-6.844z"></path>
</symbol>
<symbol id="icon-construction" viewBox="0 0 24 24">
<path d="M13.781 15.188l2.109-2.156 6 6-2.109 2.156zM17.484 9.984q0.984 0 1.781-0.469t1.266-1.266 0.469-1.734q0-0.469-0.117-0.867t-0.305-0.727l-2.672 2.672-1.5-1.5 2.672-2.672q-0.328-0.188-0.727-0.305t-0.867-0.117q-0.938 0-1.734 0.469t-1.266 1.266-0.469 1.781q0 0.563 0.188 1.125l-1.828 1.875-1.781-1.781 0.703-0.703-1.406-1.406 2.109-2.156q-0.563-0.563-1.336-0.75t-1.547 0-1.336 0.75l-3.563 3.563 1.406 1.406h-2.813l-0.703 0.703 3.516 3.563 0.703-0.703v-2.859l1.453 1.406 0.703-0.703 1.781 1.781-7.406 7.406 2.109 2.109 11.391-11.344q0.563 0.188 1.125 0.188z"></path>
</symbol>
<symbol id="icon-dynamic_form" viewBox="0 0 24 24">
<path d="M17.016 20.016v-9h-2.016v-7.031h6.984l-1.969 5.016h1.969zM15 12.984v7.031h-11.016q-0.797 0-1.383-0.586t-0.586-1.43v-3q0-0.844 0.586-1.43t1.383-0.586h11.016zM6.234 15.75h-1.5v1.5h1.5v-1.5zM12.984 3.984v7.031h-9q-0.797 0-1.383-0.586t-0.586-1.43v-3q0-0.844 0.586-1.43t1.383-0.586h9zM6.234 6.75h-1.5v1.5h1.5v-1.5z"></path>
</symbol>
<symbol id="icon-insights" viewBox="0 0 24 24">
<path d="M21 8.016q-0.703 0-1.195 0.398t-0.703 0.984-0.023 1.102l-3.563 3.563q-0.516-0.141-1.031 0l-2.531-2.531q0.141-0.563-0.047-1.148t-0.68-0.984-1.242-0.398q-0.703 0-1.195 0.398t-0.68 0.984-0.047 1.148l-4.547 4.547q-0.563-0.188-1.125 0.023t-0.984 0.703-0.422 1.195q0 0.844 0.586 1.43t1.43 0.586q0.703 0 1.195-0.422t0.703-0.984 0.023-1.125l4.547-4.547q0.516 0.141 1.031 0l2.578 2.531q-0.188 0.563 0 1.148t0.68 0.984 1.242 0.398q0.703 0 1.195-0.398t0.703-0.984 0.023-1.148l3.563-3.516q0.563 0.141 1.125-0.047t0.984-0.68 0.422-1.242q0-0.797-0.586-1.383t-1.43-0.586zM15 9l0.938-2.063 2.063-0.938-2.063-0.938-0.938-2.063-0.938 2.063-2.063 0.938 2.063 0.938zM3.516 11.016l0.469-2.016 2.016-0.516-2.016-0.469-0.469-2.016-0.516 2.016-2.016 0.469 2.016 0.516z"></path>
</symbol>
<symbol id="icon-mark_chat_read" viewBox="0 0 24 24">
<path d="M17.344 20.016l-3.563-3.563 1.406-1.406 2.156 2.109 4.219-4.219 1.453 1.406zM12 17.016q0-1.453 0.539-2.719t1.5-2.227 2.227-1.523 2.719-0.563q0.844 0 1.594 0.188t1.406 0.516v-6.703q0-0.797-0.586-1.383t-1.383-0.586h-16.031q-0.797 0-1.383 0.586t-0.586 1.383v18l3.984-3.984h6q0-0.234 0.047-0.516-0.047-0.234-0.047-0.469z"></path>
</symbol>
<symbol id="icon-pending" viewBox="0 0 24 24">
<path d="M12 2.016q-2.063 0-3.867 0.773t-3.188 2.156-2.156 3.188-0.773 3.867 0.773 3.867 2.156 3.188 3.188 2.156 3.867 0.773 3.867-0.773 3.188-2.156 2.156-3.188 0.773-3.867-0.773-3.867-2.156-3.188-3.188-2.156-3.867-0.773zM6.984 13.5q-0.609 0-1.055-0.445t-0.445-1.055 0.445-1.055 1.055-0.445q0.656 0 1.078 0.445t0.422 1.055-0.422 1.055-1.078 0.445zM12 13.5q-0.609 0-1.055-0.445t-0.445-1.055 0.445-1.055 1.055-0.445 1.055 0.445 0.445 1.055-0.445 1.055-1.055 0.445zM17.016 13.5q-0.656 0-1.078-0.445t-0.422-1.055 0.422-1.055 1.078-0.445q0.609 0 1.055 0.445t0.445 1.055-0.445 1.055-1.055 0.445z"></path>
</symbol>
<symbol id="icon-run_circle" viewBox="0 0 24 24">
<path d="M12 2.016q-2.063 0-3.867 0.773t-3.188 2.156-2.156 3.188-0.773 3.867 0.773 3.867 2.156 3.188 3.188 2.156 3.867 0.773 3.867-0.773 3.188-2.156 2.156-3.188 0.773-3.867-0.773-3.867-2.156-3.188-3.188-2.156-3.867-0.773zM13.5 6q0.422 0 0.703 0.305t0.281 0.68q0 0.422-0.281 0.727t-0.703 0.305-0.703-0.305-0.281-0.727q0-0.375 0.281-0.68t0.703-0.305zM15.984 12q-0.516 0-1.359-0.422t-1.547-1.359l-0.375 2.391 1.313 1.406v3.984h-1.031v-3.563l-1.078-1.219-0.516 2.625-3.797-0.75 0.188-0.984 2.813 0.563 0.938-4.875-1.547 0.563v1.641h-0.984v-2.344l3.281-1.219q0.375-0.141 0.727 0.023t0.539 0.492q0.422 0.844 0.914 1.289t0.914 0.609 0.609 0.164v0.984z"></path>
</symbol>
<symbol id="icon-star_outline1" viewBox="0 0 24 24">
<path d="M21.984 9.234l-7.172-0.609-2.813-6.609-2.813 6.609-7.172 0.609 5.438 4.734-1.641 7.031 6.188-3.75 6.188 3.75-1.641-7.031zM12 15.422l-3.75 2.25 0.984-4.266-3.328-2.906 4.406-0.375 1.688-4.031 1.688 4.031 4.406 0.375-3.328 2.906 0.984 4.266z"></path>
</symbol>
<symbol id="icon-star_rate" viewBox="0 0 24 24">
<path d="M14.438 9.984l-2.438-7.969-2.438 7.969h-7.547l6.188 4.406-2.391 7.594 6.188-4.688 6.188 4.688-2.344-7.594 6.141-4.406h-7.547z"></path>
</symbol>
<symbol id="icon-sticky_note_2" viewBox="0 0 24 24">
<path d="M18.984 3h-14.016q-0.797 0-1.383 0.586t-0.586 1.43v13.969q0 0.844 0.586 1.43t1.43 0.586h9.984l6-6v-9.984q0-0.844-0.586-1.43t-1.43-0.586zM6.984 8.016h10.031v1.969h-10.031v-1.969zM12 14.016h-5.016v-2.016h5.016v2.016zM14.016 19.5v-5.484h5.484z"></path>
</symbol>
<symbol id="icon-verified" viewBox="0 0 24 24">
<path d="M23.016 12l-2.438-2.813 0.328-3.656-3.609-0.844-1.875-3.188-3.422 1.453-3.422-1.453-1.875 3.188-3.609 0.797 0.328 3.703-2.438 2.813 2.438 2.813-0.328 3.656 3.609 0.844 1.875 3.188 3.422-1.453 3.422 1.453 1.875-3.188 3.609-0.844-0.328-3.656zM10.078 16.734l-3.797-3.844 1.5-1.453 2.297 2.344 5.859-5.906 1.5 1.5z"></path>
</symbol>
</defs>
</svg>
