<svg aria-hidden="true" style="position: absolute; width: 0; height: 0; overflow: hidden;" version="1.1" xmlns="http://www.w3.org/2000/svg" xmlns:xlink="http://www.w3.org/1999/xlink">
<defs>
<symbol id="icon-add-to-list" viewBox="0 0 20 20">
<path d="M19.4 9h-3.4v-3.4c0-0.6-0.4-0.6-1-0.6s-1 0-1 0.6v3.4h-3.4c-0.6 0-0.6 0.4-0.6 1s0 1 0.6 1h3.4v3.4c0 0.6 0.4 0.6 1 0.6s1 0 1-0.6v-3.4h3.4c0.6 0 0.6-0.4 0.6-1s0-1-0.6-1zM7.4 9h-6.8c-0.6 0-0.6 0.4-0.6 1s0 1 0.6 1h6.8c0.6 0 0.6-0.4 0.6-1s0-1-0.6-1zM7.4 14h-6.8c-0.6 0-0.6 0.4-0.6 1s0 1 0.6 1h6.8c0.6 0 0.6-0.4 0.6-1s0-1-0.6-1zM7.4 4h-6.8c-0.6 0-0.6 0.4-0.6 1s0 1 0.6 1h6.8c0.6 0 0.6-0.4 0.6-1s0-1-0.6-1z"></path>
</symbol>
<symbol id="icon-dots-three-horizontal" viewBox="0 0 20 20">
<path d="M10.001 7.8c-1.215 0-2.201 0.985-2.201 2.2s0.986 2.2 2.201 2.2c1.215 0 2.199-0.985 2.199-2.2s-0.984-2.2-2.199-2.2zM3.001 7.8c-1.215 0-2.201 0.985-2.201 2.2s0.986 2.2 2.201 2.2c1.215 0 2.199-0.986 2.199-2.2s-0.984-2.2-2.199-2.2zM17.001 7.8c-1.215 0-2.201 0.985-2.201 2.2s0.986 2.2 2.201 2.2c1.215 0 2.199-0.985 2.199-2.2s-0.984-2.2-2.199-2.2z"></path>
</symbol>
<symbol id="icon-dots-three-vertical" viewBox="0 0 20 20">
<path d="M10.001 7.8c-1.215 0-2.201 0.985-2.201 2.2s0.986 2.2 2.201 2.2c1.215 0 2.199-0.985 2.199-2.2s-0.984-2.2-2.199-2.2zM10.001 5.2c1.215 0 2.199-0.986 2.199-2.2s-0.984-2.2-2.199-2.2c-1.215 0-2.201 0.985-2.201 2.2s0.986 2.2 2.201 2.2zM10.001 14.8c-1.215 0-2.201 0.985-2.201 2.2s0.986 2.2 2.201 2.2c1.215 0 2.199-0.985 2.199-2.2s-0.984-2.2-2.199-2.2z"></path>
</symbol>
<symbol id="icon-dots-two-horizontal" viewBox="0 0 20 20">
<path d="M14.001 7.8c-1.215 0-2.201 0.985-2.201 2.2s0.986 2.2 2.201 2.2c1.215 0 2.199-0.985 2.199-2.2s-0.984-2.2-2.199-2.2zM6.001 7.8c-1.215 0-2.201 0.985-2.201 2.2s0.986 2.2 2.201 2.2c1.215 0 2.199-0.986 2.199-2.2s-0.984-2.2-2.199-2.2z"></path>
</symbol>
<symbol id="icon-dots-two-vertical" viewBox="0 0 20 20">
<path d="M10.001 8.2c1.215 0 2.199-0.986 2.199-2.2s-0.984-2.2-2.199-2.2c-1.215 0-2.201 0.985-2.201 2.2s0.986 2.2 2.201 2.2zM10.001 11.8c-1.215 0-2.201 0.985-2.201 2.2s0.986 2.2 2.201 2.2c1.215 0 2.199-0.985 2.199-2.2s-0.984-2.2-2.199-2.2z"></path>
</symbol>
<symbol id="icon-globe" viewBox="0 0 20 20">
<path d="M10 0.4c-5.295 0-9.601 4.307-9.601 9.6s4.306 9.6 9.601 9.6c5.293 0 9.6-4.307 9.6-9.6s-4.307-9.6-9.6-9.6zM18.188 10c0 1.873-0.636 3.6-1.696 4.98-0.3-0.234-0.619-0.867-0.319-1.523 0.303-0.66 0.382-2.188 0.312-2.783-0.066-0.594-0.375-2.025-1.214-2.039-0.838-0.012-1.413-0.289-1.911-1.283-1.033-2.068 1.939-2.465 0.906-3.609-0.289-0.322-1.783 1.322-2.002-0.869-0.014-0.157 0.135-0.392 0.336-0.636 3.244 1.090 5.588 4.157 5.588 7.762zM8.875 1.893c-0.196 0.382-0.713 0.537-1.027 0.824-0.684 0.619-0.978 0.533-1.346 1.127-0.371 0.594-1.567 1.449-1.567 1.879s0.604 0.936 0.906 0.838c0.302-0.1 1.099-0.094 1.567 0.070 0.469 0.166 3.914 0.332 2.816 3.244-0.348 0.926-1.873 0.77-2.279 2.303-0.061 0.225-0.272 1.186-0.285 1.5-0.025 0.486 0.344 2.318-0.125 2.318-0.471 0-1.738-1.639-1.738-1.936s-0.328-1.338-0.328-2.23c0-0.891-1.518-0.877-1.518-2.062 0-1.068 0.823-1.6 0.638-2.113-0.181-0.51-1.627-0.527-2.23-0.59 1.053-2.731 3.53-4.758 6.516-5.172zM7.424 17.77c0.492-0.26 0.542-0.596 0.988-0.613 0.51-0.023 0.925-0.199 1.5-0.326 0.51-0.111 1.423-0.629 2.226-0.695 0.678-0.055 2.015 0.035 2.375 0.689-1.295 0.861-2.848 1.363-4.514 1.363-0.899 0-1.765-0.149-2.575-0.418z"></path>
</symbol>
<symbol id="icon-image-inverted" viewBox="0 0 20 20">
<path d="M18 3h-16c-0.553 0-1 0.447-1 1v12c0 0.552 0.447 1 1 1h16c0.553 0 1-0.448 1-1v-12c0-0.552-0.447-1-1-1zM13.25 6.5c0.69 0 1.25 0.56 1.25 1.25s-0.56 1.25-1.25 1.25-1.25-0.56-1.25-1.25 0.56-1.25 1.25-1.25zM4 14l3.314-7.619 3.769 6.102 3.231-1.605 1.686 3.122h-12z"></path>
</symbol>
<symbol id="icon-image" viewBox="0 0 20 20">
<path d="M19 2h-18c-0.553 0-1 0.447-1 1v14c0 0.552 0.447 1 1 1h18c0.553 0 1-0.448 1-1v-14c0-0.552-0.447-1-1-1zM18 16h-16v-12h16v12zM14.315 10.877l-3.231 1.605-3.77-6.101-3.314 7.619h12l-1.685-3.123zM13.25 9c0.69 0 1.25-0.56 1.25-1.25s-0.56-1.25-1.25-1.25-1.25 0.56-1.25 1.25 0.56 1.25 1.25 1.25z"></path>
</symbol>
<symbol id="icon-images" viewBox="0 0 20 20">
<path d="M17.125 6.17l-2.046-5.635c-0.151-0.416-0.595-0.637-0.989-0.492l-13.598 4.963c-0.394 0.144-0.593 0.597-0.441 1.013l2.156 5.941v-3.183c0-1.438 1.148-2.607 2.56-2.607h3.593l4.285-3.008 2.479 3.008h2.001zM19.238 8h-14.471c-0.42 0-0.762 0.334-0.762 0.777v9.42c0.001 0.444 0.343 0.803 0.762 0.803h14.471c0.42 0 0.762-0.359 0.762-0.803v-9.42c0-0.443-0.342-0.777-0.762-0.777zM18 17h-12v-2l1.984-4.018 2.768 3.436 2.598-2.662 3.338-1.205 1.312 3.449v3z"></path>
</symbol>
<symbol id="icon-list" viewBox="0 0 20 20">
<path d="M14.4 9h-5.8c-0.552 0-0.6 0.447-0.6 1s0.048 1 0.6 1h5.8c0.552 0 0.6-0.447 0.6-1s-0.048-1-0.6-1zM16.4 14h-7.8c-0.552 0-0.6 0.447-0.6 1s0.048 1 0.6 1h7.8c0.552 0 0.6-0.447 0.6-1s-0.048-1-0.6-1zM8.6 6h7.8c0.552 0 0.6-0.447 0.6-1s-0.048-1-0.6-1h-7.8c-0.552 0-0.6 0.447-0.6 1s0.048 1 0.6 1zM5.4 9h-1.8c-0.552 0-0.6 0.447-0.6 1s0.048 1 0.6 1h1.8c0.552 0 0.6-0.447 0.6-1s-0.048-1-0.6-1zM5.4 14h-1.8c-0.552 0-0.6 0.447-0.6 1s0.048 1 0.6 1h1.8c0.552 0 0.6-0.447 0.6-1s-0.048-1-0.6-1zM5.4 4h-1.8c-0.552 0-0.6 0.447-0.6 1s0.048 1 0.6 1h1.8c0.552 0 0.6-0.447 0.6-1s-0.048-1-0.6-1z"></path>
</symbol>
<symbol id="icon-network" viewBox="0 0 20 20">
<path d="M5.274 6.915c0.2 0 0.394 0.029 0.576 0.086 0.69-0.773 1.455-1.477 2.283-2.1-0.035-0.146-0.054-0.299-0.054-0.455 0-0.217 0.036-0.426 0.102-0.621-0.929-0.664-1.937-1.223-3.011-1.654-1.005 0.621-1.882 1.431-2.582 2.381 0.519 0.92 1.136 1.777 1.838 2.557 0.256-0.124 0.543-0.194 0.848-0.194zM3.316 8.872c0-0.275 0.058-0.537 0.159-0.773-0.628-0.692-1.197-1.436-1.695-2.229-0.625 1.242-0.98 2.645-0.98 4.131 0 1.719 0.474 3.328 1.295 4.705 0.294-1.654 0.851-3.219 1.62-4.652-0.25-0.328-0.399-0.739-0.399-1.182zM10.036 2.489c0.517 0 0.985 0.201 1.336 0.529 1.021-0.439 2.096-0.777 3.215-0.992-1.351-0.779-2.917-1.226-4.587-1.226-1.139 0-2.229 0.209-3.236 0.588 0.799 0.395 1.561 0.855 2.277 1.375 0.292-0.174 0.631-0.274 0.995-0.274zM12.962 11.708c0.122-0.254 0.295-0.479 0.509-0.656-0.578-1.777-1.493-3.404-2.672-4.803-0.234 0.1-0.492 0.154-0.764 0.154-0.425 0-0.816-0.137-1.137-0.365-0.71 0.539-1.367 1.143-1.964 1.803 0.188 0.299 0.297 0.652 0.297 1.031 0 0.203-0.031 0.4-0.090 0.586 1.717 1.146 3.694 1.934 5.821 2.25zM15.501 14.351c0.026 0.371 0.041 0.744 0.041 1.121 0 0.664-0.042 1.318-0.122 1.961 1.56-1.139 2.748-2.758 3.347-4.639-0.71 0.172-1.438 0.295-2.181 0.365-0.173 0.537-0.572 0.969-1.085 1.192zM12.504 13.024c-2.272-0.377-4.377-1.244-6.21-2.484-0.298 0.182-0.647 0.289-1.021 0.289-0.139 0-0.272-0.014-0.402-0.041-0.877 1.662-1.438 3.517-1.599 5.484 0.876 0.94 1.944 1.697 3.145 2.205 1.492-2.293 3.576-4.189 6.087-5.453zM16.176 3.181c-1.475 0.143-2.883 0.514-4.193 1.068 0.006 0.066 0.010 0.131 0.010 0.197 0 0.309-0.074 0.6-0.201 0.859 1.311 1.539 2.327 3.33 2.969 5.291 0.797 0.016 1.477 0.502 1.77 1.195 0.886-0.090 1.748-0.26 2.578-0.504 0.060-0.42 0.092-0.85 0.092-1.287-0.001-2.704-1.167-5.136-3.025-6.819zM13.489 14.069c-2.344 1.098-4.304 2.789-5.723 4.856 0.715 0.179 1.463 0.275 2.234 0.275 1.387 0 2.702-0.309 3.882-0.859 0.19-0.928 0.29-1.887 0.29-2.869 0-0.355-0.016-0.707-0.043-1.055-0.236-0.076-0.453-0.193-0.64-0.348z"></path>
</symbol>
<symbol id="icon-tools" viewBox="0 0 20 20">
<path d="M3.135 6.89c0.933-0.725 1.707-0.225 2.74 0.971 0.116 0.135 0.272-0.023 0.361-0.1 0.088-0.078 1.451-1.305 1.518-1.361 0.066-0.059 0.146-0.169 0.041-0.292-0.107-0.123-0.494-0.625-0.743-0.951-1.808-2.365 4.946-3.969 3.909-3.994-0.528-0.014-2.646-0.039-2.963-0.004-1.283 0.135-2.894 1.334-3.705 1.893-1.061 0.726-1.457 1.152-1.522 1.211-0.3 0.262-0.048 0.867-0.592 1.344-0.575 0.503-0.934 0.122-1.267 0.414-0.165 0.146-0.627 0.492-0.759 0.607-0.133 0.117-0.157 0.314-0.021 0.471 0 0 1.264 1.396 1.37 1.52 0.105 0.122 0.391 0.228 0.567 0.071 0.177-0.156 0.632-0.553 0.708-0.623 0.078-0.066-0.050-0.861 0.358-1.177zM8.843 7.407c-0.12-0.139-0.269-0.143-0.397-0.029l-1.434 1.252c-0.113 0.1-0.129 0.283-0.027 0.4l8.294 9.439c0.194 0.223 0.53 0.246 0.751 0.053l0.97-0.813c0.222-0.195 0.245-0.533 0.052-0.758l-8.209-9.544zM19.902 3.39c-0.074-0.494-0.33-0.391-0.463-0.182-0.133 0.211-0.721 1.102-0.963 1.506-0.24 0.4-0.832 1.191-1.934 0.41-1.148-0.811-0.749-1.377-0.549-1.758 0.201-0.383 0.818-1.457 0.907-1.59 0.089-0.135-0.015-0.527-0.371-0.363s-2.523 1.025-2.823 2.26c-0.307 1.256 0.257 2.379-0.85 3.494l-1.343 1.4 1.349 1.566 1.654-1.57c0.394-0.396 1.236-0.781 1.998-0.607 1.633 0.369 2.524-0.244 3.061-1.258 0.482-0.906 0.402-2.814 0.327-3.308zM2.739 17.053c-0.208 0.209-0.208 0.549 0 0.758l0.951 0.93c0.208 0.209 0.538 0.121 0.746-0.088l4.907-4.824-1.503-1.714-5.101 4.938z"></path>
</symbol>
<symbol id="icon-error" viewBox="0 0 24 24">
<path d="M12.984 12.984v-6h-1.969v6h1.969zM12.984 17.016v-2.016h-1.969v2.016h1.969zM12 2.016q4.125 0 7.055 2.93t2.93 7.055-2.93 7.055-7.055 2.93-7.055-2.93-2.93-7.055 2.93-7.055 7.055-2.93z"></path>
</symbol>
<symbol id="icon-error_outline" viewBox="0 0 24 24">
<path d="M12 20.016q3.281 0 5.648-2.367t2.367-5.648-2.367-5.648-5.648-2.367-5.648 2.367-2.367 5.648 2.367 5.648 5.648 2.367zM12 2.016q4.125 0 7.055 2.93t2.93 7.055-2.93 7.055-7.055 2.93-7.055-2.93-2.93-7.055 2.93-7.055 7.055-2.93zM11.016 6.984h1.969v6h-1.969v-6zM11.016 15h1.969v2.016h-1.969v-2.016z"></path>
</symbol>
<symbol id="icon-warning" viewBox="0 0 24 24">
<path d="M12.984 14.016v-4.031h-1.969v4.031h1.969zM12.984 18v-2.016h-1.969v2.016h1.969zM0.984 21l11.016-18.984 11.016 18.984h-22.031z"></path>
</symbol>
<symbol id="icon-equalizer" viewBox="0 0 24 24">
<path d="M15.984 9h4.031v11.016h-4.031v-11.016zM3.984 20.016v-8.016h4.031v8.016h-4.031zM9.984 20.016v-16.031h4.031v16.031h-4.031z"></path>
</symbol>
<symbol id="icon-loop" viewBox="0 0 24 24">
<path d="M12 18v-3l3.984 3.984-3.984 4.031v-3q-3.281 0-5.648-2.367t-2.367-5.648q0-2.344 1.266-4.266l1.453 1.453q-0.703 1.266-0.703 2.813 0 2.484 1.758 4.242t4.242 1.758zM12 3.984q3.281 0 5.648 2.367t2.367 5.648q0 2.344-1.266 4.266l-1.453-1.453q0.703-1.266 0.703-2.813 0-2.484-1.758-4.242t-4.242-1.758v3l-3.984-3.984 3.984-4.031v3z"></path>
</symbol>
<symbol id="icon-mic" viewBox="0 0 24 24">
<path d="M17.297 11.016h1.688q0 2.531-1.758 4.43t-4.242 2.273v3.281h-1.969v-3.281q-2.484-0.375-4.242-2.273t-1.758-4.43h1.688q0 2.203 1.57 3.633t3.727 1.43 3.727-1.43 1.57-3.633zM12 14.016q-1.219 0-2.109-0.891t-0.891-2.109v-6q0-1.219 0.891-2.109t2.109-0.891 2.109 0.891 0.891 2.109v6q0 1.219-0.891 2.109t-2.109 0.891z"></path>
</symbol>
<symbol id="icon-mic_none" viewBox="0 0 24 24">
<path d="M17.297 11.016h1.688q0 2.531-1.758 4.43t-4.242 2.273v3.281h-1.969v-3.281q-2.484-0.375-4.242-2.273t-1.758-4.43h1.688q0 2.203 1.57 3.633t3.727 1.43 3.727-1.43 1.57-3.633zM10.781 4.922v6.188q0 0.469 0.352 0.82t0.867 0.352q0.469 0 0.82-0.328t0.352-0.844l0.047-6.188q0-0.516-0.375-0.867t-0.844-0.352-0.844 0.352-0.375 0.867zM12 14.016q-1.219 0-2.109-0.891t-0.891-2.109v-6q0-1.219 0.891-2.109t2.109-0.891 2.109 0.891 0.891 2.109v6q0 1.219-0.891 2.109t-2.109 0.891z"></path>
</symbol>
<symbol id="icon-mic_off" viewBox="0 0 24 24">
<path d="M4.266 3l16.734 16.734-1.266 1.266-4.172-4.172q-1.031 0.656-2.578 0.891v3.281h-1.969v-3.281q-2.484-0.375-4.242-2.273t-1.758-4.43h1.688q0 2.203 1.57 3.633t3.727 1.43q1.172 0 2.297-0.516l-1.641-1.641q-0.375 0.094-0.656 0.094-1.219 0-2.109-0.891t-0.891-2.109v-0.75l-6-6zM15 11.156l-6-5.953v-0.188q0-1.219 0.891-2.109t2.109-0.891 2.109 0.891 0.891 2.109v6.141zM18.984 11.016q0 1.734-0.891 3.281l-1.219-1.266q0.422-0.938 0.422-2.016h1.688z"></path>
</symbol>
<symbol id="icon-new_releases" viewBox="0 0 24 24">
<path d="M12.984 12.984v-6h-1.969v6h1.969zM12.984 17.016v-2.016h-1.969v2.016h1.969zM23.016 12l-2.438 2.766 0.328 3.703-3.609 0.797-1.875 3.188-3.422-1.453-3.422 1.453-1.875-3.141-3.609-0.844 0.328-3.703-2.438-2.766 2.438-2.813-0.328-3.656 3.609-0.797 1.875-3.188 3.422 1.453 3.422-1.453 1.875 3.188 3.609 0.797-0.328 3.703z"></path>
</symbol>
<symbol id="icon-not_interested" viewBox="0 0 24 24">
<path d="M18.328 16.922q1.688-2.109 1.688-4.922 0-3.281-2.367-5.648t-5.648-2.367q-1.125 0-2.578 0.492t-2.344 1.195zM12 20.016q1.125 0 2.578-0.492t2.344-1.195l-11.25-11.25q-1.688 2.109-1.688 4.922 0 3.281 2.367 5.648t5.648 2.367zM12 2.016q4.125 0 7.055 2.93t2.93 7.055-2.93 7.055-7.055 2.93-7.055-2.93-2.93-7.055 2.93-7.055 7.055-2.93z"></path>
</symbol>
<symbol id="icon-pause" viewBox="0 0 24 24">
<path d="M14.016 5.016h3.984v13.969h-3.984v-13.969zM6 18.984v-13.969h3.984v13.969h-3.984z"></path>
</symbol>
<symbol id="icon-pause_circle_filled" viewBox="0 0 24 24">
<path d="M15 15.984v-7.969h-2.016v7.969h2.016zM11.016 15.984v-7.969h-2.016v7.969h2.016zM12 2.016q4.125 0 7.055 2.93t2.93 7.055-2.93 7.055-7.055 2.93-7.055-2.93-2.93-7.055 2.93-7.055 7.055-2.93z"></path>
</symbol>
<symbol id="icon-pause_circle_outline" viewBox="0 0 24 24">
<path d="M12.984 15.984v-7.969h2.016v7.969h-2.016zM12 20.016q3.281 0 5.648-2.367t2.367-5.648-2.367-5.648-5.648-2.367-5.648 2.367-2.367 5.648 2.367 5.648 5.648 2.367zM12 2.016q4.125 0 7.055 2.93t2.93 7.055-2.93 7.055-7.055 2.93-7.055-2.93-2.93-7.055 2.93-7.055 7.055-2.93zM9 15.984v-7.969h2.016v7.969h-2.016z"></path>
</symbol>
<symbol id="icon-play_arrow" viewBox="0 0 24 24">
<path d="M8.016 5.016l10.969 6.984-10.969 6.984v-13.969z"></path>
</symbol>
<symbol id="icon-play_circle_filled" viewBox="0 0 24 24">
<path d="M9.984 16.5l6-4.5-6-4.5v9zM12 2.016q4.125 0 7.055 2.93t2.93 7.055-2.93 7.055-7.055 2.93-7.055-2.93-2.93-7.055 2.93-7.055 7.055-2.93z"></path>
</symbol>
<symbol id="icon-play_circle_outline" viewBox="0 0 24 24">
<path d="M12 20.016q3.281 0 5.648-2.367t2.367-5.648-2.367-5.648-5.648-2.367-5.648 2.367-2.367 5.648 2.367 5.648 5.648 2.367zM12 2.016q4.125 0 7.055 2.93t2.93 7.055-2.93 7.055-7.055 2.93-7.055-2.93-2.93-7.055 2.93-7.055 7.055-2.93zM9.984 16.5v-9l6 4.5z"></path>
</symbol>
<symbol id="icon-playlist_add" viewBox="0 0 24 24">
<path d="M2.016 15.984v-1.969h7.969v1.969h-7.969zM18 14.016h3.984v1.969h-3.984v4.031h-2.016v-4.031h-3.984v-1.969h3.984v-4.031h2.016v4.031zM14.016 6v2.016h-12v-2.016h12zM14.016 9.984v2.016h-12v-2.016h12z"></path>
</symbol>
<symbol id="icon-queue_music" viewBox="0 0 24 24">
<path d="M17.016 6h4.969v2.016h-3v9q0 1.219-0.891 2.109t-2.109 0.891-2.109-0.891-0.891-2.109 0.891-2.109 2.109-0.891q0.375 0 1.031 0.188v-8.203zM3 15.984v-1.969h8.016v1.969h-8.016zM15 9.984v2.016h-12v-2.016h12zM15 6v2.016h-12v-2.016h12z"></path>
</symbol>
<symbol id="icon-web" viewBox="0 0 24 24">
<path d="M20.016 18v-9h-4.031v9h4.031zM15 12.984v-3.984h-11.016v3.984h11.016zM15 18v-3.984h-11.016v3.984h11.016zM20.016 3.984q0.797 0 1.383 0.609t0.586 1.406v12q0 0.797-0.586 1.406t-1.383 0.609h-16.031q-0.797 0-1.383-0.609t-0.586-1.406v-12q0-0.797 0.586-1.406t1.383-0.609h16.031z"></path>
</symbol>
<symbol id="icon-playlist_play" viewBox="0 0 24 24">
<path d="M14.016 14.016l4.969 3-4.969 3v-6zM3.984 14.016h8.016v1.969h-8.016v-1.969zM3.984 6h12v2.016h-12v-2.016zM3.984 9.984h12v2.016h-12v-2.016z"></path>
</symbol>
<symbol id="icon-playlist_add_check" viewBox="0 0 24 24">
<path d="M21.516 11.484l1.5 1.5-6.984 7.031-4.547-4.5 1.5-1.5 3.047 3zM2.016 15.984v-1.969h7.969v1.969h-7.969zM14.016 6v2.016h-12v-2.016h12zM14.016 9.984v2.016h-12v-2.016h12z"></path>
</symbol>
<symbol id="icon-featured_play_list" viewBox="0 0 24 24">
<path d="M12 6.984v-1.969h-9v1.969h9zM12 11.016v-2.016h-9v2.016h9zM21 3q0.797 0 1.406 0.609t0.609 1.406v13.969q0 0.797-0.609 1.406t-1.406 0.609h-18q-0.797 0-1.406-0.609t-0.609-1.406v-13.969q0-0.797 0.609-1.406t1.406-0.609h18z"></path>
</symbol>
<symbol id="icon-contact_mail" viewBox="0 0 24 24">
<path d="M21.984 12v-6h-7.969v6h7.969zM14.016 18v-0.984q0-1.359-2.063-2.227t-3.938-0.867-3.938 0.867-2.063 2.227v0.984h12zM8.016 6q-1.219 0-2.109 0.891t-0.891 2.109 0.891 2.109 2.109 0.891 2.109-0.891 0.891-2.109-0.891-2.109-2.109-0.891zM21.984 3q0.797 0 1.406 0.609t0.609 1.406v13.969q0 0.797-0.609 1.406t-1.406 0.609h-19.969q-0.797 0-1.406-0.609t-0.609-1.406v-13.969q0-0.797 0.609-1.406t1.406-0.609h19.969zM21 8.016l-3 1.969-3-1.969v-1.031l3 2.016 3-2.016v1.031z"></path>
</symbol>
<symbol id="icon-list_alt" viewBox="0 0 24 24">
<path d="M6.984 15h2.016v2.016h-2.016v-2.016zM6.984 11.016h2.016v1.969h-2.016v-1.969zM6.984 6.984h2.016v2.016h-2.016v-2.016zM11.016 15h6v2.016h-6v-2.016zM11.016 11.016h6v1.969h-6v-1.969zM11.016 6.984h6v2.016h-6v-2.016zM20.109 3q0.328 0 0.609 0.258t0.281 0.633v16.219q0 0.328-0.281 0.609t-0.609 0.281h-16.219q-0.375 0-0.633-0.281t-0.258-0.609v-16.219q0-0.891 0.891-0.891h16.219zM18.984 5.016h-13.969v13.969h13.969v-13.969z"></path>
</symbol>
<symbol id="icon-lightbulb" viewBox="0 0 24 24">
<path d="M12 2.016q2.906 0 4.945 2.039t2.039 4.945q0 3.516-3 5.719v2.297q0 0.422-0.281 0.703t-0.703 0.281h-6q-0.422 0-0.703-0.281t-0.281-0.703v-2.297q-3-2.063-3-5.719 0-2.906 2.039-4.945t4.945-2.039zM9 21v-0.984h6v0.984q0 0.422-0.281 0.703t-0.703 0.281h-4.031q-0.422 0-0.703-0.281t-0.281-0.703z"></path>
</symbol>
<symbol id="icon-add" viewBox="0 0 24 24">
<path d="M18.984 12.984h-6v6h-1.969v-6h-6v-1.969h6v-6h1.969v6h6v1.969z"></path>
</symbol>
<symbol id="icon-block1" viewBox="0 0 24 24">
<path d="M12 20.016q3.281 0 5.648-2.367t2.367-5.648q0-1.125-0.492-2.578t-1.195-2.344l-11.25 11.25q2.109 1.688 4.922 1.688zM3.984 12q0 1.125 0.492 2.578t1.195 2.344l11.25-11.25q-2.109-1.688-4.922-1.688-3.281 0-5.648 2.367t-2.367 5.648zM12 2.016q4.125 0 7.055 2.93t2.93 7.055-2.93 7.055-7.055 2.93-7.055-2.93-2.93-7.055 2.93-7.055 7.055-2.93z"></path>
</symbol>
<symbol id="icon-clear" viewBox="0 0 24 24">
<path d="M18.984 6.422l-5.578 5.578 5.578 5.578-1.406 1.406-5.578-5.578-5.578 5.578-1.406-1.406 5.578-5.578-5.578-5.578 1.406-1.406 5.578 5.578 5.578-5.578z"></path>
</symbol>
<symbol id="icon-create" viewBox="0 0 24 24">
<path d="M20.719 7.031l-1.828 1.828-3.75-3.75 1.828-1.828q0.281-0.281 0.703-0.281t0.703 0.281l2.344 2.344q0.281 0.281 0.281 0.703t-0.281 0.703zM3 17.25l11.063-11.063 3.75 3.75-11.063 11.063h-3.75v-3.75z"></path>
</symbol>
<symbol id="icon-filter_list" viewBox="0 0 24 24">
<path d="M6 12.984v-1.969h12v1.969h-12zM3 6h18v2.016h-18v-2.016zM9.984 18v-2.016h4.031v2.016h-4.031z"></path>
</symbol>
<symbol id="icon-gesture" viewBox="0 0 24 24">
<path d="M13.875 18.563q0.656 0 1.313-0.867t0.844-2.648q-1.406 0.375-2.156 1.266t-0.75 1.5q0 0.328 0.234 0.539t0.516 0.211zM4.594 6.891l-1.734-1.688q0.469-0.563 0.844-0.938 1.266-1.266 2.719-1.266 0.891 0 1.711 0.703t0.82 2.156q0 1.406-1.313 3.281-1.313 1.828-1.828 3.516-0.281 0.797-0.164 1.359t0.492 0.563q0.422 0 1.125-0.844 1.031-1.031 2.297-2.719 2.25-2.813 4.922-2.813 1.969 0 2.93 1.289t1.102 2.883h2.484v2.484h-2.438q-0.281 3.234-1.734 4.688t-3 1.453q-1.313 0-2.25-0.914t-0.938-2.18q0-1.547 1.406-3.234t3.984-2.156q-0.047-0.375-0.070-0.516t-0.141-0.445-0.281-0.445-0.492-0.258-0.797-0.117q-1.313 0-4.078 3.422-0.797 0.984-1.102 1.336t-0.867 0.82-1.078 0.609q-1.641 0.516-2.813-0.609t-1.172-2.813q0-0.703 0.258-1.547t0.68-1.641 0.797-1.43 0.727-1.148 0.398-0.563q0.797-1.313 0.281-1.5-0.328-0.141-1.688 1.219z"></path>
</symbol>
<symbol id="icon-link1" viewBox="0 0 24 24">
<path d="M17.016 6.984q2.063 0 3.516 1.477t1.453 3.539-1.453 3.539-3.516 1.477h-4.031v-1.922h4.031q1.266 0 2.18-0.914t0.914-2.18-0.914-2.18-2.18-0.914h-4.031v-1.922h4.031zM8.016 12.984v-1.969h7.969v1.969h-7.969zM3.891 12q0 1.266 0.914 2.18t2.18 0.914h4.031v1.922h-4.031q-2.063 0-3.516-1.477t-1.453-3.539 1.453-3.539 3.516-1.477h4.031v1.922h-4.031q-1.266 0-2.18 0.914t-0.914 2.18z"></path>
</symbol>
<symbol id="icon-remove" viewBox="0 0 24 24">
<path d="M18.984 12.984h-13.969v-1.969h13.969v1.969z"></path>
</symbol>
<symbol id="icon-reply" viewBox="0 0 24 24">
<path d="M9.984 9q4.875 0.703 7.523 3.727t3.492 7.289q-3.609-5.109-11.016-5.109v4.078l-6.984-6.984 6.984-6.984v3.984z"></path>
</symbol>
<symbol id="icon-reply_all" viewBox="0 0 24 24">
<path d="M12.984 9q4.875 0.703 7.523 3.727t3.492 7.289q-3.609-5.109-11.016-5.109v4.078l-6.984-6.984 6.984-6.984v3.984zM6.984 8.016l-3.984 3.984 3.984 3.984v3l-6.984-6.984 6.984-6.984v3z"></path>
</symbol>
<symbol id="icon-now_widgets" viewBox="0 0 24 24">
<path d="M16.641 1.688l5.672 5.672-5.672 5.625h4.359v8.016h-8.016v-8.016h3.656l-5.625-5.625v3.656h-8.016v-8.016h8.016v4.359zM3 21v-8.016h8.016v8.016h-8.016z"></path>
</symbol>
<symbol id="icon-signal_cellular_alt" viewBox="0 0 24 24">
<path d="M11.016 9h3v11.016h-3v-11.016zM5.016 14.016h3v6h-3v-6zM17.016 3.984h3v16.031h-3v-16.031z"></path>
</symbol>
<symbol id="icon-attach_file" viewBox="0 0 24 24">
<path d="M16.5 6h1.5v11.484q0 2.297-1.594 3.914t-3.891 1.617-3.914-1.617-1.617-3.914v-12.469q0-1.641 1.195-2.836t2.836-1.195 2.813 1.195 1.172 2.836v10.5q0 1.031-0.727 1.758t-1.758 0.727-1.781-0.727-0.75-1.758v-9.516h1.5v9.516q0 0.422 0.305 0.703t0.727 0.281 0.703-0.281 0.281-0.703v-10.5q0-1.031-0.727-1.781t-1.758-0.75-1.781 0.75-0.75 1.781v12.469q0 1.641 1.195 2.836t2.836 1.195 2.813-1.195 1.172-2.836v-11.484z"></path>
</symbol>
<symbol id="icon-border_color" viewBox="0 0 24 24">
<path d="M0 20.016h24v3.984h-24v-3.984zM20.719 4.031l-1.969 1.969-3.75-3.75 1.969-1.969q0.281-0.281 0.703-0.281t0.703 0.281l2.344 2.344q0.281 0.281 0.281 0.703t-0.281 0.703zM17.766 6.984l-10.031 10.031h-3.75v-3.75l10.031-10.031z"></path>
</symbol>
<symbol id="icon-format_list_bulleted" viewBox="0 0 24 24">
<path d="M6.984 5.016h14.016v1.969h-14.016v-1.969zM6.984 12.984v-1.969h14.016v1.969h-14.016zM6.984 18.984v-1.969h14.016v1.969h-14.016zM3.984 16.5q0.609 0 1.055 0.445t0.445 1.055-0.445 1.055-1.055 0.445-1.055-0.445-0.445-1.055 0.445-1.055 1.055-0.445zM3.984 4.5q0.609 0 1.055 0.422t0.445 1.078-0.445 1.078-1.055 0.422-1.055-0.422-0.445-1.078 0.445-1.078 1.055-0.422zM3.984 10.5q0.609 0 1.055 0.422t0.445 1.078-0.445 1.078-1.055 0.422-1.055-0.422-0.445-1.078 0.445-1.078 1.055-0.422z"></path>
</symbol>
<symbol id="icon-format_list_numbered" viewBox="0 0 24 24">
<path d="M6.984 12.984v-1.969h14.016v1.969h-14.016zM6.984 18.984v-1.969h14.016v1.969h-14.016zM6.984 5.016h14.016v1.969h-14.016v-1.969zM2.016 11.016v-1.031h3v0.938l-1.828 2.063h1.828v1.031h-3v-0.938l1.781-2.063h-1.781zM3 8.016v-3h-0.984v-1.031h1.969v4.031h-0.984zM2.016 17.016v-1.031h3v4.031h-3v-1.031h1.969v-0.469h-0.984v-1.031h0.984v-0.469h-1.969z"></path>
</symbol>
<symbol id="icon-format_list_numbered_rtl" viewBox="0 0 24 24">
<path d="M2.016 11.016h13.969v1.969h-13.969v-1.969zM2.016 17.016h13.969v1.969h-13.969v-1.969zM2.016 5.016h13.969v1.969h-13.969v-1.969zM18 11.016v-1.031h3v0.938l-1.781 2.063h1.781v1.031h-3v-0.938l1.781-2.063h-1.781zM18.984 8.016v-3h-0.984v-1.031h2.016v4.031h-1.031zM18 17.016v-1.031h3v4.031h-3v-1.031h2.016v-0.469h-1.031v-1.031h1.031v-0.469h-2.016z"></path>
</symbol>
<symbol id="icon-insert_chart_outlined" viewBox="0 0 24 24">
<path d="M19.5 3q0.797 0 1.406 0.609t0.609 1.406v13.969q0 0.797-0.609 1.406t-1.406 0.609h-15q-0.797 0-1.406-0.609t-0.609-1.406v-13.969q0-0.797 0.609-1.406t1.406-0.609h15zM19.5 19.078v-14.063h-15v14.063h15zM17.016 17.016h-2.016v-4.031h2.016v4.031zM12.984 17.016h-1.969v-10.031h1.969v10.031zM9 17.016h-2.016v-7.031h2.016v7.031z"></path>
</symbol>
<symbol id="icon-bar_chart" viewBox="0 0 24 24">
<path d="M16.219 12.984h2.766v6h-2.766v-6zM10.594 5.016h2.813v13.969h-2.813v-13.969zM5.016 9.188h3v9.797h-3v-9.797z"></path>
</symbol>
<symbol id="icon-notes" viewBox="0 0 24 24">
<path d="M3 12.984v-1.969h18v1.969h-18zM3 6h18v2.016h-18v-2.016zM3 18v-2.016h12v2.016h-12z"></path>
</symbol>
<symbol id="icon-cloud_done" viewBox="0 0 24 24">
<path d="M9.984 17.016l6.609-6.609-1.406-1.406-5.203 5.156-2.063-2.063-1.406 1.406zM19.359 10.031q1.922 0.141 3.281 1.57t1.359 3.398q0 2.063-1.477 3.539t-3.539 1.477h-12.984q-2.484 0-4.242-1.758t-1.758-4.242q0-2.203 1.57-3.961t3.773-1.992q0.984-1.828 2.766-2.953t3.891-1.125q2.531 0 4.711 1.781t2.648 4.266z"></path>
</symbol>
<symbol id="icon-cloud_download" viewBox="0 0 24 24">
<path d="M17.016 12.984h-3v-3.984h-4.031v3.984h-3l5.016 5.016zM19.359 10.031q1.922 0.141 3.281 1.57t1.359 3.398q0 2.063-1.477 3.539t-3.539 1.477h-12.984q-2.484 0-4.242-1.758t-1.758-4.242q0-2.203 1.57-3.961t3.773-1.992q0.984-1.828 2.766-2.953t3.891-1.125q2.531 0 4.711 1.781t2.648 4.266z"></path>
</symbol>
<symbol id="icon-cloud_off" viewBox="0 0 24 24">
<path d="M7.734 9.984h-1.734q-1.641 0-2.813 1.195t-1.172 2.836 1.172 2.813 2.813 1.172h9.75zM3 5.25l1.266-1.266 16.734 16.734-1.266 1.266-2.016-1.969h-11.719q-2.484 0-4.242-1.758t-1.758-4.242q0-2.438 1.688-4.172t4.078-1.828zM19.359 10.031q1.922 0.141 3.281 1.57t1.359 3.398q0 2.578-2.109 4.078l-1.453-1.453q1.547-0.844 1.547-2.625 0-1.219-0.891-2.109t-2.109-0.891h-1.5v-0.516q0-2.297-1.594-3.891t-3.891-1.594q-1.313 0-2.531 0.609l-1.5-1.453q1.828-1.172 4.031-1.172 2.531 0 4.711 1.781t2.648 4.266z"></path>
</symbol>
<symbol id="icon-cloud_queue" viewBox="0 0 24 24">
<path d="M18.984 18q1.219 0 2.109-0.891t0.891-2.109-0.891-2.109-2.109-0.891h-1.5v-0.516q0-2.297-1.594-3.891t-3.891-1.594q-1.875 0-3.328 1.125t-1.969 2.859h-0.703q-1.641 0-2.813 1.195t-1.172 2.836 1.172 2.813 2.813 1.172h12.984zM19.359 10.031q1.922 0.141 3.281 1.57t1.359 3.398q0 2.063-1.477 3.539t-3.539 1.477h-12.984q-2.484 0-4.242-1.758t-1.758-4.242q0-2.203 1.57-3.961t3.773-1.992q0.984-1.828 2.766-2.953t3.891-1.125q2.531 0 4.711 1.781t2.648 4.266z"></path>
</symbol>
<symbol id="icon-keyboard_arrow_down" viewBox="0 0 24 24">
<path d="M7.406 8.578l4.594 4.594 4.594-4.594 1.406 1.406-6 6-6-6z"></path>
</symbol>
<symbol id="icon-keyboard_arrow_left" viewBox="0 0 24 24">
<path d="M15.422 16.594l-1.406 1.406-6-6 6-6 1.406 1.406-4.594 4.594z"></path>
</symbol>
<symbol id="icon-keyboard_arrow_right" viewBox="0 0 24 24">
<path d="M8.578 16.594l4.594-4.594-4.594-4.594 1.406-1.406 6 6-6 6z"></path>
</symbol>
<symbol id="icon-keyboard_arrow_up" viewBox="0 0 24 24">
<path d="M7.406 15.422l-1.406-1.406 6-6 6 6-1.406 1.406-4.594-4.594z"></path>
</symbol>
<symbol id="icon-brightness_2" viewBox="0 0 24 24">
<path d="M9.984 2.016q4.172 0 7.102 2.93t2.93 7.055-2.93 7.055-7.102 2.93q-2.719 0-4.969-1.313 2.297-1.313 3.633-3.633t1.336-5.039-1.336-5.039-3.633-3.633q2.25-1.313 4.969-1.313z"></path>
</symbol>
<symbol id="icon-brightness_3" viewBox="0 0 24 24">
<path d="M9 2.016q4.125 0 7.055 2.93t2.93 7.055-2.93 7.055-7.055 2.93q-1.594 0-3-0.422 3.094-0.938 5.039-3.586t1.945-5.977-1.945-5.977-5.039-3.586q1.406-0.422 3-0.422z"></path>
</symbol>
<symbol id="icon-brightness_4" viewBox="0 0 24 24">
<path d="M12 18q2.484 0 4.242-1.758t1.758-4.242-1.758-4.242-4.242-1.758q-1.219 0-2.484 0.563 1.547 0.703 2.508 2.18t0.961 3.258-0.961 3.258-2.508 2.18q1.266 0.563 2.484 0.563zM20.016 8.672l3.281 3.328-3.281 3.328v4.688h-4.688l-3.328 3.281-3.328-3.281h-4.688v-4.688l-3.281-3.328 3.281-3.328v-4.688h4.688l3.328-3.281 3.328 3.281h4.688v4.688z"></path>
</symbol>
<symbol id="icon-navigate_before" viewBox="0 0 24 24">
<path d="M15.422 7.406l-4.594 4.594 4.594 4.594-1.406 1.406-6-6 6-6z"></path>
</symbol>
<symbol id="icon-navigate_next" viewBox="0 0 24 24">
<path d="M9.984 6l6 6-6 6-1.406-1.406 4.594-4.594-4.594-4.594z"></path>
</symbol>
<symbol id="icon-remove_red_eye" viewBox="0 0 24 24">
<path d="M12 9q1.219 0 2.109 0.891t0.891 2.109-0.891 2.109-2.109 0.891-2.109-0.891-0.891-2.109 0.891-2.109 2.109-0.891zM12 17.016q2.063 0 3.539-1.477t1.477-3.539-1.477-3.539-3.539-1.477-3.539 1.477-1.477 3.539 1.477 3.539 3.539 1.477zM12 4.5q3.703 0 6.703 2.063t4.313 5.438q-1.313 3.375-4.313 5.438t-6.703 2.063-6.703-2.063-4.313-5.438q1.313-3.375 4.313-5.438t6.703-2.063z"></path>
</symbol>
<symbol id="icon-style" viewBox="0 0 24 24">
<path d="M5.859 19.734v-6.328l3.469 8.344h-1.453q-0.797 0-1.406-0.609t-0.609-1.406zM7.875 8.766q0.422 0 0.703-0.305t0.281-0.727-0.281-0.703-0.703-0.281-0.703 0.281-0.281 0.703 0.281 0.727 0.703 0.305zM22.031 15.938q0.141 0.281 0.141 0.75 0 0.563-0.352 1.125t-0.867 0.75l-7.359 3.047q-0.281 0.141-0.75 0.141-0.563 0-1.102-0.352t-0.773-0.867l-4.969-12q-0.141-0.281-0.141-0.75 0-0.563 0.352-1.078t0.867-0.75l7.406-3.047q0.422-0.141 0.797-0.141 0.516 0 1.031 0.352t0.75 0.867zM2.531 19.641q-0.75-0.328-1.078-1.078t0-1.5l2.438-5.859v9z"></path>
</symbol>
<symbol id="icon-view_compact" viewBox="0 0 24 24">
<path d="M3 5.016h18.984v6h-18.984v-6zM9.984 18.984v-6.984h12v6.984h-12zM3 18.984v-6.984h6v6.984h-6z"></path>
</symbol>
<symbol id="icon-wb_sunny" viewBox="0 0 24 24">
<path d="M3.563 18.563l1.781-1.828 1.406 1.406-1.781 1.828zM11.016 22.453v-2.953h1.969v2.953h-1.969zM12 5.484q2.484 0 4.242 1.758t1.758 4.242-1.758 4.242-4.242 1.758-4.242-1.758-1.758-4.242 1.758-4.242 4.242-1.758zM20.016 10.5h3v2.016h-3v-2.016zM17.25 18.141l1.406-1.359 1.781 1.781-1.406 1.406zM20.438 4.453l-1.781 1.781-1.406-1.406 1.781-1.781zM12.984 0.563v2.953h-1.969v-2.953h1.969zM3.984 10.5v2.016h-3v-2.016h3zM6.75 4.828l-1.406 1.406-1.781-1.781 1.406-1.406z"></path>
</symbol>
<symbol id="icon-collections_bookmark" viewBox="0 0 24 24">
<path d="M20.016 12v-8.016h-5.016v8.016l2.484-1.5zM20.016 2.016q0.797 0 1.383 0.586t0.586 1.383v12q0 0.797-0.586 1.406t-1.383 0.609h-12q-0.797 0-1.406-0.609t-0.609-1.406v-12q0-0.797 0.609-1.383t1.406-0.586h12zM3.984 6v14.016h14.016v1.969h-14.016q-0.797 0-1.383-0.586t-0.586-1.383v-14.016h1.969z"></path>
</symbol>
<symbol id="icon-photo_size_select_actual" viewBox="0 0 24 24">
<path d="M5.016 17.016h13.969l-4.5-6-3.469 4.5-2.531-3zM21 3q0.75 0 1.383 0.633t0.633 1.383v13.969q0 0.75-0.633 1.383t-1.383 0.633h-18q-0.797 0-1.406-0.609t-0.609-1.406v-13.969q0-0.75 0.633-1.383t1.383-0.633h18z"></path>
</symbol>
<symbol id="icon-photo_size_select_large" viewBox="0 0 24 24">
<path d="M3 18.984h9.984l-3.188-4.266-2.484 3.234-1.828-2.156zM0.984 11.016h14.016v9.984h-12q-0.797 0-1.406-0.609t-0.609-1.406v-7.969zM5.016 3h1.969v2.016h-1.969v-2.016zM9 3h2.016v2.016h-2.016v-2.016zM3 3v2.016h-2.016q0-0.75 0.633-1.383t1.383-0.633zM17.016 18.984h1.969v2.016h-1.969v-2.016zM17.016 3h1.969v2.016h-1.969v-2.016zM0.984 6.984h2.016v2.016h-2.016v-2.016zM21 3q0.75 0 1.383 0.633t0.633 1.383h-2.016v-2.016zM21 6.984h2.016v2.016h-2.016v-2.016zM12.984 3h2.016v2.016h-2.016v-2.016zM23.016 18.984q0 0.75-0.633 1.383t-1.383 0.633v-2.016h2.016zM21 11.016h2.016v1.969h-2.016v-1.969zM21 15h2.016v2.016h-2.016v-2.016z"></path>
</symbol>
<symbol id="icon-photo_size_select_small" viewBox="0 0 24 24">
<path d="M6.984 3v2.016h-1.969v-2.016h1.969zM11.016 3v2.016h-2.016v-2.016h2.016zM3 11.016v1.969h-2.016v-1.969h2.016zM3 3v2.016h-2.016q0-0.75 0.633-1.383t1.383-0.633zM18.984 18.984v2.016h-1.969v-2.016h1.969zM18.984 3v2.016h-1.969v-2.016h1.969zM15 18.984v2.016h-2.016v-2.016h2.016zM3 6.984v2.016h-2.016v-2.016h2.016zM3 21q-0.797 0-1.406-0.609t-0.609-1.406v-3.984h10.031v6h-8.016zM21 3q0.75 0 1.383 0.633t0.633 1.383h-2.016v-2.016zM23.016 6.984v2.016h-2.016v-2.016h2.016zM15 3v2.016h-2.016v-2.016h2.016zM23.016 18.984q0 0.75-0.633 1.383t-1.383 0.633v-2.016h2.016zM23.016 11.016v1.969h-2.016v-1.969h2.016zM23.016 15v2.016h-2.016v-2.016h2.016z"></path>
</symbol>
<symbol id="icon-vignette" viewBox="0 0 24 24">
<path d="M12 18q3.328 0 5.672-1.758t2.344-4.242-2.344-4.242-5.672-1.758-5.672 1.758-2.344 4.242 2.344 4.242 5.672 1.758zM21 3q0.797 0 1.406 0.609t0.609 1.406v13.969q0 0.797-0.609 1.406t-1.406 0.609h-18q-0.797 0-1.406-0.609t-0.609-1.406v-13.969q0-0.797 0.609-1.406t1.406-0.609h18z"></path>
</symbol>
<symbol id="icon-local_restaurant" viewBox="0 0 24 24">
<path d="M14.859 11.531l-1.453 1.453 6.891 6.891-1.406 1.406-6.891-6.891-6.891 6.891-1.406-1.406 9.75-9.75q-0.563-1.125-0.164-2.625t1.57-2.672q1.453-1.453 3.234-1.664t2.859 0.867 0.867 2.883-1.664 3.258q-1.172 1.172-2.672 1.547t-2.625-0.188zM8.109 13.359l-4.219-4.219q-1.172-1.172-1.172-2.813t1.172-2.813l7.031 6.984z"></path>
</symbol>
<symbol id="icon-rate_review" viewBox="0 0 24 24">
<path d="M18 14.016v-2.016h-5.484l-2.016 2.016h7.5zM6 14.016h2.484l6.891-6.891q0.375-0.375 0-0.703l-1.781-1.781q-0.375-0.328-0.703 0l-6.891 6.891v2.484zM20.016 2.016q0.797 0 1.383 0.586t0.586 1.383v12q0 0.797-0.586 1.406t-1.383 0.609h-14.016l-3.984 3.984v-18q0-0.797 0.586-1.383t1.383-0.586h16.031z"></path>
</symbol>
<symbol id="icon-not_listed_location" viewBox="0 0 24 24">
<path d="M12.891 12.891q0-0.938 1.313-2.109t1.313-2.297q0-1.453-1.031-2.461t-2.484-1.008-2.484 1.008-1.031 2.461h1.781q0-0.703 0.516-1.219t1.219-0.516 1.219 0.516 0.516 1.219q0 0.563-0.398 1.031t-0.914 0.773-0.914 0.961-0.398 1.641h1.781zM12.891 15.75v-1.734h-1.781v1.734h1.781zM12 2.016q2.906 0 4.945 2.039t2.039 4.945q0 1.453-0.727 3.328t-1.758 3.516-2.039 3.070-1.711 2.273l-0.75 0.797q-0.281-0.328-0.75-0.867t-1.688-2.156-2.133-3.141-1.664-3.445-0.75-3.375q0-2.906 2.039-4.945t4.945-2.039z"></path>
</symbol>
<symbol id="icon-money" viewBox="0 0 24 24">
<path d="M3.984 18h16.031v-12h-16.031v12zM2.016 3.984h19.969v16.031h-19.969v-16.031zM17.016 14.016v-4.031h-1.031v4.031h1.031zM18 8.016q0.422 0 0.703 0.281t0.281 0.703v6q0 0.422-0.281 0.703t-0.703 0.281h-3q-0.422 0-0.703-0.281t-0.281-0.703v-6q0-0.422 0.281-0.703t0.703-0.281h3zM11.016 14.016v-4.031h-1.031v4.031h1.031zM12 8.016q0.422 0 0.703 0.281t0.281 0.703v6q0 0.422-0.281 0.703t-0.703 0.281h-3q-0.422 0-0.703-0.281t-0.281-0.703v-6q0-0.422 0.281-0.703t0.703-0.281h3zM5.016 8.016h1.969v7.969h-1.969v-7.969z"></path>
</symbol>
<symbol id="icon-arrow_back" viewBox="0 0 24 24">
<path d="M20.016 11.016v1.969h-12.188l5.578 5.625-1.406 1.406-8.016-8.016 8.016-8.016 1.406 1.406-5.578 5.625h12.188z"></path>
</symbol>
<symbol id="icon-arrow_forward" viewBox="0 0 24 24">
<path d="M12 3.984l8.016 8.016-8.016 8.016-1.406-1.406 5.578-5.625h-12.188v-1.969h12.188l-5.578-5.625z"></path>
</symbol>
<symbol id="icon-check1" viewBox="0 0 24 24">
<path d="M9 16.172l10.594-10.594 1.406 1.406-12 12-5.578-5.578 1.406-1.406z"></path>
</symbol>
<symbol id="icon-expand_less" viewBox="0 0 24 24">
<path d="M12 8.016l6 6-1.406 1.406-4.594-4.594-4.594 4.594-1.406-1.406z"></path>
</symbol>
<symbol id="icon-expand_more" viewBox="0 0 24 24">
<path d="M16.594 8.578l1.406 1.406-6 6-6-6 1.406-1.406 4.594 4.594z"></path>
</symbol>
<symbol id="icon-menu1" viewBox="0 0 24 24">
<path d="M3 6h18v2.016h-18v-2.016zM3 12.984v-1.969h18v1.969h-18zM3 18v-2.016h18v2.016h-18z"></path>
</symbol>
<symbol id="icon-keyboard_control" viewBox="0 0 24 24">
<path d="M12 9.984q0.797 0 1.406 0.609t0.609 1.406-0.609 1.406-1.406 0.609-1.406-0.609-0.609-1.406 0.609-1.406 1.406-0.609zM18 9.984q0.797 0 1.406 0.609t0.609 1.406-0.609 1.406-1.406 0.609-1.406-0.609-0.609-1.406 0.609-1.406 1.406-0.609zM6 9.984q0.797 0 1.406 0.609t0.609 1.406-0.609 1.406-1.406 0.609-1.406-0.609-0.609-1.406 0.609-1.406 1.406-0.609z"></path>
</symbol>
<symbol id="icon-more_vert" viewBox="0 0 24 24">
<path d="M12 15.984q0.797 0 1.406 0.609t0.609 1.406-0.609 1.406-1.406 0.609-1.406-0.609-0.609-1.406 0.609-1.406 1.406-0.609zM12 9.984q0.797 0 1.406 0.609t0.609 1.406-0.609 1.406-1.406 0.609-1.406-0.609-0.609-1.406 0.609-1.406 1.406-0.609zM12 8.016q-0.797 0-1.406-0.609t-0.609-1.406 0.609-1.406 1.406-0.609 1.406 0.609 0.609 1.406-0.609 1.406-1.406 0.609z"></path>
</symbol>
<symbol id="icon-refresh" viewBox="0 0 24 24">
<path d="M17.672 6.328l2.344-2.344v7.031h-7.031l3.234-3.234q-1.781-1.781-4.219-1.781-2.484 0-4.242 1.758t-1.758 4.242 1.758 4.242 4.242 1.758q1.734 0 3.398-1.172t2.273-2.813h2.063q-0.656 2.625-2.813 4.313t-4.922 1.688q-3.281 0-5.625-2.344t-2.344-5.672 2.344-5.672 5.625-2.344q1.406 0 3.070 0.68t2.602 1.664z"></path>
</symbol>
<symbol id="icon-unfold_less" viewBox="0 0 24 24">
<path d="M16.594 5.391l-4.594 4.594-4.594-4.594 1.406-1.406 3.188 3.188 3.188-3.188zM7.406 18.609l4.594-4.594 4.594 4.594-1.406 1.406-3.188-3.188-3.188 3.188z"></path>
</symbol>
<symbol id="icon-unfold_more" viewBox="0 0 24 24">
<path d="M12 18.188l3.188-3.188 1.406 1.406-4.594 4.594-4.594-4.594 1.406-1.406zM12 5.813l-3.188 3.188-1.406-1.406 4.594-4.594 4.594 4.594-1.406 1.406z"></path>
</symbol>
<symbol id="icon-arrow_upward" viewBox="0 0 24 24">
<path d="M3.984 12l8.016-8.016 8.016 8.016-1.453 1.406-5.578-5.578v12.188h-1.969v-12.188l-5.625 5.578z"></path>
</symbol>
<symbol id="icon-arrow_downward" viewBox="0 0 24 24">
<path d="M20.016 12l-8.016 8.016-8.016-8.016 1.453-1.406 5.578 5.578v-12.188h1.969v12.188l5.625-5.578z"></path>
</symbol>
<symbol id="icon-arrow_left" viewBox="0 0 24 24">
<path d="M14.016 6.984v10.031l-5.016-5.016z"></path>
</symbol>
<symbol id="icon-arrow_right" viewBox="0 0 24 24">
<path d="M9.984 17.016v-10.031l5.016 5.016z"></path>
</symbol>
<symbol id="icon-event_available" viewBox="0 0 24 24">
<path d="M18.984 18.984v-10.969h-13.969v10.969h13.969zM18.984 3q0.797 0 1.406 0.609t0.609 1.406v13.969q0 0.797-0.609 1.406t-1.406 0.609h-13.969q-0.844 0-1.43-0.586t-0.586-1.43v-13.969q0-0.797 0.586-1.406t1.43-0.609h0.984v-2.016h2.016v2.016h7.969v-2.016h2.016v2.016h0.984zM16.547 11.063l-5.953 5.953-3.188-3.188 1.078-1.078 2.109 2.109 4.875-4.875z"></path>
</symbol>
<symbol id="icon-event_busy" viewBox="0 0 24 24">
<path d="M18.984 18.984v-10.969h-13.969v10.969h13.969zM18.984 3q0.797 0 1.406 0.609t0.609 1.406v13.969q0 0.797-0.609 1.406t-1.406 0.609h-13.969q-0.844 0-1.43-0.586t-0.586-1.43v-13.969q0-0.797 0.586-1.406t1.43-0.609h0.984v-2.016h2.016v2.016h7.969v-2.016h2.016v2.016h0.984zM9.328 17.016l-1.078-1.078 2.438-2.438-2.438-2.438 1.078-1.078 2.438 2.438 2.438-2.438 1.031 1.078-2.438 2.438 2.438 2.438-1.031 1.078-2.438-2.438z"></path>
</symbol>
<symbol id="icon-event_note" viewBox="0 0 24 24">
<path d="M14.016 14.016v1.969h-7.031v-1.969h7.031zM18.984 18.984v-10.969h-13.969v10.969h13.969zM18.984 3q0.797 0 1.406 0.609t0.609 1.406v13.969q0 0.797-0.609 1.406t-1.406 0.609h-13.969q-0.844 0-1.43-0.586t-0.586-1.43v-13.969q0-0.797 0.586-1.406t1.43-0.609h0.984v-2.016h2.016v2.016h7.969v-2.016h2.016v2.016h0.984zM17.016 9.984v2.016h-10.031v-2.016h10.031z"></path>
</symbol>
<symbol id="icon-pie_chart" viewBox="0 0 24 24">
<path d="M13.031 13.031h8.953q-0.328 3.563-2.859 6.094t-6.094 2.859v-8.953zM13.031 2.016q3.563 0.328 6.094 2.859t2.859 6.094h-8.953v-8.953zM11.016 2.016v19.969q-3.797-0.375-6.398-3.234t-2.602-6.75 2.602-6.75 6.398-3.234z"></path>
</symbol>
<symbol id="icon-pie_chart_outlined" viewBox="0 0 24 24">
<path d="M12.984 19.922q2.531-0.328 4.57-2.367t2.367-4.57h-6.938v6.938zM3.984 12q0 3.047 2.016 5.297t5.016 2.625v-15.844q-2.953 0.375-4.992 2.625t-2.039 5.297zM12.984 4.078v6.938h6.938q-0.328-2.719-2.273-4.664t-4.664-2.273zM12 2.016q4.125 0 7.055 2.93t2.93 7.055-2.93 7.055-7.055 2.93-7.055-2.93-2.93-7.055 2.93-7.055 7.055-2.93z"></path>
</symbol>
<symbol id="icon-notifications" viewBox="0 0 24 24">
<path d="M18 15.984l2.016 2.016v0.984h-16.031v-0.984l2.016-2.016v-4.969q0-2.344 1.195-4.078t3.305-2.25v-0.703q0-0.609 0.422-1.055t1.078-0.445 1.078 0.445 0.422 1.055v0.703q2.109 0.516 3.305 2.25t1.195 4.078v4.969zM12 21.984q-0.844 0-1.43-0.563t-0.586-1.406h4.031q0 0.797-0.609 1.383t-1.406 0.586z"></path>
</symbol>
<symbol id="icon-notifications_none" viewBox="0 0 24 24">
<path d="M15.984 17.016v-6q0-1.922-1.078-3.211t-2.906-1.289-2.906 1.289-1.078 3.211v6h7.969zM18 15.984l2.016 2.016v0.984h-16.031v-0.984l2.016-2.016v-4.969q0-2.344 1.195-4.078t3.305-2.25v-0.703q0-0.609 0.422-1.055t1.078-0.445 1.078 0.445 0.422 1.055v0.703q2.109 0.516 3.305 2.25t1.195 4.078v4.969zM12 21.984q-0.797 0-1.406-0.586t-0.609-1.383h4.031q0 0.797-0.609 1.383t-1.406 0.586z"></path>
</symbol>
<symbol id="icon-notifications_off" viewBox="0 0 24 24">
<path d="M18 14.672l-8.953-9.422q0.141-0.047 0.375-0.164l0.328-0.164h0.047l0.281-0.141q0.047 0 0.188-0.047t0.234-0.047v-0.703q0-0.609 0.422-1.055t1.078-0.445 1.078 0.445 0.422 1.055v0.703q2.109 0.516 3.305 2.25t1.195 4.078v3.656zM12 21.984q-0.844 0-1.43-0.563t-0.586-1.406h4.031q0 0.844-0.586 1.406t-1.43 0.563zM7.828 6.141q1.125 1.172 5.883 6.047t7.289 7.547l-1.266 1.266-2.016-2.016h-13.734v-0.984l2.016-2.016v-5.016q0-1.922 0.797-3.422l-2.813-2.766 1.266-1.313z"></path>
</symbol>
<symbol id="icon-notifications_on" viewBox="0 0 24 24">
<path d="M12 21.984q-0.844 0-1.43-0.586t-0.586-1.383h3.984q0 0.844-0.563 1.406t-1.406 0.563zM18 11.016v4.969l2.016 2.016v0.984h-16.031v-0.984l2.016-2.016v-4.969q0-2.344 1.195-4.078t3.305-2.25v-0.703q0-0.609 0.422-1.055t1.078-0.445 1.078 0.445 0.422 1.055v0.703q2.109 0.516 3.305 2.25t1.195 4.078zM19.969 10.5q-0.094-1.688-1.125-3.563t-2.391-2.859l1.406-1.406q3.891 3 4.125 7.828h-2.016zM7.594 4.078q-1.359 0.984-2.414 2.859t-1.148 3.563h-2.016q0.234-4.828 4.125-7.828z"></path>
</symbol>
<symbol id="icon-notifications_paused" viewBox="0 0 24 24">
<path d="M14.484 9.797v-1.781h-4.969v1.781h2.766l-2.766 3.422v1.781h4.969v-1.781h-2.766zM18 15.984l2.016 2.016v0.984h-16.031v-0.984l2.016-2.016v-4.969q0-2.344 1.195-4.078t3.305-2.25v-0.703q0-0.609 0.422-1.055t1.078-0.445 1.078 0.445 0.422 1.055v0.703q2.109 0.516 3.305 2.25t1.195 4.078v4.969zM12 21.984q-0.844 0-1.43-0.563t-0.586-1.406h4.031q0 0.797-0.609 1.383t-1.406 0.586z"></path>
</symbol>
<symbol id="icon-share" viewBox="0 0 24 24">
<path d="M18 16.078q1.219 0 2.063 0.867t0.844 2.039q0 1.219-0.867 2.086t-2.039 0.867-2.039-0.867-0.867-2.086q0-0.469 0.047-0.656l-7.078-4.125q-0.891 0.797-2.063 0.797-1.219 0-2.109-0.891t-0.891-2.109 0.891-2.109 2.109-0.891q1.172 0 2.063 0.797l7.031-4.078q-0.094-0.469-0.094-0.703 0-1.219 0.891-2.109t2.109-0.891 2.109 0.891 0.891 2.109-0.891 2.109-2.109 0.891q-1.125 0-2.063-0.844l-7.031 4.125q0.094 0.469 0.094 0.703t-0.094 0.703l7.125 4.125q0.844-0.75 1.969-0.75z"></path>
</symbol>
<symbol id="icon-check_box" viewBox="0 0 24 24">
<path d="M9.984 17.016l9-9-1.406-1.453-7.594 7.594-3.563-3.563-1.406 1.406zM18.984 3q0.844 0 1.43 0.586t0.586 1.43v13.969q0 0.844-0.586 1.43t-1.43 0.586h-13.969q-0.844 0-1.43-0.586t-0.586-1.43v-13.969q0-0.844 0.586-1.43t1.43-0.586h13.969z"></path>
</symbol>
<symbol id="icon-check_box_outline_blank" viewBox="0 0 24 24">
<path d="M18.984 3q0.797 0 1.406 0.609t0.609 1.406v13.969q0 0.797-0.609 1.406t-1.406 0.609h-13.969q-0.797 0-1.406-0.609t-0.609-1.406v-13.969q0-0.797 0.609-1.406t1.406-0.609h13.969zM18.984 5.016h-13.969v13.969h13.969v-13.969z"></path>
</symbol>
<symbol id="icon-star" viewBox="0 0 24 24">
<path d="M12 17.25l-6.188 3.75 1.641-7.031-5.438-4.734 7.172-0.609 2.813-6.609 2.813 6.609 7.172 0.609-5.438 4.734 1.641 7.031z"></path>
</symbol>
<symbol id="icon-star_half" viewBox="0 0 24 24">
<path d="M12 15.422l3.75 2.25-0.984-4.266 3.328-2.906-4.406-0.375-1.688-4.031v9.328zM21.984 9.234l-5.438 4.734 1.641 7.031-6.188-3.75-6.188 3.75 1.641-7.031-5.438-4.734 7.172-0.609 2.813-6.609 2.813 6.609z"></path>
</symbol>
<symbol id="icon-star_outline" viewBox="0 0 24 24">
<path d="M12 15.422l3.75 2.25-0.984-4.266 3.328-2.906-4.406-0.375-1.688-4.031-1.688 4.031-4.406 0.375 3.328 2.906-0.984 4.266zM21.984 9.234l-5.438 4.734 1.641 7.031-6.188-3.75-6.188 3.75 1.641-7.031-5.438-4.734 7.172-0.609 2.813-6.609 2.813 6.609z"></path>
</symbol>
<symbol id="icon-account_circle" viewBox="0 0 24 24">
<path d="M12 19.219q1.594 0 3.352-0.938t2.648-2.297q-0.047-1.313-2.109-2.203t-3.891-0.891-3.891 0.867-2.109 2.227q0.891 1.359 2.648 2.297t3.352 0.938zM12 5.016q-1.219 0-2.109 0.891t-0.891 2.109 0.891 2.109 2.109 0.891 2.109-0.891 0.891-2.109-0.891-2.109-2.109-0.891zM12 2.016q4.125 0 7.055 2.93t2.93 7.055-2.93 7.055-7.055 2.93-7.055-2.93-2.93-7.055 2.93-7.055 7.055-2.93z"></path>
</symbol>
<symbol id="icon-aspect_ratio" viewBox="0 0 24 24">
<path d="M21 19.031v-14.063h-18v14.063h18zM21 3q0.797 0 1.406 0.609t0.609 1.406v13.969q0 0.797-0.609 1.406t-1.406 0.609h-18q-0.797 0-1.406-0.609t-0.609-1.406v-13.969q0-0.797 0.609-1.406t1.406-0.609h18zM6.984 9v3h-1.969v-5.016h4.969v2.016h-3zM18.984 12v5.016h-4.969v-2.016h3v-3h1.969z"></path>
</symbol>
<symbol id="icon-assignment" viewBox="0 0 24 24">
<path d="M17.016 9v-2.016h-10.031v2.016h10.031zM17.016 12.984v-1.969h-10.031v1.969h10.031zM14.016 17.016v-2.016h-7.031v2.016h7.031zM12 3q-0.422 0-0.703 0.281t-0.281 0.703 0.281 0.727 0.703 0.305 0.703-0.305 0.281-0.727-0.281-0.703-0.703-0.281zM18.984 3q0.797 0 1.406 0.609t0.609 1.406v13.969q0 0.797-0.609 1.406t-1.406 0.609h-13.969q-0.797 0-1.406-0.609t-0.609-1.406v-13.969q0-0.797 0.609-1.406t1.406-0.609h4.172q0.328-0.891 1.078-1.453t1.734-0.563 1.734 0.563 1.078 1.453h4.172z"></path>
</symbol>
<symbol id="icon-assignment_turned_in" viewBox="0 0 24 24">
<path d="M9.984 17.016l8.016-8.016-1.406-1.406-6.609 6.563-2.578-2.578-1.406 1.406zM12 3q-0.422 0-0.703 0.281t-0.281 0.703 0.281 0.727 0.703 0.305 0.703-0.305 0.281-0.727-0.281-0.703-0.703-0.281zM18.984 3q0.797 0 1.406 0.609t0.609 1.406v13.969q0 0.797-0.609 1.406t-1.406 0.609h-13.969q-0.797 0-1.406-0.609t-0.609-1.406v-13.969q0-0.797 0.609-1.406t1.406-0.609h4.172q0.328-0.891 1.078-1.453t1.734-0.563 1.734 0.563 1.078 1.453h4.172z"></path>
</symbol>
<symbol id="icon-autorenew" viewBox="0 0 24 24">
<path d="M18.75 7.734q1.266 1.922 1.266 4.266 0 3.281-2.367 5.648t-5.648 2.367v3l-3.984-4.031 3.984-3.984v3q2.484 0 4.242-1.758t1.758-4.242q0-1.406-0.703-2.813zM12 6q-2.484 0-4.242 1.758t-1.758 4.242q0 1.5 0.703 2.813l-1.453 1.453q-1.266-1.922-1.266-4.266 0-3.281 2.367-5.648t5.648-2.367v-3l3.984 4.031-3.984 3.984v-3z"></path>
</symbol>
<symbol id="icon-bookmark" viewBox="0 0 24 24">
<path d="M17.016 3q0.797 0 1.383 0.609t0.586 1.406v15.984l-6.984-3-6.984 3v-15.984q0-0.797 0.586-1.406t1.383-0.609h10.031z"></path>
</symbol>
<symbol id="icon-bookmark_outline" viewBox="0 0 24 24">
<path d="M17.016 18v-12.984h-10.031v12.984l5.016-2.203zM17.016 3q0.797 0 1.383 0.609t0.586 1.406v15.984l-6.984-3-6.984 3v-15.984q0-0.797 0.586-1.406t1.383-0.609h10.031z"></path>
</symbol>
<symbol id="icon-bug_report" viewBox="0 0 24 24">
<path d="M14.016 12v-2.016h-4.031v2.016h4.031zM14.016 15.984v-1.969h-4.031v1.969h4.031zM20.016 8.016v1.969h-2.109q0.094 0.656 0.094 1.031v0.984h2.016v2.016h-2.016v0.984q0 0.328-0.094 0.984h2.109v2.016h-2.813q-0.797 1.359-2.18 2.18t-3.023 0.82-3.023-0.82-2.18-2.18h-2.813v-2.016h2.109q-0.094-0.656-0.094-0.984v-0.984h-2.016v-2.016h2.016v-0.984q0-0.375 0.094-1.031h-2.109v-1.969h2.813q0.703-1.172 1.828-1.969l-1.641-1.641 1.406-1.406 2.203 2.156q0.703-0.141 1.406-0.141t1.406 0.141l2.203-2.156 1.406 1.406-1.641 1.641q1.172 0.797 1.828 1.969h2.813z"></path>
</symbol>
<symbol id="icon-build" viewBox="0 0 24 24">
<path d="M22.688 18.984q0.328 0.188 0.305 0.633t-0.398 0.773l-2.297 2.297q-0.703 0.703-1.406 0l-9.094-9.094q-1.688 0.703-3.586 0.305t-3.305-1.805q-1.5-1.5-1.875-3.563t0.563-3.844l4.406 4.313 3-3-4.313-4.313q1.781-0.844 3.844-0.516t3.563 1.828q1.406 1.406 1.805 3.305t-0.305 3.586z"></path>
</symbol>
<symbol id="icon-cached" viewBox="0 0 24 24">
<path d="M6 12h3l-3.984 3.984-4.031-3.984h3q0-3.281 2.367-5.648t5.648-2.367q2.344 0 4.266 1.266l-1.453 1.453q-1.266-0.703-2.813-0.703-2.484 0-4.242 1.758t-1.758 4.242zM18.984 8.016l4.031 3.984h-3q0 3.281-2.367 5.648t-5.648 2.367q-2.344 0-4.266-1.266l1.453-1.453q1.313 0.703 2.813 0.703 2.484 0 4.242-1.758t1.758-4.242h-3z"></path>
</symbol>
<symbol id="icon-change_history" viewBox="0 0 24 24">
<path d="M12 3.984l9.984 16.031h-19.969zM12 7.781l-6.375 10.219h12.75z"></path>
</symbol>
<symbol id="icon-check_circle" viewBox="0 0 24 24">
<path d="M9.984 17.016l9-9-1.406-1.453-7.594 7.594-3.563-3.563-1.406 1.406zM12 2.016q4.125 0 7.055 2.93t2.93 7.055-2.93 7.055-7.055 2.93-7.055-2.93-2.93-7.055 2.93-7.055 7.055-2.93z"></path>
</symbol>
<symbol id="icon-chrome_reader_mode" viewBox="0 0 24 24">
<path d="M21 18.984v-12.984h-9v12.984h9zM21 3.984q0.797 0 1.406 0.609t0.609 1.406v12.984q0 0.797-0.609 1.406t-1.406 0.609h-18q-0.797 0-1.406-0.609t-0.609-1.406v-12.984q0-0.797 0.609-1.406t1.406-0.609h18zM12.984 14.484h7.031v1.5h-7.031v-1.5zM12.984 9.516h7.031v1.5h-7.031v-1.5zM12.984 12h7.031v1.5h-7.031v-1.5z"></path>
</symbol>
<symbol id="icon-code2" viewBox="0 0 24 24">
<path d="M14.578 16.594l4.641-4.594-4.641-4.594 1.406-1.406 6 6-6 6zM9.422 16.594l-1.406 1.406-6-6 6-6 1.406 1.406-4.641 4.594z"></path>
</symbol>
<symbol id="icon-dashboard" viewBox="0 0 24 24">
<path d="M12.984 3h8.016v6h-8.016v-6zM12.984 21v-9.984h8.016v9.984h-8.016zM3 21v-6h8.016v6h-8.016zM3 12.984v-9.984h8.016v9.984h-8.016z"></path>
</symbol>
<symbol id="icon-delete" viewBox="0 0 24 24">
<path d="M18.984 3.984v2.016h-13.969v-2.016h3.469l1.031-0.984h4.969l1.031 0.984h3.469zM6 18.984v-12h12v12q0 0.797-0.609 1.406t-1.406 0.609h-7.969q-0.797 0-1.406-0.609t-0.609-1.406z"></path>
</symbol>
<symbol id="icon-description" viewBox="0 0 24 24">
<path d="M12.984 9h5.531l-5.531-5.484v5.484zM15.984 14.016v-2.016h-7.969v2.016h7.969zM15.984 18v-2.016h-7.969v2.016h7.969zM14.016 2.016l6 6v12q0 0.797-0.609 1.383t-1.406 0.586h-12q-0.797 0-1.406-0.586t-0.609-1.383l0.047-16.031q0-0.797 0.586-1.383t1.383-0.586h8.016z"></path>
</symbol>
<symbol id="icon-dns" viewBox="0 0 24 24">
<path d="M6.984 9q0.797 0 1.406-0.609t0.609-1.406-0.609-1.383-1.406-0.586-1.383 0.586-0.586 1.383 0.586 1.406 1.383 0.609zM20.016 3q0.422 0 0.703 0.281t0.281 0.703v6q0 0.422-0.281 0.727t-0.703 0.305h-16.031q-0.422 0-0.703-0.305t-0.281-0.727v-6q0-0.422 0.281-0.703t0.703-0.281h16.031zM6.984 18.984q0.797 0 1.406-0.586t0.609-1.383-0.609-1.406-1.406-0.609-1.383 0.609-0.586 1.406 0.586 1.383 1.383 0.586zM20.016 12.984q0.422 0 0.703 0.305t0.281 0.727v6q0 0.422-0.281 0.703t-0.703 0.281h-16.031q-0.422 0-0.703-0.281t-0.281-0.703v-6q0-0.422 0.281-0.727t0.703-0.305h16.031z"></path>
</symbol>
<symbol id="icon-done" viewBox="0 0 24 24">
<path d="M9 16.219l10.594-10.641 1.406 1.406-12 12-5.578-5.578 1.359-1.406z"></path>
</symbol>
<symbol id="icon-done_all" viewBox="0 0 24 24">
<path d="M0.422 13.406l1.406-1.406 5.578 5.578-1.406 1.406zM22.219 5.578l1.453 1.406-12 12-5.625-5.578 1.453-1.406 4.172 4.172zM18 6.984l-6.328 6.375-1.406-1.406 6.328-6.375z"></path>
</symbol>
<symbol id="icon-exit_to_app" viewBox="0 0 24 24">
<path d="M18.984 3q0.797 0 1.406 0.609t0.609 1.406v13.969q0 0.797-0.609 1.406t-1.406 0.609h-13.969q-0.844 0-1.43-0.586t-0.586-1.43v-3.984h2.016v3.984h13.969v-13.969h-13.969v3.984h-2.016v-3.984q0-0.844 0.586-1.43t1.43-0.586h13.969zM10.078 15.609l2.578-2.625h-9.656v-1.969h9.656l-2.578-2.625 1.406-1.406 5.016 5.016-5.016 5.016z"></path>
</symbol>
<symbol id="icon-favorite" viewBox="0 0 24 24">
<path d="M12 21.328l-1.453-1.313q-2.484-2.25-3.609-3.328t-2.508-2.672-1.898-2.883-0.516-2.648q0-2.297 1.57-3.891t3.914-1.594q2.719 0 4.5 2.109 1.781-2.109 4.5-2.109 2.344 0 3.914 1.594t1.57 3.891q0 1.828-1.219 3.797t-2.648 3.422-4.664 4.359z"></path>
</symbol>
<symbol id="icon-favorite_outline" viewBox="0 0 24 24">
<path d="M12.094 18.563q2.25-2.016 3.328-3.047t2.344-2.438 1.758-2.484 0.492-2.109q0-1.5-1.008-2.484t-2.508-0.984q-1.172 0-2.18 0.656t-1.383 1.688h-1.875q-0.375-1.031-1.383-1.688t-2.18-0.656q-1.5 0-2.508 0.984t-1.008 2.484q0 1.031 0.492 2.109t1.758 2.484 2.344 2.438 3.328 3.047l0.094 0.094zM16.5 3q2.344 0 3.914 1.594t1.57 3.891q0 1.359-0.516 2.648t-1.898 2.883-2.508 2.672-3.609 3.328l-1.453 1.313-1.453-1.266q-3.234-2.906-4.664-4.359t-2.648-3.422-1.219-3.797q0-2.297 1.57-3.891t3.914-1.594q2.719 0 4.5 2.109 1.781-2.109 4.5-2.109z"></path>
</symbol>
<symbol id="icon-home" viewBox="0 0 24 24">
<path d="M9.984 20.016h-4.969v-8.016h-3l9.984-9 9.984 9h-3v8.016h-4.969v-6h-4.031v6z"></path>
</symbol>
<symbol id="icon-info" viewBox="0 0 24 24">
<path d="M12.984 9v-2.016h-1.969v2.016h1.969zM12.984 17.016v-6h-1.969v6h1.969zM12 2.016q4.125 0 7.055 2.93t2.93 7.055-2.93 7.055-7.055 2.93-7.055-2.93-2.93-7.055 2.93-7.055 7.055-2.93z"></path>
</symbol>
<symbol id="icon-info_outline" viewBox="0 0 24 24">
<path d="M11.016 9v-2.016h1.969v2.016h-1.969zM12 20.016q3.281 0 5.648-2.367t2.367-5.648-2.367-5.648-5.648-2.367-5.648 2.367-2.367 5.648 2.367 5.648 5.648 2.367zM12 2.016q4.125 0 7.055 2.93t2.93 7.055-2.93 7.055-7.055 2.93-7.055-2.93-2.93-7.055 2.93-7.055 7.055-2.93zM11.016 17.016v-6h1.969v6h-1.969z"></path>
</symbol>
<symbol id="icon-invert_colors_on" viewBox="0 0 24 24">
<path d="M12 19.594v-14.484l-4.219 4.219q-1.781 1.781-1.781 4.266 0 2.438 1.781 4.219t4.219 1.781zM17.672 7.922q2.344 2.344 2.344 5.648t-2.344 5.648-5.672 2.344q-1.359 0-3.023-0.68t-2.648-1.664q-2.344-2.344-2.344-5.648t2.344-5.648l5.672-5.672z"></path>
</symbol>
<symbol id="icon-list1" viewBox="0 0 24 24">
<path d="M6.984 6.984h14.016v2.016h-14.016v-2.016zM6.984 17.016v-2.016h14.016v2.016h-14.016zM6.984 12.984v-1.969h14.016v1.969h-14.016zM3 9v-2.016h2.016v2.016h-2.016zM3 17.016v-2.016h2.016v2.016h-2.016zM3 12.984v-1.969h2.016v1.969h-2.016z"></path>
</symbol>
<symbol id="icon-loyalty" viewBox="0 0 24 24">
<path d="M17.25 15.281q0.75-0.75 0.75-1.781t-0.727-1.758-1.758-0.727q-1.078 0-1.781 0.703l-0.75 0.75-0.703-0.75q-0.703-0.703-1.781-0.703-1.031 0-1.758 0.727t-0.727 1.758q0 1.078 0.703 1.781l4.266 4.266zM5.484 6.984q0.609 0 1.055-0.445t0.445-1.055-0.445-1.055-1.055-0.445-1.055 0.445-0.445 1.055 0.445 1.055 1.055 0.445zM21.422 11.578q0.563 0.563 0.563 1.406t-0.563 1.406l-7.031 7.031q-0.563 0.563-1.406 0.563t-1.406-0.563l-9-9q-0.563-0.563-0.563-1.406v-7.031q0-0.797 0.586-1.383t1.383-0.586h7.031q0.844 0 1.406 0.563z"></path>
</symbol>
<symbol id="icon-search" viewBox="0 0 24 24">
<path d="M9.516 14.016q1.875 0 3.188-1.313t1.313-3.188-1.313-3.188-3.188-1.313-3.188 1.313-1.313 3.188 1.313 3.188 3.188 1.313zM15.516 14.016l4.969 4.969-1.5 1.5-4.969-4.969v-0.797l-0.281-0.281q-1.781 1.547-4.219 1.547-2.719 0-4.617-1.875t-1.898-4.594 1.898-4.617 4.617-1.898 4.594 1.898 1.875 4.617q0 0.984-0.469 2.227t-1.078 1.992l0.281 0.281h0.797z"></path>
</symbol>
<symbol id="icon-settings" viewBox="0 0 24 24">
<path d="M12 15.516q1.453 0 2.484-1.031t1.031-2.484-1.031-2.484-2.484-1.031-2.484 1.031-1.031 2.484 1.031 2.484 2.484 1.031zM19.453 12.984l2.109 1.641q0.328 0.234 0.094 0.656l-2.016 3.469q-0.188 0.328-0.609 0.188l-2.484-0.984q-0.984 0.703-1.688 0.984l-0.375 2.625q-0.094 0.422-0.469 0.422h-4.031q-0.375 0-0.469-0.422l-0.375-2.625q-0.891-0.375-1.688-0.984l-2.484 0.984q-0.422 0.141-0.609-0.188l-2.016-3.469q-0.234-0.422 0.094-0.656l2.109-1.641q-0.047-0.328-0.047-0.984t0.047-0.984l-2.109-1.641q-0.328-0.234-0.094-0.656l2.016-3.469q0.188-0.328 0.609-0.188l2.484 0.984q0.984-0.703 1.688-0.984l0.375-2.625q0.094-0.422 0.469-0.422h4.031q0.375 0 0.469 0.422l0.375 2.625q0.891 0.375 1.688 0.984l2.484-0.984q0.422-0.141 0.609 0.188l2.016 3.469q0.234 0.422-0.094 0.656l-2.109 1.641q0.047 0.328 0.047 0.984t-0.047 0.984z"></path>
</symbol>
<symbol id="icon-speaker_notes" viewBox="0 0 24 24">
<path d="M18 8.016v-2.016h-8.016v2.016h8.016zM18 11.016v-2.016h-8.016v2.016h8.016zM15 14.016v-2.016h-5.016v2.016h5.016zM8.016 8.016v-2.016h-2.016v2.016h2.016zM8.016 11.016v-2.016h-2.016v2.016h2.016zM8.016 14.016v-2.016h-2.016v2.016h2.016zM20.016 2.016q0.797 0 1.383 0.586t0.586 1.383v12q0 0.797-0.586 1.406t-1.383 0.609h-14.016l-3.984 3.984v-18q0-0.797 0.586-1.383t1.383-0.586h16.031z"></path>
</symbol>
<symbol id="icon-stars" viewBox="0 0 24 24">
<path d="M16.219 18l-1.125-4.828 3.75-3.234-4.922-0.422-1.922-4.5-1.922 4.547-4.922 0.375 3.75 3.234-1.125 4.828 4.219-2.531zM12 2.016q4.125 0 7.055 2.93t2.93 7.055-2.93 7.055-7.055 2.93-7.055-2.93-2.93-7.055 2.93-7.055 7.055-2.93z"></path>
</symbol>
<symbol id="icon-supervisor_account" viewBox="0 0 24 24">
<path d="M9 12.984q1.031 0 2.391 0.281-2.391 1.313-2.391 3.469v2.25h-6.984v-2.484q0-1.078 1.289-1.922t2.836-1.219 2.859-0.375zM16.5 14.016q1.734 0 3.609 0.75t1.875 1.969v2.25h-10.969v-2.25q0-1.219 1.875-1.969t3.609-0.75zM9 11.016q-1.219 0-2.109-0.891t-0.891-2.109 0.891-2.109 2.109-0.891 2.109 0.891 0.891 2.109-0.891 2.109-2.109 0.891zM16.5 12q-1.031 0-1.758-0.727t-0.727-1.758 0.727-1.781 1.758-0.75 1.758 0.75 0.727 1.781-0.727 1.758-1.758 0.727z"></path>
</symbol>
<symbol id="icon-toc" viewBox="0 0 24 24">
<path d="M18.984 12.984v-1.969h2.016v1.969h-2.016zM18.984 6.984h2.016v2.016h-2.016v-2.016zM18.984 17.016v-2.016h2.016v2.016h-2.016zM3 17.016v-2.016h14.016v2.016h-14.016zM3 12.984v-1.969h14.016v1.969h-14.016zM3 9v-2.016h14.016v2.016h-14.016z"></path>
</symbol>
<symbol id="icon-view_list" viewBox="0 0 24 24">
<path d="M9 5.016h12v3.984h-12v-3.984zM9 18.984v-3.984h12v3.984h-12zM9 14.016v-4.031h12v4.031h-12zM3.984 9v-3.984h4.031v3.984h-4.031zM3.984 18.984v-3.984h4.031v3.984h-4.031zM3.984 14.016v-4.031h4.031v4.031h-4.031z"></path>
</symbol>
<symbol id="icon-view_quilt" viewBox="0 0 24 24">
<path d="M9.984 5.016h11.016v6h-11.016v-6zM15.984 18v-6h5.016v6h-5.016zM3.984 18v-12.984h5.016v12.984h-5.016zM9.984 18v-6h5.016v6h-5.016z"></path>
</symbol>
<symbol id="icon-visibility_off" viewBox="0 0 24 24">
<path d="M11.859 9h0.141q1.219 0 2.109 0.891t0.891 2.109v0.188zM7.547 9.797q-0.563 1.125-0.563 2.203 0 2.063 1.477 3.539t3.539 1.477q1.078 0 2.203-0.563l-1.547-1.547q-0.375 0.094-0.656 0.094-1.219 0-2.109-0.891t-0.891-2.109q0-0.281 0.094-0.656zM2.016 4.266l1.266-1.266 17.719 17.719-1.266 1.266q-0.234-0.234-1.477-1.453t-1.898-1.875q-2.016 0.844-4.359 0.844-3.703 0-6.703-2.063t-4.313-5.438q0.516-1.219 1.617-2.695t2.133-2.273q-0.563-0.563-1.57-1.594t-1.148-1.172zM12 6.984q-0.938 0-1.828 0.375l-2.156-2.156q1.828-0.703 3.984-0.703 3.703 0 6.68 2.063t4.289 5.438q-1.125 2.766-3.422 4.734l-2.906-2.906q0.375-0.891 0.375-1.828 0-2.063-1.477-3.539t-3.539-1.477z"></path>
</symbol>
<symbol id="icon-timeline" viewBox="0 0 24 24">
<path d="M23.016 8.016q0 0.797-0.609 1.383t-1.406 0.586h-0.047q-0.328 0-0.469-0.047l-3.563 3.563q0.094 0.281 0.094 0.516 0 0.797-0.609 1.383t-1.406 0.586-1.406-0.586-0.609-1.383q0-0.234 0.094-0.516l-2.578-2.578q-0.281 0.094-0.516 0.094t-0.516-0.094l-4.547 4.547q0.094 0.281 0.094 0.516 0 0.797-0.609 1.406t-1.406 0.609-1.406-0.609-0.609-1.406 0.609-1.383 1.406-0.586q0.375 0 0.516 0.047l4.547-4.547q-0.047-0.141-0.047-0.516 0-0.797 0.586-1.406t1.383-0.609 1.406 0.609 0.609 1.406q0 0.375-0.047 0.516l2.531 2.531q0.141-0.047 0.516-0.047t0.516 0.047l3.563-3.516q-0.094-0.281-0.094-0.516 0-0.797 0.609-1.406t1.406-0.609 1.406 0.609 0.609 1.406z"></path>
</symbol>
<symbol id="icon-speaker_notes_off" viewBox="0 0 24 24">
<path d="M20.016 2.016q0.797 0 1.383 0.586t0.586 1.383v12q0 0.797-0.563 1.383t-1.359 0.633l-6.984-6.984h4.922v-2.016h-6.938l-0.984-0.984h7.922v-2.016h-8.016v1.922l-5.906-5.906h15.938zM6 11.016h2.016l-2.016-2.016v2.016zM8.016 14.016v-2.016h-2.016v2.016h2.016zM1.266 1.734l20.719 20.719-1.266 1.266-5.719-5.719h-9l-3.984 3.984v-16.969l-2.016-2.016z"></path>
</symbol>
<symbol id="icon-check_circle_outline" viewBox="0 0 24 24">
<path d="M12 20.016q3.281 0 5.648-2.367t2.367-5.648-2.367-5.648-5.648-2.367-5.648 2.367-2.367 5.648 2.367 5.648 5.648 2.367zM12 2.016q4.125 0 7.055 2.93t2.93 7.055-2.93 7.055-7.055 2.93-7.055-2.93-2.93-7.055 2.93-7.055 7.055-2.93zM16.594 7.594l1.406 1.406-8.016 8.016-4.969-5.016 1.406-1.406 3.563 3.563z"></path>
</symbol>
<symbol id="icon-delete_outline" viewBox="0 0 24 24">
<path d="M15.516 3.984h3.469v2.016h-13.969v-2.016h3.469l1.031-0.984h4.969zM8.016 9v9.984h7.969v-9.984h-7.969zM6 18.984v-12h12v12q0 0.797-0.609 1.406t-1.406 0.609h-7.969q-0.797 0-1.406-0.609t-0.609-1.406z"></path>
</symbol>
<symbol id="icon-supervised_user_circle" viewBox="0 0 24 24">
<path d="M12 20.016q2.484 0 4.523-1.43t2.93-3.68q-1.406-1.125-3.844-1.125-1.359 0-2.883 0.586t-1.523 1.523v4.078q0.281 0.047 0.797 0.047zM9.609 15.891q0-1.641 1.875-2.672-1.172-0.234-1.875-0.234-1.266 0-2.859 0.445t-2.297 1.242q0.656 1.781 2.016 3.094t3.141 1.875v-3.75zM9.609 6.75q-0.984 0-1.688 0.703t-0.703 1.688 0.703 1.664 1.688 0.68 1.664-0.68 0.68-1.664-0.68-1.688-1.664-0.703zM15.609 8.344q-0.797 0-1.359 0.563t-0.563 1.359 0.563 1.359 1.359 0.563 1.359-0.563 0.563-1.359-0.563-1.359-1.359-0.563zM12 2.016q4.125 0 7.055 2.93t2.93 7.055-2.93 7.055-7.055 2.93q-4.172 0-7.102-2.93t-2.93-7.055 2.93-7.055 7.102-2.93z"></path>
</symbol>
<symbol id="icon-drag_indicator" viewBox="0 0 24 24">
<path d="M15 15.984q0.797 0 1.406 0.609t0.609 1.406-0.609 1.406-1.406 0.609-1.406-0.609-0.609-1.406 0.609-1.406 1.406-0.609zM15 9.984q0.797 0 1.406 0.609t0.609 1.406-0.609 1.406-1.406 0.609-1.406-0.609-0.609-1.406 0.609-1.406 1.406-0.609zM15 8.016q-0.797 0-1.406-0.609t-0.609-1.406 0.609-1.406 1.406-0.609 1.406 0.609 0.609 1.406-0.609 1.406-1.406 0.609zM9 3.984q0.797 0 1.406 0.609t0.609 1.406-0.609 1.406-1.406 0.609-1.406-0.609-0.609-1.406 0.609-1.406 1.406-0.609zM9 9.984q0.797 0 1.406 0.609t0.609 1.406-0.609 1.406-1.406 0.609-1.406-0.609-0.609-1.406 0.609-1.406 1.406-0.609zM11.016 18q0 0.797-0.609 1.406t-1.406 0.609-1.406-0.609-0.609-1.406 0.609-1.406 1.406-0.609 1.406 0.609 0.609 1.406z"></path>
</symbol>
<symbol id="icon-filter_list_alt" viewBox="0 0 24 24">
<path d="M4.266 5.672q-0.281-0.328-0.281-0.656 0-0.422 0.305-0.727t0.727-0.305h13.969q0.422 0 0.727 0.305t0.305 0.727q0.047 0.281-0.234 0.609l-5.766 7.359v6q0 0.422-0.281 0.727t-0.703 0.305h-2.016q-0.422 0-0.727-0.305t-0.305-0.727v-6q-5.625-7.172-5.719-7.313z"></path>
</symbol>
<symbol id="icon-add_chart" viewBox="0 0 24 24">
<path d="M18 18.984v-4.969h2.016v4.969q0 0.797-0.609 1.406t-1.406 0.609h-14.016q-0.797 0-1.383-0.609t-0.586-1.406v-13.969q0-0.797 0.586-1.406t1.383-0.609h12v2.016h-12v13.969h14.016zM20.016 6.984h3v2.016h-3v3h-2.016v-3h-3v-2.016h3v-3h2.016v3zM9.984 6.984h2.016v9.984h-2.016v-9.984zM14.016 12.984h1.969v3.984h-1.969v-3.984zM6 9.984h2.016v6.984h-2.016v-6.984z"></path>
</symbol>
<symbol id="icon-bookmarks" viewBox="0 0 24 24">
<path d="M15 5.016q0.797 0 1.406 0.586t0.609 1.383v16.031l-7.031-3-6.984 3v-16.031q0-0.797 0.609-1.383t1.406-0.586h9.984zM18.984 18v-12.984q0-0.797-0.586-1.406t-1.383-0.609h-10.031q0-0.797 0.609-1.406t1.406-0.609h9.984q0.797 0 1.406 0.609t0.609 1.406v15.984z"></path>
</symbol>
<symbol id="icon-dashboard_customize" viewBox="0 0 24 24">
<path d="M18 12.984v3h3v2.016h-3v3h-2.016v-3h-3v-2.016h3v-3h2.016zM3 12.984h8.016v8.016h-8.016v-8.016zM12.984 3h8.016v8.016h-8.016v-8.016zM3 3h8.016v8.016h-8.016v-8.016z"></path>
</symbol>
<symbol id="icon-grid_view" viewBox="0 0 24 24">
<path d="M18.984 18.984v-3.984h-3.984v3.984h3.984zM12.984 12.984h8.016v8.016h-8.016v-8.016zM18.984 9v-3.984h-3.984v3.984h3.984zM12.984 3h8.016v8.016h-8.016v-8.016zM9 18.984v-3.984h-3.984v3.984h3.984zM3 12.984h8.016v8.016h-8.016v-8.016zM9 9v-3.984h-3.984v3.984h3.984zM3 3h8.016v8.016h-8.016v-8.016z"></path>
</symbol>
<symbol id="icon-home_filled" viewBox="0 0 24 24">
<path d="M12 3l8.016 6v12h-5.016v-6.984h-6v6.984h-5.016v-12z"></path>
</symbol>
<symbol id="icon-library_add_check" viewBox="0 0 24 24">
<path d="M3.984 6v14.016h14.016v1.969h-14.016q-0.797 0-1.383-0.586t-0.586-1.383v-14.016h1.969zM12.469 14.016l6.516-6.609-1.406-1.406-5.109 5.156-2.063-2.063-1.406 1.406zM20.016 2.016q0.797 0 1.383 0.586t0.586 1.383v12q0 0.797-0.586 1.406t-1.383 0.609h-12q-0.797 0-1.406-0.609t-0.609-1.406v-12q0-0.797 0.609-1.383t1.406-0.586h12z"></path>
</symbol>
<symbol id="icon-menu_open" viewBox="0 0 24 24">
<path d="M21 15.609l-1.406 1.406-5.016-5.016 5.016-5.016 1.406 1.406-3.563 3.609zM3 6h12.984v2.016h-12.984v-2.016zM3 12.984v-1.969h9.984v1.969h-9.984zM3 18v-2.016h12.984v2.016h-12.984z"></path>
</symbol>
<symbol id="icon-pivot_table_chart" viewBox="0 0 24 24">
<path d="M14.016 12.984l3.984-3.984 3.984 3.984h-3v1.594q0 1.828-1.289 3.117t-3.117 1.289h-1.594v3l-3.984-3.984 3.984-3.984v3h1.594q0.984 0 1.711-0.703t0.727-1.734v-1.594h-3zM5.016 21q-0.797 0-1.406-0.609t-0.609-1.406v-9h5.016v11.016h-3zM3 8.016v-3q0-0.797 0.609-1.406t1.406-0.609h3v5.016h-5.016zM9.984 8.016v-5.016h9q0.797 0 1.406 0.609t0.609 1.406v3h-11.016z"></path>
</symbol>
<symbol id="icon-stacked_bar_chart" viewBox="0 0 24 24">
<path d="M11.016 9h3v3h-3v-3zM11.016 12.984h3v7.031h-3v-7.031zM15.984 12.984h3v2.016h-3v-2.016zM15.984 15.984h3v4.031h-3v-4.031zM6 5.016h3v3.984h-3v-3.984zM6 9.984h3v10.031h-3v-10.031z"></path>
</symbol>
<symbol id="icon-tag1" viewBox="0 0 24 24">
<path d="M14.016 14.016v-4.031h-4.031v4.031h4.031zM20.016 9.984h-4.031v4.031h4.031v1.969h-4.031v4.031h-1.969v-4.031h-4.031v4.031h-1.969v-4.031h-4.031v-1.969h4.031v-4.031h-4.031v-1.969h4.031v-4.031h1.969v4.031h4.031v-4.031h1.969v4.031h4.031v1.969z"></path>
</symbol>
<symbol id="icon-waterfall_chart" viewBox="0 0 24 24">
<path d="M6.984 9.984h3v4.031h-3v-4.031zM9.984 5.016h3v3.984h-3v-3.984zM14.016 3.984h3v3h-3v-3zM3 12.984h3v7.031h-3v-7.031zM18 3.984h3v16.031h-3v-16.031z"></path>
</symbol>
<symbol id="icon-home_work" viewBox="0 0 24 24">
<path d="M9.984 3h13.031v18h-6v-3.984h1.969v-2.016h-1.969v-2.016h1.969v-1.969h-1.969v-1.828l-2.016-1.359v-0.844h-1.266q-1.594-1.031-3.75-2.484v-1.5zM8.156 5.719l6.844 4.547v10.734h-5.016v-8.016h-3.984v8.016h-5.016v-10.5z"></path>
</symbol>
<symbol id="icon-workspaces_filled" viewBox="0 0 24 24">
<path d="M18 12.984q1.641 0 2.813 1.195t1.172 2.836-1.172 2.813-2.813 1.172-2.813-1.172-1.172-2.813 1.172-2.836 2.813-1.195zM12 3q1.641 0 2.813 1.172t1.172 2.813-1.172 2.836-2.813 1.195-2.813-1.195-1.172-2.836 1.172-2.813 2.813-1.172zM6 12.984q1.641 0 2.813 1.195t1.172 2.836-1.172 2.813-2.813 1.172-2.813-1.172-1.172-2.813 1.172-2.836 2.813-1.195z"></path>
</symbol>
<symbol id="icon-file_present" viewBox="0 0 24 24">
<path d="M15.984 9.984v5.016q0 1.641-1.172 2.813t-2.813 1.172-2.813-1.172-1.172-2.813v-6.516q0-1.031 0.727-1.758t1.758-0.727h0.281q0.984 0.094 1.594 0.867t0.609 1.758v6.375h-1.969v-6.516q0-0.469-0.516-0.469t-0.516 0.469v6.516q0 0.797 0.609 1.406t1.406 0.609 1.406-0.609 0.609-1.406v-5.016h1.969zM6 20.016h12v-12h-3.984v-4.031h-8.016v16.031zM15 2.016l5.016 4.969v13.031q0 0.797-0.609 1.383t-1.406 0.586h-12q-0.797 0-1.406-0.586t-0.609-1.383v-16.031q0-0.797 0.609-1.383t1.406-0.586h9z"></path>
</symbol>
<symbol id="icon-workspaces_outline" viewBox="0 0 24 24">
<path d="M18 12.984q1.641 0 2.813 1.195t1.172 2.836-1.172 2.813-2.813 1.172-2.813-1.172-1.172-2.813 1.172-2.836 2.813-1.195zM18 15q-0.797 0-1.406 0.609t-0.609 1.406 0.609 1.383 1.406 0.586 1.406-0.586 0.609-1.383-0.609-1.406-1.406-0.609zM12 3q1.641 0 2.813 1.172t1.172 2.813-1.172 2.836-2.813 1.195-2.813-1.195-1.172-2.836 1.172-2.813 2.813-1.172zM12 5.016q-0.797 0-1.406 0.586t-0.609 1.383 0.609 1.406 1.406 0.609 1.406-0.609 0.609-1.406-0.609-1.383-1.406-0.586zM6 12.984q1.641 0 2.813 1.195t1.172 2.836-1.172 2.813-2.813 1.172-2.813-1.172-1.172-2.813 1.172-2.836 2.813-1.195zM6 15q-0.797 0-1.406 0.609t-0.609 1.406 0.609 1.383 1.406 0.586 1.406-0.586 0.609-1.383-0.609-1.406-1.406-0.609z"></path>
</symbol>
<symbol id="icon-menu_book" viewBox="0 0 24 24">
<path d="M17.484 14.344q1.219 0 2.531 0.234v1.5q-0.938-0.234-2.531-0.234-2.813 0-4.5 0.984v-1.688q1.781-0.797 4.5-0.797zM12.984 12.469q1.969-0.797 4.5-0.797 1.219 0 2.531 0.234v1.5q-0.938-0.234-2.531-0.234-2.813 0-4.5 0.984v-1.688zM17.484 10.5q-2.813 0-4.5 0.984v-1.641q1.875-0.844 4.5-0.844 1.219 0 2.531 0.234v1.547q-1.125-0.281-2.531-0.281zM21 18.516v-11.531q-1.547-0.469-3.516-0.469-3.047 0-5.484 1.5v11.484q2.438-1.5 5.484-1.5 1.828 0 3.516 0.516zM17.484 4.5q3.563 0 5.531 1.5v14.578q0 0.188-0.164 0.352t-0.352 0.164q-0.141 0-0.234-0.047-1.922-1.031-4.781-1.031-3.047 0-5.484 1.5-2.016-1.5-5.484-1.5-2.531 0-4.781 1.078-0.047 0-0.117 0.023t-0.117 0.023q-0.188 0-0.352-0.141t-0.164-0.328v-14.672q2.016-1.5 5.531-1.5 3.469 0 5.484 1.5 2.016-1.5 5.484-1.5z"></path>
</symbol>
<symbol id="icon-emoji_food_beverage" viewBox="0 0 24 24">
<path d="M3.984 18.984h16.031v2.016h-16.031v-2.016zM20.016 8.016v-3h-2.016v3h2.016zM20.016 3q0.844 0 1.406 0.586t0.563 1.43v3q0 0.844-0.563 1.406t-1.406 0.563h-2.016v3q0 1.641-1.172 2.836t-2.813 1.195h-6q-1.641 0-2.836-1.195t-1.195-2.836v-9.984h4.031v2.391l-1.828 1.453q-0.188 0.141-0.188 0.375v4.266q0 0.516 0.516 0.516h3.984q0.516 0 0.516-0.516v-4.266q0-0.234-0.188-0.375l-1.828-1.453v-2.391h11.016z"></path>
</symbol>
<symbol id="icon-post_add" viewBox="0 0 24 24">
<path d="M6.984 15h8.016v2.016h-8.016v-2.016zM6.984 12h8.016v2.016h-8.016v-2.016zM6.984 9h8.016v2.016h-8.016v-2.016zM18.984 2.016v3h3v1.969h-3v3h-1.969v-3h-3v-1.969h3v-3h1.969zM17.016 19.219v-7.219h1.969v6.984q0 0.797-0.586 1.406t-1.383 0.609h-12q-0.797 0-1.406-0.609t-0.609-1.406v-12q0-0.797 0.609-1.383t1.406-0.586h6.984v1.969h-6.984v12.234h12z"></path>
</symbol>
<symbol id="icon-nights_stay" viewBox="0 0 24 24">
<path d="M6.984 15.984q0.797 0 1.406 0.609t0.609 1.406-0.609 1.406-1.406 0.609h-3q-1.219 0-2.109-0.891t-0.891-2.109 0.891-2.109 2.109-0.891q2.109 0 2.813 1.969h0.188zM11.109 12.094q1.547 3 4.289 4.313t4.945 1.078q-1.359 2.109-3.563 3.328t-4.781 1.219q-1.594 0-3.141-0.516 2.156-1.219 2.156-3.516 0-1.266-0.844-2.367t-2.063-1.477q-1.547-2.156-4.125-2.156-1.078 0-1.969 0.422 0-0.047-0.023-0.188t-0.023-0.234q0-4.031 2.813-6.938t6.844-3.047q-0.703 1.078-1.172 2.344t-0.445 3.469 1.102 4.266z"></path>
</symbol>
<symbol id="icon-badge" viewBox="0 0 24 24">
<path d="M18 13.5v-1.5h-3.984v1.5h3.984zM18 16.5v-1.5h-3.984v1.5h3.984zM12.984 9v-5.016h-1.969v5.016h1.969zM12 18v-0.75q0-0.656-1.031-1.078t-1.969-0.422-1.969 0.422-1.031 1.078v0.75h6zM9 12q-0.656 0-1.078 0.422t-0.422 1.078 0.422 1.078 1.078 0.422 1.078-0.422 0.422-1.078-0.422-1.078-1.078-0.422zM20.016 6.984q0.797 0 1.383 0.609t0.586 1.406v11.016q0 0.797-0.586 1.383t-1.383 0.586h-16.031q-0.797 0-1.383-0.586t-0.586-1.383v-11.016q0-0.797 0.586-1.406t1.383-0.609h5.016v-3q0-0.797 0.609-1.383t1.406-0.586h1.969q0.797 0 1.406 0.586t0.609 1.383v3h5.016z"></path>
</symbol>
<symbol id="icon-analytics" viewBox="0 0 24 24">
<path d="M18.984 3h-13.969q-0.844 0-1.43 0.586t-0.586 1.43v13.969q0 0.844 0.586 1.43t1.43 0.586h13.969q0.844 0 1.43-0.586t0.586-1.43v-13.969q0-0.844-0.586-1.43t-1.43-0.586zM9 17.016h-2.016v-5.016h2.016v5.016zM12.984 17.016h-1.969v-3h1.969v3zM12.984 12h-1.969v-2.016h1.969v2.016zM17.016 17.016h-2.016v-10.031h2.016v10.031z"></path>
</symbol>
<symbol id="icon-app_registration" viewBox="0 0 24 24">
<path d="M9.984 3.984h4.031v4.031h-4.031v-4.031zM3.984 15.984h4.031v4.031h-4.031v-4.031zM3.984 9.984h4.031v4.031h-4.031v-4.031zM3.984 3.984h4.031v4.031h-4.031v-4.031zM14.016 12.422v-2.438h-4.031v4.031h2.438zM20.859 11.297l-1.172-1.172q-0.094-0.141-0.258-0.141t-0.305 0.141l-0.891 0.891 1.781 1.734 0.844-0.891q0.141-0.094 0.141-0.281t-0.141-0.281zM11.016 18.234v1.781h1.734l6.656-6.703-1.734-1.734zM15.984 3.984h4.031v4.031h-4.031v-4.031z"></path>
</symbol>
<symbol id="icon-article" viewBox="0 0 24 24">
<path d="M18.984 3h-13.969q-0.844 0-1.43 0.586t-0.586 1.43v13.969q0 0.844 0.586 1.43t1.43 0.586h13.969q0.844 0 1.43-0.586t0.586-1.43v-13.969q0-0.844-0.586-1.43t-1.43-0.586zM14.016 17.016h-7.031v-2.016h7.031v2.016zM17.016 12.984h-10.031v-1.969h10.031v1.969zM17.016 9h-10.031v-2.016h10.031v2.016z"></path>
</symbol>
<symbol id="icon-auto_awesome" viewBox="0 0 24 24">
<path d="M18.984 9l1.266-2.766 2.766-1.219-2.766-1.266-1.266-2.766-1.219 2.766-2.766 1.266 2.766 1.219zM11.484 9.516l-2.484-5.531-2.484 5.531-5.531 2.484 5.531 2.484 2.484 5.531 2.484-5.531 5.531-2.484zM18.984 15l-1.219 2.766-2.766 1.219 2.766 1.266 1.219 2.766 1.266-2.766 2.766-1.266-2.766-1.219z"></path>
</symbol>
<symbol id="icon-auto_awesome_mosaic" viewBox="0 0 24 24">
<path d="M3 5.016v13.969q0 0.844 0.586 1.43t1.43 0.586h6v-18h-6q-0.844 0-1.43 0.586t-0.586 1.43zM18.984 3h-6v8.016h8.016v-6q0-0.844-0.586-1.43t-1.43-0.586zM12.984 21h6q0.844 0 1.43-0.586t0.586-1.43v-6h-8.016v8.016z"></path>
</symbol>
<symbol id="icon-auto_awesome_motion" viewBox="0 0 24 24">
<path d="M14.016 2.016h-10.031q-0.797 0-1.383 0.586t-0.586 1.383v10.031h1.969v-10.031h10.031v-1.969zM18 6h-9.984q-0.844 0-1.43 0.586t-0.586 1.43v9.984h2.016v-9.984h9.984v-2.016zM20.016 9.984h-8.016q-0.844 0-1.43 0.586t-0.586 1.43v8.016q0 0.797 0.586 1.383t1.43 0.586h8.016q0.797 0 1.383-0.586t0.586-1.383v-8.016q0-0.844-0.586-1.43t-1.383-0.586z"></path>
</symbol>
<symbol id="icon-auto_stories" viewBox="0 0 24 24">
<path d="M18.984 0.984l-4.969 5.016v11.016l4.969-4.5v-11.531zM0.984 6v14.672q0 0.188 0.164 0.328t0.352 0.141q0.094 0 0.141-0.023t0.094-0.023q1.031-0.469 2.344-0.773t2.438-0.305q1.453 0 2.93 0.328t2.555 1.172v-15.516q-1.078-0.844-2.555-1.172t-2.93-0.328q-1.5 0-2.953 0.328t-2.578 1.172zM23.016 19.5v-13.5q-0.469-0.328-0.961-0.563t-1.055-0.422v13.5q-0.844-0.281-1.711-0.398t-1.805-0.117q-0.844 0-1.852 0.188t-1.992 0.539-1.641 0.773v2.016q0.656-0.422 1.641-0.773t1.992-0.539 1.852-0.188q1.266 0 2.484 0.234t2.297 0.797q0.094 0.047 0.234 0.047 0.188 0 0.352-0.164t0.164-0.352v-1.078z"></path>
</symbol>
<symbol id="icon-backup_table" viewBox="0 0 24 24">
<path d="M20.016 6v14.016h-14.016v1.969h14.016q0.797 0 1.383-0.586t0.586-1.383v-14.016h-1.969zM15.984 2.016h-12q-0.797 0-1.383 0.586t-0.586 1.383v12q0 0.844 0.586 1.43t1.383 0.586h12q0.844 0 1.43-0.586t0.586-1.43v-12q0-0.797-0.586-1.383t-1.43-0.586zM9 15.984h-5.016v-4.969h5.016v4.969zM15.984 15.984h-4.969v-4.969h4.969v4.969zM15.984 9h-12v-5.016h12v5.016z"></path>
</symbol>
<symbol id="icon-bedtime" viewBox="0 0 24 24">
<path d="M12.328 2.016q-2.156-0.094-4.031 0.68t-3.281 2.156-2.203 3.211-0.797 3.938q0 2.063 0.773 3.867t2.156 3.188 3.188 2.156 3.867 0.773q1.875 0 3.516-0.633t2.953-1.758 2.203-2.625q-2.25-0.047-4.102-0.984t-3.164-2.484-1.945-3.469-0.445-3.984 1.313-4.031z"></path>
</symbol>
<symbol id="icon-bento" viewBox="0 0 24 24">
<path d="M15.984 11.016v-6h4.031q0.797 0 1.383 0.586t0.586 1.383v4.031h-6zM20.016 18.984q0.797 0 1.383-0.586t0.586-1.383v-4.031h-6v6h4.031zM14.016 5.016v13.969h-10.031q-0.797 0-1.383-0.586t-0.586-1.383v-10.031q0-0.797 0.586-1.383t1.383-0.586h10.031zM9.516 12q0-0.609-0.445-1.055t-1.055-0.445q-0.656 0-1.078 0.445t-0.422 1.055 0.422 1.055 1.078 0.445q0.609 0 1.055-0.445t0.445-1.055z"></path>
</symbol>
<symbol id="icon-construction" viewBox="0 0 24 24">
<path d="M13.781 15.188l2.109-2.156 6 6-2.109 2.156zM17.484 9.984q0.984 0 1.781-0.469t1.266-1.266 0.469-1.734q0-0.469-0.117-0.867t-0.305-0.727l-2.672 2.672-1.5-1.5 2.672-2.672q-0.328-0.188-0.727-0.305t-0.867-0.117q-0.938 0-1.734 0.469t-1.266 1.266-0.469 1.781q0 0.563 0.188 1.125l-1.828 1.875-1.781-1.781 0.703-0.703-1.406-1.406 2.109-2.156q-0.563-0.563-1.336-0.75t-1.547 0-1.336 0.75l-3.563 3.563 1.406 1.406h-2.813l-0.703 0.703 3.516 3.563 0.703-0.703v-2.859l1.453 1.406 0.703-0.703 1.781 1.781-7.406 7.406 2.109 2.109 11.391-11.344q0.563 0.188 1.125 0.188z"></path>
</symbol>
<symbol id="icon-fact_check" viewBox="0 0 24 24">
<path d="M20.016 3h-16.031q-0.797 0-1.383 0.586t-0.586 1.43v13.969q0 0.844 0.586 1.43t1.383 0.586h16.031q0.797 0 1.383-0.586t0.586-1.43v-13.969q0-0.844-0.586-1.43t-1.383-0.586zM9.984 17.016h-4.969v-2.016h4.969v2.016zM9.984 12.984h-4.969v-1.969h4.969v1.969zM9.984 9h-4.969v-2.016h4.969v2.016zM14.813 15l-2.813-2.859 1.406-1.406 1.406 1.453 3.188-3.188 1.406 1.406z"></path>
</symbol>
<symbol id="icon-grass" viewBox="0 0 24 24">
<path d="M12 20.016h-9.984v-2.016h5.719q-0.516-2.109-2.063-3.656t-3.656-2.063q0.469-0.141 0.961-0.211t1.008-0.070q1.688 0 3.141 0.633t2.531 1.711 1.711 2.531 0.633 3.141zM21.984 12.281q-0.469-0.141-0.961-0.211t-1.008-0.070q-2.203 0-4.031 1.078t-2.859 2.859q0.234 0.469 0.398 0.984t0.258 1.078q0.188 0.984 0.188 2.016h8.016v-2.016h-5.766q0.563-2.109 2.109-3.656t3.656-2.063zM15.656 11.016q0.563-1.547 1.617-2.836t2.461-2.18q-1.594 0.094-3 0.727t-2.461 1.711-1.664 2.508-0.609 3.070v0 0q1.453-1.922 3.656-3zM11.438 8.859q-0.656-1.641-1.875-2.906t-2.859-1.969q1.078 1.406 1.688 3.117t0.609 3.586q0 0.188-0.023 0.328t-0.023 0.281q0.328 0.188 0.633 0.398t0.586 0.445q0.188-0.891 0.492-1.711t0.773-1.57z"></path>
</symbol>
<symbol id="icon-insights" viewBox="0 0 24 24">
<path d="M21 8.016q-0.703 0-1.195 0.398t-0.703 0.984-0.023 1.102l-3.563 3.563q-0.516-0.141-1.031 0l-2.531-2.531q0.141-0.563-0.047-1.148t-0.68-0.984-1.242-0.398q-0.703 0-1.195 0.398t-0.68 0.984-0.047 1.148l-4.547 4.547q-0.563-0.188-1.125 0.023t-0.984 0.703-0.422 1.195q0 0.844 0.586 1.43t1.43 0.586q0.703 0 1.195-0.422t0.703-0.984 0.023-1.125l4.547-4.547q0.516 0.141 1.031 0l2.578 2.531q-0.188 0.563 0 1.148t0.68 0.984 1.242 0.398q0.703 0 1.195-0.398t0.703-0.984 0.023-1.148l3.563-3.516q0.563 0.141 1.125-0.047t0.984-0.68 0.422-1.242q0-0.797-0.586-1.383t-1.43-0.586zM15 9l0.938-2.063 2.063-0.938-2.063-0.938-0.938-2.063-0.938 2.063-2.063 0.938 2.063 0.938zM3.516 11.016l0.469-2.016 2.016-0.516-2.016-0.469-0.469-2.016-0.516 2.016-2.016 0.469 2.016 0.516z"></path>
</symbol>
<symbol id="icon-ios_share" viewBox="0 0 24 24">
<path d="M15.984 5.016l-1.406 1.406-1.594-1.594v11.156h-1.969v-11.156l-1.594 1.594-1.406-1.406 3.984-4.031zM20.016 9.984v11.016q0 0.844-0.586 1.43t-1.43 0.586h-12q-0.844 0-1.43-0.586t-0.586-1.43v-11.016q0-0.797 0.586-1.383t1.43-0.586h3v1.969h-3v11.016h12v-11.016h-3v-1.969h3q0.844 0 1.43 0.586t0.586 1.383z"></path>
</symbol>
<symbol id="icon-local_fire_department" viewBox="0 0 24 24">
<path d="M14.719 17.625q-0.234 0.234-0.586 0.422t-0.633 0.281q-0.844 0.281-1.664 0.023t-1.383-0.727q-0.094-0.094-0.070-0.188t0.117-0.141q0.891-0.281 1.406-0.891t0.703-1.313q0.141-0.656-0.047-1.266t-0.281-1.266q-0.094-0.516-0.070-1.008t0.211-0.961q0-0.094 0.094-0.094t0.141 0.047q0.281 0.609 0.727 1.078t0.938 0.891 0.891 0.914 0.492 1.148q0.047 0.281 0.047 0.516 0.047 0.703-0.234 1.406t-0.797 1.125zM17.531 9.609q-0.563-0.516-1.172-0.938t-1.172-0.984q-1.125-1.125-1.477-2.625t0.117-3.047q0.094-0.234-0.070-0.398t-0.398-0.070q-0.563 0.234-1.055 0.563t-0.961 0.656q-1.453 1.219-2.297 2.883t-0.961 3.563 0.586 3.727q0 0.094 0.023 0.188t0.023 0.188q0 0.422-0.375 0.609t-0.75-0.141q-0.094-0.141-0.141-0.234-0.75-0.938-1.008-2.133t-0.070-2.367q0.047-0.281-0.211-0.422t-0.445 0.094q-0.938 1.219-1.359 2.695t-0.328 2.977q0 0.422 0.070 0.867t0.211 0.867q0.328 1.125 0.891 2.063 0.891 1.5 2.391 2.508t3.234 1.242q1.828 0.234 3.68-0.188t3.258-1.688q1.031-0.984 1.617-2.273t0.633-2.695-0.516-2.719q-0.047-0.094-0.070-0.164t-0.070-0.164q-0.422-0.797-0.938-1.453-0.188-0.281-0.398-0.516t-0.492-0.469z"></path>
</symbol>
<symbol id="icon-multiple_stop" viewBox="0 0 24 24">
<path d="M17.016 3.984l3.984 4.031-3.984 3.984v-3h-4.031v-2.016h4.031v-3zM9.984 6.984q-0.375 0-0.68 0.305t-0.305 0.727q0 0.375 0.305 0.68t0.68 0.305q0.422 0 0.727-0.305t0.305-0.68q0-0.422-0.305-0.727t-0.727-0.305zM6 6.984q-0.422 0-0.703 0.305t-0.281 0.727q0 0.375 0.281 0.68t0.703 0.305 0.703-0.305 0.281-0.68q0-0.422-0.281-0.727t-0.703-0.305zM6.984 17.016h4.031v-2.016h-4.031v-3l-3.984 3.984 3.984 4.031v-3zM14.016 17.016q0.375 0 0.68-0.305t0.305-0.727q0-0.375-0.305-0.68t-0.68-0.305q-0.422 0-0.727 0.305t-0.305 0.68q0 0.422 0.305 0.727t0.727 0.305zM18 17.016q0.422 0 0.703-0.305t0.281-0.727q0-0.375-0.281-0.68t-0.703-0.305-0.703 0.305-0.281 0.68q0 0.422 0.281 0.727t0.703 0.305z"></path>
</symbol>
<symbol id="icon-pest_control" viewBox="0 0 24 24">
<path d="M21 15v-2.016h-3.047q-0.094-0.609-0.234-1.125l2.578-1.5-0.984-1.734-2.391 1.359-0.469-0.656t-0.516-0.609q0-0.188 0.023-0.352t0.023-0.352q0-1.219-0.656-2.203l1.688-1.641-1.406-1.406-1.734 1.734q-0.844-0.469-1.57-0.492t-1.289 0.141-0.891 0.352l-1.734-1.734-1.406 1.406 1.688 1.641q-0.656 0.984-0.656 2.203 0 0.188 0.023 0.352t0.023 0.352q-0.563 0.609-0.984 1.266l-2.391-1.359-0.984 1.734 2.578 1.5q-0.141 0.516-0.234 1.125h-3.047v2.016h3.047q0.094 0.609 0.234 1.125l-2.578 1.5 0.984 1.734 2.391-1.359q0.797 1.359 2.086 2.18t2.836 0.82 2.836-0.82 2.086-2.18l2.391 1.359 0.984-1.734-2.578-1.453q0.141-0.563 0.234-1.172h3.047zM12.984 17.016h-1.969v-6h1.969v6z"></path>
</symbol>
<symbol id="icon-preview" viewBox="0 0 24 24">
<path d="M18.984 3h-13.969q-0.844 0-1.43 0.586t-0.586 1.43v13.969q0 0.844 0.586 1.43t1.43 0.586h13.969q0.844 0 1.43-0.586t0.586-1.43v-13.969q0-0.844-0.586-1.43t-1.43-0.586zM18.984 18.984h-13.969v-12h13.969v12zM13.5 12.984q0 0.656-0.445 1.078t-1.055 0.422-1.055-0.422-0.445-1.078q0-0.609 0.445-1.055t1.055-0.445 1.055 0.445 0.445 1.055zM12 9q-1.359 0-2.555 0.516t-2.086 1.406-1.359 2.063q0.469 1.172 1.359 2.086t2.086 1.43 2.555 0.516 2.555-0.516 2.086-1.43 1.359-2.086q-0.469-1.172-1.359-2.063t-2.086-1.406-2.555-0.516zM12 15.516q-1.031 0-1.758-0.75t-0.727-1.781 0.727-1.758 1.758-0.727 1.758 0.727 0.727 1.758-0.727 1.781-1.758 0.75z"></path>
</symbol>
<symbol id="icon-receipt_long" viewBox="0 0 24 24">
<path d="M19.5 3.516l-1.5-1.5-1.5 1.5-1.5-1.5-1.5 1.5-1.5-1.5-1.5 1.5-1.5-1.5-1.5 1.5-1.5-1.5v13.969h-3v3q0 0.844 0.398 1.523t1.078 1.078 1.523 0.398h12q0.844 0 1.523-0.398t1.078-1.078 0.398-1.523v-16.969zM18.984 18.984q0 0.422-0.281 0.727t-0.703 0.305-0.703-0.305-0.281-0.727v-3h-9v-10.969h10.969v13.969zM9 6.984h6v2.016h-6v-2.016zM15.984 6.984h2.016v2.016h-2.016v-2.016zM9 9.984h6v2.016h-6v-2.016zM15.984 9.984h2.016v2.016h-2.016v-2.016z"></path>
</symbol>
<symbol id="icon-star_outline1" viewBox="0 0 24 24">
<path d="M21.984 9.234l-7.172-0.609-2.813-6.609-2.813 6.609-7.172 0.609 5.438 4.734-1.641 7.031 6.188-3.75 6.188 3.75-1.641-7.031zM12 15.422l-3.75 2.25 0.984-4.266-3.328-2.906 4.406-0.375 1.688-4.031 1.688 4.031 4.406 0.375-3.328 2.906 0.984 4.266z"></path>
</symbol>
<symbol id="icon-star_rate" viewBox="0 0 24 24">
<path d="M14.438 9.984l-2.438-7.969-2.438 7.969h-7.547l6.188 4.406-2.391 7.594 6.188-4.688 6.188 4.688-2.344-7.594 6.141-4.406h-7.547z"></path>
</symbol>
<symbol id="icon-sticky_note_2" viewBox="0 0 24 24">
<path d="M18.984 3h-14.016q-0.797 0-1.383 0.586t-0.586 1.43v13.969q0 0.844 0.586 1.43t1.43 0.586h9.984l6-6v-9.984q0-0.844-0.586-1.43t-1.43-0.586zM6.984 8.016h10.031v1.969h-10.031v-1.969zM12 14.016h-5.016v-2.016h5.016v2.016zM14.016 19.5v-5.484h5.484z"></path>
</symbol>
<symbol id="icon-view_sidebar" viewBox="0 0 24 24">
<path d="M15.984 20.016h-13.969v-16.031h13.969v16.031zM18 8.016h3.984v-4.031h-3.984v4.031zM18 20.016h3.984v-4.031h-3.984v4.031zM18 14.016h3.984v-4.031h-3.984v4.031z"></path>
</symbol>
<symbol id="icon-wysiwyg" viewBox="0 0 24 24">
<path d="M18.984 3h-13.969q-0.844 0-1.43 0.586t-0.586 1.43v13.969q0 0.844 0.586 1.43t1.43 0.586h13.969q0.844 0 1.43-0.586t0.586-1.43v-13.969q0-0.844-0.586-1.43t-1.43-0.586zM18.984 18.984h-13.969v-12h13.969v12zM17.016 12h-10.031v-2.016h10.031v2.016zM12.984 15.984h-6v-1.969h6v1.969z"></path>
</symbol>
<symbol id="icon-leaderboard" viewBox="0 0 24 24">
<path d="M7.5 21h-5.484v-12h5.484v12zM14.766 3h-5.531v18h5.531v-18zM21.984 11.016h-5.484v9.984h5.484v-9.984z"></path>
</symbol>
<symbol id="icon-published_with_changes" viewBox="0 0 24 24">
<path d="M17.672 9.516l-7.078 7.078-4.266-4.219 1.453-1.406 2.813 2.813 5.672-5.672zM3.984 12q0-1.734 0.727-3.258t1.898-2.602l2.391 2.344v-6h-6l2.203 2.203q-1.453 1.359-2.32 3.258t-0.867 4.055q0 1.969 0.68 3.68t1.898 3.047 2.859 2.18 3.563 1.031v-2.016q-1.5-0.188-2.766-0.867t-2.227-1.758-1.5-2.414-0.539-2.883zM21.984 12q0-1.969-0.68-3.68t-1.898-3.047-2.859-2.18-3.563-1.031v2.016q1.5 0.188 2.766 0.867t2.227 1.758 1.5 2.414 0.539 2.883q0 1.734-0.727 3.258t-1.898 2.602l-2.391-2.344v6h6l-2.203-2.203q1.453-1.359 2.32-3.258t0.867-4.055z"></path>
</symbol>
</defs>
</svg>
