<svg xmlns="http://www.w3.org/2000/svg">
  <defs>
    <symbol viewBox="0 0 24 24" id="icon-galaxy">
      <path d="M7.729 3.521L2 9.199l1.407 1.42L9.136 4.84c1.206-1.217 3.116-1.217 4.221 0l2.814 2.839c1.206 1.217 1.206 3.143 0 4.259l-2.814 2.839a.965.965 0 01-1.407 0 .987.987 0 010-1.42l1.407-1.42c1.206-1.217 1.206-3.143 0-4.259s-3.116-1.217-4.221 0l-2.814 2.839c-1.91 1.926-1.91 5.171 0 7.199l2.814 2.839c1.91 1.926 5.126 1.926 7.136 0L22 14.776l-1.407-1.42-5.829 5.881c-1.206 1.217-3.116 1.217-4.221 0l-2.814-2.839c-1.206-1.217-1.206-3.143 0-4.259L10.543 9.3a.965.965 0 011.407 0 .987.987 0 010 1.42l-1.407 1.42c-1.206 1.217-1.206 3.143 0 4.259s3.116 1.217 4.221 0l2.814-2.839c1.91-1.926 1.91-5.171 0-7.199l-2.814-2.839a4.827 4.827 0 00-7.035-.001z"/>
    </symbol>
    <symbol viewBox="0 0 50 50" id="icon-hearts">
      <path d="M25 44.297l-.637-.527c-1-.829-2.343-1.743-3.894-2.801C14.309 36.766 5 30.414 5 20.285 5 14.062 10.098 9 16.363 9c3.352 0 6.489 1.457 8.637 3.957A11.371 11.371 0 0133.637 9C39.902 9 45 14.063 45 20.285c0 10.13-9.309 16.48-15.469 20.684-1.554 1.058-2.894 1.972-3.894 2.8z"/>
    </symbol>
    <symbol viewBox="0 0 32 32" id="icon-home">
      <path d="M16.105 2.535a2.627 2.627 0 00-1.314.336c-2.587 1.458-5.433 3.21-8.395 4.916a1 1 0 00-.005.004c-1.457.853-2.637 2.193-2.84 3.809a1 1 0 000 .002 32.989 32.989 0 00.633 11.625 1 1 0 00.005.02c.27 1.061.918 2.031 1.723 2.849.805.817 1.767 1.483 2.83 1.767a1 1 0 00.02.006 29.87 29.87 0 0014.476 0 1 1 0 00.02-.006c1.063-.284 2.025-.95 2.83-1.767.805-.818 1.454-1.789 1.723-2.852a1 1 0 00.003-.017c.904-3.875 1.117-7.763.633-11.643a1 1 0 00-.002-.002c-.203-1.602-1.368-2.935-2.81-3.791a1 1 0 00-.006-.004c-2.896-1.691-5.678-3.432-8.211-4.898-.4-.232-.856-.35-1.313-.354zm-.013 1.975c.098 0 .198.037.322.11 2.489 1.44 5.277 3.183 8.207 4.894 1.013.603 1.752 1.632 1.84 2.318.454 3.642.257 7.275-.592 10.924-.142.56-.6 1.32-1.207 1.937-.607.617-1.358 1.086-1.918 1.237-.747.183-1.49.152-2.236.275.437-2.522.45-5.139-.086-7.635a1 1 0 00-.026-.228 1 1 0 00-.021-.08 1 1 0 00-.004-.016 1 1 0 00-.008-.023 1 1 0 00-.008-.02 1 1 0 00-.03-.072 1 1 0 00-.048-.088 1 1 0 00-.89-.492 8.4 8.4 0 00-6.735.004 1 1 0 00-1.048.787c-.002.005-.001.01-.002.015a1 1 0 00-.024.207 1 1 0 000 .004c-.536 2.497-.523 5.115-.086 7.637-.745-.123-1.49-.092-2.236-.275-.56-.15-1.311-.62-1.918-1.237-.606-.615-1.064-1.374-1.207-1.933-.848-3.643-1.047-7.274-.596-10.91v-.002c.088-.693.843-1.732 1.867-2.332 2.993-1.724 5.837-3.476 8.371-4.905a1 1 0 00.002 0 .63.63 0 01.317-.101zM16 18.744c.859-.001 1.697.258 2.506.596.451 2.331.456 4.794-.027 7.115a27.44 27.44 0 01-4.958 0c-.482-2.317-.478-4.775-.029-7.103.808-.343 1.648-.606 2.508-.608z"/>
    </symbol>
    <symbol viewBox="0 0 50 50" id="icon-like">
      <path d="M15 7C7.832 7 2 12.832 2 20c0 14.762 16.695 22.047 22.375 26.781l.625.532.625-.532C31.305 42.047 48 34.761 48 20c0-7.168-5.832-13-13-13-4.055 0-7.617 1.926-10 4.844C22.617 8.926 19.055 7 15 7zm0 2c3.836 0 7.188 1.969 9.156 4.938l.844 1.25.844-1.25C27.812 10.967 31.164 9 35 9c6.086 0 11 4.914 11 11 0 12.898-14.406 19.574-21 24.781C18.406 39.574 4 32.898 4 20 4 13.914 8.914 9 15 9z"/>
    </symbol>
    <symbol viewBox="0 0 32 32" id="icon-list">
      <path d="M7 3.62c-.677 0-1.345.164-1.996.378a1 1 0 00-.361.068 1 1 0 00-.092.041 1 1 0 00-.006.002 1 1 0 00-.08.047 1 1 0 00-.473.865 4.144 4.144 0 00.002 3.958 1 1 0 00.49.878 1 1 0 00.006.004 1 1 0 00.082.043 1 1 0 00.057.024 1 1 0 00.008.004 1 1 0 00.002 0 1 1 0 00.367.07 6.364 6.364 0 003.99 0 1 1 0 00.361-.068 1 1 0 00.006-.002 1 1 0 00.086-.04 1 1 0 00.006-.001 1 1 0 00.08-.047 1 1 0 00.473-.865 4.144 4.144 0 00-.002-3.958 1 1 0 00-.49-.878 1 1 0 00-.006-.004 1 1 0 00-.082-.043 1 1 0 00-.057-.024 1 1 0 00-.008-.004h-.002a1 1 0 00-.367-.07c-.65-.214-1.317-.379-1.994-.379zm0 2c.437 0 .866.115 1.29.245a2.23 2.23 0 010 2.27c-.847.26-1.733.26-2.58 0a2.23 2.23 0 010-2.27c.424-.13.853-.246 1.29-.246zM14 6a1 1 0 100 2h13a1 1 0 100-2H14zm-7 6.62c-.677 0-1.345.164-1.996.378a1 1 0 00-.361.068 1 1 0 00-.092.041 1 1 0 00-.006.002 1 1 0 00-.08.047 1 1 0 00-.473.865 4.144 4.144 0 00.002 3.958 1 1 0 00.49.878 1 1 0 00.006.004 1 1 0 00.082.043 1 1 0 00.057.024 1 1 0 00.008.004 1 1 0 00.002 0 1 1 0 00.367.07 6.364 6.364 0 003.99 0 1 1 0 00.361-.068 1 1 0 00.006-.002 1 1 0 00.086-.04 1 1 0 00.006-.001 1 1 0 00.08-.047 1 1 0 00.473-.865 4.144 4.144 0 00-.002-3.958 1 1 0 00-.49-.878 1 1 0 00-.006-.004 1 1 0 00-.082-.043 1 1 0 00-.057-.024 1 1 0 00-.008-.004h-.002a1 1 0 00-.367-.07c-.65-.214-1.317-.379-1.994-.379zm0 2c.437 0 .866.115 1.29.245a2.23 2.23 0 010 2.27c-.847.26-1.733.26-2.58 0a2.23 2.23 0 010-2.27c.424-.13.853-.246 1.29-.246zm7 .38a1 1 0 100 2h13a1 1 0 100-2H14zm-7 6.62c-.677 0-1.345.164-1.996.378a1 1 0 00-.361.068 1 1 0 00-.092.041 1 1 0 00-.006.002 1 1 0 00-.08.047 1 1 0 00-.473.865 4.144 4.144 0 00.002 3.958 1 1 0 00.49.878 1 1 0 00.006.004 1 1 0 00.082.043 1 1 0 00.057.024 1 1 0 00.008.004 1 1 0 00.002 0 1 1 0 00.367.07 6.364 6.364 0 003.99 0 1 1 0 00.361-.068 1 1 0 00.006-.002 1 1 0 00.086-.04 1 1 0 00.006-.001 1 1 0 00.08-.047 1 1 0 00.473-.865 4.144 4.144 0 00-.002-3.958 1 1 0 00-.49-.878 1 1 0 00-.006-.004 1 1 0 00-.082-.043 1 1 0 00-.057-.024 1 1 0 00-.008-.004h-.002a1 1 0 00-.367-.07c-.65-.214-1.317-.379-1.994-.379zm0 2c.437 0 .866.115 1.29.245a2.23 2.23 0 010 2.27c-.847.26-1.733.26-2.58 0a2.23 2.23 0 010-2.27c.424-.13.853-.246 1.29-.246zm7 .38a1 1 0 100 2h13a1 1 0 100-2H14z"/>
    </symbol>
    <symbol viewBox="0 0 128 128" id="icon-list-2">
      <path d="M29 77c7.2 0 13-5.8 13-13s-5.8-13-13-13-13 5.8-13 13 5.8 13 13 13zm0-20c3.9 0 7 3.1 7 7s-3.1 7-7 7-7-3.1-7-7 3.1-7 7-7zm0 55c7.2 0 13-5.8 13-13s-5.8-13-13-13-13 5.8-13 13 5.8 13 13 13zm0-20c3.9 0 7 3.1 7 7s-3.1 7-7 7-7-3.1-7-7 3.1-7 7-7zm0-50c7.2 0 13-5.8 13-13s-5.8-13-13-13-13 5.8-13 13 5.8 13 13 13zm0-20c3.9 0 7 3.1 7 7s-3.1 7-7 7-7-3.1-7-7 3.1-7 7-7zm25 10h54c1.7 0 3-1.3 3-3s-1.3-3-3-3H54c-1.7 0-3 1.3-3 3s1.3 3 3 3zm0 35h54c1.7 0 3-1.3 3-3s-1.3-3-3-3H54c-1.7 0-3 1.3-3 3s1.3 3 3 3zm0 35h54c1.7 0 3-1.3 3-3s-1.3-3-3-3H54c-1.7 0-3 1.3-3 3s1.3 3 3 3z"/>
    </symbol>
    <symbol viewBox="0 0 24 24" id="icon-new">
      <path d="M4 4c-1.103 0-2 .897-2 2v12c0 1.103.897 2 2 2h16c1.103 0 2-.897 2-2V6c0-1.103-.897-2-2-2H4zm0 2h16l.002 12H4V6zm1 3v6h1.135v-3.947L8.345 15h1.137V9H8.35v3.955L6.137 9H5zm5 0v6h3.695v-.992h-2.558V12.4h2.18v-.968h-2.18v-1.43h2.55V9H10zm4 0v5c0 .55.375 1 .834 1h3.334c.458 0 .832-.45.832-1V9h-1.041v4.5h-.934V9.99h-1.04v3.52h-.942V9H14z"/>
    </symbol>
    <symbol viewBox="0 0 48 48" id="icon-pin">
      <path d="M32.242 2.016a1 1 0 00-.691.293c-2.203 2.203-2.778 5.338-1.762 7.962L21.047 16.1c-3.877-1.694-8.54-1.033-11.703 2.132a1 1 0 000 1.414l10.297 10.3L9.293 40.292c-1.382 1.382-2.736 2.05-3.734 2.383-.19.063-.14.021-.297.062.04-.157-.001-.106.062-.297.333-.998 1-2.352 2.383-3.734l8-8a1 1 0 00-.727-1.717 1 1 0 00-.687.303l-8 8c-1.618 1.618-2.45 3.264-2.867 4.516C3.009 43.06 3 44 3 44a1 1 0 001 1s.94-.009 2.191-.426c1.252-.417 2.898-1.25 4.516-2.867l10.348-10.348 7.299 7.297a1 1 0 001.414 0c3.164-3.164 3.827-7.826 2.132-11.703l5.829-8.74c2.624 1.015 5.76.44 7.962-1.764a1 1 0 000-1.414L32.965 2.31a1 1 0 00-.723-.293zm.125 2.523l11.094 11.094c-1.777 1.26-3.983 1.46-5.65.52a1 1 0 00-1.325.316l-6.511 9.765a1 1 0 00-.057 1.014c1.509 2.932 1.128 6.5-.973 9.172L11.58 19.055c2.67-2.1 6.242-2.48 9.174-.973a1 1 0 001.012-.057l9.765-6.511a1 1 0 00.317-1.325c-.942-1.666-.74-3.873.52-5.65z"/>
    </symbol>
    <symbol viewBox="0 0 32 32" id="icon-price-tag">
      <path d="M21.15 3.66a35.934 35.934 0 00-4.664.299c-.707.09-1.362.39-1.894.844a1 1 0 000 .002A61.52 61.52 0 004.184 16.229a2.96 2.96 0 00-.358 2.783c1.695 4.33 4.8 7.435 9.131 9.13a2.956 2.956 0 002.781-.357l.002-.002a61.495 61.495 0 0011.457-10.447l.002-.002a3.625 3.625 0 00.824-1.764 1 1 0 000-.002c.482-2.973.473-6.43-.082-9.52a1 1 0 000-.001 2.487 2.487 0 00-2.039-2.008 29.681 29.681 0 00-4.752-.379zm-.004 2.002c1.496.004 2.996.113 4.428.35.194.032.364.2.399.392.508 2.834.518 6.122.078 8.846a1.632 1.632 0 01-.375.79 59.467 59.467 0 01-11.09 10.11.987.987 0 01-.9.13c-3.876-1.517-6.482-4.122-7.998-7.997a.992.992 0 01.128-.902A59.509 59.509 0 0115.89 6.326c.247-.21.545-.343.853-.383a33.982 33.982 0 014.404-.28zm.583 3.11a1.468 1.468 0 000 2.935 1.468 1.468 0 000-2.936z"/>
    </symbol>
    <symbol viewBox="0 0 48 48" id="icon-replay">
      <path d="M24 4c-6.404 0-12.11 3.025-15.771 7.72l-.249-1.404a1.5 1.5 0 00-1.464-1.261 1.5 1.5 0 00-1.489 1.78l.868 4.925a1.5 1.5 0 001.738 1.217l4.924-.868a1.5 1.5 0 10-.522-2.955l-1.306.23C13.84 9.497 18.619 7 24 7c9.406 0 17 7.594 17 17 0 9.406-7.594 17-17 17a16.904 16.904 0 01-10.64-3.74 1.5 1.5 0 10-1.88 2.338A19.934 19.934 0 0024 44c11.028 0 20-8.972 20-20S35.028 4 24 4zM5.521 22.004a1.5 1.5 0 00-1.515 1.484 19.937 19.937 0 002.426 10.076 1.5 1.5 0 102.632-1.435 16.914 16.914 0 01-2.058-8.565 1.5 1.5 0 00-1.485-1.56z"/>
    </symbol>
    <symbol viewBox="0 0 64 64" id="icon-search">
      <path d="M27 9C17.075 9 9 17.075 9 27s8.075 18 18 18c4.13 0 7.926-1.413 10.967-3.76l13.082 13.082a2.315 2.315 0 103.273-3.273L41.24 37.967C43.587 34.927 45 31.129 45 27c0-9.925-8.075-18-18-18zm0 4c7.719 0 14 6.281 14 14s-6.281 14-14 14-14-6.281-14-14 6.281-14 14-14z"/>
    </symbol>
    <symbol viewBox="0 0 48 48" id="icon-settings">
      <path d="M24 4c-1.577 0-3.097.2-4.549.537a1.5 1.5 0 00-1.15 1.299l-.319 2.902a2.997 2.997 0 01-4.189 2.418h-.002l-2.666-1.174a1.5 1.5 0 00-1.7.348 19.963 19.963 0 00-4.566 7.871 1.5 1.5 0 00.55 1.645l2.364 1.734a2.999 2.999 0 010 4.84l-2.365 1.732a1.5 1.5 0 00-.549 1.645 19.957 19.957 0 004.567 7.873 1.5 1.5 0 001.699.346l2.666-1.174a2.999 2.999 0 014.191 2.42l.319 2.902a1.5 1.5 0 001.148 1.297C20.901 43.8 22.423 44 24 44s3.097-.2 4.549-.537a1.5 1.5 0 001.15-1.299l.319-2.902a2.999 2.999 0 014.19-2.42l2.667 1.174a1.5 1.5 0 001.7-.346 19.97 19.97 0 004.566-7.873 1.5 1.5 0 00-.55-1.645l-2.364-1.732A2.996 2.996 0 0139 24c0-.958.454-1.853 1.227-2.42l2.365-1.732a1.5 1.5 0 00.549-1.645 19.97 19.97 0 00-4.567-7.873 1.5 1.5 0 00-1.699-.346l-2.668 1.174a2.999 2.999 0 01-4.19-2.42L29.7 5.836a1.5 1.5 0 00-1.148-1.297A19.992 19.992 0 0024 4zm0 3c.974 0 1.91.175 2.848.34l.187 1.724a6.003 6.003 0 008.38 4.84l1.587-.697a16.86 16.86 0 012.855 4.924l-1.406 1.031A6.003 6.003 0 0036 24c0 1.91.912 3.708 2.451 4.838l1.406 1.031a16.86 16.86 0 01-2.855 4.924l-1.586-.697a6.003 6.003 0 00-8.38 4.84l-.188 1.724c-.938.165-1.874.34-2.848.34-.974 0-1.91-.175-2.848-.34l-.187-1.724a6.003 6.003 0 00-8.38-4.84l-1.587.697a16.848 16.848 0 01-2.855-4.924l1.406-1.031a6.003 6.003 0 000-9.678L8.143 18.13A16.852 16.852 0 0111 13.205l1.584.697a6.002 6.002 0 008.38-4.838l.188-1.724C22.09 7.175 23.026 7 24 7zm0 9c-4.4 0-8 3.6-8 8s3.6 8 8 8 8-3.6 8-8-3.6-8-8-8zm0 3c2.78 0 5 2.22 5 5s-2.22 5-5 5-5-2.22-5-5 2.22-5 5-5z"/>
    </symbol>
    <symbol viewBox="0 0 24 24" id="icon-source-code">
      <path d="M12 3l-2 18h2l2-18h-2zM5.707 6.293L0 12l5.707 5.707 1.414-1.414L2.828 12l4.293-4.293-1.414-1.414zm12.586 0l-1.414 1.414L21.172 12l-4.293 4.293 1.414 1.414L24 12l-5.707-5.707z"/>
    </symbol>
    <symbol viewBox="0 0 48 48" id="icon-tags">
      <path d="M25.164 2a4.52 4.52 0 00-3.195 1.324L5.324 19.97c-1.756 1.757-1.756 4.634 0 6.39l.283.284a1 1 0 101.414-1.414l-.283-.284a2.504 2.504 0 010-3.562L23.383 4.738A2.517 2.517 0 0125.164 4h11.197C37.277 4 38 4.723 38 5.639v4.359h-8.934a4.52 4.52 0 00-3.195 1.324L9.227 27.97c-1.756 1.757-1.757 4.634 0 6.39l10.316 10.317a4.533 4.533 0 006.39 0l16.645-16.647a4.516 4.516 0 001.324-3.193V13.639c0-1.998-1.64-3.641-3.638-3.641H40v-4.36A3.654 3.654 0 0036.361 2H25.164zm3.902 9.998h11.198c.917 0 1.638.724 1.638 1.64v11.198c0 .668-.265 1.306-.738 1.78L24.52 43.261a2.503 2.503 0 01-3.563 0L10.641 32.945a2.504 2.504 0 010-3.562l16.644-16.647a2.519 2.519 0 011.781-.738zM35.606 15c-1.049 0-1.963.429-2.545 1.084-.583.655-.85 1.49-.85 2.31 0 .822.267 1.656.85 2.311.582.655 1.496 1.084 2.544 1.084 1.049 0 1.961-.429 2.543-1.084.583-.655.852-1.49.852-2.31 0-.821-.27-1.656-.852-2.311S36.654 15 35.605 15zm0 2c.548 0 .832.17 1.048.412.216.243.346.606.346.983 0 .376-.13.74-.346.982-.216.243-.5.412-1.049.412-.548 0-.832-.17-1.048-.412-.216-.243-.346-.606-.346-.982 0-.377.13-.74.346-.983.216-.243.5-.412 1.048-.412z"/>
    </symbol>
    <symbol viewBox="0 0 48 48" id="icon-user">
      <path d="M24 4c-5.505 0-10 4.495-10 10s4.495 10 10 10 10-4.495 10-10S29.505 4 24 4zm0 3c3.884 0 7 3.116 7 7s-3.116 7-7 7-7-3.116-7-7 3.116-7 7-7zM11.979 28C9.799 28 8 29.799 8 31.979V33.5c0 3.604 2.28 6.392 5.307 8.063C16.334 43.233 20.168 44 24 44s7.666-.767 10.693-2.438c2.582-1.424 4.524-3.7 5.069-6.562h.24v-3.021c0-2.18-1.8-3.979-3.98-3.979H11.978zm0 3H36.02c.559 0 .981.42.981.979V32H37v1.5c0 2.396-1.346 4.108-3.756 5.438C30.834 40.267 27.418 41 24 41s-6.834-.733-9.244-2.063S11 35.897 11 33.5v-1.521c0-.559.42-.979.979-.979z"/>
    </symbol>
    <symbol viewBox="0 0 50 50" id="icon-window-settings">
      <path d="M7 7c-1.654 0-3 1.346-3 3v30c0 1.654 1.346 3 3 3h18.635a12.984 12.984 0 01-.465-2H7c-.551 0-1-.449-1-1V15h38v12.475c.708.37 1.376.804 2 1.293V10c0-1.654-1.346-3-3-3H7zm0 2h36c.551 0 1 .449 1 1v3H6v-3c0-.551.449-1 1-1zm1 1a1 1 0 00-1 1 1 1 0 001 1 1 1 0 001-1 1 1 0 00-1-1zm3 0a1 1 0 00-1 1 1 1 0 001 1 1 1 0 001-1 1 1 0 00-1-1zm3 0a1 1 0 00-1 1 1 1 0 001 1 1 1 0 001-1 1 1 0 00-1-1zm22.006 18l-.602 3.2c-.3.1-.7.2-1 .4l-2.699-1.9-3 3 1.8 2.5c-.1.4-.3.7-.4 1.1l-3.1.5V41l3.1.5c.1.3.2.7.4 1l-1.8 2.7 3 3 2.7-1.8c.4.2.7.3 1.1.4l.5 3.2h4.1l.6-3.1c.3-.1.6-.2 1-.4l2.7 1.8 3-3-1.9-2.6c.2-.4.3-.8.4-1.1l3.1-.6v-4.2l-3.2-.5c-.1-.3-.2-.7-.4-1l1.8-2.7-2.9-2.9-2.6 1.9c-.3-.2-.7-.3-1-.4l-.5-3.2h-4.2zm1.7 2h.8l.398 2.7.602.2c.6.2 1.2.4 1.7.7l.599.4 2.3-1.7.5.5-1.6 2.3.3.5c.3.6.5 1.2.7 1.8l.2.6 2.8.4v.8l-2.7.6-.2.6c-.2.6-.4 1.2-.7 1.7l-.4.6 1.7 2.3-.6.6-2.3-1.6-.5.3c-.6.3-1.2.5-1.8.7l-.6.2-.5 2.8h-.8l-.4-2.7-.6-.2c-.6-.2-1.2-.4-1.7-.7l-.6-.4-2.4 1.6-.6-.6 1.6-2.3-.3-.5c-.3-.6-.5-1.3-.7-1.8l-.2-.6-2.7-.5v-.8l2.8-.5.1-.7c.1-.5.3-1.1.6-1.6l.4-.5-1.6-2.3.6-.6 2.3 1.6.5-.2c.7-.3 1.3-.6 1.9-.8l.6-.1.5-2.8zm.3 4.9c-2.2 0-4 1.8-4 4s1.8 4 4 4 4-1.7 4-4c0-2.2-1.8-4-4-4zm0 2.1c1.1 0 2 .8 2 2 0 1.1-.9 2-2 2s-2-.9-2-2 .9-2 2-2z"/>
    </symbol>
  </defs>
</svg>