<svg aria-hidden="true" style="position: absolute; width: 0; height: 0; overflow: hidden;" version="1.1" xmlns="http://www.w3.org/2000/svg" xmlns:xlink="http://www.w3.org/1999/xlink">
<defs>
<symbol id="icon-add-to-list" viewBox="0 0 20 20">
<path d="M19.4 9h-3.4v-3.4c0-0.6-0.4-0.6-1-0.6s-1 0-1 0.6v3.4h-3.4c-0.6 0-0.6 0.4-0.6 1s0 1 0.6 1h3.4v3.4c0 0.6 0.4 0.6 1 0.6s1 0 1-0.6v-3.4h3.4c0.6 0 0.6-0.4 0.6-1s0-1-0.6-1zM7.4 9h-6.8c-0.6 0-0.6 0.4-0.6 1s0 1 0.6 1h6.8c0.6 0 0.6-0.4 0.6-1s0-1-0.6-1zM7.4 14h-6.8c-0.6 0-0.6 0.4-0.6 1s0 1 0.6 1h6.8c0.6 0 0.6-0.4 0.6-1s0-1-0.6-1zM7.4 4h-6.8c-0.6 0-0.6 0.4-0.6 1s0 1 0.6 1h6.8c0.6 0 0.6-0.4 0.6-1s0-1-0.6-1z"></path>
</symbol>
<symbol id="icon-list" viewBox="0 0 20 20">
<path d="M14.4 9h-5.8c-0.552 0-0.6 0.447-0.6 1s0.048 1 0.6 1h5.8c0.552 0 0.6-0.447 0.6-1s-0.048-1-0.6-1zM16.4 14h-7.8c-0.552 0-0.6 0.447-0.6 1s0.048 1 0.6 1h7.8c0.552 0 0.6-0.447 0.6-1s-0.048-1-0.6-1zM8.6 6h7.8c0.552 0 0.6-0.447 0.6-1s-0.048-1-0.6-1h-7.8c-0.552 0-0.6 0.447-0.6 1s0.048 1 0.6 1zM5.4 9h-1.8c-0.552 0-0.6 0.447-0.6 1s0.048 1 0.6 1h1.8c0.552 0 0.6-0.447 0.6-1s-0.048-1-0.6-1zM5.4 14h-1.8c-0.552 0-0.6 0.447-0.6 1s0.048 1 0.6 1h1.8c0.552 0 0.6-0.447 0.6-1s-0.048-1-0.6-1zM5.4 4h-1.8c-0.552 0-0.6 0.447-0.6 1s0.048 1 0.6 1h1.8c0.552 0 0.6-0.447 0.6-1s-0.048-1-0.6-1z"></path>
</symbol>
<symbol id="icon-tools" viewBox="0 0 20 20">
<path d="M3.135 6.89c0.933-0.725 1.707-0.225 2.74 0.971 0.116 0.135 0.272-0.023 0.361-0.1 0.088-0.078 1.451-1.305 1.518-1.361 0.066-0.059 0.146-0.169 0.041-0.292-0.107-0.123-0.494-0.625-0.743-0.951-1.808-2.365 4.946-3.969 3.909-3.994-0.528-0.014-2.646-0.039-2.963-0.004-1.283 0.135-2.894 1.334-3.705 1.893-1.061 0.726-1.457 1.152-1.522 1.211-0.3 0.262-0.048 0.867-0.592 1.344-0.575 0.503-0.934 0.122-1.267 0.414-0.165 0.146-0.627 0.492-0.759 0.607-0.133 0.117-0.157 0.314-0.021 0.471 0 0 1.264 1.396 1.37 1.52 0.105 0.122 0.391 0.228 0.567 0.071 0.177-0.156 0.632-0.553 0.708-0.623 0.078-0.066-0.050-0.861 0.358-1.177zM8.843 7.407c-0.12-0.139-0.269-0.143-0.397-0.029l-1.434 1.252c-0.113 0.1-0.129 0.283-0.027 0.4l8.294 9.439c0.194 0.223 0.53 0.246 0.751 0.053l0.97-0.813c0.222-0.195 0.245-0.533 0.052-0.758l-8.209-9.544zM19.902 3.39c-0.074-0.494-0.33-0.391-0.463-0.182-0.133 0.211-0.721 1.102-0.963 1.506-0.24 0.4-0.832 1.191-1.934 0.41-1.148-0.811-0.749-1.377-0.549-1.758 0.201-0.383 0.818-1.457 0.907-1.59 0.089-0.135-0.015-0.527-0.371-0.363s-2.523 1.025-2.823 2.26c-0.307 1.256 0.257 2.379-0.85 3.494l-1.343 1.4 1.349 1.566 1.654-1.57c0.394-0.396 1.236-0.781 1.998-0.607 1.633 0.369 2.524-0.244 3.061-1.258 0.482-0.906 0.402-2.814 0.327-3.308zM2.739 17.053c-0.208 0.209-0.208 0.549 0 0.758l0.951 0.93c0.208 0.209 0.538 0.121 0.746-0.088l4.907-4.824-1.503-1.714-5.101 4.938z"></path>
</symbol>
<symbol id="icon-error" viewBox="0 0 24 24">
<path d="M12.984 12.984v-6h-1.969v6h1.969zM12.984 17.016v-2.016h-1.969v2.016h1.969zM12 2.016q4.125 0 7.055 2.93t2.93 7.055-2.93 7.055-7.055 2.93-7.055-2.93-2.93-7.055 2.93-7.055 7.055-2.93z"></path>
</symbol>
<symbol id="icon-error_outline" viewBox="0 0 24 24">
<path d="M12 20.016q3.281 0 5.648-2.367t2.367-5.648-2.367-5.648-5.648-2.367-5.648 2.367-2.367 5.648 2.367 5.648 5.648 2.367zM12 2.016q4.125 0 7.055 2.93t2.93 7.055-2.93 7.055-7.055 2.93-7.055-2.93-2.93-7.055 2.93-7.055 7.055-2.93zM11.016 6.984h1.969v6h-1.969v-6zM11.016 15h1.969v2.016h-1.969v-2.016z"></path>
</symbol>
<symbol id="icon-warning" viewBox="0 0 24 24">
<path d="M12.984 14.016v-4.031h-1.969v4.031h1.969zM12.984 18v-2.016h-1.969v2.016h1.969zM0.984 21l11.016-18.984 11.016 18.984h-22.031z"></path>
</symbol>
<symbol id="icon-equalizer" viewBox="0 0 24 24">
<path d="M15.984 9h4.031v11.016h-4.031v-11.016zM3.984 20.016v-8.016h4.031v8.016h-4.031zM9.984 20.016v-16.031h4.031v16.031h-4.031z"></path>
</symbol>
<symbol id="icon-loop" viewBox="0 0 24 24">
<path d="M12 18v-3l3.984 3.984-3.984 4.031v-3q-3.281 0-5.648-2.367t-2.367-5.648q0-2.344 1.266-4.266l1.453 1.453q-0.703 1.266-0.703 2.813 0 2.484 1.758 4.242t4.242 1.758zM12 3.984q3.281 0 5.648 2.367t2.367 5.648q0 2.344-1.266 4.266l-1.453-1.453q0.703-1.266 0.703-2.813 0-2.484-1.758-4.242t-4.242-1.758v3l-3.984-3.984 3.984-4.031v3z"></path>
</symbol>
<symbol id="icon-mic" viewBox="0 0 24 24">
<path d="M17.297 11.016h1.688q0 2.531-1.758 4.43t-4.242 2.273v3.281h-1.969v-3.281q-2.484-0.375-4.242-2.273t-1.758-4.43h1.688q0 2.203 1.57 3.633t3.727 1.43 3.727-1.43 1.57-3.633zM12 14.016q-1.219 0-2.109-0.891t-0.891-2.109v-6q0-1.219 0.891-2.109t2.109-0.891 2.109 0.891 0.891 2.109v6q0 1.219-0.891 2.109t-2.109 0.891z"></path>
</symbol>
<symbol id="icon-mic_none" viewBox="0 0 24 24">
<path d="M17.297 11.016h1.688q0 2.531-1.758 4.43t-4.242 2.273v3.281h-1.969v-3.281q-2.484-0.375-4.242-2.273t-1.758-4.43h1.688q0 2.203 1.57 3.633t3.727 1.43 3.727-1.43 1.57-3.633zM10.781 4.922v6.188q0 0.469 0.352 0.82t0.867 0.352q0.469 0 0.82-0.328t0.352-0.844l0.047-6.188q0-0.516-0.375-0.867t-0.844-0.352-0.844 0.352-0.375 0.867zM12 14.016q-1.219 0-2.109-0.891t-0.891-2.109v-6q0-1.219 0.891-2.109t2.109-0.891 2.109 0.891 0.891 2.109v6q0 1.219-0.891 2.109t-2.109 0.891z"></path>
</symbol>
<symbol id="icon-mic_off" viewBox="0 0 24 24">
<path d="M4.266 3l16.734 16.734-1.266 1.266-4.172-4.172q-1.031 0.656-2.578 0.891v3.281h-1.969v-3.281q-2.484-0.375-4.242-2.273t-1.758-4.43h1.688q0 2.203 1.57 3.633t3.727 1.43q1.172 0 2.297-0.516l-1.641-1.641q-0.375 0.094-0.656 0.094-1.219 0-2.109-0.891t-0.891-2.109v-0.75l-6-6zM15 11.156l-6-5.953v-0.188q0-1.219 0.891-2.109t2.109-0.891 2.109 0.891 0.891 2.109v6.141zM18.984 11.016q0 1.734-0.891 3.281l-1.219-1.266q0.422-0.938 0.422-2.016h1.688z"></path>
</symbol>
<symbol id="icon-new_releases" viewBox="0 0 24 24">
<path d="M12.984 12.984v-6h-1.969v6h1.969zM12.984 17.016v-2.016h-1.969v2.016h1.969zM23.016 12l-2.438 2.766 0.328 3.703-3.609 0.797-1.875 3.188-3.422-1.453-3.422 1.453-1.875-3.141-3.609-0.844 0.328-3.703-2.438-2.766 2.438-2.813-0.328-3.656 3.609-0.797 1.875-3.188 3.422 1.453 3.422-1.453 1.875 3.188 3.609 0.797-0.328 3.703z"></path>
</symbol>
<symbol id="icon-not_interested" viewBox="0 0 24 24">
<path d="M18.328 16.922q1.688-2.109 1.688-4.922 0-3.281-2.367-5.648t-5.648-2.367q-1.125 0-2.578 0.492t-2.344 1.195zM12 20.016q1.125 0 2.578-0.492t2.344-1.195l-11.25-11.25q-1.688 2.109-1.688 4.922 0 3.281 2.367 5.648t5.648 2.367zM12 2.016q4.125 0 7.055 2.93t2.93 7.055-2.93 7.055-7.055 2.93-7.055-2.93-2.93-7.055 2.93-7.055 7.055-2.93z"></path>
</symbol>
<symbol id="icon-pause" viewBox="0 0 24 24">
<path d="M14.016 5.016h3.984v13.969h-3.984v-13.969zM6 18.984v-13.969h3.984v13.969h-3.984z"></path>
</symbol>
<symbol id="icon-pause_circle_filled" viewBox="0 0 24 24">
<path d="M15 15.984v-7.969h-2.016v7.969h2.016zM11.016 15.984v-7.969h-2.016v7.969h2.016zM12 2.016q4.125 0 7.055 2.93t2.93 7.055-2.93 7.055-7.055 2.93-7.055-2.93-2.93-7.055 2.93-7.055 7.055-2.93z"></path>
</symbol>
<symbol id="icon-pause_circle_outline" viewBox="0 0 24 24">
<path d="M12.984 15.984v-7.969h2.016v7.969h-2.016zM12 20.016q3.281 0 5.648-2.367t2.367-5.648-2.367-5.648-5.648-2.367-5.648 2.367-2.367 5.648 2.367 5.648 5.648 2.367zM12 2.016q4.125 0 7.055 2.93t2.93 7.055-2.93 7.055-7.055 2.93-7.055-2.93-2.93-7.055 2.93-7.055 7.055-2.93zM9 15.984v-7.969h2.016v7.969h-2.016z"></path>
</symbol>
<symbol id="icon-play_arrow" viewBox="0 0 24 24">
<path d="M8.016 5.016l10.969 6.984-10.969 6.984v-13.969z"></path>
</symbol>
<symbol id="icon-play_circle_filled" viewBox="0 0 24 24">
<path d="M9.984 16.5l6-4.5-6-4.5v9zM12 2.016q4.125 0 7.055 2.93t2.93 7.055-2.93 7.055-7.055 2.93-7.055-2.93-2.93-7.055 2.93-7.055 7.055-2.93z"></path>
</symbol>
<symbol id="icon-play_circle_outline" viewBox="0 0 24 24">
<path d="M12 20.016q3.281 0 5.648-2.367t2.367-5.648-2.367-5.648-5.648-2.367-5.648 2.367-2.367 5.648 2.367 5.648 5.648 2.367zM12 2.016q4.125 0 7.055 2.93t2.93 7.055-2.93 7.055-7.055 2.93-7.055-2.93-2.93-7.055 2.93-7.055 7.055-2.93zM9.984 16.5v-9l6 4.5z"></path>
</symbol>
<symbol id="icon-playlist_add" viewBox="0 0 24 24">
<path d="M2.016 15.984v-1.969h7.969v1.969h-7.969zM18 14.016h3.984v1.969h-3.984v4.031h-2.016v-4.031h-3.984v-1.969h3.984v-4.031h2.016v4.031zM14.016 6v2.016h-12v-2.016h12zM14.016 9.984v2.016h-12v-2.016h12z"></path>
</symbol>
<symbol id="icon-queue_music" viewBox="0 0 24 24">
<path d="M17.016 6h4.969v2.016h-3v9q0 1.219-0.891 2.109t-2.109 0.891-2.109-0.891-0.891-2.109 0.891-2.109 2.109-0.891q0.375 0 1.031 0.188v-8.203zM3 15.984v-1.969h8.016v1.969h-8.016zM15 9.984v2.016h-12v-2.016h12zM15 6v2.016h-12v-2.016h12z"></path>
</symbol>
<symbol id="icon-playlist_play" viewBox="0 0 24 24">
<path d="M14.016 14.016l4.969 3-4.969 3v-6zM3.984 14.016h8.016v1.969h-8.016v-1.969zM3.984 6h12v2.016h-12v-2.016zM3.984 9.984h12v2.016h-12v-2.016z"></path>
</symbol>
<symbol id="icon-playlist_add_check" viewBox="0 0 24 24">
<path d="M21.516 11.484l1.5 1.5-6.984 7.031-4.547-4.5 1.5-1.5 3.047 3zM2.016 15.984v-1.969h7.969v1.969h-7.969zM14.016 6v2.016h-12v-2.016h12zM14.016 9.984v2.016h-12v-2.016h12z"></path>
</symbol>
<symbol id="icon-featured_play_list" viewBox="0 0 24 24">
<path d="M12 6.984v-1.969h-9v1.969h9zM12 11.016v-2.016h-9v2.016h9zM21 3q0.797 0 1.406 0.609t0.609 1.406v13.969q0 0.797-0.609 1.406t-1.406 0.609h-18q-0.797 0-1.406-0.609t-0.609-1.406v-13.969q0-0.797 0.609-1.406t1.406-0.609h18z"></path>
</symbol>
<symbol id="icon-contact_mail" viewBox="0 0 24 24">
<path d="M21.984 12v-6h-7.969v6h7.969zM14.016 18v-0.984q0-1.359-2.063-2.227t-3.938-0.867-3.938 0.867-2.063 2.227v0.984h12zM8.016 6q-1.219 0-2.109 0.891t-0.891 2.109 0.891 2.109 2.109 0.891 2.109-0.891 0.891-2.109-0.891-2.109-2.109-0.891zM21.984 3q0.797 0 1.406 0.609t0.609 1.406v13.969q0 0.797-0.609 1.406t-1.406 0.609h-19.969q-0.797 0-1.406-0.609t-0.609-1.406v-13.969q0-0.797 0.609-1.406t1.406-0.609h19.969zM21 8.016l-3 1.969-3-1.969v-1.031l3 2.016 3-2.016v1.031z"></path>
</symbol>
<symbol id="icon-list_alt" viewBox="0 0 24 24">
<path d="M6.984 15h2.016v2.016h-2.016v-2.016zM6.984 11.016h2.016v1.969h-2.016v-1.969zM6.984 6.984h2.016v2.016h-2.016v-2.016zM11.016 15h6v2.016h-6v-2.016zM11.016 11.016h6v1.969h-6v-1.969zM11.016 6.984h6v2.016h-6v-2.016zM20.109 3q0.328 0 0.609 0.258t0.281 0.633v16.219q0 0.328-0.281 0.609t-0.609 0.281h-16.219q-0.375 0-0.633-0.281t-0.258-0.609v-16.219q0-0.891 0.891-0.891h16.219zM18.984 5.016h-13.969v13.969h13.969v-13.969z"></path>
</symbol>
<symbol id="icon-lightbulb" viewBox="0 0 24 24">
<path d="M12 2.016q2.906 0 4.945 2.039t2.039 4.945q0 3.516-3 5.719v2.297q0 0.422-0.281 0.703t-0.703 0.281h-6q-0.422 0-0.703-0.281t-0.281-0.703v-2.297q-3-2.063-3-5.719 0-2.906 2.039-4.945t4.945-2.039zM9 21v-0.984h6v0.984q0 0.422-0.281 0.703t-0.703 0.281h-4.031q-0.422 0-0.703-0.281t-0.281-0.703z"></path>
</symbol>
<symbol id="icon-add" viewBox="0 0 24 24">
<path d="M18.984 12.984h-6v6h-1.969v-6h-6v-1.969h6v-6h1.969v6h6v1.969z"></path>
</symbol>
<symbol id="icon-block1" viewBox="0 0 24 24">
<path d="M12 20.016q3.281 0 5.648-2.367t2.367-5.648q0-1.125-0.492-2.578t-1.195-2.344l-11.25 11.25q2.109 1.688 4.922 1.688zM3.984 12q0 1.125 0.492 2.578t1.195 2.344l11.25-11.25q-2.109-1.688-4.922-1.688-3.281 0-5.648 2.367t-2.367 5.648zM12 2.016q4.125 0 7.055 2.93t2.93 7.055-2.93 7.055-7.055 2.93-7.055-2.93-2.93-7.055 2.93-7.055 7.055-2.93z"></path>
</symbol>
<symbol id="icon-clear" viewBox="0 0 24 24">
<path d="M18.984 6.422l-5.578 5.578 5.578 5.578-1.406 1.406-5.578-5.578-5.578 5.578-1.406-1.406 5.578-5.578-5.578-5.578 1.406-1.406 5.578 5.578 5.578-5.578z"></path>
</symbol>
<symbol id="icon-create" viewBox="0 0 24 24">
<path d="M20.719 7.031l-1.828 1.828-3.75-3.75 1.828-1.828q0.281-0.281 0.703-0.281t0.703 0.281l2.344 2.344q0.281 0.281 0.281 0.703t-0.281 0.703zM3 17.25l11.063-11.063 3.75 3.75-11.063 11.063h-3.75v-3.75z"></path>
</symbol>
<symbol id="icon-filter_list" viewBox="0 0 24 24">
<path d="M6 12.984v-1.969h12v1.969h-12zM3 6h18v2.016h-18v-2.016zM9.984 18v-2.016h4.031v2.016h-4.031z"></path>
</symbol>
<symbol id="icon-gesture" viewBox="0 0 24 24">
<path d="M13.875 18.563q0.656 0 1.313-0.867t0.844-2.648q-1.406 0.375-2.156 1.266t-0.75 1.5q0 0.328 0.234 0.539t0.516 0.211zM4.594 6.891l-1.734-1.688q0.469-0.563 0.844-0.938 1.266-1.266 2.719-1.266 0.891 0 1.711 0.703t0.82 2.156q0 1.406-1.313 3.281-1.313 1.828-1.828 3.516-0.281 0.797-0.164 1.359t0.492 0.563q0.422 0 1.125-0.844 1.031-1.031 2.297-2.719 2.25-2.813 4.922-2.813 1.969 0 2.93 1.289t1.102 2.883h2.484v2.484h-2.438q-0.281 3.234-1.734 4.688t-3 1.453q-1.313 0-2.25-0.914t-0.938-2.18q0-1.547 1.406-3.234t3.984-2.156q-0.047-0.375-0.070-0.516t-0.141-0.445-0.281-0.445-0.492-0.258-0.797-0.117q-1.313 0-4.078 3.422-0.797 0.984-1.102 1.336t-0.867 0.82-1.078 0.609q-1.641 0.516-2.813-0.609t-1.172-2.813q0-0.703 0.258-1.547t0.68-1.641 0.797-1.43 0.727-1.148 0.398-0.563q0.797-1.313 0.281-1.5-0.328-0.141-1.688 1.219z"></path>
</symbol>
<symbol id="icon-link1" viewBox="0 0 24 24">
<path d="M17.016 6.984q2.063 0 3.516 1.477t1.453 3.539-1.453 3.539-3.516 1.477h-4.031v-1.922h4.031q1.266 0 2.18-0.914t0.914-2.18-0.914-2.18-2.18-0.914h-4.031v-1.922h4.031zM8.016 12.984v-1.969h7.969v1.969h-7.969zM3.891 12q0 1.266 0.914 2.18t2.18 0.914h4.031v1.922h-4.031q-2.063 0-3.516-1.477t-1.453-3.539 1.453-3.539 3.516-1.477h4.031v1.922h-4.031q-1.266 0-2.18 0.914t-0.914 2.18z"></path>
</symbol>
<symbol id="icon-remove" viewBox="0 0 24 24">
<path d="M18.984 12.984h-13.969v-1.969h13.969v1.969z"></path>
</symbol>
<symbol id="icon-reply" viewBox="0 0 24 24">
<path d="M9.984 9q4.875 0.703 7.523 3.727t3.492 7.289q-3.609-5.109-11.016-5.109v4.078l-6.984-6.984 6.984-6.984v3.984z"></path>
</symbol>
<symbol id="icon-reply_all" viewBox="0 0 24 24">
<path d="M12.984 9q4.875 0.703 7.523 3.727t3.492 7.289q-3.609-5.109-11.016-5.109v4.078l-6.984-6.984 6.984-6.984v3.984zM6.984 8.016l-3.984 3.984 3.984 3.984v3l-6.984-6.984 6.984-6.984v3z"></path>
</symbol>
<symbol id="icon-now_widgets" viewBox="0 0 24 24">
<path d="M16.641 1.688l5.672 5.672-5.672 5.625h4.359v8.016h-8.016v-8.016h3.656l-5.625-5.625v3.656h-8.016v-8.016h8.016v4.359zM3 21v-8.016h8.016v8.016h-8.016z"></path>
</symbol>
<symbol id="icon-signal_cellular_alt" viewBox="0 0 24 24">
<path d="M11.016 9h3v11.016h-3v-11.016zM5.016 14.016h3v6h-3v-6zM17.016 3.984h3v16.031h-3v-16.031z"></path>
</symbol>
<symbol id="icon-attach_file" viewBox="0 0 24 24">
<path d="M16.5 6h1.5v11.484q0 2.297-1.594 3.914t-3.891 1.617-3.914-1.617-1.617-3.914v-12.469q0-1.641 1.195-2.836t2.836-1.195 2.813 1.195 1.172 2.836v10.5q0 1.031-0.727 1.758t-1.758 0.727-1.781-0.727-0.75-1.758v-9.516h1.5v9.516q0 0.422 0.305 0.703t0.727 0.281 0.703-0.281 0.281-0.703v-10.5q0-1.031-0.727-1.781t-1.758-0.75-1.781 0.75-0.75 1.781v12.469q0 1.641 1.195 2.836t2.836 1.195 2.813-1.195 1.172-2.836v-11.484z"></path>
</symbol>
<symbol id="icon-border_color" viewBox="0 0 24 24">
<path d="M0 20.016h24v3.984h-24v-3.984zM20.719 4.031l-1.969 1.969-3.75-3.75 1.969-1.969q0.281-0.281 0.703-0.281t0.703 0.281l2.344 2.344q0.281 0.281 0.281 0.703t-0.281 0.703zM17.766 6.984l-10.031 10.031h-3.75v-3.75l10.031-10.031z"></path>
</symbol>
<symbol id="icon-format_list_bulleted" viewBox="0 0 24 24">
<path d="M6.984 5.016h14.016v1.969h-14.016v-1.969zM6.984 12.984v-1.969h14.016v1.969h-14.016zM6.984 18.984v-1.969h14.016v1.969h-14.016zM3.984 16.5q0.609 0 1.055 0.445t0.445 1.055-0.445 1.055-1.055 0.445-1.055-0.445-0.445-1.055 0.445-1.055 1.055-0.445zM3.984 4.5q0.609 0 1.055 0.422t0.445 1.078-0.445 1.078-1.055 0.422-1.055-0.422-0.445-1.078 0.445-1.078 1.055-0.422zM3.984 10.5q0.609 0 1.055 0.422t0.445 1.078-0.445 1.078-1.055 0.422-1.055-0.422-0.445-1.078 0.445-1.078 1.055-0.422z"></path>
</symbol>
<symbol id="icon-format_list_numbered" viewBox="0 0 24 24">
<path d="M6.984 12.984v-1.969h14.016v1.969h-14.016zM6.984 18.984v-1.969h14.016v1.969h-14.016zM6.984 5.016h14.016v1.969h-14.016v-1.969zM2.016 11.016v-1.031h3v0.938l-1.828 2.063h1.828v1.031h-3v-0.938l1.781-2.063h-1.781zM3 8.016v-3h-0.984v-1.031h1.969v4.031h-0.984zM2.016 17.016v-1.031h3v4.031h-3v-1.031h1.969v-0.469h-0.984v-1.031h0.984v-0.469h-1.969z"></path>
</symbol>
<symbol id="icon-format_list_numbered_rtl" viewBox="0 0 24 24">
<path d="M2.016 11.016h13.969v1.969h-13.969v-1.969zM2.016 17.016h13.969v1.969h-13.969v-1.969zM2.016 5.016h13.969v1.969h-13.969v-1.969zM18 11.016v-1.031h3v0.938l-1.781 2.063h1.781v1.031h-3v-0.938l1.781-2.063h-1.781zM18.984 8.016v-3h-0.984v-1.031h2.016v4.031h-1.031zM18 17.016v-1.031h3v4.031h-3v-1.031h2.016v-0.469h-1.031v-1.031h1.031v-0.469h-2.016z"></path>
</symbol>
<symbol id="icon-insert_chart_outlined" viewBox="0 0 24 24">
<path d="M19.5 3q0.797 0 1.406 0.609t0.609 1.406v13.969q0 0.797-0.609 1.406t-1.406 0.609h-15q-0.797 0-1.406-0.609t-0.609-1.406v-13.969q0-0.797 0.609-1.406t1.406-0.609h15zM19.5 19.078v-14.063h-15v14.063h15zM17.016 17.016h-2.016v-4.031h2.016v4.031zM12.984 17.016h-1.969v-10.031h1.969v10.031zM9 17.016h-2.016v-7.031h2.016v7.031z"></path>
</symbol>
<symbol id="icon-bar_chart" viewBox="0 0 24 24">
<path d="M16.219 12.984h2.766v6h-2.766v-6zM10.594 5.016h2.813v13.969h-2.813v-13.969zM5.016 9.188h3v9.797h-3v-9.797z"></path>
</symbol>
<symbol id="icon-notes" viewBox="0 0 24 24">
<path d="M3 12.984v-1.969h18v1.969h-18zM3 6h18v2.016h-18v-2.016zM3 18v-2.016h12v2.016h-12z"></path>
</symbol>
<symbol id="icon-cloud_done" viewBox="0 0 24 24">
<path d="M9.984 17.016l6.609-6.609-1.406-1.406-5.203 5.156-2.063-2.063-1.406 1.406zM19.359 10.031q1.922 0.141 3.281 1.57t1.359 3.398q0 2.063-1.477 3.539t-3.539 1.477h-12.984q-2.484 0-4.242-1.758t-1.758-4.242q0-2.203 1.57-3.961t3.773-1.992q0.984-1.828 2.766-2.953t3.891-1.125q2.531 0 4.711 1.781t2.648 4.266z"></path>
</symbol>
<symbol id="icon-cloud_download" viewBox="0 0 24 24">
<path d="M17.016 12.984h-3v-3.984h-4.031v3.984h-3l5.016 5.016zM19.359 10.031q1.922 0.141 3.281 1.57t1.359 3.398q0 2.063-1.477 3.539t-3.539 1.477h-12.984q-2.484 0-4.242-1.758t-1.758-4.242q0-2.203 1.57-3.961t3.773-1.992q0.984-1.828 2.766-2.953t3.891-1.125q2.531 0 4.711 1.781t2.648 4.266z"></path>
</symbol>
<symbol id="icon-cloud_off" viewBox="0 0 24 24">
<path d="M7.734 9.984h-1.734q-1.641 0-2.813 1.195t-1.172 2.836 1.172 2.813 2.813 1.172h9.75zM3 5.25l1.266-1.266 16.734 16.734-1.266 1.266-2.016-1.969h-11.719q-2.484 0-4.242-1.758t-1.758-4.242q0-2.438 1.688-4.172t4.078-1.828zM19.359 10.031q1.922 0.141 3.281 1.57t1.359 3.398q0 2.578-2.109 4.078l-1.453-1.453q1.547-0.844 1.547-2.625 0-1.219-0.891-2.109t-2.109-0.891h-1.5v-0.516q0-2.297-1.594-3.891t-3.891-1.594q-1.313 0-2.531 0.609l-1.5-1.453q1.828-1.172 4.031-1.172 2.531 0 4.711 1.781t2.648 4.266z"></path>
</symbol>
<symbol id="icon-cloud_queue" viewBox="0 0 24 24">
<path d="M18.984 18q1.219 0 2.109-0.891t0.891-2.109-0.891-2.109-2.109-0.891h-1.5v-0.516q0-2.297-1.594-3.891t-3.891-1.594q-1.875 0-3.328 1.125t-1.969 2.859h-0.703q-1.641 0-2.813 1.195t-1.172 2.836 1.172 2.813 2.813 1.172h12.984zM19.359 10.031q1.922 0.141 3.281 1.57t1.359 3.398q0 2.063-1.477 3.539t-3.539 1.477h-12.984q-2.484 0-4.242-1.758t-1.758-4.242q0-2.203 1.57-3.961t3.773-1.992q0.984-1.828 2.766-2.953t3.891-1.125q2.531 0 4.711 1.781t2.648 4.266z"></path>
</symbol>
<symbol id="icon-keyboard_arrow_down" viewBox="0 0 24 24">
<path d="M7.406 8.578l4.594 4.594 4.594-4.594 1.406 1.406-6 6-6-6z"></path>
</symbol>
<symbol id="icon-keyboard_arrow_left" viewBox="0 0 24 24">
<path d="M15.422 16.594l-1.406 1.406-6-6 6-6 1.406 1.406-4.594 4.594z"></path>
</symbol>
<symbol id="icon-keyboard_arrow_right" viewBox="0 0 24 24">
<path d="M8.578 16.594l4.594-4.594-4.594-4.594 1.406-1.406 6 6-6 6z"></path>
</symbol>
<symbol id="icon-keyboard_arrow_up" viewBox="0 0 24 24">
<path d="M7.406 15.422l-1.406-1.406 6-6 6 6-1.406 1.406-4.594-4.594z"></path>
</symbol>
<symbol id="icon-style" viewBox="0 0 24 24">
<path d="M5.859 19.734v-6.328l3.469 8.344h-1.453q-0.797 0-1.406-0.609t-0.609-1.406zM7.875 8.766q0.422 0 0.703-0.305t0.281-0.727-0.281-0.703-0.703-0.281-0.703 0.281-0.281 0.703 0.281 0.727 0.703 0.305zM22.031 15.938q0.141 0.281 0.141 0.75 0 0.563-0.352 1.125t-0.867 0.75l-7.359 3.047q-0.281 0.141-0.75 0.141-0.563 0-1.102-0.352t-0.773-0.867l-4.969-12q-0.141-0.281-0.141-0.75 0-0.563 0.352-1.078t0.867-0.75l7.406-3.047q0.422-0.141 0.797-0.141 0.516 0 1.031 0.352t0.75 0.867zM2.531 19.641q-0.75-0.328-1.078-1.078t0-1.5l2.438-5.859v9z"></path>
</symbol>
<symbol id="icon-view_compact" viewBox="0 0 24 24">
<path d="M3 5.016h18.984v6h-18.984v-6zM9.984 18.984v-6.984h12v6.984h-12zM3 18.984v-6.984h6v6.984h-6z"></path>
</symbol>
<symbol id="icon-collections_bookmark" viewBox="0 0 24 24">
<path d="M20.016 12v-8.016h-5.016v8.016l2.484-1.5zM20.016 2.016q0.797 0 1.383 0.586t0.586 1.383v12q0 0.797-0.586 1.406t-1.383 0.609h-12q-0.797 0-1.406-0.609t-0.609-1.406v-12q0-0.797 0.609-1.383t1.406-0.586h12zM3.984 6v14.016h14.016v1.969h-14.016q-0.797 0-1.383-0.586t-0.586-1.383v-14.016h1.969z"></path>
</symbol>
<symbol id="icon-photo_size_select_actual" viewBox="0 0 24 24">
<path d="M5.016 17.016h13.969l-4.5-6-3.469 4.5-2.531-3zM21 3q0.75 0 1.383 0.633t0.633 1.383v13.969q0 0.75-0.633 1.383t-1.383 0.633h-18q-0.797 0-1.406-0.609t-0.609-1.406v-13.969q0-0.75 0.633-1.383t1.383-0.633h18z"></path>
</symbol>
<symbol id="icon-photo_size_select_large" viewBox="0 0 24 24">
<path d="M3 18.984h9.984l-3.188-4.266-2.484 3.234-1.828-2.156zM0.984 11.016h14.016v9.984h-12q-0.797 0-1.406-0.609t-0.609-1.406v-7.969zM5.016 3h1.969v2.016h-1.969v-2.016zM9 3h2.016v2.016h-2.016v-2.016zM3 3v2.016h-2.016q0-0.75 0.633-1.383t1.383-0.633zM17.016 18.984h1.969v2.016h-1.969v-2.016zM17.016 3h1.969v2.016h-1.969v-2.016zM0.984 6.984h2.016v2.016h-2.016v-2.016zM21 3q0.75 0 1.383 0.633t0.633 1.383h-2.016v-2.016zM21 6.984h2.016v2.016h-2.016v-2.016zM12.984 3h2.016v2.016h-2.016v-2.016zM23.016 18.984q0 0.75-0.633 1.383t-1.383 0.633v-2.016h2.016zM21 11.016h2.016v1.969h-2.016v-1.969zM21 15h2.016v2.016h-2.016v-2.016z"></path>
</symbol>
<symbol id="icon-photo_size_select_small" viewBox="0 0 24 24">
<path d="M6.984 3v2.016h-1.969v-2.016h1.969zM11.016 3v2.016h-2.016v-2.016h2.016zM3 11.016v1.969h-2.016v-1.969h2.016zM3 3v2.016h-2.016q0-0.75 0.633-1.383t1.383-0.633zM18.984 18.984v2.016h-1.969v-2.016h1.969zM18.984 3v2.016h-1.969v-2.016h1.969zM15 18.984v2.016h-2.016v-2.016h2.016zM3 6.984v2.016h-2.016v-2.016h2.016zM3 21q-0.797 0-1.406-0.609t-0.609-1.406v-3.984h10.031v6h-8.016zM21 3q0.75 0 1.383 0.633t0.633 1.383h-2.016v-2.016zM23.016 6.984v2.016h-2.016v-2.016h2.016zM15 3v2.016h-2.016v-2.016h2.016zM23.016 18.984q0 0.75-0.633 1.383t-1.383 0.633v-2.016h2.016zM23.016 11.016v1.969h-2.016v-1.969h2.016zM23.016 15v2.016h-2.016v-2.016h2.016z"></path>
</symbol>
<symbol id="icon-vignette" viewBox="0 0 24 24">
<path d="M12 18q3.328 0 5.672-1.758t2.344-4.242-2.344-4.242-5.672-1.758-5.672 1.758-2.344 4.242 2.344 4.242 5.672 1.758zM21 3q0.797 0 1.406 0.609t0.609 1.406v13.969q0 0.797-0.609 1.406t-1.406 0.609h-18q-0.797 0-1.406-0.609t-0.609-1.406v-13.969q0-0.797 0.609-1.406t1.406-0.609h18z"></path>
</symbol>
<symbol id="icon-local_restaurant" viewBox="0 0 24 24">
<path d="M14.859 11.531l-1.453 1.453 6.891 6.891-1.406 1.406-6.891-6.891-6.891 6.891-1.406-1.406 9.75-9.75q-0.563-1.125-0.164-2.625t1.57-2.672q1.453-1.453 3.234-1.664t2.859 0.867 0.867 2.883-1.664 3.258q-1.172 1.172-2.672 1.547t-2.625-0.188zM8.109 13.359l-4.219-4.219q-1.172-1.172-1.172-2.813t1.172-2.813l7.031 6.984z"></path>
</symbol>
<symbol id="icon-rate_review" viewBox="0 0 24 24">
<path d="M18 14.016v-2.016h-5.484l-2.016 2.016h7.5zM6 14.016h2.484l6.891-6.891q0.375-0.375 0-0.703l-1.781-1.781q-0.375-0.328-0.703 0l-6.891 6.891v2.484zM20.016 2.016q0.797 0 1.383 0.586t0.586 1.383v12q0 0.797-0.586 1.406t-1.383 0.609h-14.016l-3.984 3.984v-18q0-0.797 0.586-1.383t1.383-0.586h16.031z"></path>
</symbol>
<symbol id="icon-not_listed_location" viewBox="0 0 24 24">
<path d="M12.891 12.891q0-0.938 1.313-2.109t1.313-2.297q0-1.453-1.031-2.461t-2.484-1.008-2.484 1.008-1.031 2.461h1.781q0-0.703 0.516-1.219t1.219-0.516 1.219 0.516 0.516 1.219q0 0.563-0.398 1.031t-0.914 0.773-0.914 0.961-0.398 1.641h1.781zM12.891 15.75v-1.734h-1.781v1.734h1.781zM12 2.016q2.906 0 4.945 2.039t2.039 4.945q0 1.453-0.727 3.328t-1.758 3.516-2.039 3.070-1.711 2.273l-0.75 0.797q-0.281-0.328-0.75-0.867t-1.688-2.156-2.133-3.141-1.664-3.445-0.75-3.375q0-2.906 2.039-4.945t4.945-2.039z"></path>
</symbol>
<symbol id="icon-money" viewBox="0 0 24 24">
<path d="M3.984 18h16.031v-12h-16.031v12zM2.016 3.984h19.969v16.031h-19.969v-16.031zM17.016 14.016v-4.031h-1.031v4.031h1.031zM18 8.016q0.422 0 0.703 0.281t0.281 0.703v6q0 0.422-0.281 0.703t-0.703 0.281h-3q-0.422 0-0.703-0.281t-0.281-0.703v-6q0-0.422 0.281-0.703t0.703-0.281h3zM11.016 14.016v-4.031h-1.031v4.031h1.031zM12 8.016q0.422 0 0.703 0.281t0.281 0.703v6q0 0.422-0.281 0.703t-0.703 0.281h-3q-0.422 0-0.703-0.281t-0.281-0.703v-6q0-0.422 0.281-0.703t0.703-0.281h3zM5.016 8.016h1.969v7.969h-1.969v-7.969z"></path>
</symbol>
<symbol id="icon-check1" viewBox="0 0 24 24">
<path d="M9 16.172l10.594-10.594 1.406 1.406-12 12-5.578-5.578 1.406-1.406z"></path>
</symbol>
<symbol id="icon-expand_less" viewBox="0 0 24 24">
<path d="M12 8.016l6 6-1.406 1.406-4.594-4.594-4.594 4.594-1.406-1.406z"></path>
</symbol>
<symbol id="icon-expand_more" viewBox="0 0 24 24">
<path d="M16.594 8.578l1.406 1.406-6 6-6-6 1.406-1.406 4.594 4.594z"></path>
</symbol>
<symbol id="icon-menu1" viewBox="0 0 24 24">
<path d="M3 6h18v2.016h-18v-2.016zM3 12.984v-1.969h18v1.969h-18zM3 18v-2.016h18v2.016h-18z"></path>
</symbol>
<symbol id="icon-keyboard_control" viewBox="0 0 24 24">
<path d="M12 9.984q0.797 0 1.406 0.609t0.609 1.406-0.609 1.406-1.406 0.609-1.406-0.609-0.609-1.406 0.609-1.406 1.406-0.609zM18 9.984q0.797 0 1.406 0.609t0.609 1.406-0.609 1.406-1.406 0.609-1.406-0.609-0.609-1.406 0.609-1.406 1.406-0.609zM6 9.984q0.797 0 1.406 0.609t0.609 1.406-0.609 1.406-1.406 0.609-1.406-0.609-0.609-1.406 0.609-1.406 1.406-0.609z"></path>
</symbol>
<symbol id="icon-more_vert" viewBox="0 0 24 24">
<path d="M12 15.984q0.797 0 1.406 0.609t0.609 1.406-0.609 1.406-1.406 0.609-1.406-0.609-0.609-1.406 0.609-1.406 1.406-0.609zM12 9.984q0.797 0 1.406 0.609t0.609 1.406-0.609 1.406-1.406 0.609-1.406-0.609-0.609-1.406 0.609-1.406 1.406-0.609zM12 8.016q-0.797 0-1.406-0.609t-0.609-1.406 0.609-1.406 1.406-0.609 1.406 0.609 0.609 1.406-0.609 1.406-1.406 0.609z"></path>
</symbol>
<symbol id="icon-refresh" viewBox="0 0 24 24">
<path d="M17.672 6.328l2.344-2.344v7.031h-7.031l3.234-3.234q-1.781-1.781-4.219-1.781-2.484 0-4.242 1.758t-1.758 4.242 1.758 4.242 4.242 1.758q1.734 0 3.398-1.172t2.273-2.813h2.063q-0.656 2.625-2.813 4.313t-4.922 1.688q-3.281 0-5.625-2.344t-2.344-5.672 2.344-5.672 5.625-2.344q1.406 0 3.070 0.68t2.602 1.664z"></path>
</symbol>
<symbol id="icon-unfold_less" viewBox="0 0 24 24">
<path d="M16.594 5.391l-4.594 4.594-4.594-4.594 1.406-1.406 3.188 3.188 3.188-3.188zM7.406 18.609l4.594-4.594 4.594 4.594-1.406 1.406-3.188-3.188-3.188 3.188z"></path>
</symbol>
<symbol id="icon-unfold_more" viewBox="0 0 24 24">
<path d="M12 18.188l3.188-3.188 1.406 1.406-4.594 4.594-4.594-4.594 1.406-1.406zM12 5.813l-3.188 3.188-1.406-1.406 4.594-4.594 4.594 4.594-1.406 1.406z"></path>
</symbol>
<symbol id="icon-arrow_left" viewBox="0 0 24 24">
<path d="M14.016 6.984v10.031l-5.016-5.016z"></path>
</symbol>
<symbol id="icon-arrow_right" viewBox="0 0 24 24">
<path d="M9.984 17.016v-10.031l5.016 5.016z"></path>
</symbol>
<symbol id="icon-pie_chart" viewBox="0 0 24 24">
<path d="M13.031 13.031h8.953q-0.328 3.563-2.859 6.094t-6.094 2.859v-8.953zM13.031 2.016q3.563 0.328 6.094 2.859t2.859 6.094h-8.953v-8.953zM11.016 2.016v19.969q-3.797-0.375-6.398-3.234t-2.602-6.75 2.602-6.75 6.398-3.234z"></path>
</symbol>
<symbol id="icon-pie_chart_outlined" viewBox="0 0 24 24">
<path d="M12.984 19.922q2.531-0.328 4.57-2.367t2.367-4.57h-6.938v6.938zM3.984 12q0 3.047 2.016 5.297t5.016 2.625v-15.844q-2.953 0.375-4.992 2.625t-2.039 5.297zM12.984 4.078v6.938h6.938q-0.328-2.719-2.273-4.664t-4.664-2.273zM12 2.016q4.125 0 7.055 2.93t2.93 7.055-2.93 7.055-7.055 2.93-7.055-2.93-2.93-7.055 2.93-7.055 7.055-2.93z"></path>
</symbol>
<symbol id="icon-share" viewBox="0 0 24 24">
<path d="M18 16.078q1.219 0 2.063 0.867t0.844 2.039q0 1.219-0.867 2.086t-2.039 0.867-2.039-0.867-0.867-2.086q0-0.469 0.047-0.656l-7.078-4.125q-0.891 0.797-2.063 0.797-1.219 0-2.109-0.891t-0.891-2.109 0.891-2.109 2.109-0.891q1.172 0 2.063 0.797l7.031-4.078q-0.094-0.469-0.094-0.703 0-1.219 0.891-2.109t2.109-0.891 2.109 0.891 0.891 2.109-0.891 2.109-2.109 0.891q-1.125 0-2.063-0.844l-7.031 4.125q0.094 0.469 0.094 0.703t-0.094 0.703l7.125 4.125q0.844-0.75 1.969-0.75z"></path>
</symbol>
<symbol id="icon-star" viewBox="0 0 24 24">
<path d="M12 17.25l-6.188 3.75 1.641-7.031-5.438-4.734 7.172-0.609 2.813-6.609 2.813 6.609 7.172 0.609-5.438 4.734 1.641 7.031z"></path>
</symbol>
<symbol id="icon-star_half" viewBox="0 0 24 24">
<path d="M12 15.422l3.75 2.25-0.984-4.266 3.328-2.906-4.406-0.375-1.688-4.031v9.328zM21.984 9.234l-5.438 4.734 1.641 7.031-6.188-3.75-6.188 3.75 1.641-7.031-5.438-4.734 7.172-0.609 2.813-6.609 2.813 6.609z"></path>
</symbol>
<symbol id="icon-star_outline" viewBox="0 0 24 24">
<path d="M12 15.422l3.75 2.25-0.984-4.266 3.328-2.906-4.406-0.375-1.688-4.031-1.688 4.031-4.406 0.375 3.328 2.906-0.984 4.266zM21.984 9.234l-5.438 4.734 1.641 7.031-6.188-3.75-6.188 3.75 1.641-7.031-5.438-4.734 7.172-0.609 2.813-6.609 2.813 6.609z"></path>
</symbol>
<symbol id="icon-aspect_ratio" viewBox="0 0 24 24">
<path d="M21 19.031v-14.063h-18v14.063h18zM21 3q0.797 0 1.406 0.609t0.609 1.406v13.969q0 0.797-0.609 1.406t-1.406 0.609h-18q-0.797 0-1.406-0.609t-0.609-1.406v-13.969q0-0.797 0.609-1.406t1.406-0.609h18zM6.984 9v3h-1.969v-5.016h4.969v2.016h-3zM18.984 12v5.016h-4.969v-2.016h3v-3h1.969z"></path>
</symbol>
<symbol id="icon-assignment" viewBox="0 0 24 24">
<path d="M17.016 9v-2.016h-10.031v2.016h10.031zM17.016 12.984v-1.969h-10.031v1.969h10.031zM14.016 17.016v-2.016h-7.031v2.016h7.031zM12 3q-0.422 0-0.703 0.281t-0.281 0.703 0.281 0.727 0.703 0.305 0.703-0.305 0.281-0.727-0.281-0.703-0.703-0.281zM18.984 3q0.797 0 1.406 0.609t0.609 1.406v13.969q0 0.797-0.609 1.406t-1.406 0.609h-13.969q-0.797 0-1.406-0.609t-0.609-1.406v-13.969q0-0.797 0.609-1.406t1.406-0.609h4.172q0.328-0.891 1.078-1.453t1.734-0.563 1.734 0.563 1.078 1.453h4.172z"></path>
</symbol>
<symbol id="icon-assignment_turned_in" viewBox="0 0 24 24">
<path d="M9.984 17.016l8.016-8.016-1.406-1.406-6.609 6.563-2.578-2.578-1.406 1.406zM12 3q-0.422 0-0.703 0.281t-0.281 0.703 0.281 0.727 0.703 0.305 0.703-0.305 0.281-0.727-0.281-0.703-0.703-0.281zM18.984 3q0.797 0 1.406 0.609t0.609 1.406v13.969q0 0.797-0.609 1.406t-1.406 0.609h-13.969q-0.797 0-1.406-0.609t-0.609-1.406v-13.969q0-0.797 0.609-1.406t1.406-0.609h4.172q0.328-0.891 1.078-1.453t1.734-0.563 1.734 0.563 1.078 1.453h4.172z"></path>
</symbol>
<symbol id="icon-autorenew" viewBox="0 0 24 24">
<path d="M18.75 7.734q1.266 1.922 1.266 4.266 0 3.281-2.367 5.648t-5.648 2.367v3l-3.984-4.031 3.984-3.984v3q2.484 0 4.242-1.758t1.758-4.242q0-1.406-0.703-2.813zM12 6q-2.484 0-4.242 1.758t-1.758 4.242q0 1.5 0.703 2.813l-1.453 1.453q-1.266-1.922-1.266-4.266 0-3.281 2.367-5.648t5.648-2.367v-3l3.984 4.031-3.984 3.984v-3z"></path>
</symbol>
<symbol id="icon-bookmark" viewBox="0 0 24 24">
<path d="M17.016 3q0.797 0 1.383 0.609t0.586 1.406v15.984l-6.984-3-6.984 3v-15.984q0-0.797 0.586-1.406t1.383-0.609h10.031z"></path>
</symbol>
<symbol id="icon-bookmark_outline" viewBox="0 0 24 24">
<path d="M17.016 18v-12.984h-10.031v12.984l5.016-2.203zM17.016 3q0.797 0 1.383 0.609t0.586 1.406v15.984l-6.984-3-6.984 3v-15.984q0-0.797 0.586-1.406t1.383-0.609h10.031z"></path>
</symbol>
<symbol id="icon-bug_report" viewBox="0 0 24 24">
<path d="M14.016 12v-2.016h-4.031v2.016h4.031zM14.016 15.984v-1.969h-4.031v1.969h4.031zM20.016 8.016v1.969h-2.109q0.094 0.656 0.094 1.031v0.984h2.016v2.016h-2.016v0.984q0 0.328-0.094 0.984h2.109v2.016h-2.813q-0.797 1.359-2.18 2.18t-3.023 0.82-3.023-0.82-2.18-2.18h-2.813v-2.016h2.109q-0.094-0.656-0.094-0.984v-0.984h-2.016v-2.016h2.016v-0.984q0-0.375 0.094-1.031h-2.109v-1.969h2.813q0.703-1.172 1.828-1.969l-1.641-1.641 1.406-1.406 2.203 2.156q0.703-0.141 1.406-0.141t1.406 0.141l2.203-2.156 1.406 1.406-1.641 1.641q1.172 0.797 1.828 1.969h2.813z"></path>
</symbol>
<symbol id="icon-build" viewBox="0 0 24 24">
<path d="M22.688 18.984q0.328 0.188 0.305 0.633t-0.398 0.773l-2.297 2.297q-0.703 0.703-1.406 0l-9.094-9.094q-1.688 0.703-3.586 0.305t-3.305-1.805q-1.5-1.5-1.875-3.563t0.563-3.844l4.406 4.313 3-3-4.313-4.313q1.781-0.844 3.844-0.516t3.563 1.828q1.406 1.406 1.805 3.305t-0.305 3.586z"></path>
</symbol>
<symbol id="icon-cached" viewBox="0 0 24 24">
<path d="M6 12h3l-3.984 3.984-4.031-3.984h3q0-3.281 2.367-5.648t5.648-2.367q2.344 0 4.266 1.266l-1.453 1.453q-1.266-0.703-2.813-0.703-2.484 0-4.242 1.758t-1.758 4.242zM18.984 8.016l4.031 3.984h-3q0 3.281-2.367 5.648t-5.648 2.367q-2.344 0-4.266-1.266l1.453-1.453q1.313 0.703 2.813 0.703 2.484 0 4.242-1.758t1.758-4.242h-3z"></path>
</symbol>
<symbol id="icon-check_circle" viewBox="0 0 24 24">
<path d="M9.984 17.016l9-9-1.406-1.453-7.594 7.594-3.563-3.563-1.406 1.406zM12 2.016q4.125 0 7.055 2.93t2.93 7.055-2.93 7.055-7.055 2.93-7.055-2.93-2.93-7.055 2.93-7.055 7.055-2.93z"></path>
</symbol>
<symbol id="icon-chrome_reader_mode" viewBox="0 0 24 24">
<path d="M21 18.984v-12.984h-9v12.984h9zM21 3.984q0.797 0 1.406 0.609t0.609 1.406v12.984q0 0.797-0.609 1.406t-1.406 0.609h-18q-0.797 0-1.406-0.609t-0.609-1.406v-12.984q0-0.797 0.609-1.406t1.406-0.609h18zM12.984 14.484h7.031v1.5h-7.031v-1.5zM12.984 9.516h7.031v1.5h-7.031v-1.5zM12.984 12h7.031v1.5h-7.031v-1.5z"></path>
</symbol>
<symbol id="icon-code2" viewBox="0 0 24 24">
<path d="M14.578 16.594l4.641-4.594-4.641-4.594 1.406-1.406 6 6-6 6zM9.422 16.594l-1.406 1.406-6-6 6-6 1.406 1.406-4.641 4.594z"></path>
</symbol>
<symbol id="icon-dashboard" viewBox="0 0 24 24">
<path d="M12.984 3h8.016v6h-8.016v-6zM12.984 21v-9.984h8.016v9.984h-8.016zM3 21v-6h8.016v6h-8.016zM3 12.984v-9.984h8.016v9.984h-8.016z"></path>
</symbol>
<symbol id="icon-delete" viewBox="0 0 24 24">
<path d="M18.984 3.984v2.016h-13.969v-2.016h3.469l1.031-0.984h4.969l1.031 0.984h3.469zM6 18.984v-12h12v12q0 0.797-0.609 1.406t-1.406 0.609h-7.969q-0.797 0-1.406-0.609t-0.609-1.406z"></path>
</symbol>
<symbol id="icon-description" viewBox="0 0 24 24">
<path d="M12.984 9h5.531l-5.531-5.484v5.484zM15.984 14.016v-2.016h-7.969v2.016h7.969zM15.984 18v-2.016h-7.969v2.016h7.969zM14.016 2.016l6 6v12q0 0.797-0.609 1.383t-1.406 0.586h-12q-0.797 0-1.406-0.586t-0.609-1.383l0.047-16.031q0-0.797 0.586-1.383t1.383-0.586h8.016z"></path>
</symbol>
<symbol id="icon-dns" viewBox="0 0 24 24">
<path d="M6.984 9q0.797 0 1.406-0.609t0.609-1.406-0.609-1.383-1.406-0.586-1.383 0.586-0.586 1.383 0.586 1.406 1.383 0.609zM20.016 3q0.422 0 0.703 0.281t0.281 0.703v6q0 0.422-0.281 0.727t-0.703 0.305h-16.031q-0.422 0-0.703-0.305t-0.281-0.727v-6q0-0.422 0.281-0.703t0.703-0.281h16.031zM6.984 18.984q0.797 0 1.406-0.586t0.609-1.383-0.609-1.406-1.406-0.609-1.383 0.609-0.586 1.406 0.586 1.383 1.383 0.586zM20.016 12.984q0.422 0 0.703 0.305t0.281 0.727v6q0 0.422-0.281 0.703t-0.703 0.281h-16.031q-0.422 0-0.703-0.281t-0.281-0.703v-6q0-0.422 0.281-0.727t0.703-0.305h16.031z"></path>
</symbol>
<symbol id="icon-done" viewBox="0 0 24 24">
<path d="M9 16.219l10.594-10.641 1.406 1.406-12 12-5.578-5.578 1.359-1.406z"></path>
</symbol>
<symbol id="icon-done_all" viewBox="0 0 24 24">
<path d="M0.422 13.406l1.406-1.406 5.578 5.578-1.406 1.406zM22.219 5.578l1.453 1.406-12 12-5.625-5.578 1.453-1.406 4.172 4.172zM18 6.984l-6.328 6.375-1.406-1.406 6.328-6.375z"></path>
</symbol>
<symbol id="icon-exit_to_app" viewBox="0 0 24 24">
<path d="M18.984 3q0.797 0 1.406 0.609t0.609 1.406v13.969q0 0.797-0.609 1.406t-1.406 0.609h-13.969q-0.844 0-1.43-0.586t-0.586-1.43v-3.984h2.016v3.984h13.969v-13.969h-13.969v3.984h-2.016v-3.984q0-0.844 0.586-1.43t1.43-0.586h13.969zM10.078 15.609l2.578-2.625h-9.656v-1.969h9.656l-2.578-2.625 1.406-1.406 5.016 5.016-5.016 5.016z"></path>
</symbol>
<symbol id="icon-favorite" viewBox="0 0 24 24">
<path d="M12 21.328l-1.453-1.313q-2.484-2.25-3.609-3.328t-2.508-2.672-1.898-2.883-0.516-2.648q0-2.297 1.57-3.891t3.914-1.594q2.719 0 4.5 2.109 1.781-2.109 4.5-2.109 2.344 0 3.914 1.594t1.57 3.891q0 1.828-1.219 3.797t-2.648 3.422-4.664 4.359z"></path>
</symbol>
<symbol id="icon-favorite_outline" viewBox="0 0 24 24">
<path d="M12.094 18.563q2.25-2.016 3.328-3.047t2.344-2.438 1.758-2.484 0.492-2.109q0-1.5-1.008-2.484t-2.508-0.984q-1.172 0-2.18 0.656t-1.383 1.688h-1.875q-0.375-1.031-1.383-1.688t-2.18-0.656q-1.5 0-2.508 0.984t-1.008 2.484q0 1.031 0.492 2.109t1.758 2.484 2.344 2.438 3.328 3.047l0.094 0.094zM16.5 3q2.344 0 3.914 1.594t1.57 3.891q0 1.359-0.516 2.648t-1.898 2.883-2.508 2.672-3.609 3.328l-1.453 1.313-1.453-1.266q-3.234-2.906-4.664-4.359t-2.648-3.422-1.219-3.797q0-2.297 1.57-3.891t3.914-1.594q2.719 0 4.5 2.109 1.781-2.109 4.5-2.109z"></path>
</symbol>
<symbol id="icon-home" viewBox="0 0 24 24">
<path d="M9.984 20.016h-4.969v-8.016h-3l9.984-9 9.984 9h-3v8.016h-4.969v-6h-4.031v6z"></path>
</symbol>
<symbol id="icon-info" viewBox="0 0 24 24">
<path d="M12.984 9v-2.016h-1.969v2.016h1.969zM12.984 17.016v-6h-1.969v6h1.969zM12 2.016q4.125 0 7.055 2.93t2.93 7.055-2.93 7.055-7.055 2.93-7.055-2.93-2.93-7.055 2.93-7.055 7.055-2.93z"></path>
</symbol>
<symbol id="icon-info_outline" viewBox="0 0 24 24">
<path d="M11.016 9v-2.016h1.969v2.016h-1.969zM12 20.016q3.281 0 5.648-2.367t2.367-5.648-2.367-5.648-5.648-2.367-5.648 2.367-2.367 5.648 2.367 5.648 5.648 2.367zM12 2.016q4.125 0 7.055 2.93t2.93 7.055-2.93 7.055-7.055 2.93-7.055-2.93-2.93-7.055 2.93-7.055 7.055-2.93zM11.016 17.016v-6h1.969v6h-1.969z"></path>
</symbol>
<symbol id="icon-invert_colors_on" viewBox="0 0 24 24">
<path d="M12 19.594v-14.484l-4.219 4.219q-1.781 1.781-1.781 4.266 0 2.438 1.781 4.219t4.219 1.781zM17.672 7.922q2.344 2.344 2.344 5.648t-2.344 5.648-5.672 2.344q-1.359 0-3.023-0.68t-2.648-1.664q-2.344-2.344-2.344-5.648t2.344-5.648l5.672-5.672z"></path>
</symbol>
<symbol id="icon-list1" viewBox="0 0 24 24">
<path d="M6.984 6.984h14.016v2.016h-14.016v-2.016zM6.984 17.016v-2.016h14.016v2.016h-14.016zM6.984 12.984v-1.969h14.016v1.969h-14.016zM3 9v-2.016h2.016v2.016h-2.016zM3 17.016v-2.016h2.016v2.016h-2.016zM3 12.984v-1.969h2.016v1.969h-2.016z"></path>
</symbol>
<symbol id="icon-loyalty" viewBox="0 0 24 24">
<path d="M17.25 15.281q0.75-0.75 0.75-1.781t-0.727-1.758-1.758-0.727q-1.078 0-1.781 0.703l-0.75 0.75-0.703-0.75q-0.703-0.703-1.781-0.703-1.031 0-1.758 0.727t-0.727 1.758q0 1.078 0.703 1.781l4.266 4.266zM5.484 6.984q0.609 0 1.055-0.445t0.445-1.055-0.445-1.055-1.055-0.445-1.055 0.445-0.445 1.055 0.445 1.055 1.055 0.445zM21.422 11.578q0.563 0.563 0.563 1.406t-0.563 1.406l-7.031 7.031q-0.563 0.563-1.406 0.563t-1.406-0.563l-9-9q-0.563-0.563-0.563-1.406v-7.031q0-0.797 0.586-1.383t1.383-0.586h7.031q0.844 0 1.406 0.563z"></path>
</symbol>
<symbol id="icon-search" viewBox="0 0 24 24">
<path d="M9.516 14.016q1.875 0 3.188-1.313t1.313-3.188-1.313-3.188-3.188-1.313-3.188 1.313-1.313 3.188 1.313 3.188 3.188 1.313zM15.516 14.016l4.969 4.969-1.5 1.5-4.969-4.969v-0.797l-0.281-0.281q-1.781 1.547-4.219 1.547-2.719 0-4.617-1.875t-1.898-4.594 1.898-4.617 4.617-1.898 4.594 1.898 1.875 4.617q0 0.984-0.469 2.227t-1.078 1.992l0.281 0.281h0.797z"></path>
</symbol>
<symbol id="icon-settings" viewBox="0 0 24 24">
<path d="M12 15.516q1.453 0 2.484-1.031t1.031-2.484-1.031-2.484-2.484-1.031-2.484 1.031-1.031 2.484 1.031 2.484 2.484 1.031zM19.453 12.984l2.109 1.641q0.328 0.234 0.094 0.656l-2.016 3.469q-0.188 0.328-0.609 0.188l-2.484-0.984q-0.984 0.703-1.688 0.984l-0.375 2.625q-0.094 0.422-0.469 0.422h-4.031q-0.375 0-0.469-0.422l-0.375-2.625q-0.891-0.375-1.688-0.984l-2.484 0.984q-0.422 0.141-0.609-0.188l-2.016-3.469q-0.234-0.422 0.094-0.656l2.109-1.641q-0.047-0.328-0.047-0.984t0.047-0.984l-2.109-1.641q-0.328-0.234-0.094-0.656l2.016-3.469q0.188-0.328 0.609-0.188l2.484 0.984q0.984-0.703 1.688-0.984l0.375-2.625q0.094-0.422 0.469-0.422h4.031q0.375 0 0.469 0.422l0.375 2.625q0.891 0.375 1.688 0.984l2.484-0.984q0.422-0.141 0.609 0.188l2.016 3.469q0.234 0.422-0.094 0.656l-2.109 1.641q0.047 0.328 0.047 0.984t-0.047 0.984z"></path>
</symbol>
<symbol id="icon-speaker_notes" viewBox="0 0 24 24">
<path d="M18 8.016v-2.016h-8.016v2.016h8.016zM18 11.016v-2.016h-8.016v2.016h8.016zM15 14.016v-2.016h-5.016v2.016h5.016zM8.016 8.016v-2.016h-2.016v2.016h2.016zM8.016 11.016v-2.016h-2.016v2.016h2.016zM8.016 14.016v-2.016h-2.016v2.016h2.016zM20.016 2.016q0.797 0 1.383 0.586t0.586 1.383v12q0 0.797-0.586 1.406t-1.383 0.609h-14.016l-3.984 3.984v-18q0-0.797 0.586-1.383t1.383-0.586h16.031z"></path>
</symbol>
<symbol id="icon-stars" viewBox="0 0 24 24">
<path d="M16.219 18l-1.125-4.828 3.75-3.234-4.922-0.422-1.922-4.5-1.922 4.547-4.922 0.375 3.75 3.234-1.125 4.828 4.219-2.531zM12 2.016q4.125 0 7.055 2.93t2.93 7.055-2.93 7.055-7.055 2.93-7.055-2.93-2.93-7.055 2.93-7.055 7.055-2.93z"></path>
</symbol>
<symbol id="icon-supervisor_account" viewBox="0 0 24 24">
<path d="M9 12.984q1.031 0 2.391 0.281-2.391 1.313-2.391 3.469v2.25h-6.984v-2.484q0-1.078 1.289-1.922t2.836-1.219 2.859-0.375zM16.5 14.016q1.734 0 3.609 0.75t1.875 1.969v2.25h-10.969v-2.25q0-1.219 1.875-1.969t3.609-0.75zM9 11.016q-1.219 0-2.109-0.891t-0.891-2.109 0.891-2.109 2.109-0.891 2.109 0.891 0.891 2.109-0.891 2.109-2.109 0.891zM16.5 12q-1.031 0-1.758-0.727t-0.727-1.758 0.727-1.781 1.758-0.75 1.758 0.75 0.727 1.781-0.727 1.758-1.758 0.727z"></path>
</symbol>
<symbol id="icon-toc" viewBox="0 0 24 24">
<path d="M18.984 12.984v-1.969h2.016v1.969h-2.016zM18.984 6.984h2.016v2.016h-2.016v-2.016zM18.984 17.016v-2.016h2.016v2.016h-2.016zM3 17.016v-2.016h14.016v2.016h-14.016zM3 12.984v-1.969h14.016v1.969h-14.016zM3 9v-2.016h14.016v2.016h-14.016z"></path>
</symbol>
<symbol id="icon-view_list" viewBox="0 0 24 24">
<path d="M9 5.016h12v3.984h-12v-3.984zM9 18.984v-3.984h12v3.984h-12zM9 14.016v-4.031h12v4.031h-12zM3.984 9v-3.984h4.031v3.984h-4.031zM3.984 18.984v-3.984h4.031v3.984h-4.031zM3.984 14.016v-4.031h4.031v4.031h-4.031z"></path>
</symbol>
<symbol id="icon-timeline" viewBox="0 0 24 24">
<path d="M23.016 8.016q0 0.797-0.609 1.383t-1.406 0.586h-0.047q-0.328 0-0.469-0.047l-3.563 3.563q0.094 0.281 0.094 0.516 0 0.797-0.609 1.383t-1.406 0.586-1.406-0.586-0.609-1.383q0-0.234 0.094-0.516l-2.578-2.578q-0.281 0.094-0.516 0.094t-0.516-0.094l-4.547 4.547q0.094 0.281 0.094 0.516 0 0.797-0.609 1.406t-1.406 0.609-1.406-0.609-0.609-1.406 0.609-1.383 1.406-0.586q0.375 0 0.516 0.047l4.547-4.547q-0.047-0.141-0.047-0.516 0-0.797 0.586-1.406t1.383-0.609 1.406 0.609 0.609 1.406q0 0.375-0.047 0.516l2.531 2.531q0.141-0.047 0.516-0.047t0.516 0.047l3.563-3.516q-0.094-0.281-0.094-0.516 0-0.797 0.609-1.406t1.406-0.609 1.406 0.609 0.609 1.406z"></path>
</symbol>
<symbol id="icon-speaker_notes_off" viewBox="0 0 24 24">
<path d="M20.016 2.016q0.797 0 1.383 0.586t0.586 1.383v12q0 0.797-0.563 1.383t-1.359 0.633l-6.984-6.984h4.922v-2.016h-6.938l-0.984-0.984h7.922v-2.016h-8.016v1.922l-5.906-5.906h15.938zM6 11.016h2.016l-2.016-2.016v2.016zM8.016 14.016v-2.016h-2.016v2.016h2.016zM1.266 1.734l20.719 20.719-1.266 1.266-5.719-5.719h-9l-3.984 3.984v-16.969l-2.016-2.016z"></path>
</symbol>
<symbol id="icon-check_circle_outline" viewBox="0 0 24 24">
<path d="M12 20.016q3.281 0 5.648-2.367t2.367-5.648-2.367-5.648-5.648-2.367-5.648 2.367-2.367 5.648 2.367 5.648 5.648 2.367zM12 2.016q4.125 0 7.055 2.93t2.93 7.055-2.93 7.055-7.055 2.93-7.055-2.93-2.93-7.055 2.93-7.055 7.055-2.93zM16.594 7.594l1.406 1.406-8.016 8.016-4.969-5.016 1.406-1.406 3.563 3.563z"></path>
</symbol>
<symbol id="icon-delete_outline" viewBox="0 0 24 24">
<path d="M15.516 3.984h3.469v2.016h-13.969v-2.016h3.469l1.031-0.984h4.969zM8.016 9v9.984h7.969v-9.984h-7.969zM6 18.984v-12h12v12q0 0.797-0.609 1.406t-1.406 0.609h-7.969q-0.797 0-1.406-0.609t-0.609-1.406z"></path>
</symbol>
<symbol id="icon-drag_indicator" viewBox="0 0 24 24">
<path d="M15 15.984q0.797 0 1.406 0.609t0.609 1.406-0.609 1.406-1.406 0.609-1.406-0.609-0.609-1.406 0.609-1.406 1.406-0.609zM15 9.984q0.797 0 1.406 0.609t0.609 1.406-0.609 1.406-1.406 0.609-1.406-0.609-0.609-1.406 0.609-1.406 1.406-0.609zM15 8.016q-0.797 0-1.406-0.609t-0.609-1.406 0.609-1.406 1.406-0.609 1.406 0.609 0.609 1.406-0.609 1.406-1.406 0.609zM9 3.984q0.797 0 1.406 0.609t0.609 1.406-0.609 1.406-1.406 0.609-1.406-0.609-0.609-1.406 0.609-1.406 1.406-0.609zM9 9.984q0.797 0 1.406 0.609t0.609 1.406-0.609 1.406-1.406 0.609-1.406-0.609-0.609-1.406 0.609-1.406 1.406-0.609zM11.016 18q0 0.797-0.609 1.406t-1.406 0.609-1.406-0.609-0.609-1.406 0.609-1.406 1.406-0.609 1.406 0.609 0.609 1.406z"></path>
</symbol>
<symbol id="icon-filter_list_alt" viewBox="0 0 24 24">
<path d="M4.266 5.672q-0.281-0.328-0.281-0.656 0-0.422 0.305-0.727t0.727-0.305h13.969q0.422 0 0.727 0.305t0.305 0.727q0.047 0.281-0.234 0.609l-5.766 7.359v6q0 0.422-0.281 0.727t-0.703 0.305h-2.016q-0.422 0-0.727-0.305t-0.305-0.727v-6q-5.625-7.172-5.719-7.313z"></path>
</symbol>
<symbol id="icon-add_chart" viewBox="0 0 24 24">
<path d="M18 18.984v-4.969h2.016v4.969q0 0.797-0.609 1.406t-1.406 0.609h-14.016q-0.797 0-1.383-0.609t-0.586-1.406v-13.969q0-0.797 0.586-1.406t1.383-0.609h12v2.016h-12v13.969h14.016zM20.016 6.984h3v2.016h-3v3h-2.016v-3h-3v-2.016h3v-3h2.016v3zM9.984 6.984h2.016v9.984h-2.016v-9.984zM14.016 12.984h1.969v3.984h-1.969v-3.984zM6 9.984h2.016v6.984h-2.016v-6.984z"></path>
</symbol>
<symbol id="icon-bookmarks" viewBox="0 0 24 24">
<path d="M15 5.016q0.797 0 1.406 0.586t0.609 1.383v16.031l-7.031-3-6.984 3v-16.031q0-0.797 0.609-1.383t1.406-0.586h9.984zM18.984 18v-12.984q0-0.797-0.586-1.406t-1.383-0.609h-10.031q0-0.797 0.609-1.406t1.406-0.609h9.984q0.797 0 1.406 0.609t0.609 1.406v15.984z"></path>
</symbol>
<symbol id="icon-dashboard_customize" viewBox="0 0 24 24">
<path d="M18 12.984v3h3v2.016h-3v3h-2.016v-3h-3v-2.016h3v-3h2.016zM3 12.984h8.016v8.016h-8.016v-8.016zM12.984 3h8.016v8.016h-8.016v-8.016zM3 3h8.016v8.016h-8.016v-8.016z"></path>
</symbol>
<symbol id="icon-grid_view" viewBox="0 0 24 24">
<path d="M18.984 18.984v-3.984h-3.984v3.984h3.984zM12.984 12.984h8.016v8.016h-8.016v-8.016zM18.984 9v-3.984h-3.984v3.984h3.984zM12.984 3h8.016v8.016h-8.016v-8.016zM9 18.984v-3.984h-3.984v3.984h3.984zM3 12.984h8.016v8.016h-8.016v-8.016zM9 9v-3.984h-3.984v3.984h3.984zM3 3h8.016v8.016h-8.016v-8.016z"></path>
</symbol>
<symbol id="icon-home_filled" viewBox="0 0 24 24">
<path d="M12 3l8.016 6v12h-5.016v-6.984h-6v6.984h-5.016v-12z"></path>
</symbol>
<symbol id="icon-menu_open" viewBox="0 0 24 24">
<path d="M21 15.609l-1.406 1.406-5.016-5.016 5.016-5.016 1.406 1.406-3.563 3.609zM3 6h12.984v2.016h-12.984v-2.016zM3 12.984v-1.969h9.984v1.969h-9.984zM3 18v-2.016h12.984v2.016h-12.984z"></path>
</symbol>
<symbol id="icon-pivot_table_chart" viewBox="0 0 24 24">
<path d="M14.016 12.984l3.984-3.984 3.984 3.984h-3v1.594q0 1.828-1.289 3.117t-3.117 1.289h-1.594v3l-3.984-3.984 3.984-3.984v3h1.594q0.984 0 1.711-0.703t0.727-1.734v-1.594h-3zM5.016 21q-0.797 0-1.406-0.609t-0.609-1.406v-9h5.016v11.016h-3zM3 8.016v-3q0-0.797 0.609-1.406t1.406-0.609h3v5.016h-5.016zM9.984 8.016v-5.016h9q0.797 0 1.406 0.609t0.609 1.406v3h-11.016z"></path>
</symbol>
<symbol id="icon-tag1" viewBox="0 0 24 24">
<path d="M14.016 14.016v-4.031h-4.031v4.031h4.031zM20.016 9.984h-4.031v4.031h4.031v1.969h-4.031v4.031h-1.969v-4.031h-4.031v4.031h-1.969v-4.031h-4.031v-1.969h4.031v-4.031h-4.031v-1.969h4.031v-4.031h1.969v4.031h4.031v-4.031h1.969v4.031h4.031v1.969z"></path>
</symbol>
<symbol id="icon-waterfall_chart" viewBox="0 0 24 24">
<path d="M6.984 9.984h3v4.031h-3v-4.031zM9.984 5.016h3v3.984h-3v-3.984zM14.016 3.984h3v3h-3v-3zM3 12.984h3v7.031h-3v-7.031zM18 3.984h3v16.031h-3v-16.031z"></path>
</symbol>
<symbol id="icon-home_work" viewBox="0 0 24 24">
<path d="M9.984 3h13.031v18h-6v-3.984h1.969v-2.016h-1.969v-2.016h1.969v-1.969h-1.969v-1.828l-2.016-1.359v-0.844h-1.266q-1.594-1.031-3.75-2.484v-1.5zM8.156 5.719l6.844 4.547v10.734h-5.016v-8.016h-3.984v8.016h-5.016v-10.5z"></path>
</symbol>
<symbol id="icon-file_present" viewBox="0 0 24 24">
<path d="M15.984 9.984v5.016q0 1.641-1.172 2.813t-2.813 1.172-2.813-1.172-1.172-2.813v-6.516q0-1.031 0.727-1.758t1.758-0.727h0.281q0.984 0.094 1.594 0.867t0.609 1.758v6.375h-1.969v-6.516q0-0.469-0.516-0.469t-0.516 0.469v6.516q0 0.797 0.609 1.406t1.406 0.609 1.406-0.609 0.609-1.406v-5.016h1.969zM6 20.016h12v-12h-3.984v-4.031h-8.016v16.031zM15 2.016l5.016 4.969v13.031q0 0.797-0.609 1.383t-1.406 0.586h-12q-0.797 0-1.406-0.586t-0.609-1.383v-16.031q0-0.797 0.609-1.383t1.406-0.586h9z"></path>
</symbol>
<symbol id="icon-menu_book" viewBox="0 0 24 24">
<path d="M17.484 14.344q1.219 0 2.531 0.234v1.5q-0.938-0.234-2.531-0.234-2.813 0-4.5 0.984v-1.688q1.781-0.797 4.5-0.797zM12.984 12.469q1.969-0.797 4.5-0.797 1.219 0 2.531 0.234v1.5q-0.938-0.234-2.531-0.234-2.813 0-4.5 0.984v-1.688zM17.484 10.5q-2.813 0-4.5 0.984v-1.641q1.875-0.844 4.5-0.844 1.219 0 2.531 0.234v1.547q-1.125-0.281-2.531-0.281zM21 18.516v-11.531q-1.547-0.469-3.516-0.469-3.047 0-5.484 1.5v11.484q2.438-1.5 5.484-1.5 1.828 0 3.516 0.516zM17.484 4.5q3.563 0 5.531 1.5v14.578q0 0.188-0.164 0.352t-0.352 0.164q-0.141 0-0.234-0.047-1.922-1.031-4.781-1.031-3.047 0-5.484 1.5-2.016-1.5-5.484-1.5-2.531 0-4.781 1.078-0.047 0-0.117 0.023t-0.117 0.023q-0.188 0-0.352-0.141t-0.164-0.328v-14.672q2.016-1.5 5.531-1.5 3.469 0 5.484 1.5 2.016-1.5 5.484-1.5z"></path>
</symbol>
<symbol id="icon-badge" viewBox="0 0 24 24">
<path d="M18 13.5v-1.5h-3.984v1.5h3.984zM18 16.5v-1.5h-3.984v1.5h3.984zM12.984 9v-5.016h-1.969v5.016h1.969zM12 18v-0.75q0-0.656-1.031-1.078t-1.969-0.422-1.969 0.422-1.031 1.078v0.75h6zM9 12q-0.656 0-1.078 0.422t-0.422 1.078 0.422 1.078 1.078 0.422 1.078-0.422 0.422-1.078-0.422-1.078-1.078-0.422zM20.016 6.984q0.797 0 1.383 0.609t0.586 1.406v11.016q0 0.797-0.586 1.383t-1.383 0.586h-16.031q-0.797 0-1.383-0.586t-0.586-1.383v-11.016q0-0.797 0.586-1.406t1.383-0.609h5.016v-3q0-0.797 0.609-1.383t1.406-0.586h1.969q0.797 0 1.406 0.586t0.609 1.383v3h5.016z"></path>
</symbol>
<symbol id="icon-analytics" viewBox="0 0 24 24">
<path d="M18.984 3h-13.969q-0.844 0-1.43 0.586t-0.586 1.43v13.969q0 0.844 0.586 1.43t1.43 0.586h13.969q0.844 0 1.43-0.586t0.586-1.43v-13.969q0-0.844-0.586-1.43t-1.43-0.586zM9 17.016h-2.016v-5.016h2.016v5.016zM12.984 17.016h-1.969v-3h1.969v3zM12.984 12h-1.969v-2.016h1.969v2.016zM17.016 17.016h-2.016v-10.031h2.016v10.031z"></path>
</symbol>
<symbol id="icon-article" viewBox="0 0 24 24">
<path d="M18.984 3h-13.969q-0.844 0-1.43 0.586t-0.586 1.43v13.969q0 0.844 0.586 1.43t1.43 0.586h13.969q0.844 0 1.43-0.586t0.586-1.43v-13.969q0-0.844-0.586-1.43t-1.43-0.586zM14.016 17.016h-7.031v-2.016h7.031v2.016zM17.016 12.984h-10.031v-1.969h10.031v1.969zM17.016 9h-10.031v-2.016h10.031v2.016z"></path>
</symbol>
<symbol id="icon-auto_awesome_mosaic" viewBox="0 0 24 24">
<path d="M3 5.016v13.969q0 0.844 0.586 1.43t1.43 0.586h6v-18h-6q-0.844 0-1.43 0.586t-0.586 1.43zM18.984 3h-6v8.016h8.016v-6q0-0.844-0.586-1.43t-1.43-0.586zM12.984 21h6q0.844 0 1.43-0.586t0.586-1.43v-6h-8.016v8.016z"></path>
</symbol>
<symbol id="icon-bedtime" viewBox="0 0 24 24">
<path d="M12.328 2.016q-2.156-0.094-4.031 0.68t-3.281 2.156-2.203 3.211-0.797 3.938q0 2.063 0.773 3.867t2.156 3.188 3.188 2.156 3.867 0.773q1.875 0 3.516-0.633t2.953-1.758 2.203-2.625q-2.25-0.047-4.102-0.984t-3.164-2.484-1.945-3.469-0.445-3.984 1.313-4.031z"></path>
</symbol>
<symbol id="icon-grass" viewBox="0 0 24 24">
<path d="M12 20.016h-9.984v-2.016h5.719q-0.516-2.109-2.063-3.656t-3.656-2.063q0.469-0.141 0.961-0.211t1.008-0.070q1.688 0 3.141 0.633t2.531 1.711 1.711 2.531 0.633 3.141zM21.984 12.281q-0.469-0.141-0.961-0.211t-1.008-0.070q-2.203 0-4.031 1.078t-2.859 2.859q0.234 0.469 0.398 0.984t0.258 1.078q0.188 0.984 0.188 2.016h8.016v-2.016h-5.766q0.563-2.109 2.109-3.656t3.656-2.063zM15.656 11.016q0.563-1.547 1.617-2.836t2.461-2.18q-1.594 0.094-3 0.727t-2.461 1.711-1.664 2.508-0.609 3.070v0 0q1.453-1.922 3.656-3zM11.438 8.859q-0.656-1.641-1.875-2.906t-2.859-1.969q1.078 1.406 1.688 3.117t0.609 3.586q0 0.188-0.023 0.328t-0.023 0.281q0.328 0.188 0.633 0.398t0.586 0.445q0.188-0.891 0.492-1.711t0.773-1.57z"></path>
</symbol>
<symbol id="icon-star_outline1" viewBox="0 0 24 24">
<path d="M21.984 9.234l-7.172-0.609-2.813-6.609-2.813 6.609-7.172 0.609 5.438 4.734-1.641 7.031 6.188-3.75 6.188 3.75-1.641-7.031zM12 15.422l-3.75 2.25 0.984-4.266-3.328-2.906 4.406-0.375 1.688-4.031 1.688 4.031 4.406 0.375-3.328 2.906 0.984 4.266z"></path>
</symbol>
<symbol id="icon-star_rate" viewBox="0 0 24 24">
<path d="M14.438 9.984l-2.438-7.969-2.438 7.969h-7.547l6.188 4.406-2.391 7.594 6.188-4.688 6.188 4.688-2.344-7.594 6.141-4.406h-7.547z"></path>
</symbol>
<symbol id="icon-sticky_note_2" viewBox="0 0 24 24">
<path d="M18.984 3h-14.016q-0.797 0-1.383 0.586t-0.586 1.43v13.969q0 0.844 0.586 1.43t1.43 0.586h9.984l6-6v-9.984q0-0.844-0.586-1.43t-1.43-0.586zM6.984 8.016h10.031v1.969h-10.031v-1.969zM12 14.016h-5.016v-2.016h5.016v2.016zM14.016 19.5v-5.484h5.484z"></path>
</symbol>
<symbol id="icon-view_sidebar" viewBox="0 0 24 24">
<path d="M15.984 20.016h-13.969v-16.031h13.969v16.031zM18 8.016h3.984v-4.031h-3.984v4.031zM18 20.016h3.984v-4.031h-3.984v4.031zM18 14.016h3.984v-4.031h-3.984v4.031z"></path>
</symbol>
<symbol id="icon-wysiwyg" viewBox="0 0 24 24">
<path d="M18.984 3h-13.969q-0.844 0-1.43 0.586t-0.586 1.43v13.969q0 0.844 0.586 1.43t1.43 0.586h13.969q0.844 0 1.43-0.586t0.586-1.43v-13.969q0-0.844-0.586-1.43t-1.43-0.586zM18.984 18.984h-13.969v-12h13.969v12zM17.016 12h-10.031v-2.016h10.031v2.016zM12.984 15.984h-6v-1.969h6v1.969z"></path>
</symbol>
<symbol id="icon-leaderboard" viewBox="0 0 24 24">
<path d="M7.5 21h-5.484v-12h5.484v12zM14.766 3h-5.531v18h5.531v-18zM21.984 11.016h-5.484v9.984h5.484v-9.984z"></path>
</symbol>
<symbol id="icon-alt-home" viewBox="0 0 24 24">
<path d="M 16.105469 2.5351562 C 15.649335 2.5315682 15.193947 2.6430484 14.791016 2.8710938 C 12.204135 4.3291982 9.3582739 6.0810231 6.3964844 7.7871094 A 1.0001 1.0001 0 0 0 6.390625 7.7910156 C 4.934111 8.6442641 3.7537333 9.984391 3.5507812 11.599609 A 1.0001 1.0001 0 0 0 3.5507812 11.601562 C 3.070352 15.475925 3.2819546 19.358573 4.1835938 23.226562 A 1.0001 1.0001 0 0 0 4.1894531 23.246094 C 4.4585727 24.308167 5.1073155 25.27809 5.9121094 26.095703 C 6.7169032 26.913317 7.6791299 27.579013 8.7421875 27.863281 A 1.0001 1.0001 0 0 0 8.7617188 27.869141 C 13.579059 29.056186 18.420941 29.056186 23.238281 27.869141 A 1.0001 1.0001 0 0 0 23.257812 27.863281 C 24.320871 27.579013 25.283157 26.913542 26.087891 26.095703 C 26.892624 25.277864 27.542058 24.306963 27.810547 23.244141 A 1.0001 1.0001 0 0 0 27.814453 23.226562 C 28.718163 19.352345 28.930776 15.464439 28.447266 11.583984 A 1.0001 1.0001 0 0 0 28.445312 11.582031 C 28.242468 9.9798449 27.07737 8.6471954 25.634766 7.7910156 A 1.0001 1.0001 0 0 0 25.628906 7.7871094 C 22.732857 6.095988 19.951052 4.355459 17.417969 2.8886719 C 17.01807 2.6566693 16.561603 2.5387444 16.105469 2.5351562 z M 16.091797 4.5097656 C 16.190422 4.5107078 16.289962 4.5471445 16.414062 4.6191406 C 18.902981 6.0603535 21.691183 7.8027971 24.621094 9.5136719 C 25.63428 10.117407 26.372813 11.145633 26.460938 11.832031 C 26.91478 15.474383 26.718353 19.107322 25.869141 22.755859 C 25.727048 23.31585 25.268911 24.076675 24.662109 24.693359 C 24.055311 25.31004 23.303878 25.779371 22.744141 25.929688 C 21.997265 26.11325 21.253393 26.082382 20.507812 26.205078 C 20.945272 23.683317 20.958002 21.066257 20.421875 18.570312 A 1.0001 1.0001 0 0 0 20.396484 18.341797 A 1.0001 1.0001 0 0 0 20.375 18.261719 A 1.0001 1.0001 0 0 0 20.371094 18.246094 A 1.0001 1.0001 0 0 0 20.363281 18.222656 A 1.0001 1.0001 0 0 0 20.355469 18.203125 A 1.0001 1.0001 0 0 0 20.324219 18.130859 A 1.0001 1.0001 0 0 0 20.277344 18.042969 A 1.0001 1.0001 0 0 0 19.386719 17.550781 C 17.224714 16.610059 14.8144 16.617036 12.652344 17.554688 A 1.0001 1.0001 0 0 0 11.603516 18.341797 C 11.602316 18.346897 11.602764 18.352322 11.601562 18.357422 A 1.0001 1.0001 0 0 0 11.578125 18.564453 A 1.0001 1.0001 0 0 0 11.578125 18.568359 C 11.04162 21.064863 11.054622 23.68268 11.492188 26.205078 C 10.746607 26.082382 10.002735 26.113247 9.2558594 25.929688 C 8.6960893 25.779394 7.9448786 25.310016 7.3378906 24.693359 C 6.7320554 24.077874 6.2742554 23.319202 6.1308594 22.759766 C 5.2833441 19.117002 5.0844626 15.486039 5.5351562 11.849609 L 5.5351562 11.847656 C 5.623024 11.154921 6.3775335 10.115977 7.4023438 9.515625 C 10.394786 7.7916807 13.239164 6.0397011 15.773438 4.6113281 A 1.0001 1.0001 0 0 0 15.775391 4.6113281 C 15.895459 4.5433734 15.993171 4.5088235 16.091797 4.5097656 z M 16 18.744141 C 16.858834 18.742541 17.69746 19.001507 18.505859 19.339844 C 18.957083 21.671327 18.962039 24.134409 18.478516 26.455078 C 16.827372 26.604628 15.172628 26.604628 13.521484 26.455078 C 13.038759 24.138253 13.043261 21.679682 13.492188 19.351562 C 14.299845 19.009047 15.139857 18.745697 16 18.744141 z"></path>
</symbol>
</defs>
</svg>


