<svg aria-hidden="true" style="position: absolute; width: 0; height: 0; overflow: hidden;" version="1.1" xmlns="http://www.w3.org/2000/svg" xmlns:xlink="http://www.w3.org/1999/xlink">
<defs>
<symbol id="icon-save" viewBox="0 0 20 20">
<path d="M15.173 2h-11.173c-1.101 0-2 0.9-2 2v12c0 1.1 0.899 2 2 2h12c1.101 0 2-0.9 2-2v-10.873l-2.827-3.127zM14 8c0 0.549-0.45 1-1 1h-6c-0.55 0-1-0.451-1-1v-5h8v5zM13 4h-2v4h2v-4z"></path>
</symbol>
<symbol id="icon-export" viewBox="0 0 20 20">
<path d="M15 15h-13v-9h2.595c0 0 0.689-0.896 2.17-2h-5.765c-0.553 0-1 0.449-1 1v11c0 0.553 0.447 1 1 1h15c0.553 0 1-0.447 1-1v-3.746l-2 1.645v1.101zM13.361 8.050v3.551l6.639-5.201-6.639-4.999v3.131c-8.061 0-8.061 7.968-8.061 7.968 2.282-3.748 3.686-4.45 8.061-4.45z"></path>
</symbol>
<symbol id="icon-equalizer" viewBox="0 0 24 24">
<path d="M15.984 9h4.031v11.016h-4.031v-11.016zM3.984 20.016v-8.016h4.031v8.016h-4.031zM9.984 20.016v-16.031h4.031v16.031h-4.031z"></path>
</symbol>
<symbol id="icon-loop" viewBox="0 0 24 24">
<path d="M12 18v-3l3.984 3.984-3.984 4.031v-3q-3.281 0-5.648-2.367t-2.367-5.648q0-2.344 1.266-4.266l1.453 1.453q-0.703 1.266-0.703 2.813 0 2.484 1.758 4.242t4.242 1.758zM12 3.984q3.281 0 5.648 2.367t2.367 5.648q0 2.344-1.266 4.266l-1.453-1.453q0.703-1.266 0.703-2.813 0-2.484-1.758-4.242t-4.242-1.758v3l-3.984-3.984 3.984-4.031v3z"></path>
</symbol>
<symbol id="icon-mic" viewBox="0 0 24 24">
<path d="M17.297 11.016h1.688q0 2.531-1.758 4.43t-4.242 2.273v3.281h-1.969v-3.281q-2.484-0.375-4.242-2.273t-1.758-4.43h1.688q0 2.203 1.57 3.633t3.727 1.43 3.727-1.43 1.57-3.633zM12 14.016q-1.219 0-2.109-0.891t-0.891-2.109v-6q0-1.219 0.891-2.109t2.109-0.891 2.109 0.891 0.891 2.109v6q0 1.219-0.891 2.109t-2.109 0.891z"></path>
</symbol>
<symbol id="icon-mic_none" viewBox="0 0 24 24">
<path d="M17.297 11.016h1.688q0 2.531-1.758 4.43t-4.242 2.273v3.281h-1.969v-3.281q-2.484-0.375-4.242-2.273t-1.758-4.43h1.688q0 2.203 1.57 3.633t3.727 1.43 3.727-1.43 1.57-3.633zM10.781 4.922v6.188q0 0.469 0.352 0.82t0.867 0.352q0.469 0 0.82-0.328t0.352-0.844l0.047-6.188q0-0.516-0.375-0.867t-0.844-0.352-0.844 0.352-0.375 0.867zM12 14.016q-1.219 0-2.109-0.891t-0.891-2.109v-6q0-1.219 0.891-2.109t2.109-0.891 2.109 0.891 0.891 2.109v6q0 1.219-0.891 2.109t-2.109 0.891z"></path>
</symbol>
<symbol id="icon-mic_off" viewBox="0 0 24 24">
<path d="M4.266 3l16.734 16.734-1.266 1.266-4.172-4.172q-1.031 0.656-2.578 0.891v3.281h-1.969v-3.281q-2.484-0.375-4.242-2.273t-1.758-4.43h1.688q0 2.203 1.57 3.633t3.727 1.43q1.172 0 2.297-0.516l-1.641-1.641q-0.375 0.094-0.656 0.094-1.219 0-2.109-0.891t-0.891-2.109v-0.75l-6-6zM15 11.156l-6-5.953v-0.188q0-1.219 0.891-2.109t2.109-0.891 2.109 0.891 0.891 2.109v6.141zM18.984 11.016q0 1.734-0.891 3.281l-1.219-1.266q0.422-0.938 0.422-2.016h1.688z"></path>
</symbol>
<symbol id="icon-movie" viewBox="0 0 24 24">
<path d="M18 3.984h3.984v14.016q0 0.797-0.586 1.406t-1.383 0.609h-16.031q-0.797 0-1.383-0.609t-0.586-1.406v-12q0-0.797 0.586-1.406t1.383-0.609h1.031l1.969 4.031h3l-1.969-4.031h1.969l2.016 4.031h3l-2.016-4.031h2.016l2.016 4.031h3z"></path>
</symbol>
<symbol id="icon-library_add" viewBox="0 0 24 24">
<path d="M18.984 11.016v-2.016h-3.984v-3.984h-2.016v3.984h-3.984v2.016h3.984v3.984h2.016v-3.984h3.984zM20.016 2.016q0.797 0 1.383 0.586t0.586 1.383v12q0 0.797-0.586 1.406t-1.383 0.609h-12q-0.797 0-1.406-0.609t-0.609-1.406v-12q0-0.797 0.609-1.383t1.406-0.586h12zM3.984 6v14.016h14.016v1.969h-14.016q-0.797 0-1.383-0.586t-0.586-1.383v-14.016h1.969z"></path>
</symbol>
<symbol id="icon-library_books" viewBox="0 0 24 24">
<path d="M18.984 6.984v-1.969h-9.984v1.969h9.984zM15 15v-2.016h-6v2.016h6zM18.984 11.016v-2.016h-9.984v2.016h9.984zM20.016 2.016q0.797 0 1.383 0.586t0.586 1.383v12q0 0.797-0.586 1.406t-1.383 0.609h-12q-0.797 0-1.406-0.609t-0.609-1.406v-12q0-0.797 0.609-1.383t1.406-0.586h12zM3.984 6v14.016h14.016v1.969h-14.016q-0.797 0-1.383-0.586t-0.586-1.383v-14.016h1.969z"></path>
</symbol>
<symbol id="icon-library_music" viewBox="0 0 24 24">
<path d="M3.984 6v14.016h14.016v1.969h-14.016q-0.797 0-1.383-0.586t-0.586-1.383v-14.016h1.969zM18 6.984v-1.969h-3.984v5.484q-0.656-0.516-1.5-0.516-1.031 0-1.781 0.75t-0.75 1.781 0.75 1.758 1.781 0.727 1.758-0.727 0.727-1.758v-5.531h3zM20.016 2.016q0.797 0 1.383 0.586t0.586 1.383v12q0 0.797-0.586 1.406t-1.383 0.609h-12q-0.797 0-1.406-0.609t-0.609-1.406v-12q0-0.797 0.609-1.383t1.406-0.586h12z"></path>
</symbol>
<symbol id="icon-pause" viewBox="0 0 24 24">
<path d="M14.016 5.016h3.984v13.969h-3.984v-13.969zM6 18.984v-13.969h3.984v13.969h-3.984z"></path>
</symbol>
<symbol id="icon-pause_circle_filled" viewBox="0 0 24 24">
<path d="M15 15.984v-7.969h-2.016v7.969h2.016zM11.016 15.984v-7.969h-2.016v7.969h2.016zM12 2.016q4.125 0 7.055 2.93t2.93 7.055-2.93 7.055-7.055 2.93-7.055-2.93-2.93-7.055 2.93-7.055 7.055-2.93z"></path>
</symbol>
<symbol id="icon-pause_circle_outline" viewBox="0 0 24 24">
<path d="M12.984 15.984v-7.969h2.016v7.969h-2.016zM12 20.016q3.281 0 5.648-2.367t2.367-5.648-2.367-5.648-5.648-2.367-5.648 2.367-2.367 5.648 2.367 5.648 5.648 2.367zM12 2.016q4.125 0 7.055 2.93t2.93 7.055-2.93 7.055-7.055 2.93-7.055-2.93-2.93-7.055 2.93-7.055 7.055-2.93zM9 15.984v-7.969h2.016v7.969h-2.016z"></path>
</symbol>
<symbol id="icon-play_arrow" viewBox="0 0 24 24">
<path d="M8.016 5.016l10.969 6.984-10.969 6.984v-13.969z"></path>
</symbol>
<symbol id="icon-play_circle_filled" viewBox="0 0 24 24">
<path d="M9.984 16.5l6-4.5-6-4.5v9zM12 2.016q4.125 0 7.055 2.93t2.93 7.055-2.93 7.055-7.055 2.93-7.055-2.93-2.93-7.055 2.93-7.055 7.055-2.93z"></path>
</symbol>
<symbol id="icon-play_circle_outline" viewBox="0 0 24 24">
<path d="M12 20.016q3.281 0 5.648-2.367t2.367-5.648-2.367-5.648-5.648-2.367-5.648 2.367-2.367 5.648 2.367 5.648 5.648 2.367zM12 2.016q4.125 0 7.055 2.93t2.93 7.055-2.93 7.055-7.055 2.93-7.055-2.93-2.93-7.055 2.93-7.055 7.055-2.93zM9.984 16.5v-9l6 4.5z"></path>
</symbol>
<symbol id="icon-playlist_add" viewBox="0 0 24 24">
<path d="M2.016 15.984v-1.969h7.969v1.969h-7.969zM18 14.016h3.984v1.969h-3.984v4.031h-2.016v-4.031h-3.984v-1.969h3.984v-4.031h2.016v4.031zM14.016 6v2.016h-12v-2.016h12zM14.016 9.984v2.016h-12v-2.016h12z"></path>
</symbol>
<symbol id="icon-queue_music" viewBox="0 0 24 24">
<path d="M17.016 6h4.969v2.016h-3v9q0 1.219-0.891 2.109t-2.109 0.891-2.109-0.891-0.891-2.109 0.891-2.109 2.109-0.891q0.375 0 1.031 0.188v-8.203zM3 15.984v-1.969h8.016v1.969h-8.016zM15 9.984v2.016h-12v-2.016h12zM15 6v2.016h-12v-2.016h12z"></path>
</symbol>
<symbol id="icon-replay" viewBox="0 0 24 24">
<path d="M12 5.016q3.328 0 5.672 2.344t2.344 5.625q0 3.328-2.367 5.672t-5.648 2.344-5.648-2.344-2.367-5.672h2.016q0 2.484 1.758 4.242t4.242 1.758 4.242-1.758 1.758-4.242-1.758-4.242-4.242-1.758v4.031l-5.016-5.016 5.016-5.016v4.031z"></path>
</symbol>
<symbol id="icon-shuffle" viewBox="0 0 24 24">
<path d="M14.813 13.406l3.141 3.141 2.063-2.063v5.531h-5.531l2.063-2.063-3.141-3.141zM14.484 3.984h5.531v5.531l-2.063-2.063-12.563 12.563-1.406-1.406 12.563-12.563zM10.594 9.188l-1.406 1.406-5.203-5.203 1.406-1.406z"></path>
</symbol>
<symbol id="icon-skip_next" viewBox="0 0 24 24">
<path d="M15.984 6h2.016v12h-2.016v-12zM6 18v-12l8.484 6z"></path>
</symbol>
<symbol id="icon-skip_previous" viewBox="0 0 24 24">
<path d="M9.516 12l8.484-6v12zM6 6h2.016v12h-2.016v-12z"></path>
</symbol>
<symbol id="icon-video_library" viewBox="0 0 24 24">
<path d="M12 14.484l6-4.5-6-4.5v9zM20.016 2.016q0.797 0 1.383 0.586t0.586 1.383v12q0 0.797-0.586 1.406t-1.383 0.609h-12q-0.797 0-1.406-0.609t-0.609-1.406v-12q0-0.797 0.609-1.383t1.406-0.586h12zM3.984 6v14.016h14.016v1.969h-14.016q-0.797 0-1.383-0.586t-0.586-1.383v-14.016h1.969z"></path>
</symbol>
<symbol id="icon-volume_down" viewBox="0 0 24 24">
<path d="M5.016 9h3.984l5.016-5.016v16.031l-5.016-5.016h-3.984v-6zM18.516 12q0 2.766-2.531 4.031v-8.063q1.031 0.516 1.781 1.711t0.75 2.32z"></path>
</symbol>
<symbol id="icon-volume_mute" viewBox="0 0 24 24">
<path d="M6.984 9h4.031l4.969-5.016v16.031l-4.969-5.016h-4.031v-6z"></path>
</symbol>
<symbol id="icon-volume_off" viewBox="0 0 24 24">
<path d="M12 3.984v4.219l-2.109-2.109zM4.266 3l16.734 16.734-1.266 1.266-2.063-2.063q-1.547 1.313-3.656 1.828v-2.063q1.172-0.328 2.25-1.172l-4.266-4.266v6.75l-5.016-5.016h-3.984v-6h4.734l-4.734-4.734zM18.984 12q0-2.391-1.383-4.219t-3.586-2.484v-2.063q3.047 0.656 5.016 3.117t1.969 5.648q0 2.203-1.031 4.172l-1.5-1.547q0.516-1.266 0.516-2.625zM16.5 12q0 0.422-0.047 0.609l-2.438-2.438v-2.203q1.031 0.516 1.758 1.688t0.727 2.344z"></path>
</symbol>
<symbol id="icon-volume_up" viewBox="0 0 24 24">
<path d="M14.016 3.234q3.047 0.656 5.016 3.117t1.969 5.648-1.969 5.648-5.016 3.117v-2.063q2.203-0.656 3.586-2.484t1.383-4.219-1.383-4.219-3.586-2.484v-2.063zM16.5 12q0 2.813-2.484 4.031v-8.063q1.031 0.516 1.758 1.688t0.727 2.344zM3 9h3.984l5.016-5.016v16.031l-5.016-5.016h-3.984v-6z"></path>
</symbol>
<symbol id="icon-web" viewBox="0 0 24 24">
<path d="M20.016 18v-9h-4.031v9h4.031zM15 12.984v-3.984h-11.016v3.984h11.016zM15 18v-3.984h-11.016v3.984h11.016zM20.016 3.984q0.797 0 1.383 0.609t0.586 1.406v12q0 0.797-0.586 1.406t-1.383 0.609h-16.031q-0.797 0-1.383-0.609t-0.586-1.406v-12q0-0.797 0.586-1.406t1.383-0.609h16.031z"></path>
</symbol>
<symbol id="icon-playlist_play" viewBox="0 0 24 24">
<path d="M14.016 14.016l4.969 3-4.969 3v-6zM3.984 14.016h8.016v1.969h-8.016v-1.969zM3.984 6h12v2.016h-12v-2.016zM3.984 9.984h12v2.016h-12v-2.016z"></path>
</symbol>
<symbol id="icon-music_video" viewBox="0 0 24 24">
<path d="M8.016 15q0-1.219 0.891-2.109t2.109-0.891q0.328 0 0.984 0.188v-6.188h5.016v2.016h-3v7.031q0 1.219-0.891 2.086t-2.109 0.867-2.109-0.891-0.891-2.109zM21 18.984v-13.969h-18v13.969h18zM21 3q0.797 0 1.406 0.609t0.609 1.406v13.969q0 0.797-0.609 1.406t-1.406 0.609h-18q-0.797 0-1.406-0.609t-0.609-1.406v-13.969q0-0.797 0.609-1.406t1.406-0.609h18z"></path>
</symbol>
<symbol id="icon-subscriptions" viewBox="0 0 24 24">
<path d="M15.984 15.984l-6-3.234v6.516zM21.984 12v8.016q0 0.797-0.586 1.383t-1.383 0.586h-16.031q-0.797 0-1.383-0.586t-0.586-1.383v-8.016q0-0.797 0.586-1.406t1.383-0.609h16.031q0.797 0 1.383 0.609t0.586 1.406zM18 2.016v1.969h-12v-1.969h12zM20.016 8.016h-16.031v-2.016h16.031v2.016z"></path>
</symbol>
<symbol id="icon-playlist_add_check" viewBox="0 0 24 24">
<path d="M21.516 11.484l1.5 1.5-6.984 7.031-4.547-4.5 1.5-1.5 3.047 3zM2.016 15.984v-1.969h7.969v1.969h-7.969zM14.016 6v2.016h-12v-2.016h12zM14.016 9.984v2.016h-12v-2.016h12z"></path>
</symbol>
<symbol id="icon-import_export" viewBox="0 0 24 24">
<path d="M15.984 17.016h3l-3.984 3.984-3.984-3.984h3v-7.031h1.969v7.031zM9 3l3.984 3.984h-3v7.031h-1.969v-7.031h-3z"></path>
</symbol>
<symbol id="icon-textsms" viewBox="0 0 24 24">
<path d="M17.016 11.016v-2.016h-2.016v2.016h2.016zM12.984 11.016v-2.016h-1.969v2.016h1.969zM9 11.016v-2.016h-2.016v2.016h2.016zM20.016 2.016q0.797 0 1.383 0.586t0.586 1.383v12q0 0.797-0.586 1.406t-1.383 0.609h-14.016l-3.984 3.984v-18q0-0.797 0.586-1.383t1.383-0.586h16.031z"></path>
</symbol>
<symbol id="icon-list_alt" viewBox="0 0 24 24">
<path d="M6.984 15h2.016v2.016h-2.016v-2.016zM6.984 11.016h2.016v1.969h-2.016v-1.969zM6.984 6.984h2.016v2.016h-2.016v-2.016zM11.016 15h6v2.016h-6v-2.016zM11.016 11.016h6v1.969h-6v-1.969zM11.016 6.984h6v2.016h-6v-2.016zM20.109 3q0.328 0 0.609 0.258t0.281 0.633v16.219q0 0.328-0.281 0.609t-0.609 0.281h-16.219q-0.375 0-0.633-0.281t-0.258-0.609v-16.219q0-0.891 0.891-0.891h16.219zM18.984 5.016h-13.969v13.969h13.969v-13.969z"></path>
</symbol>
<symbol id="icon-add" viewBox="0 0 24 24">
<path d="M18.984 12.984h-6v6h-1.969v-6h-6v-1.969h6v-6h1.969v6h6v1.969z"></path>
</symbol>
<symbol id="icon-clear" viewBox="0 0 24 24">
<path d="M18.984 6.422l-5.578 5.578 5.578 5.578-1.406 1.406-5.578-5.578-5.578 5.578-1.406-1.406 5.578-5.578-5.578-5.578 1.406-1.406 5.578 5.578 5.578-5.578z"></path>
</symbol>
<symbol id="icon-content_paste" viewBox="0 0 24 24">
<path d="M18.984 20.016v-16.031h-1.969v3h-10.031v-3h-1.969v16.031h13.969zM12 2.016q-0.422 0-0.703 0.281t-0.281 0.703 0.281 0.703 0.703 0.281 0.703-0.281 0.281-0.703-0.281-0.703-0.703-0.281zM18.984 2.016q0.797 0 1.406 0.586t0.609 1.383v16.031q0 0.797-0.609 1.383t-1.406 0.586h-13.969q-0.797 0-1.406-0.586t-0.609-1.383v-16.031q0-0.797 0.609-1.383t1.406-0.586h4.172q0.328-0.891 1.078-1.453t1.734-0.563 1.734 0.563 1.078 1.453h4.172z"></path>
</symbol>
<symbol id="icon-create" viewBox="0 0 24 24">
<path d="M20.719 7.031l-1.828 1.828-3.75-3.75 1.828-1.828q0.281-0.281 0.703-0.281t0.703 0.281l2.344 2.344q0.281 0.281 0.281 0.703t-0.281 0.703zM3 17.25l11.063-11.063 3.75 3.75-11.063 11.063h-3.75v-3.75z"></path>
</symbol>
<symbol id="icon-filter_list" viewBox="0 0 24 24">
<path d="M6 12.984v-1.969h12v1.969h-12zM3 6h18v2.016h-18v-2.016zM9.984 18v-2.016h4.031v2.016h-4.031z"></path>
</symbol>
<symbol id="icon-gesture" viewBox="0 0 24 24">
<path d="M13.875 18.563q0.656 0 1.313-0.867t0.844-2.648q-1.406 0.375-2.156 1.266t-0.75 1.5q0 0.328 0.234 0.539t0.516 0.211zM4.594 6.891l-1.734-1.688q0.469-0.563 0.844-0.938 1.266-1.266 2.719-1.266 0.891 0 1.711 0.703t0.82 2.156q0 1.406-1.313 3.281-1.313 1.828-1.828 3.516-0.281 0.797-0.164 1.359t0.492 0.563q0.422 0 1.125-0.844 1.031-1.031 2.297-2.719 2.25-2.813 4.922-2.813 1.969 0 2.93 1.289t1.102 2.883h2.484v2.484h-2.438q-0.281 3.234-1.734 4.688t-3 1.453q-1.313 0-2.25-0.914t-0.938-2.18q0-1.547 1.406-3.234t3.984-2.156q-0.047-0.375-0.070-0.516t-0.141-0.445-0.281-0.445-0.492-0.258-0.797-0.117q-1.313 0-4.078 3.422-0.797 0.984-1.102 1.336t-0.867 0.82-1.078 0.609q-1.641 0.516-2.813-0.609t-1.172-2.813q0-0.703 0.258-1.547t0.68-1.641 0.797-1.43 0.727-1.148 0.398-0.563q0.797-1.313 0.281-1.5-0.328-0.141-1.688 1.219z"></path>
</symbol>
<symbol id="icon-link1" viewBox="0 0 24 24">
<path d="M17.016 6.984q2.063 0 3.516 1.477t1.453 3.539-1.453 3.539-3.516 1.477h-4.031v-1.922h4.031q1.266 0 2.18-0.914t0.914-2.18-0.914-2.18-2.18-0.914h-4.031v-1.922h4.031zM8.016 12.984v-1.969h7.969v1.969h-7.969zM3.891 12q0 1.266 0.914 2.18t2.18 0.914h4.031v1.922h-4.031q-2.063 0-3.516-1.477t-1.453-3.539 1.453-3.539 3.516-1.477h4.031v1.922h-4.031q-1.266 0-2.18 0.914t-0.914 2.18z"></path>
</symbol>
<symbol id="icon-redo" viewBox="0 0 24 24">
<path d="M18.422 10.594l3.563-3.609v9h-9l3.656-3.609q-2.25-1.875-5.156-1.875-2.391 0-4.617 1.594t-2.977 3.891l-2.344-0.75q1.031-3.188 3.773-5.203t6.164-2.016q3.984 0 6.938 2.578z"></path>
</symbol>
<symbol id="icon-remove" viewBox="0 0 24 24">
<path d="M18.984 12.984h-13.969v-1.969h13.969v1.969z"></path>
</symbol>
<symbol id="icon-reply" viewBox="0 0 24 24">
<path d="M9.984 9q4.875 0.703 7.523 3.727t3.492 7.289q-3.609-5.109-11.016-5.109v4.078l-6.984-6.984 6.984-6.984v3.984z"></path>
</symbol>
<symbol id="icon-reply_all" viewBox="0 0 24 24">
<path d="M12.984 9q4.875 0.703 7.523 3.727t3.492 7.289q-3.609-5.109-11.016-5.109v4.078l-6.984-6.984 6.984-6.984v3.984zM6.984 8.016l-3.984 3.984 3.984 3.984v3l-6.984-6.984 6.984-6.984v3z"></path>
</symbol>
<symbol id="icon-sort" viewBox="0 0 24 24">
<path d="M3 12.984v-1.969h12v1.969h-12zM3 6h18v2.016h-18v-2.016zM3 18v-2.016h6v2.016h-6z"></path>
</symbol>
<symbol id="icon-text_format" viewBox="0 0 24 24">
<path d="M12 6l-1.875 5.016h3.75zM9.516 12.797l-0.938 2.203h-2.063l4.734-11.016h1.5l4.734 11.016h-2.063l-0.938-2.203h-4.969zM5.016 17.016h13.969v1.969h-13.969v-1.969z"></path>
</symbol>
<symbol id="icon-undo" viewBox="0 0 24 24">
<path d="M12.516 8.016q3.422 0 6.141 2.016t3.797 5.203l-2.344 0.75q-0.797-2.438-2.883-3.961t-4.711-1.523q-2.906 0-5.156 1.875l3.656 3.609h-9v-9l3.563 3.609q2.953-2.578 6.938-2.578z"></path>
</symbol>
<symbol id="icon-low_priority" viewBox="0 0 24 24">
<path d="M2.016 11.484q0-2.672 1.898-4.57t4.57-1.898h3.516v1.969h-3.516q-1.875 0-3.188 1.313t-1.313 3.188 1.313 3.188 3.188 1.313h0.516v-1.969l3 3-3 3v-2.016h-0.516q-2.672 0-4.57-1.922t-1.898-4.594zM14.016 15.984h7.969v2.016h-7.969v-2.016zM14.016 10.5h7.969v2.016h-7.969v-2.016zM14.016 5.016h7.969v1.969h-7.969v-1.969z"></path>
</symbol>
<symbol id="icon-link_off" viewBox="0 0 24 24">
<path d="M2.016 4.266l1.266-1.266 16.734 16.734-1.266 1.266-4.031-3.984h-1.734v-1.734l-2.25-2.297h-2.719v-1.969h0.703l-2.063-2.063q-1.172 0.141-1.969 1.008t-0.797 2.039q0 1.266 0.914 2.18t2.18 0.914h4.031v1.922h-4.031q-2.063 0-3.516-1.477t-1.453-3.539q0-1.406 0.891-2.766t2.203-1.875zM15.984 11.016v1.969h-0.188l-1.969-1.969h2.156zM17.016 6.984q2.063 0 3.516 1.477t1.453 3.539q0 3.047-2.719 4.453l-1.453-1.453q0.984-0.234 1.641-1.078t0.656-1.922q0-1.266-0.914-2.18t-2.18-0.914h-4.031v-1.922h4.031z"></path>
</symbol>
<symbol id="icon-save_alt" viewBox="0 0 24 24">
<path d="M12.984 12.656l2.625-2.578 1.406 1.406-5.016 5.016-5.016-5.016 1.406-1.406 2.625 2.578v-9.656h1.969v9.656zM18.984 12h2.016v6.984q0 0.797-0.609 1.406t-1.406 0.609h-13.969q-0.797 0-1.406-0.609t-0.609-1.406v-6.984h2.016v6.984h13.969v-6.984z"></path>
</symbol>
<symbol id="icon-ballot" viewBox="0 0 24 24">
<path d="M6.984 14.016h3v3h-3v-3zM6 18h5.016v-5.016h-5.016v5.016zM6.984 6.984h3v3h-3v-3zM6 11.016h5.016v-5.016h-5.016v5.016zM18.984 21h-13.969q-0.797 0-1.406-0.609t-0.609-1.406v-13.969q0-0.797 0.609-1.406t1.406-0.609h13.969q0.797 0 1.406 0.609t0.609 1.406v13.969q0 0.797-0.609 1.406t-1.406 0.609zM12.984 16.5h5.016v-2.016h-5.016v2.016zM12.984 9.516h5.016v-2.016h-5.016v2.016z"></path>
</symbol>
<symbol id="icon-add_link" viewBox="0 0 24 24">
<path d="M18.984 12v3h3v2.016h-3v3h-1.969v-3h-3v-2.016h3v-3h1.969zM3.891 12q0 1.266 0.914 2.18t2.18 0.914h4.031v1.922h-4.031q-2.063 0-3.516-1.477t-1.453-3.539 1.453-3.539 3.516-1.477h4.031v1.922h-4.031q-1.266 0-2.18 0.914t-0.914 2.18zM20.109 12q0-1.266-0.914-2.18t-2.18-0.914h-4.031v-1.922h4.031q2.063 0 3.516 1.477t1.453 3.539h-1.875zM8.016 11.016h7.969v1.969h-7.969v-1.969z"></path>
</symbol>
<symbol id="icon-dvr" viewBox="0 0 24 24">
<path d="M6.984 12v2.016h-1.969v-2.016h1.969zM6.984 8.016v1.969h-1.969v-1.969h1.969zM18.984 12v2.016h-10.969v-2.016h10.969zM18.984 8.016v1.969h-10.969v-1.969h10.969zM21 17.016v-12h-18v12h18zM21 3q0.797 0 1.406 0.609t0.609 1.406l-0.047 12q0 0.797-0.586 1.383t-1.383 0.586h-5.016v2.016h-7.969v-2.016h-5.016q-0.797 0-1.406-0.586t-0.609-1.383v-12q0-0.797 0.609-1.406t1.406-0.609h18z"></path>
</symbol>
<symbol id="icon-now_wallpaper" viewBox="0 0 24 24">
<path d="M3.984 12.984v7.031h7.031v1.969h-7.031q-0.797 0-1.383-0.586t-0.586-1.383v-7.031h1.969zM20.016 20.016v-7.031h1.969v7.031q0 0.797-0.586 1.383t-1.383 0.586h-7.031v-1.969h7.031zM20.016 2.016q0.797 0 1.383 0.586t0.586 1.383v7.031h-1.969v-7.031h-7.031v-1.969h7.031zM17.016 8.484q0 0.609-0.445 1.055t-1.055 0.445-1.055-0.445-0.445-1.055 0.445-1.055 1.055-0.445 1.055 0.445 0.445 1.055zM9.984 12.984l3 3.703 2.016-2.672 3 3.984h-12zM3.984 3.984v7.031h-1.969v-7.031q0-0.797 0.586-1.383t1.383-0.586h7.031v1.969h-7.031z"></path>
</symbol>
<symbol id="icon-storage" viewBox="0 0 24 24">
<path d="M3.984 11.016v1.969h2.016v-1.969h-2.016zM2.016 14.016v-4.031h19.969v4.031h-19.969zM6 6.984v-1.969h-2.016v1.969h2.016zM2.016 3.984h19.969v4.031h-19.969v-4.031zM3.984 17.016v1.969h2.016v-1.969h-2.016zM2.016 20.016v-4.031h19.969v4.031h-19.969z"></path>
</symbol>
<symbol id="icon-attach_file" viewBox="0 0 24 24">
<path d="M16.5 6h1.5v11.484q0 2.297-1.594 3.914t-3.891 1.617-3.914-1.617-1.617-3.914v-12.469q0-1.641 1.195-2.836t2.836-1.195 2.813 1.195 1.172 2.836v10.5q0 1.031-0.727 1.758t-1.758 0.727-1.781-0.727-0.75-1.758v-9.516h1.5v9.516q0 0.422 0.305 0.703t0.727 0.281 0.703-0.281 0.281-0.703v-10.5q0-1.031-0.727-1.781t-1.758-0.75-1.781 0.75-0.75 1.781v12.469q0 1.641 1.195 2.836t2.836 1.195 2.813-1.195 1.172-2.836v-11.484z"></path>
</symbol>
<symbol id="icon-border_all" viewBox="0 0 24 24">
<path d="M18.984 11.016v-6h-6v6h6zM18.984 18.984v-6h-6v6h6zM11.016 11.016v-6h-6v6h6zM11.016 18.984v-6h-6v6h6zM3 3h18v18h-18v-18z"></path>
</symbol>
<symbol id="icon-border_bottom" viewBox="0 0 24 24">
<path d="M5.016 15v2.016h-2.016v-2.016h2.016zM3 21v-2.016h18v2.016h-18zM5.016 11.016v1.969h-2.016v-1.969h2.016zM18.984 9v-2.016h2.016v2.016h-2.016zM18.984 3h2.016v2.016h-2.016v-2.016zM5.016 6.984v2.016h-2.016v-2.016h2.016zM18.984 17.016v-2.016h2.016v2.016h-2.016zM18.984 12.984v-1.969h2.016v1.969h-2.016zM17.016 3v2.016h-2.016v-2.016h2.016zM12.984 3v2.016h-1.969v-2.016h1.969zM17.016 11.016v1.969h-2.016v-1.969h2.016zM12.984 6.984v2.016h-1.969v-2.016h1.969zM5.016 3v2.016h-2.016v-2.016h2.016zM12.984 11.016v1.969h-1.969v-1.969h1.969zM9 3v2.016h-2.016v-2.016h2.016zM12.984 15v2.016h-1.969v-2.016h1.969zM9 11.016v1.969h-2.016v-1.969h2.016z"></path>
</symbol>
<symbol id="icon-border_clear" viewBox="0 0 24 24">
<path d="M15 5.016v-2.016h2.016v2.016h-2.016zM15 12.984v-1.969h2.016v1.969h-2.016zM15 21v-2.016h2.016v2.016h-2.016zM11.016 5.016v-2.016h1.969v2.016h-1.969zM18.984 3h2.016v2.016h-2.016v-2.016zM11.016 9v-2.016h1.969v2.016h-1.969zM18.984 9v-2.016h2.016v2.016h-2.016zM18.984 21v-2.016h2.016v2.016h-2.016zM18.984 12.984v-1.969h2.016v1.969h-2.016zM18.984 17.016v-2.016h2.016v2.016h-2.016zM11.016 12.984v-1.969h1.969v1.969h-1.969zM3 5.016v-2.016h2.016v2.016h-2.016zM3 9v-2.016h2.016v2.016h-2.016zM3 12.984v-1.969h2.016v1.969h-2.016zM3 17.016v-2.016h2.016v2.016h-2.016zM3 21v-2.016h2.016v2.016h-2.016zM11.016 21v-2.016h1.969v2.016h-1.969zM11.016 17.016v-2.016h1.969v2.016h-1.969zM6.984 21v-2.016h2.016v2.016h-2.016zM6.984 12.984v-1.969h2.016v1.969h-2.016zM6.984 5.016v-2.016h2.016v2.016h-2.016z"></path>
</symbol>
<symbol id="icon-border_color" viewBox="0 0 24 24">
<path d="M0 20.016h24v3.984h-24v-3.984zM20.719 4.031l-1.969 1.969-3.75-3.75 1.969-1.969q0.281-0.281 0.703-0.281t0.703 0.281l2.344 2.344q0.281 0.281 0.281 0.703t-0.281 0.703zM17.766 6.984l-10.031 10.031h-3.75v-3.75l10.031-10.031z"></path>
</symbol>
<symbol id="icon-border_horizontal" viewBox="0 0 24 24">
<path d="M18.984 21v-2.016h2.016v2.016h-2.016zM15 21v-2.016h2.016v2.016h-2.016zM11.016 17.016v-2.016h1.969v2.016h-1.969zM18.984 9v-2.016h2.016v2.016h-2.016zM18.984 3h2.016v2.016h-2.016v-2.016zM3 12.984v-1.969h18v1.969h-18zM11.016 21v-2.016h1.969v2.016h-1.969zM18.984 17.016v-2.016h2.016v2.016h-2.016zM12.984 3v2.016h-1.969v-2.016h1.969zM12.984 6.984v2.016h-1.969v-2.016h1.969zM17.016 3v2.016h-2.016v-2.016h2.016zM9 3v2.016h-2.016v-2.016h2.016zM5.016 3v2.016h-2.016v-2.016h2.016zM6.984 21v-2.016h2.016v2.016h-2.016zM3 17.016v-2.016h2.016v2.016h-2.016zM5.016 6.984v2.016h-2.016v-2.016h2.016zM3 21v-2.016h2.016v2.016h-2.016z"></path>
</symbol>
<symbol id="icon-border_inner" viewBox="0 0 24 24">
<path d="M18.984 17.016v-2.016h2.016v2.016h-2.016zM18.984 21v-2.016h2.016v2.016h-2.016zM12.984 3v8.016h8.016v1.969h-8.016v8.016h-1.969v-8.016h-8.016v-1.969h8.016v-8.016h1.969zM15 21v-2.016h2.016v2.016h-2.016zM18.984 3h2.016v2.016h-2.016v-2.016zM18.984 9v-2.016h2.016v2.016h-2.016zM17.016 3v2.016h-2.016v-2.016h2.016zM5.016 3v2.016h-2.016v-2.016h2.016zM9 3v2.016h-2.016v-2.016h2.016zM3 17.016v-2.016h2.016v2.016h-2.016zM5.016 6.984v2.016h-2.016v-2.016h2.016zM6.984 21v-2.016h2.016v2.016h-2.016zM3 21v-2.016h2.016v2.016h-2.016z"></path>
</symbol>
<symbol id="icon-border_left" viewBox="0 0 24 24">
<path d="M15 5.016v-2.016h2.016v2.016h-2.016zM15 12.984v-1.969h2.016v1.969h-2.016zM18.984 21v-2.016h2.016v2.016h-2.016zM18.984 12.984v-1.969h2.016v1.969h-2.016zM18.984 3h2.016v2.016h-2.016v-2.016zM18.984 17.016v-2.016h2.016v2.016h-2.016zM15 21v-2.016h2.016v2.016h-2.016zM18.984 9v-2.016h2.016v2.016h-2.016zM3 21v-18h2.016v18h-2.016zM6.984 12.984v-1.969h2.016v1.969h-2.016zM6.984 5.016v-2.016h2.016v2.016h-2.016zM6.984 21v-2.016h2.016v2.016h-2.016zM11.016 12.984v-1.969h1.969v1.969h-1.969zM11.016 9v-2.016h1.969v2.016h-1.969zM11.016 5.016v-2.016h1.969v2.016h-1.969zM11.016 17.016v-2.016h1.969v2.016h-1.969zM11.016 21v-2.016h1.969v2.016h-1.969z"></path>
</symbol>
<symbol id="icon-border_outer" viewBox="0 0 24 24">
<path d="M9 11.016v1.969h-2.016v-1.969h2.016zM12.984 15v2.016h-1.969v-2.016h1.969zM18.984 18.984v-13.969h-13.969v13.969h13.969zM3 3h18v18h-18v-18zM17.016 11.016v1.969h-2.016v-1.969h2.016zM12.984 11.016v1.969h-1.969v-1.969h1.969zM12.984 6.984v2.016h-1.969v-2.016h1.969z"></path>
</symbol>
<symbol id="icon-border_right" viewBox="0 0 24 24">
<path d="M11.016 9v-2.016h1.969v2.016h-1.969zM11.016 5.016v-2.016h1.969v2.016h-1.969zM11.016 12.984v-1.969h1.969v1.969h-1.969zM15 5.016v-2.016h2.016v2.016h-2.016zM15 21v-2.016h2.016v2.016h-2.016zM18.984 3h2.016v18h-2.016v-18zM15 12.984v-1.969h2.016v1.969h-2.016zM11.016 17.016v-2.016h1.969v2.016h-1.969zM3 9v-2.016h2.016v2.016h-2.016zM3 17.016v-2.016h2.016v2.016h-2.016zM3 12.984v-1.969h2.016v1.969h-2.016zM11.016 21v-2.016h1.969v2.016h-1.969zM3 21v-2.016h2.016v2.016h-2.016zM6.984 12.984v-1.969h2.016v1.969h-2.016zM6.984 5.016v-2.016h2.016v2.016h-2.016zM3 5.016v-2.016h2.016v2.016h-2.016zM6.984 21v-2.016h2.016v2.016h-2.016z"></path>
</symbol>
<symbol id="icon-border_style" viewBox="0 0 24 24">
<path d="M18.984 9v-2.016h2.016v2.016h-2.016zM3 3h18v2.016h-15.984v15.984h-2.016v-18zM18.984 12.984v-1.969h2.016v1.969h-2.016zM18.984 17.016v-2.016h2.016v2.016h-2.016zM11.016 21v-2.016h1.969v2.016h-1.969zM6.984 21v-2.016h2.016v2.016h-2.016zM18.984 21v-2.016h2.016v2.016h-2.016zM15 21v-2.016h2.016v2.016h-2.016z"></path>
</symbol>
<symbol id="icon-border_top" viewBox="0 0 24 24">
<path d="M15 12.984v-1.969h2.016v1.969h-2.016zM18.984 21v-2.016h2.016v2.016h-2.016zM11.016 9v-2.016h1.969v2.016h-1.969zM15 21v-2.016h2.016v2.016h-2.016zM18.984 17.016v-2.016h2.016v2.016h-2.016zM3 3h18v2.016h-18v-2.016zM18.984 12.984v-1.969h2.016v1.969h-2.016zM18.984 9v-2.016h2.016v2.016h-2.016zM11.016 17.016v-2.016h1.969v2.016h-1.969zM3 9v-2.016h2.016v2.016h-2.016zM3 12.984v-1.969h2.016v1.969h-2.016zM3 21v-2.016h2.016v2.016h-2.016zM3 17.016v-2.016h2.016v2.016h-2.016zM11.016 21v-2.016h1.969v2.016h-1.969zM11.016 12.984v-1.969h1.969v1.969h-1.969zM6.984 12.984v-1.969h2.016v1.969h-2.016zM6.984 21v-2.016h2.016v2.016h-2.016z"></path>
</symbol>
<symbol id="icon-border_vertical" viewBox="0 0 24 24">
<path d="M15 12.984v-1.969h2.016v1.969h-2.016zM15 21v-2.016h2.016v2.016h-2.016zM15 5.016v-2.016h2.016v2.016h-2.016zM18.984 9v-2.016h2.016v2.016h-2.016zM18.984 3h2.016v2.016h-2.016v-2.016zM18.984 12.984v-1.969h2.016v1.969h-2.016zM18.984 21v-2.016h2.016v2.016h-2.016zM11.016 21v-18h1.969v18h-1.969zM18.984 17.016v-2.016h2.016v2.016h-2.016zM6.984 5.016v-2.016h2.016v2.016h-2.016zM3 17.016v-2.016h2.016v2.016h-2.016zM3 21v-2.016h2.016v2.016h-2.016zM3 12.984v-1.969h2.016v1.969h-2.016zM6.984 12.984v-1.969h2.016v1.969h-2.016zM6.984 21v-2.016h2.016v2.016h-2.016zM3 5.016v-2.016h2.016v2.016h-2.016zM3 9v-2.016h2.016v2.016h-2.016z"></path>
</symbol>
<symbol id="icon-format_align_center" viewBox="0 0 24 24">
<path d="M3 3h18v2.016h-18v-2.016zM6.984 6.984h10.031v2.016h-10.031v-2.016zM3 12.984v-1.969h18v1.969h-18zM3 21v-2.016h18v2.016h-18zM6.984 15h10.031v2.016h-10.031v-2.016z"></path>
</symbol>
<symbol id="icon-format_align_justify" viewBox="0 0 24 24">
<path d="M3 3h18v2.016h-18v-2.016zM3 9v-2.016h18v2.016h-18zM3 12.984v-1.969h18v1.969h-18zM3 17.016v-2.016h18v2.016h-18zM3 21v-2.016h18v2.016h-18z"></path>
</symbol>
<symbol id="icon-format_align_left" viewBox="0 0 24 24">
<path d="M3 3h18v2.016h-18v-2.016zM3 21v-2.016h18v2.016h-18zM3 12.984v-1.969h18v1.969h-18zM15 6.984v2.016h-12v-2.016h12zM15 15v2.016h-12v-2.016h12z"></path>
</symbol>
<symbol id="icon-format_align_right" viewBox="0 0 24 24">
<path d="M3 3h18v2.016h-18v-2.016zM9 9v-2.016h12v2.016h-12zM3 12.984v-1.969h18v1.969h-18zM9 17.016v-2.016h12v2.016h-12zM3 21v-2.016h18v2.016h-18z"></path>
</symbol>
<symbol id="icon-format_bold" viewBox="0 0 24 24">
<path d="M13.5 15.516q0.656 0 1.078-0.445t0.422-1.055-0.422-1.055-1.078-0.445h-3.516v3h3.516zM9.984 6.516v3h3q0.609 0 1.055-0.445t0.445-1.055-0.445-1.055-1.055-0.445h-3zM15.609 10.781q2.156 0.984 2.156 3.422 0 1.594-1.055 2.695t-2.648 1.102h-7.078v-14.016h6.281q1.688 0 2.836 1.172t1.148 2.859-1.641 2.766z"></path>
</symbol>
<symbol id="icon-format_clear" viewBox="0 0 24 24">
<path d="M6 5.016h14.016v3h-5.813l-1.594 3.75-2.109-2.063 0.703-1.688h-2.391l-2.813-2.813v-0.188zM3.281 5.016l0.281 0.234 14.438 14.484-1.266 1.266-5.672-5.672-1.547 3.656h-3l2.438-5.766-6.938-6.938z"></path>
</symbol>
<symbol id="icon-format_color_fill" viewBox="0 0 24 24">
<path d="M0 20.016h24v3.984h-24v-3.984zM18.984 11.484q2.016 2.203 2.016 3.516 0 0.797-0.609 1.406t-1.406 0.609-1.383-0.609-0.586-1.406q0-0.563 0.492-1.453t0.961-1.453zM5.203 9.984h9.609l-4.828-4.781zM16.547 8.953q0.469 0.469 0.469 1.078t-0.469 1.031l-5.484 5.484q-0.469 0.469-1.078 0.469-0.563 0-1.031-0.469l-5.531-5.484q-0.422-0.422-0.422-1.078 0-0.609 0.422-1.031l5.156-5.156-2.391-2.391 1.453-1.406z"></path>
</symbol>
<symbol id="icon-format_color_reset" viewBox="0 0 24 24">
<path d="M5.25 5.25l14.625 14.625-1.266 1.266-2.672-2.625q-1.734 1.5-3.938 1.5-2.484 0-4.242-1.758t-1.758-4.242q0-1.594 1.313-4.125l-3.328-3.328zM18 14.016q0 0.703-0.141 1.313l-8.578-8.625 2.719-3.516q0.656 0.75 1.664 2.016t2.672 4.148 1.664 4.664z"></path>
</symbol>
<symbol id="icon-format_color_text" viewBox="0 0 24 24">
<path d="M9.609 12h4.781l-2.391-6.328zM11.016 3h1.969l5.484 14.016h-2.25l-1.078-3h-6.281l-1.125 3h-2.25zM0 20.016h24v3.984h-24v-3.984z"></path>
</symbol>
<symbol id="icon-format_indent_decrease" viewBox="0 0 24 24">
<path d="M11.016 12.984v-1.969h9.984v1.969h-9.984zM11.016 9v-2.016h9.984v2.016h-9.984zM3 3h18v2.016h-18v-2.016zM3 21v-2.016h18v2.016h-18zM3 12l3.984-3.984v7.969zM11.016 17.016v-2.016h9.984v2.016h-9.984z"></path>
</symbol>
<symbol id="icon-format_indent_increase" viewBox="0 0 24 24">
<path d="M11.016 12.984v-1.969h9.984v1.969h-9.984zM11.016 9v-2.016h9.984v2.016h-9.984zM3 3h18v2.016h-18v-2.016zM11.016 17.016v-2.016h9.984v2.016h-9.984zM3 8.016l3.984 3.984-3.984 3.984v-7.969zM3 21v-2.016h18v2.016h-18z"></path>
</symbol>
<symbol id="icon-format_italic" viewBox="0 0 24 24">
<path d="M9.984 3.984h8.016v3h-2.813l-3.375 8.016h2.203v3h-8.016v-3h2.813l3.375-8.016h-2.203v-3z"></path>
</symbol>
<symbol id="icon-format_line_spacing" viewBox="0 0 24 24">
<path d="M9.984 12.984v-1.969h12v1.969h-12zM9.984 18.984v-1.969h12v1.969h-12zM9.984 5.016h12v1.969h-12v-1.969zM6 6.984v10.031h2.484l-3.469 3.469-3.516-3.469h2.484v-10.031h-2.484l3.516-3.469 3.469 3.469h-2.484z"></path>
</symbol>
<symbol id="icon-format_list_bulleted" viewBox="0 0 24 24">
<path d="M6.984 5.016h14.016v1.969h-14.016v-1.969zM6.984 12.984v-1.969h14.016v1.969h-14.016zM6.984 18.984v-1.969h14.016v1.969h-14.016zM3.984 16.5q0.609 0 1.055 0.445t0.445 1.055-0.445 1.055-1.055 0.445-1.055-0.445-0.445-1.055 0.445-1.055 1.055-0.445zM3.984 4.5q0.609 0 1.055 0.422t0.445 1.078-0.445 1.078-1.055 0.422-1.055-0.422-0.445-1.078 0.445-1.078 1.055-0.422zM3.984 10.5q0.609 0 1.055 0.422t0.445 1.078-0.445 1.078-1.055 0.422-1.055-0.422-0.445-1.078 0.445-1.078 1.055-0.422z"></path>
</symbol>
<symbol id="icon-format_list_numbered" viewBox="0 0 24 24">
<path d="M6.984 12.984v-1.969h14.016v1.969h-14.016zM6.984 18.984v-1.969h14.016v1.969h-14.016zM6.984 5.016h14.016v1.969h-14.016v-1.969zM2.016 11.016v-1.031h3v0.938l-1.828 2.063h1.828v1.031h-3v-0.938l1.781-2.063h-1.781zM3 8.016v-3h-0.984v-1.031h1.969v4.031h-0.984zM2.016 17.016v-1.031h3v4.031h-3v-1.031h1.969v-0.469h-0.984v-1.031h0.984v-0.469h-1.969z"></path>
</symbol>
<symbol id="icon-format_paint" viewBox="0 0 24 24">
<path d="M18 3.984h3v8.016h-8.016v9q0 0.422-0.281 0.703t-0.703 0.281h-2.016q-0.422 0-0.703-0.281t-0.281-0.703v-11.016h9.984v-3.984h-0.984v0.984q0 0.422-0.281 0.727t-0.703 0.305h-12q-0.422 0-0.727-0.305t-0.305-0.727v-3.984q0-0.422 0.305-0.703t0.727-0.281h12q0.422 0 0.703 0.281t0.281 0.703v0.984z"></path>
</symbol>
<symbol id="icon-format_quote" viewBox="0 0 24 24">
<path d="M14.016 17.016l1.969-4.031h-3v-6h6v6l-1.969 4.031h-3zM6 17.016l2.016-4.031h-3v-6h6v6l-2.016 4.031h-3z"></path>
</symbol>
<symbol id="icon-format_size" viewBox="0 0 24 24">
<path d="M3 12v-3h9v3h-3v6.984h-3v-6.984h-3zM9 3.984h12.984v3h-4.969v12h-3v-12h-5.016v-3z"></path>
</symbol>
<symbol id="icon-format_strikethrough" viewBox="0 0 24 24">
<path d="M3 14.016v-2.016h18v2.016h-18zM5.016 3.984h13.969v3h-4.969v3h-4.031v-3h-4.969v-3zM9.984 18.984v-3h4.031v3h-4.031z"></path>
</symbol>
<symbol id="icon-format_textdirection_l_to_r" viewBox="0 0 24 24">
<path d="M21 18l-3.984 3.984v-3h-12v-1.969h12v-3zM9 9.984q-1.641 0-2.813-1.172t-1.172-2.813 1.172-2.813 2.813-1.172h8.016v1.969h-2.016v11.016h-2.016v-11.016h-1.969v11.016h-2.016v-5.016z"></path>
</symbol>
<symbol id="icon-format_textdirection_r_to_l" viewBox="0 0 24 24">
<path d="M8.016 17.016h12v1.969h-12v3l-4.031-3.984 4.031-3.984v3zM9.984 9.984q-1.641 0-2.813-1.172t-1.172-2.813 1.172-2.813 2.813-1.172h8.016v1.969h-2.016v11.016h-1.969v-11.016h-2.016v11.016h-2.016v-5.016z"></path>
</symbol>
<symbol id="icon-format_underlined" viewBox="0 0 24 24">
<path d="M5.016 18.984h13.969v2.016h-13.969v-2.016zM12 17.016q-2.484 0-4.242-1.758t-1.758-4.242v-8.016h2.484v8.016q0 1.453 1.031 2.461t2.484 1.008 2.484-1.008 1.031-2.461v-8.016h2.484v8.016q0 2.484-1.758 4.242t-4.242 1.758z"></path>
</symbol>
<symbol id="icon-functions" viewBox="0 0 24 24">
<path d="M18 3.984v3h-6.984l4.969 5.016-4.969 5.016h6.984v3h-12v-2.016l6.516-6-6.516-6v-2.016h12z"></path>
</symbol>
<symbol id="icon-insert_chart" viewBox="0 0 24 24">
<path d="M17.016 17.016v-4.031h-2.016v4.031h2.016zM12.984 17.016v-10.031h-1.969v10.031h1.969zM9 17.016v-7.031h-2.016v7.031h2.016zM18.984 3q0.797 0 1.406 0.609t0.609 1.406v13.969q0 0.797-0.609 1.406t-1.406 0.609h-13.969q-0.797 0-1.406-0.609t-0.609-1.406v-13.969q0-0.797 0.609-1.406t1.406-0.609h13.969z"></path>
</symbol>
<symbol id="icon-insert_comment" viewBox="0 0 24 24">
<path d="M18 8.016v-2.016h-12v2.016h12zM18 11.016v-2.016h-12v2.016h12zM18 14.016v-2.016h-12v2.016h12zM20.016 2.016q0.797 0 1.383 0.586t0.586 1.383v18l-3.984-3.984h-14.016q-0.797 0-1.383-0.609t-0.586-1.406v-12q0-0.797 0.586-1.383t1.383-0.586h16.031z"></path>
</symbol>
<symbol id="icon-insert_drive_file" viewBox="0 0 24 24">
<path d="M12.984 9h5.531l-5.531-5.484v5.484zM6 2.016h8.016l6 6v12q0 0.797-0.609 1.383t-1.406 0.586h-12q-0.797 0-1.406-0.586t-0.609-1.383l0.047-16.031q0-0.797 0.586-1.383t1.383-0.586z"></path>
</symbol>
<symbol id="icon-insert_photo" viewBox="0 0 24 24">
<path d="M8.484 13.5l-3.469 4.5h13.969l-4.5-6-3.469 4.5zM21 18.984q0 0.797-0.609 1.406t-1.406 0.609h-13.969q-0.797 0-1.406-0.609t-0.609-1.406v-13.969q0-0.797 0.609-1.406t1.406-0.609h13.969q0.797 0 1.406 0.609t0.609 1.406v13.969z"></path>
</symbol>
<symbol id="icon-mode_comment" viewBox="0 0 24 24">
<path d="M21.984 3.984v18l-3.984-3.984h-14.016q-0.797 0-1.383-0.609t-0.586-1.406v-12q0-0.797 0.586-1.383t1.383-0.586h16.031q0.797 0 1.383 0.586t0.586 1.383z"></path>
</symbol>
<symbol id="icon-publish" viewBox="0 0 24 24">
<path d="M5.016 14.016l6.984-7.031 6.984 7.031h-3.984v6h-6v-6h-3.984zM5.016 3.984h13.969v2.016h-13.969v-2.016z"></path>
</symbol>
<symbol id="icon-space_bar" viewBox="0 0 24 24">
<path d="M18 9h2.016v6h-16.031v-6h2.016v3.984h12v-3.984z"></path>
</symbol>
<symbol id="icon-strikethrough_s" viewBox="0 0 24 24">
<path d="M9.375 13.125q0 2.531 2.906 2.531 2.297 0 2.297-1.688 0-0.75-0.305-1.078t-1.102-0.703q-0.047 0-0.164-0.047t-0.211-0.094-0.188-0.047h-9.609v-2.016h18v2.016h-3.891q0 0.047 0.070 0.164t0.117 0.164q0.328 0.797 0.328 1.641 0 2.859-3.141 3.75-0.984 0.281-2.156 0.281-0.75 0-1.453-0.141-1.688-0.328-2.625-1.031-1.828-1.359-1.828-3.703h2.953zM14.578 7.5q0-2.109-2.391-2.109-1.688 0-2.203 1.031-0.141 0.281-0.141 0.656 0 0.703 0.75 1.219 0.75 0.469 1.406 0.703h-4.594q0-0.047-0.094-0.117t-0.094-0.117q-0.375-0.609-0.375-1.688 0-1.734 1.5-2.953 1.453-1.125 3.891-1.125 2.484 0 3.891 1.266 1.453 1.313 1.453 3.234h-3z"></path>
</symbol>
<symbol id="icon-vertical_align_bottom" viewBox="0 0 24 24">
<path d="M3.984 18.984h16.031v2.016h-16.031v-2.016zM15.984 12.984l-3.984 4.031-3.984-4.031h3v-9.984h1.969v9.984h3z"></path>
</symbol>
<symbol id="icon-vertical_align_center" viewBox="0 0 24 24">
<path d="M3.984 11.016h16.031v1.969h-16.031v-1.969zM15.984 5.016l-3.984 3.984-3.984-3.984h3v-4.031h1.969v4.031h3zM8.016 18.984l3.984-3.984 3.984 3.984h-3v4.031h-1.969v-4.031h-3z"></path>
</symbol>
<symbol id="icon-vertical_align_top" viewBox="0 0 24 24">
<path d="M3.984 3h16.031v2.016h-16.031v-2.016zM8.016 11.016l3.984-4.031 3.984 4.031h-3v9.984h-1.969v-9.984h-3z"></path>
</symbol>
<symbol id="icon-wrap_text" viewBox="0 0 24 24">
<path d="M17.016 11.016q1.641 0 2.813 1.172t1.172 2.813-1.172 2.813-2.813 1.172h-2.016v2.016l-3-3 3-3v2.016h2.25q0.797 0 1.406-0.609t0.609-1.406-0.609-1.406-1.406-0.609h-13.266v-1.969h13.031zM20.016 5.016v1.969h-16.031v-1.969h16.031zM3.984 18.984v-1.969h6v1.969h-6z"></path>
</symbol>
<symbol id="icon-money_off" viewBox="0 0 24 24">
<path d="M5.344 4.078l14.578 14.625-1.266 1.266-2.203-2.25q-0.891 0.797-2.438 1.125v2.156h-3v-2.156q-1.547-0.328-2.578-1.313t-1.125-2.531h2.203q0.188 2.109 3 2.109 1.734 0 2.391-0.938l-3.516-3.469q-3.891-1.172-3.891-3.938l-3.422-3.422zM12.516 6.891q-0.891 0-1.547 0.281l-1.453-1.453q0.656-0.328 1.5-0.563v-2.156h3v2.203q1.5 0.375 2.32 1.406t0.867 2.391h-2.203q-0.094-2.109-2.484-2.109z"></path>
</symbol>
<symbol id="icon-drag_handle" viewBox="0 0 24 24">
<path d="M3.984 15v-2.016h16.031v2.016h-16.031zM20.016 9v2.016h-16.031v-2.016h16.031z"></path>
</symbol>
<symbol id="icon-format_shapes" viewBox="0 0 24 24">
<path d="M10.688 12.75h2.625l-1.313-3.844zM13.734 14.016h-3.516l-0.703 1.969h-1.641l3.422-9h1.406l3.375 9h-1.594zM18.984 5.016h2.016v-2.016h-2.016v2.016zM21 21v-2.016h-2.016v2.016h2.016zM17.016 18.984v-1.969h1.969v-10.031h-1.969v-1.969h-10.031v1.969h-1.969v10.031h1.969v1.969h10.031zM5.016 21v-2.016h-2.016v2.016h2.016zM3 3v2.016h2.016v-2.016h-2.016zM23.016 6.984h-2.016v10.031h2.016v6h-6v-2.016h-10.031v2.016h-6v-6h2.016v-10.031h-2.016v-6h6v2.016h10.031v-2.016h6v6z"></path>
</symbol>
<symbol id="icon-highlight" viewBox="0 0 24 24">
<path d="M16.969 6.563l2.109-2.109 1.406 1.406-2.109 2.156zM3.516 5.859l1.406-1.406 2.109 2.109-1.406 1.453zM11.016 2.016h1.969v3h-1.969v-3zM6 14.016v-5.016h12v5.016l-3 3v4.969h-6v-4.969z"></path>
</symbol>
<symbol id="icon-linear_scale" viewBox="0 0 24 24">
<path d="M19.5 9.516q1.031 0 1.758 0.727t0.727 1.758-0.727 1.758-1.758 0.727q-1.688 0-2.297-1.5h-2.906q-0.609 1.5-2.297 1.5t-2.297-1.5h-2.906q-0.609 1.5-2.297 1.5-1.031 0-1.758-0.727t-0.727-1.758 0.727-1.758 1.758-0.727q1.688 0 2.297 1.5h2.906q0.609-1.5 2.297-1.5t2.297 1.5h2.906q0.609-1.5 2.297-1.5z"></path>
</symbol>
<symbol id="icon-short_text" viewBox="0 0 24 24">
<path d="M3.984 12.984h10.031v2.016h-10.031v-2.016zM3.984 9h16.031v2.016h-16.031v-2.016z"></path>
</symbol>
<symbol id="icon-text_fields" viewBox="0 0 24 24">
<path d="M21.516 9v3h-3v6.984h-3v-6.984h-3v-3h9zM2.484 3.984h13.031v3h-5.016v12h-3v-12h-5.016v-3z"></path>
</symbol>
<symbol id="icon-monetization_on" viewBox="0 0 24 24">
<path d="M13.406 18.094q3.141-0.609 3.141-3.141 0-2.859-4.219-3.938-2.625-0.656-2.625-1.922 0-0.703 0.633-1.172t1.758-0.469q2.109 0 2.203 1.875h1.969q-0.094-2.672-2.859-3.375v-1.969h-2.672v1.969q-1.359 0.281-2.227 1.102t-0.867 2.086q0 2.625 4.172 3.656 2.672 0.609 2.672 2.156 0 0.609-0.539 1.102t-1.852 0.492q-2.484 0-2.672-1.875h-1.969q0.141 2.672 3.281 3.375v1.969h2.672v-1.922zM12 2.016q4.125 0 7.055 2.93t2.93 7.055-2.93 7.055-7.055 2.93-7.055-2.93-2.93-7.055 2.93-7.055 7.055-2.93z"></path>
</symbol>
<symbol id="icon-title" viewBox="0 0 24 24">
<path d="M5.016 3.984h13.969v3h-5.484v12h-3v-12h-5.484v-3z"></path>
</symbol>
<symbol id="icon-table_chart" viewBox="0 0 24 24">
<path d="M3 18.984v-9h5.016v11.016h-3q-0.797 0-1.406-0.609t-0.609-1.406zM20.016 3q0.797 0 1.383 0.609t0.586 1.406v3h-18.984v-3q0-0.797 0.609-1.406t1.406-0.609h15zM17.016 21v-11.016h4.969v9q0 0.797-0.586 1.406t-1.383 0.609h-3zM9.984 10.031h5.016v10.969h-5.016v-10.969z"></path>
</symbol>
<symbol id="icon-add_comment" viewBox="0 0 24 24">
<path d="M17.016 11.016v-2.016h-4.031v-3.984h-1.969v3.984h-4.031v2.016h4.031v3.984h1.969v-3.984h4.031zM21.984 3.984v18l-3.984-3.984h-14.016q-0.797 0-1.383-0.609t-0.586-1.406v-12q0-0.797 0.586-1.383t1.383-0.586h16.031q0.797 0 1.383 0.586t0.586 1.383z"></path>
</symbol>
<symbol id="icon-format_list_numbered_rtl" viewBox="0 0 24 24">
<path d="M2.016 11.016h13.969v1.969h-13.969v-1.969zM2.016 17.016h13.969v1.969h-13.969v-1.969zM2.016 5.016h13.969v1.969h-13.969v-1.969zM18 11.016v-1.031h3v0.938l-1.781 2.063h1.781v1.031h-3v-0.938l1.781-2.063h-1.781zM18.984 8.016v-3h-0.984v-1.031h2.016v4.031h-1.031zM18 17.016v-1.031h3v4.031h-3v-1.031h2.016v-0.469h-1.031v-1.031h1.031v-0.469h-2.016z"></path>
</symbol>
<symbol id="icon-scatter_plot" viewBox="0 0 24 24">
<path d="M13.594 17.578q0-1.219 0.891-2.109t2.109-0.891 2.109 0.891 0.891 2.109-0.891 2.109-2.109 0.891-2.109-0.891-0.891-2.109zM8.016 6q0-1.219 0.891-2.109t2.109-0.891 2.109 0.891 0.891 2.109-0.891 2.109-2.109 0.891-2.109-0.891-0.891-2.109zM3.984 14.016q0-1.219 0.891-2.109t2.109-0.891 2.109 0.891 0.891 2.109-0.891 2.109-2.109 0.891-2.109-0.891-0.891-2.109z"></path>
</symbol>
<symbol id="icon-insert_chart_outlined" viewBox="0 0 24 24">
<path d="M19.5 3q0.797 0 1.406 0.609t0.609 1.406v13.969q0 0.797-0.609 1.406t-1.406 0.609h-15q-0.797 0-1.406-0.609t-0.609-1.406v-13.969q0-0.797 0.609-1.406t1.406-0.609h15zM19.5 19.078v-14.063h-15v14.063h15zM17.016 17.016h-2.016v-4.031h2.016v4.031zM12.984 17.016h-1.969v-10.031h1.969v10.031zM9 17.016h-2.016v-7.031h2.016v7.031z"></path>
</symbol>
<symbol id="icon-bar_chart" viewBox="0 0 24 24">
<path d="M16.219 12.984h2.766v6h-2.766v-6zM10.594 5.016h2.813v13.969h-2.813v-13.969zM5.016 9.188h3v9.797h-3v-9.797z"></path>
</symbol>
<symbol id="icon-notes" viewBox="0 0 24 24">
<path d="M3 12.984v-1.969h18v1.969h-18zM3 6h18v2.016h-18v-2.016zM3 18v-2.016h12v2.016h-12z"></path>
</symbol>
<symbol id="icon-attachment1" viewBox="0 0 24 24">
<path d="M2.016 12.516q0-2.297 1.594-3.914t3.891-1.617h10.5q1.641 0 2.813 1.195t1.172 2.836-1.172 2.813-2.813 1.172h-8.484q-1.031 0-1.781-0.727t-0.75-1.758 0.75-1.781 1.781-0.75h7.5v2.016h-7.594q-0.422 0-0.422 0.492t0.422 0.492h8.578q0.797 0 1.406-0.586t0.609-1.383-0.609-1.406-1.406-0.609h-10.5q-1.453 0-2.484 1.031t-1.031 2.484 1.031 2.461 2.484 1.008h9.516v2.016h-9.516q-2.297 0-3.891-1.594t-1.594-3.891z"></path>
</symbol>
<symbol id="icon-cloud_done" viewBox="0 0 24 24">
<path d="M9.984 17.016l6.609-6.609-1.406-1.406-5.203 5.156-2.063-2.063-1.406 1.406zM19.359 10.031q1.922 0.141 3.281 1.57t1.359 3.398q0 2.063-1.477 3.539t-3.539 1.477h-12.984q-2.484 0-4.242-1.758t-1.758-4.242q0-2.203 1.57-3.961t3.773-1.992q0.984-1.828 2.766-2.953t3.891-1.125q2.531 0 4.711 1.781t2.648 4.266z"></path>
</symbol>
<symbol id="icon-cloud_download" viewBox="0 0 24 24">
<path d="M17.016 12.984h-3v-3.984h-4.031v3.984h-3l5.016 5.016zM19.359 10.031q1.922 0.141 3.281 1.57t1.359 3.398q0 2.063-1.477 3.539t-3.539 1.477h-12.984q-2.484 0-4.242-1.758t-1.758-4.242q0-2.203 1.57-3.961t3.773-1.992q0.984-1.828 2.766-2.953t3.891-1.125q2.531 0 4.711 1.781t2.648 4.266z"></path>
</symbol>
<symbol id="icon-cloud_off" viewBox="0 0 24 24">
<path d="M7.734 9.984h-1.734q-1.641 0-2.813 1.195t-1.172 2.836 1.172 2.813 2.813 1.172h9.75zM3 5.25l1.266-1.266 16.734 16.734-1.266 1.266-2.016-1.969h-11.719q-2.484 0-4.242-1.758t-1.758-4.242q0-2.438 1.688-4.172t4.078-1.828zM19.359 10.031q1.922 0.141 3.281 1.57t1.359 3.398q0 2.578-2.109 4.078l-1.453-1.453q1.547-0.844 1.547-2.625 0-1.219-0.891-2.109t-2.109-0.891h-1.5v-0.516q0-2.297-1.594-3.891t-3.891-1.594q-1.313 0-2.531 0.609l-1.5-1.453q1.828-1.172 4.031-1.172 2.531 0 4.711 1.781t2.648 4.266z"></path>
</symbol>
<symbol id="icon-cloud_queue" viewBox="0 0 24 24">
<path d="M18.984 18q1.219 0 2.109-0.891t0.891-2.109-0.891-2.109-2.109-0.891h-1.5v-0.516q0-2.297-1.594-3.891t-3.891-1.594q-1.875 0-3.328 1.125t-1.969 2.859h-0.703q-1.641 0-2.813 1.195t-1.172 2.836 1.172 2.813 2.813 1.172h12.984zM19.359 10.031q1.922 0.141 3.281 1.57t1.359 3.398q0 2.063-1.477 3.539t-3.539 1.477h-12.984q-2.484 0-4.242-1.758t-1.758-4.242q0-2.203 1.57-3.961t3.773-1.992q0.984-1.828 2.766-2.953t3.891-1.125q2.531 0 4.711 1.781t2.648 4.266z"></path>
</symbol>
<symbol id="icon-cloud_upload" viewBox="0 0 24 24">
<path d="M14.016 12.984h3l-5.016-4.969-5.016 4.969h3v4.031h4.031v-4.031zM19.359 10.031q1.922 0.141 3.281 1.57t1.359 3.398q0 2.063-1.477 3.539t-3.539 1.477h-12.984q-2.484 0-4.242-1.758t-1.758-4.242q0-2.203 1.57-3.961t3.773-1.992q0.984-1.828 2.766-2.953t3.891-1.125q2.531 0 4.711 1.781t2.648 4.266z"></path>
</symbol>
<symbol id="icon-file_download" viewBox="0 0 24 24">
<path d="M5.016 18h13.969v2.016h-13.969v-2.016zM18.984 9l-6.984 6.984-6.984-6.984h3.984v-6h6v6h3.984z"></path>
</symbol>
<symbol id="icon-file_upload" viewBox="0 0 24 24">
<path d="M5.016 18h13.969v2.016h-13.969v-2.016zM9 15.984v-6h-3.984l6.984-6.984 6.984 6.984h-3.984v6h-6z"></path>
</symbol>
<symbol id="icon-folder" viewBox="0 0 24 24">
<path d="M9.984 3.984l2.016 2.016h8.016q0.797 0 1.383 0.609t0.586 1.406v9.984q0 0.797-0.586 1.406t-1.383 0.609h-16.031q-0.797 0-1.383-0.609t-0.586-1.406v-12q0-0.797 0.586-1.406t1.383-0.609h6z"></path>
</symbol>
<symbol id="icon-folder_open" viewBox="0 0 24 24">
<path d="M20.016 18v-9.984h-16.031v9.984h16.031zM20.016 6q0.797 0 1.383 0.609t0.586 1.406v9.984q0 0.797-0.586 1.406t-1.383 0.609h-16.031q-0.797 0-1.383-0.609t-0.586-1.406v-12q0-0.797 0.586-1.406t1.383-0.609h6l2.016 2.016h8.016z"></path>
</symbol>
<symbol id="icon-folder_shared" viewBox="0 0 24 24">
<path d="M18.984 17.016v-1.031q0-0.891-1.383-1.43t-2.602-0.539-2.602 0.539-1.383 1.43v1.031h7.969zM15 9q-0.797 0-1.406 0.609t-0.609 1.406 0.609 1.383 1.406 0.586 1.406-0.586 0.609-1.383-0.609-1.406-1.406-0.609zM20.016 6q0.797 0 1.383 0.609t0.586 1.406v9.984q0 0.797-0.586 1.406t-1.383 0.609h-16.031q-0.797 0-1.383-0.609t-0.586-1.406v-12q0-0.797 0.586-1.406t1.383-0.609h6l2.016 2.016h8.016z"></path>
</symbol>
<symbol id="icon-create_new_folder" viewBox="0 0 24 24">
<path d="M18.984 14.016v-2.016h-3v-3h-1.969v3h-3v2.016h3v3h1.969v-3h3zM20.016 6q0.844 0 1.406 0.586t0.563 1.43v9.984q0 0.844-0.563 1.43t-1.406 0.586h-16.031q-0.844 0-1.406-0.586t-0.563-1.43v-12q0-0.844 0.563-1.43t1.406-0.586h6l2.016 2.016h8.016z"></path>
</symbol>
<symbol id="icon-keyboard1" viewBox="0 0 24 24">
<path d="M18.984 9.984v-1.969h-1.969v1.969h1.969zM18.984 12.984v-1.969h-1.969v1.969h1.969zM15.984 9.984v-1.969h-1.969v1.969h1.969zM15.984 12.984v-1.969h-1.969v1.969h1.969zM15.984 17.016v-2.016h-7.969v2.016h7.969zM6.984 9.984v-1.969h-1.969v1.969h1.969zM6.984 12.984v-1.969h-1.969v1.969h1.969zM8.016 11.016v1.969h1.969v-1.969h-1.969zM8.016 8.016v1.969h1.969v-1.969h-1.969zM11.016 11.016v1.969h1.969v-1.969h-1.969zM11.016 8.016v1.969h1.969v-1.969h-1.969zM20.016 5.016q0.797 0 1.383 0.586t0.586 1.383v10.031q0 0.797-0.586 1.383t-1.383 0.586h-16.031q-0.797 0-1.383-0.586t-0.586-1.383v-10.031q0-0.797 0.586-1.383t1.383-0.586h16.031z"></path>
</symbol>
<symbol id="icon-keyboard_arrow_down" viewBox="0 0 24 24">
<path d="M7.406 8.578l4.594 4.594 4.594-4.594 1.406 1.406-6 6-6-6z"></path>
</symbol>
<symbol id="icon-keyboard_arrow_left" viewBox="0 0 24 24">
<path d="M15.422 16.594l-1.406 1.406-6-6 6-6 1.406 1.406-4.594 4.594z"></path>
</symbol>
<symbol id="icon-keyboard_arrow_right" viewBox="0 0 24 24">
<path d="M8.578 16.594l4.594-4.594-4.594-4.594 1.406-1.406 6 6-6 6z"></path>
</symbol>
<symbol id="icon-keyboard_arrow_up" viewBox="0 0 24 24">
<path d="M7.406 15.422l-1.406-1.406 6-6 6 6-1.406 1.406-4.594-4.594z"></path>
</symbol>
<symbol id="icon-keyboard_capslock" viewBox="0 0 24 24">
<path d="M6 18v-2.016h12v2.016h-12zM12 8.391l-4.594 4.594-1.406-1.406 6-6 6 6-1.406 1.406z"></path>
</symbol>
<symbol id="icon-keyboard_hide" viewBox="0 0 24 24">
<path d="M12 23.016l-3.984-4.031h7.969zM18.984 8.016v-2.016h-1.969v2.016h1.969zM18.984 11.016v-2.016h-1.969v2.016h1.969zM15.984 8.016v-2.016h-1.969v2.016h1.969zM15.984 11.016v-2.016h-1.969v2.016h1.969zM15.984 15v-2.016h-7.969v2.016h7.969zM6.984 8.016v-2.016h-1.969v2.016h1.969zM6.984 11.016v-2.016h-1.969v2.016h1.969zM8.016 9v2.016h1.969v-2.016h-1.969zM8.016 6v2.016h1.969v-2.016h-1.969zM11.016 9v2.016h1.969v-2.016h-1.969zM11.016 6v2.016h1.969v-2.016h-1.969zM20.016 3q0.797 0 1.383 0.609t0.586 1.406v9.984q0 0.797-0.586 1.406t-1.383 0.609h-16.031q-0.797 0-1.383-0.609t-0.586-1.406v-9.984q0-0.797 0.586-1.406t1.383-0.609h16.031z"></path>
</symbol>
<symbol id="icon-power_input" viewBox="0 0 24 24">
<path d="M15.984 15v-2.016h5.016v2.016h-5.016zM9 15v-2.016h5.016v2.016h-5.016zM2.016 15v-2.016h4.969v2.016h-4.969zM2.016 9h18.984v2.016h-18.984v-2.016z"></path>
</symbol>
<symbol id="icon-camera_alt" viewBox="0 0 24 24">
<path d="M12 17.016q2.063 0 3.539-1.477t1.477-3.539-1.477-3.539-3.539-1.477-3.539 1.477-1.477 3.539 1.477 3.539 3.539 1.477zM9 2.016h6l1.828 1.969h3.188q0.797 0 1.383 0.609t0.586 1.406v12q0 0.797-0.586 1.406t-1.383 0.609h-16.031q-0.797 0-1.383-0.609t-0.586-1.406v-12q0-0.797 0.586-1.406t1.383-0.609h3.188zM8.813 12q0-1.313 0.938-2.25t2.25-0.938 2.25 0.938 0.938 2.25-0.938 2.25-2.25 0.938-2.25-0.938-0.938-2.25z"></path>
</symbol>
<symbol id="icon-collections" viewBox="0 0 24 24">
<path d="M2.016 6h1.969v14.016h14.016v1.969h-14.016q-0.797 0-1.383-0.586t-0.586-1.383v-14.016zM11.016 12l-3 3.984h12l-4.031-4.969-2.953 3.703zM21.984 15.984q0 0.797-0.586 1.406t-1.383 0.609h-12q-0.797 0-1.406-0.609t-0.609-1.406v-12q0-0.797 0.609-1.383t1.406-0.586h12q0.797 0 1.383 0.586t0.586 1.383v12z"></path>
</symbol>
<symbol id="icon-color_lens" viewBox="0 0 24 24">
<path d="M17.484 12q0.609 0 1.055-0.422t0.445-1.078-0.445-1.078-1.055-0.422-1.055 0.422-0.445 1.078 0.445 1.078 1.055 0.422zM14.484 8.016q0.609 0 1.055-0.445t0.445-1.055-0.445-1.055-1.055-0.445-1.055 0.445-0.445 1.055 0.445 1.055 1.055 0.445zM9.516 8.016q0.609 0 1.055-0.445t0.445-1.055-0.445-1.055-1.055-0.445-1.055 0.445-0.445 1.055 0.445 1.055 1.055 0.445zM6.516 12q0.609 0 1.055-0.422t0.445-1.078-0.445-1.078-1.055-0.422-1.055 0.422-0.445 1.078 0.445 1.078 1.055 0.422zM12 3q3.703 0 6.352 2.344t2.648 5.672q0 2.063-1.477 3.516t-3.539 1.453h-1.734q-0.656 0-1.078 0.445t-0.422 1.055q0 0.516 0.375 0.984t0.375 1.031q0 0.656-0.422 1.078t-1.078 0.422q-3.75 0-6.375-2.625t-2.625-6.375 2.625-6.375 6.375-2.625z"></path>
</symbol>
<symbol id="icon-colorize" viewBox="0 0 24 24">
<path d="M6.938 18.984l8.063-8.063-1.922-1.922-8.063 8.063zM20.719 5.625q0.703 0.703 0 1.406l-3.141 3.141 1.922 1.922-1.406 1.406-1.406-1.406-8.953 8.906h-4.734v-4.734l8.906-8.953-1.406-1.406 1.406-1.406 1.922 1.922 3.141-3.141q0.281-0.281 0.703-0.281t0.703 0.281z"></path>
</symbol>
<symbol id="icon-crop" viewBox="0 0 24 24">
<path d="M6.984 17.016h16.031v1.969h-4.031v4.031h-1.969v-4.031h-10.031q-0.797 0-1.383-0.586t-0.586-1.383v-10.031h-4.031v-1.969h4.031v-4.031h1.969v16.031zM17.016 15v-8.016h-8.016v-1.969h8.016q0.797 0 1.383 0.586t0.586 1.383v8.016h-1.969z"></path>
</symbol>
<symbol id="icon-crop_free" viewBox="0 0 24 24">
<path d="M18.984 3q0.797 0 1.406 0.609t0.609 1.406v3.984h-2.016v-3.984h-3.984v-2.016h3.984zM18.984 18.984v-3.984h2.016v3.984q0 0.797-0.609 1.406t-1.406 0.609h-3.984v-2.016h3.984zM5.016 15v3.984h3.984v2.016h-3.984q-0.797 0-1.406-0.609t-0.609-1.406v-3.984h2.016zM3 5.016q0-0.797 0.609-1.406t1.406-0.609h3.984v2.016h-3.984v3.984h-2.016v-3.984z"></path>
</symbol>
<symbol id="icon-crop_original" viewBox="0 0 24 24">
<path d="M13.969 12.281l3.516 4.734h-10.969l2.719-3.563 1.969 2.391zM18.984 18.984v-13.969h-13.969v13.969h13.969zM18.984 3q0.797 0 1.406 0.609t0.609 1.406v13.969q0 0.797-0.609 1.406t-1.406 0.609h-13.969q-0.797 0-1.406-0.609t-0.609-1.406v-13.969q0-0.797 0.609-1.406t1.406-0.609h13.969z"></path>
</symbol>
<symbol id="icon-dehaze" viewBox="0 0 24 24">
<path d="M2.016 5.484h19.969v2.016h-19.969v-2.016zM2.016 10.5h19.969v2.016h-19.969v-2.016zM2.016 15.516h19.969v1.969h-19.969v-1.969z"></path>
</symbol>
<symbol id="icon-exposure" viewBox="0 0 24 24">
<path d="M14.484 15.984h-1.969v-1.5h1.969v-1.969h1.5v1.969h2.016v1.5h-2.016v2.016h-1.5v-2.016zM18.984 18.984v-13.969l-13.969 13.969h13.969zM6 6.984v1.5h5.016v-1.5h-5.016zM18.984 3q0.797 0 1.406 0.609t0.609 1.406v13.969q0 0.797-0.609 1.406t-1.406 0.609h-13.969q-0.797 0-1.406-0.609t-0.609-1.406v-13.969q0-0.797 0.609-1.406t1.406-0.609h13.969z"></path>
</symbol>
<symbol id="icon-filter_none" viewBox="0 0 24 24">
<path d="M21 17.016v-14.016h-14.016v14.016h14.016zM21 0.984q0.797 0 1.406 0.609t0.609 1.406v14.016q0 0.797-0.609 1.383t-1.406 0.586h-14.016q-0.797 0-1.383-0.586t-0.586-1.383v-14.016q0-0.797 0.586-1.406t1.383-0.609h14.016zM3 5.016v15.984h15.984v2.016h-15.984q-0.797 0-1.406-0.609t-0.609-1.406v-15.984h2.016z"></path>
</symbol>
<symbol id="icon-flare" viewBox="0 0 24 24">
<path d="M11.016 23.016v-6h1.969v6h-1.969zM5.625 16.969l2.156-2.156 1.406 1.406-2.156 2.156zM14.813 16.219l1.406-1.406 2.156 2.156-1.406 1.406zM12 9q1.219 0 2.109 0.891t0.891 2.109-0.891 2.109-2.109 0.891-2.109-0.891-0.891-2.109 0.891-2.109 2.109-0.891zM17.016 11.016h6v1.969h-6v-1.969zM18.375 7.031l-2.156 2.156-1.406-1.406 2.156-2.156zM12.984 0.984v6h-1.969v-6h1.969zM9.188 7.781l-1.406 1.406-2.156-2.156 1.406-1.406zM6.984 11.016v1.969h-6v-1.969h6z"></path>
</symbol>
<symbol id="icon-flip" viewBox="0 0 24 24">
<path d="M18.984 21v-2.016h2.016q0 0.797-0.609 1.406t-1.406 0.609zM18.984 12.984v-1.969h2.016v1.969h-2.016zM15 5.016v-2.016h2.016v2.016h-2.016zM18.984 17.016v-2.016h2.016v2.016h-2.016zM11.016 23.016v-22.031h1.969v22.031h-1.969zM18.984 3q0.797 0 1.406 0.609t0.609 1.406h-2.016v-2.016zM3 5.016q0-0.797 0.609-1.406t1.406-0.609h3.984v2.016h-3.984v13.969h3.984v2.016h-3.984q-0.797 0-1.406-0.609t-0.609-1.406v-13.969zM18.984 9v-2.016h2.016v2.016h-2.016zM15 21v-2.016h2.016v2.016h-2.016z"></path>
</symbol>
<symbol id="icon-gradient" viewBox="0 0 24 24">
<path d="M18.984 11.016v-6h-13.969v6h1.969v1.969h2.016v2.016h2.016v-2.016h1.969v2.016h2.016v-2.016h2.016v-1.969h1.969zM17.016 18v-2.016h-2.016v2.016h2.016zM12.984 18v-2.016h-1.969v2.016h1.969zM9 18v-2.016h-2.016v2.016h2.016zM18.984 3q0.797 0 1.406 0.609t0.609 1.406v13.969q0 0.797-0.609 1.406t-1.406 0.609h-13.969q-0.797 0-1.406-0.609t-0.609-1.406v-13.969q0-0.797 0.609-1.406t1.406-0.609h13.969zM6.984 9h2.016v2.016h-2.016v-2.016zM15 9h2.016v2.016h-2.016v-2.016zM11.016 9h1.969v2.016h2.016v1.969h-2.016v-1.969h-1.969v1.969h-2.016v-1.969h2.016v-2.016zM17.016 12.984v2.016h1.969v-2.016h-1.969zM6.984 12.984h-1.969v2.016h1.969v-2.016z"></path>
</symbol>
<symbol id="icon-grain" viewBox="0 0 24 24">
<path d="M9.984 3.984q0.797 0 1.406 0.609t0.609 1.406-0.609 1.406-1.406 0.609-1.383-0.609-0.586-1.406 0.586-1.406 1.383-0.609zM14.016 8.016q0.797 0 1.383 0.586t0.586 1.383-0.586 1.406-1.383 0.609-1.406-0.609-0.609-1.406 0.609-1.383 1.406-0.586zM18 12q0.797 0 1.406 0.609t0.609 1.406-0.609 1.383-1.406 0.586-1.406-0.586-0.609-1.383 0.609-1.406 1.406-0.609zM14.016 15.984q0.797 0 1.383 0.609t0.586 1.406-0.586 1.406-1.383 0.609-1.406-0.609-0.609-1.406 0.609-1.406 1.406-0.609zM18 8.016q-0.797 0-1.406-0.609t-0.609-1.406 0.609-1.406 1.406-0.609 1.406 0.609 0.609 1.406-0.609 1.406-1.406 0.609zM6 15.984q0.797 0 1.406 0.609t0.609 1.406-0.609 1.406-1.406 0.609-1.406-0.609-0.609-1.406 0.609-1.406 1.406-0.609zM6 8.016q0.797 0 1.406 0.586t0.609 1.383-0.609 1.406-1.406 0.609-1.406-0.609-0.609-1.406 0.609-1.383 1.406-0.586zM9.984 12q0.797 0 1.406 0.609t0.609 1.406-0.609 1.383-1.406 0.586-1.383-0.586-0.586-1.383 0.586-1.406 1.383-0.609z"></path>
</symbol>
<symbol id="icon-grid_off" viewBox="0 0 24 24">
<path d="M15.984 20.016h1.453l-1.453-1.453v1.453zM14.016 20.016v-3.469l-0.563-0.563h-3.469v4.031h4.031zM8.016 14.016v-3.469l-0.563-0.563h-3.469v4.031h4.031zM8.016 20.016v-4.031h-4.031v4.031h4.031zM3.984 6.563v1.453h1.453zM9.984 12.563v1.453h1.453zM1.266 1.266l21.469 21.469-1.266 1.266-2.016-2.016h-15.469q-0.797 0-1.383-0.586t-0.586-1.383v-15.469l-2.016-2.016zM15.984 3.984v4.031h4.031v-4.031h-4.031zM8.016 3.984h-1.453l-2.016-1.969h15.469q0.797 0 1.383 0.586t0.586 1.383v15.469l-1.969-2.016v-1.453h-1.453l-2.016-1.969h3.469v-4.031h-4.031v3.469l-1.969-2.016v-1.453h-1.453l-2.016-1.969h3.469v-4.031h-4.031v3.469l-1.969-2.016v-1.453z"></path>
</symbol>
<symbol id="icon-grid_on" viewBox="0 0 24 24">
<path d="M20.016 8.016v-4.031h-4.031v4.031h4.031zM20.016 14.016v-4.031h-4.031v4.031h4.031zM20.016 20.016v-4.031h-4.031v4.031h4.031zM14.016 8.016v-4.031h-4.031v4.031h4.031zM14.016 14.016v-4.031h-4.031v4.031h4.031zM14.016 20.016v-4.031h-4.031v4.031h4.031zM8.016 8.016v-4.031h-4.031v4.031h4.031zM8.016 14.016v-4.031h-4.031v4.031h4.031zM8.016 20.016v-4.031h-4.031v4.031h4.031zM20.016 2.016q0.797 0 1.383 0.586t0.586 1.383v16.031q0 0.797-0.586 1.383t-1.383 0.586h-16.031q-0.797 0-1.383-0.586t-0.586-1.383v-16.031q0-0.797 0.586-1.383t1.383-0.586h16.031z"></path>
</symbol>
<symbol id="icon-hdr_strong" viewBox="0 0 24 24">
<path d="M5.016 14.016q0.797 0 1.383-0.609t0.586-1.406-0.586-1.406-1.383-0.609-1.406 0.609-0.609 1.406 0.609 1.406 1.406 0.609zM5.016 8.016q1.641 0 2.813 1.172t1.172 2.813-1.172 2.813-2.813 1.172-2.836-1.172-1.195-2.813 1.195-2.813 2.836-1.172zM17.016 6q2.484 0 4.242 1.758t1.758 4.242-1.758 4.242-4.242 1.758-4.242-1.758-1.758-4.242 1.758-4.242 4.242-1.758z"></path>
</symbol>
<symbol id="icon-hdr_weak" viewBox="0 0 24 24">
<path d="M17.016 15.984q1.641 0 2.813-1.172t1.172-2.813-1.172-2.813-2.813-1.172-2.836 1.172-1.195 2.813 1.195 2.813 2.836 1.172zM17.016 6q2.484 0 4.242 1.758t1.758 4.242-1.758 4.242-4.242 1.758-4.242-1.758-1.758-4.242 1.758-4.242 4.242-1.758zM5.016 8.016q1.641 0 2.813 1.172t1.172 2.813-1.172 2.813-2.813 1.172-2.836-1.172-1.195-2.813 1.195-2.813 2.836-1.172z"></path>
</symbol>
<symbol id="icon-healing" viewBox="0 0 24 24">
<path d="M16.641 20.344l3.656-3.656-3.656-3.609-3.609 3.656zM14.016 11.016q-0.422 0-0.727 0.281t-0.305 0.703 0.305 0.703 0.727 0.281 0.703-0.281 0.281-0.703-0.281-0.703-0.703-0.281zM12 15q0.422 0 0.703-0.281t0.281-0.703-0.281-0.727-0.703-0.305-0.703 0.305-0.281 0.727 0.281 0.703 0.703 0.281zM9.984 12.984q0.422 0 0.727-0.281t0.305-0.703-0.305-0.703-0.727-0.281-0.703 0.281-0.281 0.703 0.281 0.703 0.703 0.281zM7.313 10.969l3.609-3.656-3.609-3.609-3.656 3.656zM12 9q-0.422 0-0.703 0.281t-0.281 0.703 0.281 0.727 0.703 0.305 0.703-0.305 0.281-0.727-0.281-0.703-0.703-0.281zM17.719 12l3.984 3.984q0.328 0.328 0.328 0.703t-0.328 0.703l-4.313 4.359q-0.281 0.281-0.703 0.281-0.469 0-0.75-0.281l-3.938-3.984-3.984 3.984q-0.281 0.281-0.703 0.281t-0.703-0.281l-4.359-4.359q-0.281-0.281-0.281-0.703t0.281-0.703l3.984-3.984-3.984-3.938q-0.281-0.281-0.281-0.75 0-0.422 0.281-0.703l4.359-4.313q0.281-0.281 0.703-0.281t0.703 0.281l3.984 3.984 3.938-3.984q0.281-0.281 0.75-0.281 0.422 0 0.703 0.281l4.313 4.313q0.281 0.281 0.281 0.703 0 0.469-0.281 0.75z"></path>
</symbol>
<symbol id="icon-image_aspect_ratio" viewBox="0 0 24 24">
<path d="M20.016 18v-12h-16.031v12h16.031zM20.016 3.984q0.797 0 1.383 0.609t0.586 1.406v12q0 0.797-0.586 1.406t-1.383 0.609h-16.031q-0.797 0-1.383-0.609t-0.586-1.406v-12q0-0.797 0.586-1.406t1.383-0.609h16.031zM12 9.984v2.016h-2.016v-2.016h2.016zM8.016 9.984v2.016h-2.016v-2.016h2.016zM15.984 14.016v1.969h-1.969v-1.969h1.969zM15.984 9.984v2.016h-1.969v-2.016h1.969z"></path>
</symbol>
<symbol id="icon-iso" viewBox="0 0 24 24">
<path d="M17.016 17.016h-5.016v-1.5h5.016v1.5zM18.984 18.984v-13.969l-13.969 13.969h13.969zM5.484 7.5v1.5h2.016v2.016h1.5v-2.016h2.016v-1.5h-2.016v-2.016h-1.5v2.016h-2.016zM18.984 3q0.797 0 1.406 0.609t0.609 1.406v13.969q0 0.797-0.609 1.406t-1.406 0.609h-13.969q-0.797 0-1.406-0.609t-0.609-1.406v-13.969q0-0.797 0.609-1.406t1.406-0.609h13.969z"></path>
</symbol>
<symbol id="icon-leak_add" viewBox="0 0 24 24">
<path d="M14.016 21q0-2.906 2.039-4.945t4.945-2.039v1.969q-2.063 0-3.539 1.477t-1.477 3.539h-1.969zM18 21q0-1.219 0.891-2.109t2.109-0.891v3h-3zM9.984 21q0-4.547 3.234-7.781t7.781-3.234v2.016q-3.75 0-6.375 2.625t-2.625 6.375h-2.016zM9.984 3q0 2.906-2.039 4.945t-4.945 2.039v-1.969q2.063 0 3.539-1.477t1.477-3.539h1.969zM14.016 3q0 4.547-3.234 7.781t-7.781 3.234v-2.016q3.75 0 6.375-2.625t2.625-6.375h2.016zM6 3q0 1.219-0.891 2.109t-2.109 0.891v-3h3z"></path>
</symbol>
<symbol id="icon-leak_remove" viewBox="0 0 24 24">
<path d="M15.375 11.578q2.672-1.594 5.625-1.594v2.016q-2.203 0-4.172 1.031zM19.922 16.125l-1.594-1.594q1.266-0.516 2.672-0.516v1.969q-0.563 0-1.078 0.141zM14.016 3q0 2.953-1.594 5.625l-1.453-1.453q1.031-1.969 1.031-4.172h2.016zM3 4.266l1.266-1.266 16.734 16.734-1.266 1.266-2.859-2.859q-0.891 1.266-0.891 2.859h-1.969q0-0.984 0.422-2.227t1.031-2.039l-1.453-1.406q-2.016 2.484-2.016 5.672h-2.016q0-1.688 0.773-3.773t1.852-3.352l-2.484-2.484q-3.094 2.625-7.125 2.625v-2.016q1.359 0 3.023-0.586t2.695-1.43l-1.453-1.453q-1.922 1.453-4.266 1.453v-1.969q1.594 0 2.859-0.891zM9.984 3q0 1.406-0.516 2.672l-1.594-1.594q0.141-0.516 0.141-1.078h1.969z"></path>
</symbol>
<symbol id="icon-navigate_before" viewBox="0 0 24 24">
<path d="M15.422 7.406l-4.594 4.594 4.594 4.594-1.406 1.406-6-6 6-6z"></path>
</symbol>
<symbol id="icon-navigate_next" viewBox="0 0 24 24">
<path d="M9.984 6l6 6-6 6-1.406-1.406 4.594-4.594-4.594-4.594z"></path>
</symbol>
<symbol id="icon-rotate_left" viewBox="0 0 24 24">
<path d="M12.984 4.078q2.953 0.375 4.992 2.625t2.039 5.297-2.039 5.297-4.992 2.625v-2.016q2.156-0.375 3.586-2.039t1.43-3.867-1.43-3.867-3.586-2.039v3.891l-4.547-4.453 4.547-4.547v3.094zM7.078 18.328l1.453-1.453q1.078 0.797 2.484 1.031v2.016q-2.25-0.281-3.938-1.594zM6.094 12.984q0.234 1.359 0.984 2.484l-1.406 1.406q-1.313-1.734-1.594-3.891h2.016zM7.125 8.531q-0.844 1.219-1.031 2.484h-2.016q0.281-2.109 1.641-3.891z"></path>
</symbol>
<symbol id="icon-rotate_right" viewBox="0 0 24 24">
<path d="M16.875 15.469q0.797-1.078 1.031-2.484h2.016q-0.281 2.156-1.594 3.891zM12.984 17.906q1.406-0.234 2.484-1.031l1.453 1.453q-1.688 1.313-3.938 1.594v-2.016zM19.922 11.016h-2.016q-0.234-1.406-1.031-2.484l1.453-1.406q1.359 1.688 1.594 3.891zM15.563 5.531l-4.547 4.453v-3.891q-2.156 0.375-3.586 2.039t-1.43 3.867 1.43 3.867 3.586 2.039v2.016q-2.953-0.375-4.992-2.625t-2.039-5.297 2.039-5.297 4.992-2.625v-3.094z"></path>
</symbol>
<symbol id="icon-style" viewBox="0 0 24 24">
<path d="M5.859 19.734v-6.328l3.469 8.344h-1.453q-0.797 0-1.406-0.609t-0.609-1.406zM7.875 8.766q0.422 0 0.703-0.305t0.281-0.727-0.281-0.703-0.703-0.281-0.703 0.281-0.281 0.703 0.281 0.727 0.703 0.305zM22.031 15.938q0.141 0.281 0.141 0.75 0 0.563-0.352 1.125t-0.867 0.75l-7.359 3.047q-0.281 0.141-0.75 0.141-0.563 0-1.102-0.352t-0.773-0.867l-4.969-12q-0.141-0.281-0.141-0.75 0-0.563 0.352-1.078t0.867-0.75l7.406-3.047q0.422-0.141 0.797-0.141 0.516 0 1.031 0.352t0.75 0.867zM2.531 19.641q-0.75-0.328-1.078-1.078t0-1.5l2.438-5.859v9z"></path>
</symbol>
<symbol id="icon-texture" viewBox="0 0 24 24">
<path d="M9.281 21l11.719-11.719v2.859l-8.859 8.859h-2.859zM21 18.984q0 0.797-0.609 1.406t-1.406 0.609h-1.969l3.984-3.984v1.969zM5.016 3h1.969l-3.984 3.984v-1.969q0-0.797 0.609-1.406t1.406-0.609zM11.859 3h2.859l-11.719 11.719v-2.859zM19.5 3.094q1.172 0.328 1.453 1.406l-16.453 16.406q-1.078-0.328-1.406-1.406z"></path>
</symbol>
<symbol id="icon-transform" viewBox="0 0 24 24">
<path d="M9.984 8.016v-2.016h6q0.797 0 1.406 0.609t0.609 1.406v6h-2.016v-6h-6zM21.984 18h-3.984v2.016h2.016l-3 3-3-3h1.969v-2.016h-7.969q-0.797 0-1.406-0.609t-0.609-1.406v-7.969h-3.984v-2.016h3.984v-2.016h-2.016l3-3 3 3h-1.969v12h13.969v2.016z"></path>
</symbol>
<symbol id="icon-tune" viewBox="0 0 24 24">
<path d="M15 9v-6h2.016v2.016h3.984v1.969h-3.984v2.016h-2.016zM21 12.984h-9.984v-1.969h9.984v1.969zM6.984 9h2.016v6h-2.016v-2.016h-3.984v-1.969h3.984v-2.016zM12.984 21h-1.969v-6h1.969v2.016h8.016v1.969h-8.016v2.016zM3 5.016h9.984v1.969h-9.984v-1.969zM3 17.016h6v1.969h-6v-1.969z"></path>
</symbol>
<symbol id="icon-photo_size_select_actual" viewBox="0 0 24 24">
<path d="M5.016 17.016h13.969l-4.5-6-3.469 4.5-2.531-3zM21 3q0.75 0 1.383 0.633t0.633 1.383v13.969q0 0.75-0.633 1.383t-1.383 0.633h-18q-0.797 0-1.406-0.609t-0.609-1.406v-13.969q0-0.75 0.633-1.383t1.383-0.633h18z"></path>
</symbol>
<symbol id="icon-photo_size_select_large" viewBox="0 0 24 24">
<path d="M3 18.984h9.984l-3.188-4.266-2.484 3.234-1.828-2.156zM0.984 11.016h14.016v9.984h-12q-0.797 0-1.406-0.609t-0.609-1.406v-7.969zM5.016 3h1.969v2.016h-1.969v-2.016zM9 3h2.016v2.016h-2.016v-2.016zM3 3v2.016h-2.016q0-0.75 0.633-1.383t1.383-0.633zM17.016 18.984h1.969v2.016h-1.969v-2.016zM17.016 3h1.969v2.016h-1.969v-2.016zM0.984 6.984h2.016v2.016h-2.016v-2.016zM21 3q0.75 0 1.383 0.633t0.633 1.383h-2.016v-2.016zM21 6.984h2.016v2.016h-2.016v-2.016zM12.984 3h2.016v2.016h-2.016v-2.016zM23.016 18.984q0 0.75-0.633 1.383t-1.383 0.633v-2.016h2.016zM21 11.016h2.016v1.969h-2.016v-1.969zM21 15h2.016v2.016h-2.016v-2.016z"></path>
</symbol>
<symbol id="icon-photo_size_select_small" viewBox="0 0 24 24">
<path d="M6.984 3v2.016h-1.969v-2.016h1.969zM11.016 3v2.016h-2.016v-2.016h2.016zM3 11.016v1.969h-2.016v-1.969h2.016zM3 3v2.016h-2.016q0-0.75 0.633-1.383t1.383-0.633zM18.984 18.984v2.016h-1.969v-2.016h1.969zM18.984 3v2.016h-1.969v-2.016h1.969zM15 18.984v2.016h-2.016v-2.016h2.016zM3 6.984v2.016h-2.016v-2.016h2.016zM3 21q-0.797 0-1.406-0.609t-0.609-1.406v-3.984h10.031v6h-8.016zM21 3q0.75 0 1.383 0.633t0.633 1.383h-2.016v-2.016zM23.016 6.984v2.016h-2.016v-2.016h2.016zM15 3v2.016h-2.016v-2.016h2.016zM23.016 18.984q0 0.75-0.633 1.383t-1.383 0.633v-2.016h2.016zM23.016 11.016v1.969h-2.016v-1.969h2.016zM23.016 15v2.016h-2.016v-2.016h2.016z"></path>
</symbol>
<symbol id="icon-crop_rotate" viewBox="0 0 24 24">
<path d="M8.016 15.984h12v2.016h-2.016v2.016h-2.016v-2.016h-7.969q-0.844 0-1.43-0.586t-0.586-1.43v-7.969h-2.016v-2.016h2.016v-2.016h2.016v12zM15.984 14.016v-6h-6v-2.016h6q0.844 0 1.43 0.586t0.586 1.43v6h-2.016zM12.047 0q4.688 0 8.133 3.188t3.82 7.828h-1.5q-0.281-2.813-1.875-5.063t-4.078-3.422l-1.359 1.313-3.797-3.797q0.141 0 0.328-0.023t0.328-0.023zM7.453 21.469l1.359-1.313 3.797 3.797q-0.141 0-0.328 0.023t-0.328 0.023q-4.688 0-8.133-3.188t-3.82-7.828h1.5q0.281 2.813 1.875 5.063t4.078 3.422z"></path>
</symbol>
<symbol id="icon-add_a_photo" viewBox="0 0 24 24">
<path d="M9.797 14.016q0-1.359 0.938-2.297t2.25-0.938q1.359 0 2.297 0.938t0.938 2.297q0 1.313-0.938 2.25t-2.297 0.938-2.273-0.914-0.914-2.273zM12.984 18.984q2.063 0 3.539-1.453t1.477-3.516-1.477-3.539-3.539-1.477-3.516 1.477-1.453 3.539 1.453 3.516 3.516 1.453zM6 9.984v-3h3v-3h6.984l1.828 2.016h3.188q0.797 0 1.406 0.609t0.609 1.406v12q0 0.797-0.609 1.383t-1.406 0.586h-15.984q-0.797 0-1.406-0.586t-0.609-1.383v-10.031h3zM3 3.984v-3h2.016v3h3v2.016h-3v3h-2.016v-3h-3v-2.016h3z"></path>
</symbol>
<symbol id="icon-movie_filter" viewBox="0 0 24 24">
<path d="M16.922 11.953l2.063-0.938-2.063-0.938-0.938-2.063-0.938 2.063-2.063 0.938 2.063 0.938 0.938 2.063zM11.25 15.234l2.766-1.219-2.766-1.266-1.266-2.766-1.219 2.766-2.766 1.266 2.766 1.219 1.219 2.766zM18 3.984h3.984v14.016q0 0.797-0.586 1.406t-1.383 0.609h-16.031q-0.797 0-1.383-0.609t-0.586-1.406v-12q0-0.797 0.586-1.406t1.383-0.609h1.031l1.969 3h3l-1.969-3h1.969l2.016 3h3l-2.016-3h2.016l2.016 3h3z"></path>
</symbol>
<symbol id="icon-photo_filter" viewBox="0 0 24 24">
<path d="M13.266 10.734l2.719 1.266-2.719 1.266-1.266 2.719-1.266-2.719-2.719-1.266 2.719-1.266 1.266-2.719zM17.016 9.984l-0.938-2.063-2.063-0.938 2.063-0.938 0.938-2.063 0.938 2.063 2.063 0.938-2.063 0.938zM19.031 9.984h1.969v9q0 0.797-0.586 1.406t-1.383 0.609h-14.016q-0.797 0-1.406-0.609t-0.609-1.406v-13.969q0-0.797 0.609-1.406t1.406-0.609h9v2.016h-9v13.969h14.016v-9z"></path>
</symbol>
<symbol id="icon-burst_mode" viewBox="0 0 24 24">
<path d="M11.016 17.016h9.984l-3.188-4.219-2.531 3.188-1.781-2.156zM21.984 5.016q0.422 0 0.727 0.281t0.305 0.703v12q0 0.422-0.305 0.703t-0.727 0.281h-12q-0.422 0-0.703-0.281t-0.281-0.703v-12q0-0.422 0.281-0.703t0.703-0.281h12zM5.016 5.016h1.969v13.969h-1.969v-13.969zM0.984 5.016h2.016v13.969h-2.016v-13.969z"></path>
</symbol>
<symbol id="icon-add_photo_alternate" viewBox="0 0 24 24">
<path d="M5.016 18.984h12l-4.031-4.969-3 3.984-1.969-3zM15.984 11.016h3v7.969q0 0.797-0.586 1.406t-1.383 0.609h-12q-0.797 0-1.406-0.609t-0.609-1.406v-12q0-0.797 0.609-1.383t1.406-0.586h7.969v3h3v3zM18.984 6.984v3h-1.969v-3h-3v-1.969h3v-3h1.969v3h3v1.969h-3z"></path>
</symbol>
<symbol id="icon-image_search" viewBox="0 0 24 24">
<path d="M15.516 9q1.031 0 1.758-0.727t0.727-1.758-0.727-1.781-1.758-0.75-1.781 0.75-0.75 1.781 0.75 1.758 1.781 0.727zM19.313 8.906l3.094 3.094-1.406 1.406-3.141-3.094q-1.172 0.703-2.391 0.703-1.875 0-3.164-1.313t-1.289-3.188 1.313-3.188 3.188-1.313 3.188 1.313 1.313 3.188q0 1.219-0.703 2.391zM16.5 18h-11.016l2.766-3.516 1.969 2.344 2.719-3.516zM18 12.984l2.016 2.016v5.016q0 0.797-0.609 1.383t-1.406 0.586h-14.016q-0.797 0-1.383-0.586t-0.586-1.383v-14.016q0-0.797 0.586-1.406t1.383-0.609h5.531q-0.469 0.984-0.516 2.016h-5.016v14.016h14.016v-7.031z"></path>
</symbol>
<symbol id="icon-local_offer" viewBox="0 0 24 24">
<path d="M5.484 6.984q0.609 0 1.055-0.445t0.445-1.055-0.445-1.055-1.055-0.445-1.055 0.445-0.445 1.055 0.445 1.055 1.055 0.445zM21.422 11.578q0.563 0.563 0.563 1.406t-0.563 1.406l-7.031 7.031q-0.563 0.563-1.406 0.563t-1.406-0.563l-9-9q-0.563-0.563-0.563-1.406v-7.031q0-0.797 0.586-1.383t1.383-0.586h7.031q0.844 0 1.406 0.563z"></path>
</symbol>
<symbol id="icon-local_printshop" viewBox="0 0 24 24">
<path d="M18 3v3.984h-12v-3.984h12zM18.984 12q0.422 0 0.727-0.281t0.305-0.703-0.305-0.727-0.727-0.305-0.703 0.305-0.281 0.727 0.281 0.703 0.703 0.281zM15.984 18.984v-4.969h-7.969v4.969h7.969zM18.984 8.016q1.219 0 2.109 0.891t0.891 2.109v6h-3.984v3.984h-12v-3.984h-3.984v-6q0-1.219 0.891-2.109t2.109-0.891h13.969z"></path>
</symbol>
<symbol id="icon-arrow_drop_down" viewBox="0 0 24 24">
<path d="M6.984 9.984h10.031l-5.016 5.016z"></path>
</symbol>
<symbol id="icon-arrow_drop_up" viewBox="0 0 24 24">
<path d="M6.984 14.016l5.016-5.016 5.016 5.016h-10.031z"></path>
</symbol>
<symbol id="icon-check1" viewBox="0 0 24 24">
<path d="M9 16.172l10.594-10.594 1.406 1.406-12 12-5.578-5.578 1.406-1.406z"></path>
</symbol>
<symbol id="icon-fullscreen" viewBox="0 0 24 24">
<path d="M14.016 5.016h4.969v4.969h-1.969v-3h-3v-1.969zM17.016 17.016v-3h1.969v4.969h-4.969v-1.969h3zM5.016 9.984v-4.969h4.969v1.969h-3v3h-1.969zM6.984 14.016v3h3v1.969h-4.969v-4.969h1.969z"></path>
</symbol>
<symbol id="icon-fullscreen_exit" viewBox="0 0 24 24">
<path d="M15.984 8.016h3v1.969h-4.969v-4.969h1.969v3zM14.016 18.984v-4.969h4.969v1.969h-3v3h-1.969zM8.016 8.016v-3h1.969v4.969h-4.969v-1.969h3zM5.016 15.984v-1.969h4.969v4.969h-1.969v-3h-3z"></path>
</symbol>
<symbol id="icon-keyboard_control" viewBox="0 0 24 24">
<path d="M12 9.984q0.797 0 1.406 0.609t0.609 1.406-0.609 1.406-1.406 0.609-1.406-0.609-0.609-1.406 0.609-1.406 1.406-0.609zM18 9.984q0.797 0 1.406 0.609t0.609 1.406-0.609 1.406-1.406 0.609-1.406-0.609-0.609-1.406 0.609-1.406 1.406-0.609zM6 9.984q0.797 0 1.406 0.609t0.609 1.406-0.609 1.406-1.406 0.609-1.406-0.609-0.609-1.406 0.609-1.406 1.406-0.609z"></path>
</symbol>
<symbol id="icon-more_vert" viewBox="0 0 24 24">
<path d="M12 15.984q0.797 0 1.406 0.609t0.609 1.406-0.609 1.406-1.406 0.609-1.406-0.609-0.609-1.406 0.609-1.406 1.406-0.609zM12 9.984q0.797 0 1.406 0.609t0.609 1.406-0.609 1.406-1.406 0.609-1.406-0.609-0.609-1.406 0.609-1.406 1.406-0.609zM12 8.016q-0.797 0-1.406-0.609t-0.609-1.406 0.609-1.406 1.406-0.609 1.406 0.609 0.609 1.406-0.609 1.406-1.406 0.609z"></path>
</symbol>
<symbol id="icon-refresh" viewBox="0 0 24 24">
<path d="M17.672 6.328l2.344-2.344v7.031h-7.031l3.234-3.234q-1.781-1.781-4.219-1.781-2.484 0-4.242 1.758t-1.758 4.242 1.758 4.242 4.242 1.758q1.734 0 3.398-1.172t2.273-2.813h2.063q-0.656 2.625-2.813 4.313t-4.922 1.688q-3.281 0-5.625-2.344t-2.344-5.672 2.344-5.672 5.625-2.344q1.406 0 3.070 0.68t2.602 1.664z"></path>
</symbol>
<symbol id="icon-unfold_less" viewBox="0 0 24 24">
<path d="M16.594 5.391l-4.594 4.594-4.594-4.594 1.406-1.406 3.188 3.188 3.188-3.188zM7.406 18.609l4.594-4.594 4.594 4.594-1.406 1.406-3.188-3.188-3.188 3.188z"></path>
</symbol>
<symbol id="icon-unfold_more" viewBox="0 0 24 24">
<path d="M12 18.188l3.188-3.188 1.406 1.406-4.594 4.594-4.594-4.594 1.406-1.406zM12 5.813l-3.188 3.188-1.406-1.406 4.594-4.594 4.594 4.594-1.406 1.406z"></path>
</symbol>
<symbol id="icon-arrow_left" viewBox="0 0 24 24">
<path d="M14.016 6.984v10.031l-5.016-5.016z"></path>
</symbol>
<symbol id="icon-arrow_right" viewBox="0 0 24 24">
<path d="M9.984 17.016v-10.031l5.016 5.016z"></path>
</symbol>
<symbol id="icon-priority_high" viewBox="0 0 24 24">
<path d="M9.984 3h4.031v12h-4.031v-12zM9.984 18.984q0-0.844 0.586-1.406t1.43-0.563 1.43 0.563 0.586 1.406-0.586 1.43-1.43 0.586-1.43-0.586-0.586-1.43z"></path>
</symbol>
<symbol id="icon-share" viewBox="0 0 24 24">
<path d="M18 16.078q1.219 0 2.063 0.867t0.844 2.039q0 1.219-0.867 2.086t-2.039 0.867-2.039-0.867-0.867-2.086q0-0.469 0.047-0.656l-7.078-4.125q-0.891 0.797-2.063 0.797-1.219 0-2.109-0.891t-0.891-2.109 0.891-2.109 2.109-0.891q1.172 0 2.063 0.797l7.031-4.078q-0.094-0.469-0.094-0.703 0-1.219 0.891-2.109t2.109-0.891 2.109 0.891 0.891 2.109-0.891 2.109-2.109 0.891q-1.125 0-2.063-0.844l-7.031 4.125q0.094 0.469 0.094 0.703t-0.094 0.703l7.125 4.125q0.844-0.75 1.969-0.75z"></path>
</symbol>
<symbol id="icon-aspect_ratio" viewBox="0 0 24 24">
<path d="M21 19.031v-14.063h-18v14.063h18zM21 3q0.797 0 1.406 0.609t0.609 1.406v13.969q0 0.797-0.609 1.406t-1.406 0.609h-18q-0.797 0-1.406-0.609t-0.609-1.406v-13.969q0-0.797 0.609-1.406t1.406-0.609h18zM6.984 9v3h-1.969v-5.016h4.969v2.016h-3zM18.984 12v5.016h-4.969v-2.016h3v-3h1.969z"></path>
</symbol>
<symbol id="icon-assignment" viewBox="0 0 24 24">
<path d="M17.016 9v-2.016h-10.031v2.016h10.031zM17.016 12.984v-1.969h-10.031v1.969h10.031zM14.016 17.016v-2.016h-7.031v2.016h7.031zM12 3q-0.422 0-0.703 0.281t-0.281 0.703 0.281 0.727 0.703 0.305 0.703-0.305 0.281-0.727-0.281-0.703-0.703-0.281zM18.984 3q0.797 0 1.406 0.609t0.609 1.406v13.969q0 0.797-0.609 1.406t-1.406 0.609h-13.969q-0.797 0-1.406-0.609t-0.609-1.406v-13.969q0-0.797 0.609-1.406t1.406-0.609h4.172q0.328-0.891 1.078-1.453t1.734-0.563 1.734 0.563 1.078 1.453h4.172z"></path>
</symbol>
<symbol id="icon-assignment_ind" viewBox="0 0 24 24">
<path d="M18 18.984v-1.406q0-1.359-2.063-2.227t-3.938-0.867-3.938 0.867-2.063 2.227v1.406h12zM12 6.984q-1.219 0-2.109 0.891t-0.891 2.109 0.891 2.109 2.109 0.891 2.109-0.891 0.891-2.109-0.891-2.109-2.109-0.891zM12 3q-0.422 0-0.703 0.281t-0.281 0.703 0.281 0.727 0.703 0.305 0.703-0.305 0.281-0.727-0.281-0.703-0.703-0.281zM18.984 3q0.797 0 1.406 0.609t0.609 1.406v13.969q0 0.797-0.609 1.406t-1.406 0.609h-13.969q-0.797 0-1.406-0.609t-0.609-1.406v-13.969q0-0.797 0.609-1.406t1.406-0.609h4.172q0.328-0.891 1.078-1.453t1.734-0.563 1.734 0.563 1.078 1.453h4.172z"></path>
</symbol>
<symbol id="icon-assignment_late" viewBox="0 0 24 24">
<path d="M12 5.016q0.422 0 0.703-0.305t0.281-0.727-0.281-0.703-0.703-0.281-0.703 0.281-0.281 0.703 0.281 0.727 0.703 0.305zM12.984 14.016v-6h-1.969v6h1.969zM12.984 18v-2.016h-1.969v2.016h1.969zM18.984 3q0.797 0 1.406 0.609t0.609 1.406v13.969q0 0.797-0.609 1.406t-1.406 0.609h-13.969q-0.797 0-1.406-0.609t-0.609-1.406v-13.969q0-0.797 0.609-1.406t1.406-0.609h4.172q0.328-0.891 1.078-1.453t1.734-0.563 1.734 0.563 1.078 1.453h4.172z"></path>
</symbol>
<symbol id="icon-check_circle" viewBox="0 0 24 24">
<path d="M9.984 17.016l9-9-1.406-1.453-7.594 7.594-3.563-3.563-1.406 1.406zM12 2.016q4.125 0 7.055 2.93t2.93 7.055-2.93 7.055-7.055 2.93-7.055-2.93-2.93-7.055 2.93-7.055 7.055-2.93z"></path>
</symbol>
<symbol id="icon-dashboard" viewBox="0 0 24 24">
<path d="M12.984 3h8.016v6h-8.016v-6zM12.984 21v-9.984h8.016v9.984h-8.016zM3 21v-6h8.016v6h-8.016zM3 12.984v-9.984h8.016v9.984h-8.016z"></path>
</symbol>
<symbol id="icon-delete" viewBox="0 0 24 24">
<path d="M18.984 3.984v2.016h-13.969v-2.016h3.469l1.031-0.984h4.969l1.031 0.984h3.469zM6 18.984v-12h12v12q0 0.797-0.609 1.406t-1.406 0.609h-7.969q-0.797 0-1.406-0.609t-0.609-1.406z"></path>
</symbol>
<symbol id="icon-description" viewBox="0 0 24 24">
<path d="M12.984 9h5.531l-5.531-5.484v5.484zM15.984 14.016v-2.016h-7.969v2.016h7.969zM15.984 18v-2.016h-7.969v2.016h7.969zM14.016 2.016l6 6v12q0 0.797-0.609 1.383t-1.406 0.586h-12q-0.797 0-1.406-0.586t-0.609-1.383l0.047-16.031q0-0.797 0.586-1.383t1.383-0.586h8.016z"></path>
</symbol>
<symbol id="icon-dns" viewBox="0 0 24 24">
<path d="M6.984 9q0.797 0 1.406-0.609t0.609-1.406-0.609-1.383-1.406-0.586-1.383 0.586-0.586 1.383 0.586 1.406 1.383 0.609zM20.016 3q0.422 0 0.703 0.281t0.281 0.703v6q0 0.422-0.281 0.727t-0.703 0.305h-16.031q-0.422 0-0.703-0.305t-0.281-0.727v-6q0-0.422 0.281-0.703t0.703-0.281h16.031zM6.984 18.984q0.797 0 1.406-0.586t0.609-1.383-0.609-1.406-1.406-0.609-1.383 0.609-0.586 1.406 0.586 1.383 1.383 0.586zM20.016 12.984q0.422 0 0.703 0.305t0.281 0.727v6q0 0.422-0.281 0.703t-0.703 0.281h-16.031q-0.422 0-0.703-0.281t-0.281-0.703v-6q0-0.422 0.281-0.727t0.703-0.305h16.031z"></path>
</symbol>
<symbol id="icon-done" viewBox="0 0 24 24">
<path d="M9 16.219l10.594-10.641 1.406 1.406-12 12-5.578-5.578 1.359-1.406z"></path>
</symbol>
<symbol id="icon-done_all" viewBox="0 0 24 24">
<path d="M0.422 13.406l1.406-1.406 5.578 5.578-1.406 1.406zM22.219 5.578l1.453 1.406-12 12-5.625-5.578 1.453-1.406 4.172 4.172zM18 6.984l-6.328 6.375-1.406-1.406 6.328-6.375z"></path>
</symbol>
<symbol id="icon-favorite" viewBox="0 0 24 24">
<path d="M12 21.328l-1.453-1.313q-2.484-2.25-3.609-3.328t-2.508-2.672-1.898-2.883-0.516-2.648q0-2.297 1.57-3.891t3.914-1.594q2.719 0 4.5 2.109 1.781-2.109 4.5-2.109 2.344 0 3.914 1.594t1.57 3.891q0 1.828-1.219 3.797t-2.648 3.422-4.664 4.359z"></path>
</symbol>
<symbol id="icon-favorite_outline" viewBox="0 0 24 24">
<path d="M12.094 18.563q2.25-2.016 3.328-3.047t2.344-2.438 1.758-2.484 0.492-2.109q0-1.5-1.008-2.484t-2.508-0.984q-1.172 0-2.18 0.656t-1.383 1.688h-1.875q-0.375-1.031-1.383-1.688t-2.18-0.656q-1.5 0-2.508 0.984t-1.008 2.484q0 1.031 0.492 2.109t1.758 2.484 2.344 2.438 3.328 3.047l0.094 0.094zM16.5 3q2.344 0 3.914 1.594t1.57 3.891q0 1.359-0.516 2.648t-1.898 2.883-2.508 2.672-3.609 3.328l-1.453 1.313-1.453-1.266q-3.234-2.906-4.664-4.359t-2.648-3.422-1.219-3.797q0-2.297 1.57-3.891t3.914-1.594q2.719 0 4.5 2.109 1.781-2.109 4.5-2.109z"></path>
</symbol>
<symbol id="icon-info1" viewBox="0 0 24 24">
<path d="M12.984 9v-2.016h-1.969v2.016h1.969zM12.984 17.016v-6h-1.969v6h1.969zM12 2.016q4.125 0 7.055 2.93t2.93 7.055-2.93 7.055-7.055 2.93-7.055-2.93-2.93-7.055 2.93-7.055 7.055-2.93z"></path>
</symbol>
<symbol id="icon-info_outline" viewBox="0 0 24 24">
<path d="M11.016 9v-2.016h1.969v2.016h-1.969zM12 20.016q3.281 0 5.648-2.367t2.367-5.648-2.367-5.648-5.648-2.367-5.648 2.367-2.367 5.648 2.367 5.648 5.648 2.367zM12 2.016q4.125 0 7.055 2.93t2.93 7.055-2.93 7.055-7.055 2.93-7.055-2.93-2.93-7.055 2.93-7.055 7.055-2.93zM11.016 17.016v-6h1.969v6h-1.969z"></path>
</symbol>
<symbol id="icon-list1" viewBox="0 0 24 24">
<path d="M6.984 6.984h14.016v2.016h-14.016v-2.016zM6.984 17.016v-2.016h14.016v2.016h-14.016zM6.984 12.984v-1.969h14.016v1.969h-14.016zM3 9v-2.016h2.016v2.016h-2.016zM3 17.016v-2.016h2.016v2.016h-2.016zM3 12.984v-1.969h2.016v1.969h-2.016z"></path>
</symbol>
<symbol id="icon-search" viewBox="0 0 24 24">
<path d="M9.516 14.016q1.875 0 3.188-1.313t1.313-3.188-1.313-3.188-3.188-1.313-3.188 1.313-1.313 3.188 1.313 3.188 3.188 1.313zM15.516 14.016l4.969 4.969-1.5 1.5-4.969-4.969v-0.797l-0.281-0.281q-1.781 1.547-4.219 1.547-2.719 0-4.617-1.875t-1.898-4.594 1.898-4.617 4.617-1.898 4.594 1.898 1.875 4.617q0 0.984-0.469 2.227t-1.078 1.992l0.281 0.281h0.797z"></path>
</symbol>
<symbol id="icon-settings" viewBox="0 0 24 24">
<path d="M12 15.516q1.453 0 2.484-1.031t1.031-2.484-1.031-2.484-2.484-1.031-2.484 1.031-1.031 2.484 1.031 2.484 2.484 1.031zM19.453 12.984l2.109 1.641q0.328 0.234 0.094 0.656l-2.016 3.469q-0.188 0.328-0.609 0.188l-2.484-0.984q-0.984 0.703-1.688 0.984l-0.375 2.625q-0.094 0.422-0.469 0.422h-4.031q-0.375 0-0.469-0.422l-0.375-2.625q-0.891-0.375-1.688-0.984l-2.484 0.984q-0.422 0.141-0.609-0.188l-2.016-3.469q-0.234-0.422 0.094-0.656l2.109-1.641q-0.047-0.328-0.047-0.984t0.047-0.984l-2.109-1.641q-0.328-0.234-0.094-0.656l2.016-3.469q0.188-0.328 0.609-0.188l2.484 0.984q0.984-0.703 1.688-0.984l0.375-2.625q0.094-0.422 0.469-0.422h4.031q0.375 0 0.469 0.422l0.375 2.625q0.891 0.375 1.688 0.984l2.484-0.984q0.422-0.141 0.609 0.188l2.016 3.469q0.234 0.422-0.094 0.656l-2.109 1.641q0.047 0.328 0.047 0.984t-0.047 0.984z"></path>
</symbol>
<symbol id="icon-view_list" viewBox="0 0 24 24">
<path d="M9 5.016h12v3.984h-12v-3.984zM9 18.984v-3.984h12v3.984h-12zM9 14.016v-4.031h12v4.031h-12zM3.984 9v-3.984h4.031v3.984h-4.031zM3.984 18.984v-3.984h4.031v3.984h-4.031zM3.984 14.016v-4.031h4.031v4.031h-4.031z"></path>
</symbol>
<symbol id="icon-text_rotate_up" viewBox="0 0 24 24">
<path d="M18 4.266l3 3h-2.016v12.469h-1.969v-12.469h-2.016zM9.984 14.625v-3.75l-5.016 1.875zM3 12l11.016-4.734v2.063l-2.203 0.938v4.969l2.203 0.938v2.063l-11.016-4.734v-1.5z"></path>
</symbol>
<symbol id="icon-text_rotate_vertical" viewBox="0 0 24 24">
<path d="M6 19.734l-3-3h2.016v-12.469h1.969v12.469h2.016zM13.125 12h3.75l-1.875-5.016zM15.75 5.016l4.734 10.969h-2.063l-0.938-2.203h-4.969l-0.938 2.203h-2.063l4.734-10.969h1.5z"></path>
</symbol>
<symbol id="icon-text_rotation_angledown" viewBox="0 0 24 24">
<path d="M14.25 21h-4.219l1.406-1.406-8.859-8.859 1.453-1.406 8.813 8.859 1.406-1.406v4.219zM12.609 8.016l2.625 2.625 2.203-4.875zM19.406 4.922l-4.453 11.109-1.453-1.453 0.891-2.203-3.516-3.563-2.203 0.938-1.453-1.5 11.109-4.406z"></path>
</symbol>
<symbol id="icon-text_rotation_angleup" viewBox="0 0 24 24">
<path d="M20.578 9.328v4.219l-1.406-1.406-8.859 8.859-1.406-1.406 8.813-8.859-1.406-1.406h4.266zM7.594 11.016l2.625-2.625-4.875-2.25zM4.5 4.219l11.109 4.406-1.453 1.5-2.203-0.938-3.563 3.563 0.938 2.156-1.5 1.5-4.406-11.156z"></path>
</symbol>
<symbol id="icon-text_rotation_down" viewBox="0 0 24 24">
<path d="M6 19.734l-3-3h2.016v-12.469h1.969v12.469h2.016zM14.016 9.375v3.75l5.016-1.875zM21 12l-11.016 4.734v-2.063l2.203-0.938v-4.969l-2.203-0.938v-2.063l11.016 4.734v1.5z"></path>
</symbol>
<symbol id="icon-text_rotation_none" viewBox="0 0 24 24">
<path d="M20.484 18l-3 3v-2.016h-12.469v-1.969h12.469v-2.016zM10.125 9.984h3.75l-1.875-5.016zM12.75 3l4.734 11.016h-2.063l-0.938-2.203h-4.969l-0.938 2.203h-2.063l4.734-11.016h1.5z"></path>
</symbol>
<symbol id="icon-edit_off" viewBox="0 0 24 24">
<path d="M2.016 5.016l1.969-2.016 16.031 15.984-2.016 2.016-5.625-5.625-5.625 5.625h-3.75v-3.75l5.625-5.625zM20.719 5.625q0.281 0.281 0.281 0.703 0 0.375-0.281 0.656l-1.828 1.875-3.75-3.75 1.828-1.828q0.281-0.281 0.703-0.281t0.703 0.281zM12.141 8.109l1.922-1.922 3.75 3.75-1.922 1.922z"></path>
</symbol>
<symbol id="icon-pivot_table_chart" viewBox="0 0 24 24">
<path d="M14.016 12.984l3.984-3.984 3.984 3.984h-3v1.594q0 1.828-1.289 3.117t-3.117 1.289h-1.594v3l-3.984-3.984 3.984-3.984v3h1.594q0.984 0 1.711-0.703t0.727-1.734v-1.594h-3zM5.016 21q-0.797 0-1.406-0.609t-0.609-1.406v-9h5.016v11.016h-3zM3 8.016v-3q0-0.797 0.609-1.406t1.406-0.609h3v5.016h-5.016zM9.984 8.016v-5.016h9q0.797 0 1.406 0.609t0.609 1.406v3h-11.016z"></path>
</symbol>
<symbol id="icon-tag1" viewBox="0 0 24 24">
<path d="M14.016 14.016v-4.031h-4.031v4.031h4.031zM20.016 9.984h-4.031v4.031h4.031v1.969h-4.031v4.031h-1.969v-4.031h-4.031v4.031h-1.969v-4.031h-4.031v-1.969h4.031v-4.031h-4.031v-1.969h4.031v-4.031h1.969v4.031h4.031v-4.031h1.969v4.031h4.031v1.969z"></path>
</symbol>
<symbol id="icon-backup_table" viewBox="0 0 24 24">
<path d="M20.016 6v14.016h-14.016v1.969h14.016q0.797 0 1.383-0.586t0.586-1.383v-14.016h-1.969zM15.984 2.016h-12q-0.797 0-1.383 0.586t-0.586 1.383v12q0 0.844 0.586 1.43t1.383 0.586h12q0.844 0 1.43-0.586t0.586-1.43v-12q0-0.797-0.586-1.383t-1.43-0.586zM9 15.984h-5.016v-4.969h5.016v4.969zM15.984 15.984h-4.969v-4.969h4.969v4.969zM15.984 9h-12v-5.016h12v5.016z"></path>
</symbol>
<symbol id="icon-construction" viewBox="0 0 24 24">
<path d="M13.781 15.188l2.109-2.156 6 6-2.109 2.156zM17.484 9.984q0.984 0 1.781-0.469t1.266-1.266 0.469-1.734q0-0.469-0.117-0.867t-0.305-0.727l-2.672 2.672-1.5-1.5 2.672-2.672q-0.328-0.188-0.727-0.305t-0.867-0.117q-0.938 0-1.734 0.469t-1.266 1.266-0.469 1.781q0 0.563 0.188 1.125l-1.828 1.875-1.781-1.781 0.703-0.703-1.406-1.406 2.109-2.156q-0.563-0.563-1.336-0.75t-1.547 0-1.336 0.75l-3.563 3.563 1.406 1.406h-2.813l-0.703 0.703 3.516 3.563 0.703-0.703v-2.859l1.453 1.406 0.703-0.703 1.781 1.781-7.406 7.406 2.109 2.109 11.391-11.344q0.563 0.188 1.125 0.188z"></path>
</symbol>
<symbol id="icon-ios_share" viewBox="0 0 24 24">
<path d="M15.984 5.016l-1.406 1.406-1.594-1.594v11.156h-1.969v-11.156l-1.594 1.594-1.406-1.406 3.984-4.031zM20.016 9.984v11.016q0 0.844-0.586 1.43t-1.43 0.586h-12q-0.844 0-1.43-0.586t-0.586-1.43v-11.016q0-0.797 0.586-1.383t1.43-0.586h3v1.969h-3v11.016h12v-11.016h-3v-1.969h3q0.844 0 1.43 0.586t0.586 1.383z"></path>
</symbol>
<symbol id="icon-search_off" viewBox="0 0 24 24">
<path d="M15.516 14.016h-0.797l-0.281-0.281q0.75-0.844 1.148-1.945t0.398-2.273q0-1.359-0.492-2.531t-1.383-2.063-2.086-1.406-2.508-0.516q-1.734 0-3.164 0.797t-2.32 2.156-0.984 3.047h2.016q0.094-1.125 0.727-2.039t1.594-1.43 2.133-0.516q1.219 0 2.25 0.609t1.641 1.617 0.609 2.273q0 1.219-0.609 2.25t-1.641 1.641-2.25 0.609q-0.141 0-0.258-0.023t-0.258-0.023v2.016h0.516q1.172 0 2.273-0.398t1.945-1.148l0.281 0.281v0.797l4.969 4.969 1.5-1.5zM6.469 10.828l-2.484 2.484-2.438-2.484-0.75 0.703 2.484 2.484-2.484 2.438 0.75 0.75 2.438-2.484 2.484 2.484 0.703-0.75-2.484-2.438 2.484-2.484z"></path>
</symbol>
<symbol id="icon-subscript" viewBox="0 0 24 24">
<path d="M21.984 18h-1.969v0.984h3v1.031h-4.031v-2.016q0-0.422 0.305-0.703t0.727-0.281h1.969v-1.031h-3v-0.984h3q0.422 0 0.727 0.305t0.305 0.68v1.031q0 0.375-0.305 0.68t-0.727 0.305zM5.859 18h2.672l3.422-5.438h0.094l3.422 5.438h2.672l-4.688-7.266 4.359-6.75h-2.672l-3.094 5.016h-0.094l-3.094-5.016h-2.672l4.313 6.75z"></path>
</symbol>
<symbol id="icon-superscript" viewBox="0 0 24 24">
<path d="M21.984 6.984h-1.969v1.031h3v0.984h-4.031v-2.016q0-0.375 0.305-0.68t0.727-0.305h1.969v-0.984h-3v-1.031h3q0.422 0 0.727 0.305t0.305 0.727v0.984q0 0.422-0.305 0.703t-0.727 0.281zM5.859 20.016h2.672l3.422-5.438h0.094l3.422 5.438h2.672l-4.688-7.266 4.359-6.75h-2.672l-3.094 4.969h-0.094l-3.094-4.969h-2.672l4.313 6.75z"></path>
</symbol>
<symbol id="icon-support" viewBox="0 0 24 24">
<path d="M12 2.016q-2.063 0-3.867 0.773t-3.188 2.156-2.156 3.188-0.773 3.867 0.773 3.867 2.156 3.188 3.188 2.156 3.867 0.773 3.867-0.773 3.188-2.156 2.156-3.188 0.773-3.867-0.773-3.867-2.156-3.188-3.188-2.156-3.867-0.773zM19.453 9.141l-2.766 1.125q-0.375-1.031-1.148-1.805t-1.805-1.148l1.125-2.766q1.594 0.609 2.789 1.805t1.805 2.789zM12 15q-0.844 0-1.523-0.398t-1.078-1.078-0.398-1.523 0.398-1.523 1.078-1.078 1.523-0.398 1.523 0.398 1.078 1.078 0.398 1.523-0.398 1.523-1.078 1.078-1.523 0.398zM9.141 4.547l1.172 2.766q-1.031 0.375-1.828 1.148t-1.172 1.852l-2.766-1.172q0.609-1.594 1.805-2.789t2.789-1.805zM4.547 14.859l2.766-1.125q0.375 1.031 1.148 1.805t1.852 1.148l-1.172 2.766q-1.594-0.609-2.789-1.805t-1.805-2.789zM14.859 19.453l-1.125-2.766q1.031-0.375 1.805-1.148t1.148-1.852l2.766 1.172q-0.609 1.594-1.805 2.789t-2.789 1.805z"></path>
</symbol>
<symbol id="icon-text_snippet" viewBox="0 0 24 24">
<path d="M20.391 8.391l-4.828-4.828q-0.563-0.563-1.406-0.563h-9.141q-0.844 0-1.43 0.586t-0.586 1.43v13.969q0 0.844 0.586 1.43t1.43 0.586h13.969q0.844 0 1.43-0.586t0.586-1.43v-9.141q0-0.844-0.609-1.453zM6.984 6.984h7.031v2.016h-7.031v-2.016zM17.016 17.016h-10.031v-2.016h10.031v2.016zM17.016 12.984h-10.031v-1.969h10.031v1.969z"></path>
</symbol>
<symbol id="icon-align_horizontal_center" viewBox="0 0 24 24">
<path d="M11.016 2.016h1.969v4.969h8.016v3h-8.016v4.031h5.016v3h-5.016v4.969h-1.969v-4.969h-5.016v-3h5.016v-4.031h-8.016v-3h8.016v-4.969z"></path>
</symbol>
<symbol id="icon-align_horizontal_left" viewBox="0 0 24 24">
<path d="M3.984 21.984h-1.969v-19.969h1.969v19.969zM21.984 6.984h-15.984v3h15.984v-3zM15.984 14.016h-9.984v3h9.984v-3z"></path>
</symbol>
<symbol id="icon-align_horizontal_right" viewBox="0 0 24 24">
<path d="M20.016 2.016h1.969v19.969h-1.969v-19.969zM2.016 9.984h15.984v-3h-15.984v3zM8.016 17.016h9.984v-3h-9.984v3z"></path>
</symbol>
<symbol id="icon-align_vertical_bottom" viewBox="0 0 24 24">
<path d="M21.984 21.984h-19.969v-1.969h19.969v1.969zM9.984 2.016h-3v15.984h3v-15.984zM17.016 8.016h-3v9.984h3v-9.984z"></path>
</symbol>
<symbol id="icon-align_vertical_center" viewBox="0 0 24 24">
<path d="M21.984 11.016h-4.969v-5.016h-3v5.016h-4.031v-8.016h-3v8.016h-5.156v1.969h5.156v8.016h3v-8.016h4.031v5.016h3v-5.016h4.969v-1.969z"></path>
</symbol>
<symbol id="icon-align_vertical_top" viewBox="0 0 24 24">
<path d="M21.984 2.016v1.969h-19.969v-1.969h19.969zM6.984 21.984h3v-15.984h-3v15.984zM14.016 15.984h3v-9.984h-3v9.984z"></path>
</symbol>
<symbol id="icon-horizontal_distribute" viewBox="0 0 24 24">
<path d="M3.984 21.984h-1.969v-19.969h1.969v19.969zM21.984 2.016h-1.969v19.969h1.969v-19.969zM13.5 6.984h-3v10.031h3v-10.031z"></path>
</symbol>
<symbol id="icon-qr_code_2" viewBox="0 0 24 24">
<path d="M15 21h-2.016v-2.016h2.016v2.016zM12.984 14.016h-1.969v4.969h1.969v-4.969zM21 12h-2.016v3.984h2.016v-3.984zM18.984 9.984h-1.969v2.016h1.969v-2.016zM6.984 12h-1.969v2.016h1.969v-2.016zM5.016 9.984h-2.016v2.016h2.016v-2.016zM12 5.016h2.016v-2.016h-2.016v2.016zM4.5 4.5v3h3v-3h-3zM9 9h-6v-6h6v6zM4.5 16.5v3h3v-3h-3zM9 21h-6v-6h6v6zM16.5 4.5v3h3v-3h-3zM21 9h-6v-6h6v6zM18.984 18.984v-3h-3.984v2.016h2.016v3h3.984v-2.016h-2.016zM17.016 12h-4.031v2.016h4.031v-2.016zM12.984 9.984h-6v2.016h2.016v2.016h2.016v-2.016h1.969v-2.016zM14.016 9v-2.016h-2.016v-1.969h-2.016v3.984h4.031zM6.75 5.25h-1.5v1.5h1.5v-1.5zM6.75 17.25h-1.5v1.5h1.5v-1.5zM18.75 5.25h-1.5v1.5h1.5v-1.5z"></path>
</symbol>
<symbol id="icon-update_disabled" viewBox="0 0 24 24">
<path d="M8.672 5.859l-1.453-1.453q1.031-0.656 2.25-1.031t2.531-0.375q2.063 0 3.844 0.867t3 2.273l2.156-2.156v6h-6l2.391-2.391q-0.938-1.172-2.344-1.875t-3.047-0.703q-0.891 0-1.734 0.211t-1.594 0.633zM12.984 6.984h-1.969v1.172l1.969 2.016v-3.188zM19.781 22.594l-3-3q-1.031 0.656-2.25 1.031t-2.531 0.375q-1.875 0-3.492-0.703t-2.859-1.945-1.945-2.859-0.703-3.492q0-1.313 0.375-2.531t1.031-2.25l-3-3 1.406-1.406 18.375 18.375zM15.328 18.141l-9.469-9.469q-0.422 0.75-0.633 1.594t-0.211 1.734q0 1.453 0.539 2.719t1.5 2.227 2.227 1.5 2.719 0.539q0.891 0 1.734-0.211t1.594-0.633zM20.953 12.984h-2.016q-0.188 1.219-0.797 2.344l1.5 1.453q0.516-0.844 0.844-1.805t0.469-1.992z"></path>
</symbol>
<symbol id="icon-vertical_distribute" viewBox="0 0 24 24">
<path d="M21.984 2.016v1.969h-19.969v-1.969h19.969zM6.984 10.5v3h10.031v-3h-10.031zM2.016 20.016v1.969h19.969v-1.969h-19.969z"></path>
</symbol>
<symbol id="icon-markdown" viewBox="0 0 32 32">
<path d="M29.692 25.847h-27.384c-1.274 0-2.307-1.033-2.307-2.307v0-15.080c0-1.274 1.033-2.307 2.307-2.307h27.384c1.274 0 2.307 1.033 2.307 2.307v15.077c0 0.001 0 0.002 0 0.003 0 1.274-1.033 2.307-2.307 2.307 0 0 0 0 0 0v0zM7.692 21.231v-6l3.077 3.847 3.076-3.847v6h3.077v-10.46h-3.077l-3.076 3.847-3.077-3.847h-3.077v10.463zM28.308 16h-3.077v-5.231h-3.076v5.231h-3.077l4.615 5.385z"></path>
</symbol>
</defs>
</svg>
