<svg xmlns="http://www.w3.org/2000/svg">
  <defs>
    <symbol viewBox="0 0 24 24" id="icon-pin">
      <path d="M14.707 2.293l-1.414 1.414 1.096 1.096-6.2 4.972-1.482-1.482-1.414 1.414 3.8 3.8L3 19.6V21h1.4l6.092-6.094 3.801 3.801 1.414-1.414-1.396-1.397 4.904-6.267 1.078 1.078 1.414-1.414-7-7zm1.092 3.943l1.98 1.98-4.802 6.143-3.252-3.252 6.074-4.87z"/>
    </symbol>
    <symbol viewBox="0 0 24 24" id="icon-unpin">
      <path d="M3.707 2.293L2.293 3.707l6.08 6.08-1.19.983-1.476-1.477-1.414 1.414 3.8 3.8L3 19.6V21h1.4l5.092-5.094 3.801 3.801 1.414-1.414-1.389-1.389.97-1.203 6.005 6.006 1.414-1.414-6.158-6.158.01-.012-1.422-1.422-.01.012-2.78-2.78.01-.01-1.421-1.421-.01.01-6.219-6.219zm11 0l-1.414 1.414 1.113 1.113-2.92 2.405 1.422 1.421 2.906-2.394 1.948 1.945-2.366 2.938 1.424 1.424 2.375-2.95 1.098 1.098 1.414-1.414-7-7zm-4.912 8.916l3.07 3.07-.965 1.2-3.293-3.293 1.188-.977z"/>
    </symbol>
  </defs>
</svg>