<svg xmlns="http://www.w3.org/2000/svg">
  <defs>
    <symbol viewBox="0 0 24 24" id="icon-pin">
      <path d="M14.707 2.293l-1.414 1.414 1.096 1.096-6.2 4.972-1.482-1.482-1.414 1.414 3.8 3.8L3 19.6V21h1.4l6.092-6.094 3.801 3.801 1.414-1.414-1.396-1.397 4.904-6.267 1.078 1.078 1.414-1.414-7-7zm1.092 3.943l1.98 1.98-4.802 6.143-3.252-3.252 6.074-4.87z"/>
    </symbol>
    <symbol viewBox="0 0 24 24" id="icon-pin-2">
      <path d="M14.49 2.49a1 1 0 00-.697 1.717l.596.596-6.2 4.972-.982-.982a1 1 0 00-.717-.303 1 1 0 00-.697 1.717l3.3 3.3-5.804 5.804a.99.99 0 101.4 1.4l5.803-5.805 3.301 3.301a1 1 0 101.414-1.414l-.896-.897 4.904-6.267.578.578a1 1 0 101.414-1.414l-6-6a1 1 0 00-.717-.303z"/>
    </symbol>
    <symbol viewBox="0 0 24 24" id="icon-pin-3">
      <path d="M15.8 6.2l2 2-4.8 6.2-3.3-3.3 6.1-4.9m.1-2.6L6.7 11l6.4 6.4 7.3-9.3-4.5-4.5z"/>
      <path d="M13.2 17.4l-6.5-6.5 9.2-7.3 4.5 4.5z" opacity=".3"/>
      <path d="M3 19.6l6.7-6.7 1.4 1.4L4.4 21H3z"/>
      <path d="M5.267 9.682l1.415-1.415 8.98 8.98-1.414 1.415zM13.257 3.672l1.414-1.415 7.001 7-1.414 1.415z"/>
    </symbol>
    <symbol viewBox="0 0 24 24" id="icon-pin-4">
      <path d="M14.707 2.293l-1.414 1.414 1.096 1.096-6.2 4.972-1.482-1.482-1.414 1.414 3.8 3.8L3 19.6V21h1.4l6.092-6.094 3.801 3.801 1.414-1.414-1.396-1.397 4.904-6.267 1.078 1.078 1.414-1.414-7-7z"/>
    </symbol>
    <symbol viewBox="0 0 32 32" id="icon-pin-5">
      <path d="M20.531 2.563l-.687.937-4.907 6.688c-2.628-.458-5.41.285-7.437 2.312l-.719.688 5.313 5.312L4 26.594V28h1.406l8.094-8.094 5.313 5.313.687-.719c2.027-2.027 2.77-4.809 2.313-7.438l6.687-4.906.938-.687zm.25 3.062l5.594 5.594-6.219 4.562-.562.406.187.657c.48 1.832-.043 3.742-1.187 5.343l-8.782-8.78c1.602-1.145 3.512-1.669 5.344-1.188l.656.187.407-.562z"/>
    </symbol>
    <symbol viewBox="0 0 64 64" id="icon-pin-6">
      <path d="M40.064 7.477a5.541 5.541 0 00-3.93 1.625 5.519 5.519 0 00-1.626 3.93c0 1.249.412 2.433 1.168 3.404l-8.24 6.246a12.089 12.089 0 00-8.43-.854 4.903 4.903 0 00-3.514 3.504 4.971 4.971 0 001.293 4.863l6.44 6.44-14.64 15.95a2.01 2.01 0 000 2.708 2.002 2.002 0 002.83.121l15.952-14.637 6.438 6.436a4.957 4.957 0 003.523 1.473c.443 0 .895-.06 1.34-.178a4.905 4.905 0 003.504-3.514c.75-2.838.428-5.836-.854-8.431l6.245-8.239a5.544 5.544 0 003.404 1.168 5.54 5.54 0 003.931-1.627 5.519 5.519 0 001.627-3.93c0-1.484-.577-2.88-1.627-3.93L43.994 9.103a5.538 5.538 0 00-3.93-1.625zm0 3.998c.4 0 .799.151 1.102.455L52.07 22.834c.294.294.455.685.455 1.102 0 .416-.162.808-.457 1.103a1.561 1.561 0 01-2.203 0l-1.127-1.127-.006.006c-.063-.064-.125-.13-.199-.186a1.997 1.997 0 00-2.8.385L37.34 35.19c-.012.017-.02.035-.031.051-.04.055-.071.113-.104.17-.033.058-.067.116-.094.176-.026.06-.045.121-.066.184-.02.059-.04.117-.055.177-.015.066-.022.134-.031.201-.007.06-.017.117-.02.176-.002.07.004.14.008.211.004.06.007.12.016.178.01.06.026.118.04.178.018.067.034.134.058.199.02.055.048.108.074.162.031.066.062.132.101.195.01.016.016.032.026.047a8.081 8.081 0 011.043 6.48.927.927 0 01-.682.67 1.008 1.008 0 01-.99-.26L19.615 27.368a1.012 1.012 0 01-.261-.992.93.93 0 01.671-.68 8.08 8.08 0 016.48 1.043c.045.029.092.046.138.07.047.027.093.053.142.075.098.044.198.078.299.105.032.009.063.02.096.028.182.04.365.05.549.039.081-.005.162-.012.244-.028.039-.007.076-.017.115-.027a1.984 1.984 0 00.535-.223c.05-.03.1-.059.148-.093.013-.01.027-.016.04-.026l11.072-8.39a2.001 2.001 0 00.385-2.803c-.056-.074-.12-.136-.184-.2l.006-.005-1.127-1.125a1.552 1.552 0 01-.455-1.104 1.553 1.553 0 011.557-1.557z"/>
    </symbol>
    <symbol viewBox="0 0 24 24" id="icon-pin-7">
      <path d="M14.707 2.293l-1.414 1.414 1.096 1.096-6.2 4.972-1.482-1.482-1.414 1.414 3.8 3.8L3 19.6V21h1.4l6.092-6.094 3.801 3.801 1.414-1.414-1.396-1.397 4.904-6.267 1.078 1.078 1.414-1.414-7-7z"/>
    </symbol>
    <symbol viewBox="0 0 50 50" id="icon-pin-8">
      <path d="M31.7 6.063a2.591 2.591 0 00-1.838 4.424l1.023 1.023-9.46 7.166a8.75 8.75 0 00-7.72-.608c-1.479.59-2.21 2.687-.81 4.086l6.777 6.778L7.39 41.79a.578.578 0 00.818.818L21.07 30.33l6.776 6.777c1.266 1.266 3.428.836 4.086-.812a8.735 8.735 0 00-.61-7.72l7.168-9.458 1.024 1.024a2.594 2.594 0 003.675-.008 2.599 2.599 0 00-.007-3.658L33.527 6.82a2.59 2.59 0 00-1.828-.758z"/>
    </symbol>
    <symbol viewBox="0 0 64 64" id="icon-pin3">
      <path d="M40 7.467c-1.417 0-2.835.54-3.914 1.619-1.727 1.727-2.067 4.319-1.03 6.393L29.042 23.9c-2.324-.177-7.613-.263-11.416 2.204-.839.544-1.379 1.397-1.479 2.343a2.917 2.917 0 00.848 2.375l6.031 6.032-14.44 15.732a2.01 2.01 0 000 2.707 2.002 2.002 0 002.83.121l15.733-14.437 6.028 6.027c.558.558 1.4.905 2.17.865.95-.05 2.006-.653 2.55-1.492 2.468-3.804 2.382-9.094 2.204-11.418l8.441-6.03c1.913.945 4.458.9 6.373-1.015a5.542 5.542 0 000-7.828l-11-11A5.519 5.519 0 0040 7.466zm0 3.998c.393 0 .786.15 1.086.45l11 11a1.537 1.537 0 010 2.17c-.6.6-1.572.6-2.172 0-.009-.008-.02-.014-.03-.023a1.962 1.962 0 00-.185-.152c-.04-.03-.079-.065-.12-.092-.063-.04-.129-.069-.194-.101-.055-.027-.108-.058-.164-.08-.053-.02-.108-.031-.162-.047-.069-.02-.136-.042-.205-.055-.067-.012-.134-.014-.202-.02-.058-.004-.117-.014-.175-.013-.07 0-.14.011-.21.02-.059.006-.118.01-.177.023-.059.012-.115.033-.172.05-.068.021-.135.04-.201.067-.053.023-.102.055-.153.082-.065.035-.131.067-.193.11-.01.007-.022.011-.033.019l-10.5 7.5c-.033.024-.059.053-.09.078a1.988 1.988 0 00-.389.416 2.004 2.004 0 00-.279.59l-.017.064a1.99 1.99 0 00-.057.344l-.002.024c-.01.152-.003.304.023.455.204 1.476.376 5.22-.668 8.158a.504.504 0 01-.832.197L21.295 29.467c-.253-.253-.172-.695.164-.817 3.412-1.239 7.652-.743 8.105-.685.452.11.902.04 1.3-.16l.034-.018a2.047 2.047 0 00.66-.545c.023-.028.05-.05.07-.08l7.5-10.5c.01-.013.016-.026.024-.039.037-.054.063-.112.094-.168.031-.057.067-.113.092-.172.03-.07.047-.141.068-.213.016-.053.038-.105.05-.16.012-.062.016-.125.023-.187.007-.067.018-.134.019-.202 0-.056-.007-.113-.012-.17-.005-.07-.009-.14-.021-.208-.012-.066-.034-.13-.053-.194-.016-.057-.027-.114-.049-.17-.022-.056-.053-.109-.08-.164-.032-.065-.062-.131-.101-.193-.024-.038-.056-.071-.082-.108a1.97 1.97 0 00-.168-.205c-.007-.007-.01-.016-.018-.023A1.537 1.537 0 0140 11.465z"/>
    </symbol>
  </defs>
</svg>